%
T1C.012F095S3
X014213Y018622
X013661Y019252
X014055Y019803
X013425Y02
X014646Y020079
X01315Y020433
X01378Y020551
X014488Y020669
X012835Y020906
X013661Y021024
X012598Y021339
X012638Y021969
X014606Y025433
X012913Y027087
X013661Y027126
X013268Y028465
X014213Y028465
X013976Y029567
X014646Y03063
X014882Y031654
X016811Y034055
X017008Y033268
X017008Y032874
X017008Y03248
X016142Y032323
X016732Y031772
X017047Y030906
X017244Y028386
X016102Y028268
X01685Y02685
X01622Y02685
X01685Y025984
X01622Y025984
X015276Y025945
X016102Y021181
X015394Y020984
X016181Y019724
X01685Y018858
X015945Y018386
X01685Y017362
X01689Y015472
X020039Y012677
X019016Y013189
X019567Y013228
X018386Y013543
X018858Y013858
X017835Y014173
X019921Y014488
X018937Y015197
X01878Y015591
X019685Y016063
X019055Y016063
X019843Y016772
X019961Y01752
X019921Y017913
X018031Y01811
X019213Y018268
X019961Y019016
X018976Y019055
X017677Y019134
X018346Y019606
X02Y019961
X018307Y020157
X018937Y020236
X017874Y020354
X018425Y021024
X01874Y021378
X019882Y021535
X019173Y021732
X017874Y022677
X02Y024213
X018346Y024252
X018307Y025354
X018346Y026811
X017598Y02685
X018504Y028425
X018228Y030787
X018543Y031063
X018386Y03248
X018386Y032874
X018386Y033268
X017835Y034528
X018937Y034567
X018661Y035236
X022283Y034488
X021496Y031417
X021575Y030866
X02185Y030551
X021299Y030551
X02185Y029803
X021142Y029291
X021181Y028937
X020827Y028386
X021378Y028386
X022008Y028386
X022323Y026457
X020433Y025551
X022441Y023898
X021969Y023071
X020984Y022913
X020236Y022874
X021575Y022756
X022402Y022717
X020236Y021969
X021142Y02063
X021654Y020551
X020157Y019449
X020551Y019094
X021378Y017913
X021378Y017047
X02126Y01437
X022087Y014173
X022008Y013268
X02185Y012323
X023465Y013976
X024094Y014055
X023858Y017441
X024646Y018661
X023543Y019055
X024173Y023504
X024882Y023583
X025079Y024016
X023898Y024252
X02437Y025
X024843Y025315
X024724Y025787
X02315Y026496
X02315Y027087
X02378Y027165
X024921Y027205
X022835Y028425
X023386Y028898
X024921Y029252
X024567Y029764
X024094Y030984
X022913Y031181
X024252Y031575
X024803Y033071
X024488Y033071
X024803Y03378
X024488Y03378
X023937Y036535
X027362Y035276
X026063Y035236
X026063Y034961
X027362Y034961
X026063Y034685
X027362Y034685
X026181Y033937
X025236Y031654
X026535Y031142
X025748Y030945
X02622Y030551
X025827Y029488
X025236Y029094
X027244Y02878
X025551Y02874
X026654Y027913
X027205Y027402
X025354Y027165
X025669Y025512
X025354Y025
X026575Y024921
X026614Y02437
X025669Y023937
X026693Y022992
X025866Y021496
X026142Y02122
X025394Y021024
X026732Y019291
X02748Y01874
X026102Y017795
X025118Y017795
X026063Y017244
X026929Y015906
X026457Y014409
X025236Y013976
X025591Y013504
X028898Y01311
X028701Y014173
X027953Y014567
X028543Y015906
X027913Y015906
X029646Y016496
X027913Y016575
X028031Y018543
X027756Y018976
X027795Y019449
X027795Y020472
X027835Y020866
X028307Y02122
X027835Y02126
X02811Y022913
X028307Y023268
X028346Y023622
X028031Y023898
X029016Y024173
X028701Y024331
X028346Y024331
X028071Y025669
X028701Y025945
X027953Y026063
X030079Y027126
X028228Y027126
X028622Y027402
X029528Y027835
X028701Y027953
X029291Y02811
X029567Y02878
X029567Y029528
X02815Y029646
X027835Y030079
X02815Y030354
X028898Y030433
X028898Y030906
X028071Y031024
X029764Y031063
X028898Y031378
X028031Y031575
X029724Y031772
X028898Y031811
X028031Y032126
X029173Y032244
X028504Y032874
X029016Y033425
X029173Y035
X029331Y036339
X031457Y034331
X031063Y032283
X030512Y031811
X03122Y031772
X030276Y031063
X031339Y030669
X030709Y030315
X031339Y030157
X031929Y029252
X031102Y02815
X030709Y02811
X031102Y027913
X030787Y027677
X030709Y026299
X031102Y026299
X031102Y026063
X030591Y025709
X030787Y025394
X030748Y025039
X031417Y023937
X030512Y023701
X032165Y021969
X03252Y019646
X031299Y019567
X030197Y018937
X030787Y017126
X031102Y015669
X031575Y014843
X030394Y014173
X030551Y012992
X032992Y014843
X034055Y01563
X035Y016535
X033701Y016811
X035039Y018307
X035039Y020236
X032795Y020551
X032913Y022717
X035079Y022756
X032638Y024291
X032835Y025039
X032835Y025787
X034409Y026181
X034843Y026929
X033701Y027008
X034843Y027402
X032638Y027598
X034764Y028268
X033386Y028543
X034409Y028858
X034528Y030354
X034016Y030709
X035Y031181
X035039Y031575
X033701Y03185
X032992Y03189
X033701Y032087
X034449Y032992
X034961Y03311
X035157Y032205
X036142Y029685
X036969Y029449
X035157Y028858
X037244Y028465
X036732Y027677
X037441Y027283
X03689Y02626
X035157Y02626
X036063Y025236
X03685Y025039
X036102Y02374
X036772Y023504
X035709Y022598
X035984Y022323
X036654Y019961
X036811Y019331
X036339Y018228
X035866Y017126
X038071Y023465
X038189Y025157
T2C.035F197S55
X019173Y023228
X019173Y024016
X019173Y024803
X019173Y025591
X019646Y027283
X027085Y03659
X026298Y03659
X025511Y03659
X020433Y027283
X02122Y027283
X022008Y027283
X027873Y03659
T3C.0378F197S55
X01315Y022795
X01315Y025795
T4C.06299F089S55
X024568Y012617
X02127Y035466
T5C.06299F089S55
X026108Y012657
X01973Y035426
X027608Y012746
M30
