*
*
G04 PADS 9.5 Build Number: 522968 generated Gerber (RS-274-X) file*
G04 PC Version=2.1*
*
%IN "alarm03.pcb"*%
*
%MOIN*%
*
%FSLAX35Y35*%
*
*
*
*
G04 PC Standard Apertures*
*
*
G04 Thermal Relief Aperture macro.*
%AMTER*
1,1,$1,0,0*
1,0,$1-$2,0,0*
21,0,$3,$4,0,0,45*
21,0,$3,$4,0,0,135*
%
*
*
G04 Annular Aperture macro.*
%AMANN*
1,1,$1,0,0*
1,0,$2,0,0*
%
*
*
G04 Odd Aperture macro.*
%AMODD*
1,1,$1,0,0*
1,0,$1-0.005,0,0*
%
*
*
G04 PC Custom Aperture Macros*
*
*
*
*
*
*
G04 PC Aperture Table*
*
%ADD035C,0.01*%
%ADD037C,0.005*%
%ADD038C,0.006*%
%ADD075C,0.001*%
*
*
*
*
G04 PC Circuitry*
G04 Layer Name alarm03.pcb - circuitry*
%LPD*%
*
*
G04 PC Custom Flashes*
G04 Layer Name alarm03.pcb - flashes*
%LPD*%
*
*
G04 PC Circuitry*
G04 Layer Name alarm03.pcb - circuitry*
%LPD*%
*
G54D35*
G01X231299Y363780D02*
X229749D01*
Y363091*
X229306*
Y363780*
X227756*
Y352756*
X231299*
Y363780*
X251515Y341750D02*
X242480D01*
Y358250*
X251515*
X264815Y341750D02*
X273315D01*
Y358250*
X264815*
X262906Y358142D02*
X253906D01*
X259906Y361142D02*
Y355142D01*
X256906Y358142*
X259906Y361142*
X256906D02*
Y355142D01*
X241815Y341700D02*
X241015D01*
Y358300*
X241815*
Y341700*
X274921Y148246D02*
Y157246D01*
X283921*
Y148246*
X274921Y143246D02*
Y135746D01*
X276421Y134246*
X282421*
X283921Y135746*
Y143246*
X264685Y148246D02*
Y157246D01*
X273685*
Y148246*
X264685Y143246D02*
Y135746D01*
X266185Y134246*
X272185*
X273685Y135746*
Y143246*
X386220Y244094D02*
G75*
G03X386220I-133858J0D01*
G01X351358D02*
G03X351358I-5905J0D01*
G01X165177D02*
G03X165177I-5905J0D01*
G54D37*
G01X185002Y212574D02*
X181721D01*
X185002D02*
Y213597D01*
X184846Y213937*
X184690Y214051*
X184377Y214165*
X184065*
X183752Y214051*
X183596Y213937*
X183440Y213597*
Y212574*
Y213369D02*
X181721Y214165D01*
X184377Y215187D02*
X184534Y215415D01*
X185002Y215756*
X181721*
X185002Y218369D02*
X181721Y217233D01*
X185002Y216778D02*
Y218369D01*
X201144Y212574D02*
X197863D01*
X201144D02*
Y213597D01*
X200988Y213937*
X200832Y214051*
X200519Y214165*
X200207*
X199894Y214051*
X199738Y213937*
X199582Y213597*
Y212574*
Y213369D02*
X197863Y214165D01*
X200519Y215187D02*
X200675Y215415D01*
X201144Y215756*
X197863*
X201144Y217347D02*
X200988Y217006D01*
X200675Y216892*
X200363*
X200050Y217006*
X199894Y217233*
X199738Y217687*
X199582Y218028*
X199269Y218256*
X198957Y218369*
X198488*
X198175Y218256*
X198019Y218142*
X197863Y217801*
Y217347*
X198019Y217006*
X198175Y216892*
X198488Y216778*
X198957*
X199269Y216892*
X199582Y217119*
X199738Y217460*
X199894Y217915*
X200050Y218142*
X200363Y218256*
X200675*
X200988Y218142*
X201144Y217801*
Y217347*
X340307Y308568D02*
Y305287D01*
Y308568D02*
X339285D01*
X338944Y308412*
X338830Y308255*
X338716Y307943*
Y307630*
X338830Y307318*
X338944Y307162*
X339285Y307005*
X340307*
X339512D02*
X338716Y305287D01*
X336557Y308568D02*
X337694Y306380D01*
X335989*
X336557Y308568D02*
Y305287D01*
X334739Y308568D02*
X333489D01*
X334171Y307318*
X333830*
X333603Y307162*
X333489Y307005*
X333376Y306537*
Y306224*
X333489Y305755*
X333716Y305443*
X334057Y305287*
X334398*
X334739Y305443*
X334853Y305599*
X334966Y305912*
X350881Y297211D02*
X353225D01*
X353693Y297098*
X354006Y296871*
X354162Y296530*
Y296302*
X354006Y295961*
X353693Y295734*
X353225Y295621*
X350881*
Y293007D02*
X354162Y294143D01*
X350881Y294598D02*
Y293007D01*
X350207Y313292D02*
Y310011D01*
Y313292D02*
X349184D01*
X348843Y313136*
X348729Y312980*
X348616Y312667*
Y312355*
X348729Y312042*
X348843Y311886*
X349184Y311730*
X350207*
X349411D02*
X348616Y310011D01*
X346457Y313292D02*
X347593Y311105D01*
X345889*
X346457Y313292D02*
Y310011D01*
X343389Y313292D02*
X344525D01*
X344639Y311886*
X344525Y312042*
X344184Y312199*
X343843*
X343502Y312042*
X343275Y311730*
X343161Y311261*
X343275Y310949*
X343389Y310480*
X343616Y310167*
X343957Y310011*
X344298*
X344639Y310167*
X344752Y310324*
X344866Y310636*
X266842Y244987D02*
X267154Y244874D01*
X267467Y244647*
X267623Y244419*
Y243965*
X267467Y243737*
X267154Y243510*
X266842Y243397*
X266373Y243283*
X265592*
X265123Y243397*
X264811Y243510*
X264498Y243737*
X264342Y243965*
Y244419*
X264498Y244647*
X264811Y244874*
X265123Y244987*
X267623Y247601D02*
X264342Y246465D01*
X267623Y246010D02*
Y247601D01*
X249558Y258968D02*
X249671Y259280D01*
X249898Y259593*
X250126Y259749*
X250580*
X250808Y259593*
X251035Y259280*
X251148Y258968*
X251262Y258499*
Y257718*
X251148Y257249*
X251035Y256937*
X250808Y256624*
X250580Y256468*
X250126*
X249898Y256624*
X249671Y256937*
X249558Y257249*
X247398Y259749D02*
X248535Y257562D01*
X246830*
X247398Y259749D02*
Y256468D01*
X226747Y368467D02*
Y366123D01*
X226747D02*
X226634Y365655D01*
X226407Y365342*
X226066Y365186*
X225838*
X225497Y365342*
X225497D02*
X225270Y365655D01*
X225157Y366123*
Y368467*
X222657D02*
X223793D01*
X223907Y367061*
X223793Y367217*
X223452Y367373*
X223111*
X222770Y367217*
X222543Y366905*
X222429Y366436*
X222543Y366123*
X222657Y365655*
X222884Y365342*
X223225Y365186*
X223566*
X223907Y365342*
X224020Y365498*
X224134Y365811*
X250958Y140858D02*
X251071Y141170D01*
X251299Y141483*
X251526Y141639*
X251981*
X252208Y141483*
X252435Y141170*
X252549Y140858*
X252662Y140389*
Y139608*
X252549Y139139*
X252435Y138826*
X252208Y138514*
X251981Y138358*
X251526*
X251299Y138514*
X251071Y138826*
X250958Y139139*
X249935Y141014D02*
X249708Y141170D01*
X249367Y141639*
Y138358*
X225441Y300750D02*
Y297469D01*
Y300750D02*
X224418D01*
X224077Y300594*
X223963Y300438*
X223850Y300125*
Y299813*
X223963Y299500*
X224077Y299344*
X224418Y299188*
X225441*
X224645D02*
X223850Y297469D01*
X221691Y300750D02*
X222827Y298563D01*
X221122*
X221691Y300750D02*
Y297469D01*
X218509Y300750D02*
X219645Y297469D01*
X220100Y300750D02*
X218509D01*
X225441Y296420D02*
Y293139D01*
Y296420D02*
X224418D01*
X224077Y296264*
X223963Y296107*
X223850Y295795*
Y295482*
X223963Y295170*
X224077Y295014*
X224418Y294857*
X225441*
X224645D02*
X223850Y293139D01*
X221691Y296420D02*
X222827Y294232D01*
X221122*
X221691Y296420D02*
Y293139D01*
X219532Y296420D02*
X219872Y296264D01*
X219986Y295951*
Y295639*
X219872Y295326*
X219645Y295170*
X219191Y295014*
X218850Y294857*
X218622Y294545*
X218509Y294232*
Y293764*
X218622Y293451*
X218736Y293295*
X219077Y293139*
X219532*
X219872Y293295*
X219986Y293451*
X220100Y293764*
Y294232*
X219986Y294545*
X219759Y294857*
X219418Y295014*
X218963Y295170*
X218736Y295326*
X218622Y295639*
Y295951*
X218736Y296264*
X219077Y296420*
X219532*
X251148Y249513D02*
Y246232D01*
Y249513D02*
X250126D01*
X249785Y249357*
X249671Y249200*
X249558Y248888*
Y248575*
X249671Y248263*
X249785Y248107*
X250126Y247950*
X251148*
X250353D02*
X249558Y246232D01*
X248308Y249513D02*
X247058D01*
X247739Y248263*
X247398*
X247171Y248107*
X247058Y247950*
X246944Y247482*
Y247169*
X247058Y246700*
X247285Y246388*
X247626Y246232*
X247967*
X248308Y246388*
X248421Y246544*
X248535Y246857*
X290141Y293431D02*
X290254Y293744D01*
X290481Y294056*
X290709Y294212*
X291163*
X291391Y294056*
X291391D02*
X291618Y293744D01*
X291731Y293431*
X291845Y292962*
Y292181*
X291731Y291712*
X291618Y291400*
X291391Y291087*
X291391D02*
X291163Y290931D01*
X290709*
X290481Y291087*
X290254Y291400*
X290141Y291712*
X287981Y294212D02*
X289118Y292025D01*
X287413*
X287981Y294212D02*
Y290931D01*
X286163Y294212D02*
X284913D01*
X285595Y292962*
X285254*
X285027Y292806*
X284913Y292650*
X284800Y292181*
Y291869*
X284913Y291400*
X285141Y291087*
X285141D02*
X285481Y290931D01*
X285822*
X286163Y291087*
X286277Y291244*
X286391Y291556*
X291673Y289238D02*
Y285957D01*
Y289238D02*
X290651D01*
X290310Y289082*
X290196Y288925*
X290083Y288613*
Y288300*
X290196Y287988*
X290310Y287832*
X290651Y287675*
X291673*
X290878D02*
X290083Y285957D01*
X287696Y288769D02*
X287810Y289082D01*
X288151Y289238*
X288378*
X288719Y289082*
X288946Y288613*
X289060Y287832*
Y287050*
X288946Y286425*
X288719Y286113*
X288378Y285957*
X288264*
X287923Y286113*
X287696Y286425*
X287583Y286894*
Y287050*
X287696Y287519*
X287923Y287832*
X288264Y287988*
X288378*
X288719Y287832*
X288946Y287519*
X289060Y287050*
X284969Y289238D02*
X286105Y285957D01*
X286560Y289238D02*
X284969D01*
X239283Y239813D02*
X239595Y239699D01*
X239908Y239472*
X240064Y239244*
Y238790*
X239908Y238563*
X239595Y238335*
X239283Y238222*
X238814Y238108*
X238033*
X237564Y238222*
X237251Y238335*
X236939Y238563*
X236783Y238790*
Y239244*
X236939Y239472*
X237251Y239699*
X237564Y239813*
X240064Y242313D02*
Y241176D01*
X238658Y241063*
X238814Y241176*
X238970Y241517*
Y241858*
X238814Y242199*
X238501Y242426*
X238033Y242540*
X237720Y242426*
X237251Y242313*
X236939Y242085*
X236783Y241744*
Y241403*
X236939Y241063*
X237095Y240949*
X237408Y240835*
X262117Y254887D02*
X262430Y254773D01*
X262742Y254546*
X262899Y254319*
Y253864*
X262742Y253637*
X262430Y253410*
X262117Y253296*
X261649Y253182*
X260867*
X260399Y253296*
X260086Y253410*
X259774Y253637*
X259617Y253864*
Y254319*
X259774Y254546*
X260086Y254773*
X260399Y254887*
X262430Y257273D02*
X262742Y257160D01*
X262899Y256819*
Y256591*
X262742Y256250*
X262274Y256023*
X261492Y255910*
X260711*
X260086Y256023*
X259774Y256250*
X259617Y256591*
Y256705*
X259774Y257046*
X260086Y257273*
X260555Y257387*
X260711*
X261180Y257273*
X261492Y257046*
X261649Y256705*
Y256591*
X261492Y256250*
X261180Y256023*
X260711Y255910*
G54D38*
X181843Y225266D02*
Y228831D01*
X185874*
Y225266*
X181843Y222766D02*
Y219200D01*
X185874*
Y222766*
X197197Y225266D02*
Y228831D01*
X201228*
Y225266*
X197197Y222766D02*
Y219200D01*
X201228*
Y222766*
X344858Y305081D02*
X341292D01*
Y309112*
X344858*
X347358Y305081D02*
X350923D01*
Y309112*
X347358*
X366509Y297771D02*
Y286143D01*
X366357Y297818D02*
X355157D01*
X366357Y286143D02*
X355157D01*
Y297818D02*
Y293702D01*
Y286221D02*
Y290356D01*
X355244Y290390D02*
G03Y293619I0J1615D01*
G01X358302Y295474D02*
G03X358302I-612J0D01*
G01X357122Y313763D02*
X360688D01*
Y309731*
X357122*
X354622Y313763D02*
X351056D01*
Y309731*
X354622*
X267999Y236445D02*
Y232879D01*
X263968*
Y236445*
X267999Y238945D02*
Y242510D01*
X263968*
Y238945*
X240089Y255858D02*
X236523D01*
Y259890*
X240089*
X242589Y255858D02*
X246154D01*
Y259890*
X242589*
X259518Y141780D02*
X263083D01*
Y137748*
X259518*
X257018Y141780D02*
X253452D01*
Y137748*
X257018*
X229852Y297197D02*
X226287D01*
Y301228*
X229852*
X232352Y297197D02*
X235918D01*
Y301228*
X232352*
Y296504D02*
X235918D01*
Y292472*
X232352*
X229852Y296504D02*
X226287D01*
Y292472*
X229852*
X261024Y281299D02*
X255118D01*
Y284252*
X251181*
Y281299*
X245276*
Y301378*
X261024*
Y281299*
X252825Y231890D02*
X256496D01*
Y227953*
X252825*
X250325Y231890D02*
X246654D01*
Y227953*
X250325*
X247569Y241291D02*
X244003D01*
Y245323*
X247569*
X250069Y241291D02*
X253635D01*
Y245323*
X250069*
X263386Y231427D02*
Y227756D01*
X259449*
Y231427*
X263386Y233927D02*
Y237598D01*
X259449*
Y233927*
X277810Y290659D02*
X274244D01*
Y294690*
X277810*
X280310Y290659D02*
X283875D01*
Y294690*
X280310*
X280289Y289772D02*
X283855D01*
Y285741*
X280289*
X277789Y289772D02*
X274223D01*
Y285741*
X277789*
X240598Y231427D02*
Y227861D01*
X236567*
Y231427*
X240598Y233927D02*
Y237493D01*
X236567*
Y233927*
X263732Y256368D02*
Y259934D01*
X267764*
Y256368*
X263732Y253868D02*
Y250302D01*
X267764*
Y253868*
X239346Y345632D02*
Y342351D01*
Y345632D02*
X238550D01*
X238210Y345476*
X237982Y345164*
X237869Y344851*
X237755Y344382*
Y343601*
X237869Y343132*
X237982Y342820*
X238210Y342507*
X238550Y342351*
X239346*
X235255Y345632D02*
X236391D01*
X236505Y344226*
X236391Y344382*
X236050Y344539*
X235710*
X235369Y344382*
X235141Y344070*
X235028Y343601*
X235141Y343289*
X235255Y342820*
X235482Y342507*
X235823Y342351*
X236164*
X236505Y342507*
X236619Y342664*
X236732Y342976*
X254764Y306581D02*
Y302643D01*
X252855Y306581D02*
X254764Y303956D01*
X254082Y304893D02*
X252855Y302643D01*
X251491Y305643D02*
Y305831D01*
X251355Y306206*
X251219Y306393*
X250946Y306581*
X250400*
X250128Y306393*
X249991Y306206*
X249855Y305831*
Y305456*
X249991Y305081*
X250264Y304518*
X251628Y302643*
X249719*
X254704Y236521D02*
Y233239D01*
Y236521D02*
X253227D01*
X254704Y234958D02*
X253795D01*
X252204Y236521D02*
Y233239D01*
Y236521D02*
X251181D01*
X250840Y236364*
X250727Y236208*
X250613Y235896*
Y235583*
X250727Y235271*
X250840Y235114*
X251181Y234958*
X252204D02*
X251181D01*
X250840Y234802*
X250727Y234646*
X250613Y234333*
Y233864*
X250727Y233552*
X250840Y233396*
X251181Y233239*
X252204*
X248227Y236052D02*
X248340Y236364D01*
X248681Y236521*
X248908*
X249249Y236364*
X249477Y235896*
X249590Y235114*
Y234333*
X249477Y233708*
X249249Y233396*
X248908Y233239*
X248795*
X248454Y233396*
X248227Y233708*
X248113Y234177*
Y234333*
X248227Y234802*
X248454Y235114*
X248795Y235271*
X248908*
X249249Y235114*
X249477Y234802*
X249590Y234333*
X262899Y238490D02*
X259617D01*
X262899D02*
Y239967D01*
X261336Y238490D02*
Y239399D01*
X262899Y240990D02*
X259617D01*
X262899D02*
Y242012D01*
X262742Y242353*
X262586Y242467*
X262274Y242581*
X261961*
X261649Y242467*
X261492Y242353*
X261336Y242012*
Y240990D02*
Y242012D01*
X261180Y242353*
X261024Y242467*
X260711Y242581*
X260242*
X259930Y242467*
X259774Y242353*
X259617Y242012*
Y240990*
X262899Y245081D02*
Y243944D01*
X261492Y243831*
X261649Y243944*
X261805Y244285*
Y244626*
X261649Y244967*
X261336Y245194*
X260867Y245308*
X260555Y245194*
X260086Y245081*
X259774Y244853*
X259617Y244512*
Y244171*
X259774Y243831*
X259930Y243717*
X260242Y243603*
X280361Y161059D02*
X280736Y160922D01*
X281111Y160650*
X281298Y160377*
Y159831*
X281111Y159559*
X280736Y159286*
X280361Y159150*
X279798Y159013*
X278861*
X278298Y159150*
X277923Y159286*
X277548Y159559*
X277361Y159831*
Y160377*
X277548Y160650*
X277923Y160922*
X278298Y161059*
X281298Y163650D02*
X278673Y162286D01*
Y164331*
X281298Y163650D02*
X277361D01*
X281298Y166377D02*
X281111Y165968D01*
X280548Y165695*
X279611Y165559*
X279048*
X278111Y165695*
X277548Y165968*
X277361Y166377*
Y166650*
X277548Y167059*
X278111Y167331*
X279048Y167468*
X279611*
X280548Y167331*
X281111Y167059*
X281298Y166650*
Y166377*
X270043Y160998D02*
X270418Y160862D01*
X270793Y160589*
X270980Y160316*
Y159771*
X270793Y159498*
X270418Y159225*
X270043Y159089*
X269480Y158952*
X268543*
X267980Y159089*
X267605Y159225*
X267230Y159498*
X267043Y159771*
Y160316*
X267230Y160589*
X267605Y160862*
X267980Y160998*
X270043Y162362D02*
X270230D01*
X270605Y162498*
X270793Y162634*
X270980Y162907*
Y163452*
X270793Y163725*
X270605Y163862*
X270230Y163998*
X269855*
X269480Y163862*
X268918Y163589*
X267043Y162225*
Y164134*
G54D75*
G74*
X0Y0D02*
M02*
