*
*
G04 PADS 9.5 Build Number: 522968 generated Gerber (RS-274-X) file*
G04 PC Version=2.1*
*
%IN "alarm03.pcb"*%
*
%MOIN*%
*
%FSLAX35Y35*%
*
*
*
*
G04 PC Standard Apertures*
*
*
G04 Thermal Relief Aperture macro.*
%AMTER*
1,1,$1,0,0*
1,0,$1-$2,0,0*
21,0,$3,$4,0,0,45*
21,0,$3,$4,0,0,135*
%
*
*
G04 Annular Aperture macro.*
%AMANN*
1,1,$1,0,0*
1,0,$2,0,0*
%
*
*
G04 Odd Aperture macro.*
%AMODD*
1,1,$1,0,0*
1,0,$1-0.005,0,0*
%
*
*
G04 PC Custom Aperture Macros*
*
*
*
*
*
*
G04 PC Aperture Table*
*
%ADD015C,0.07*%
%ADD033R,0.046X0.046*%
%ADD075C,0.001*%
%ADD088C,0.08087*%
%ADD136R,0.02575X0.04937*%
%ADD137R,0.11X0.11*%
%ADD138C,0.11*%
%ADD139R,0.035X0.03*%
%ADD140R,0.03362X0.03756*%
%ADD141O,0.02102X0.0807*%
%ADD142O,0.0807X0.02102*%
%ADD143O,0.07693X0.022*%
%ADD144R,0.03X0.035*%
%ADD145R,0.05331X0.15567*%
%ADD146R,0.08X0.06*%
%ADD147R,0.06X0.046*%
%ADD148R,0.09661X0.135*%
%ADD149R,0.06118X0.07299*%
%ADD150R,0.046X0.06*%
%ADD151O,0.07X0.023*%
%ADD152R,0.06X0.08*%
%ADD153O,0.02299X0.07693*%
%ADD154R,0.08087X0.05331*%
%ADD155R,0.08874X0.1478*%
%ADD156R,0.16748X0.16748*%
%ADD157R,0.04543X0.0415*%
%ADD158R,0.05724X0.02772*%
%ADD159R,0.06512X0.02378*%
%ADD160O,0.06512X0.02378*%
%ADD161R,0.05724X0.05724*%
%ADD162R,0.05921X0.0474*%
*
*
*
*
G04 PC Circuitry*
G04 Layer Name alarm03.pcb - circuitry*
%LPD*%
*
*
G04 PC Custom Flashes*
G04 Layer Name alarm03.pcb - flashes*
%LPD*%
*
*
G04 PC Circuitry*
G04 Layer Name alarm03.pcb - circuitry*
%LPD*%
*
G54D15*
G01X278729Y365896D03*
X270855D03*
X262981D03*
X255107D03*
X231303Y279720D03*
X302785Y182837D03*
X333516Y264644D03*
X327070Y235576D03*
X196137Y151909D03*
X161417Y329528D03*
X191732Y255906D03*
Y248031D03*
Y240157D03*
Y232283D03*
X272038Y279537D03*
X195669Y138583D03*
X196457Y272835D03*
X204331D03*
X212205D03*
X220079D03*
G54D33*
X265396Y185346D03*
Y177846D03*
X262411Y158624D03*
X254911D03*
X343270Y214360D03*
Y221860D03*
X369413Y218802D03*
X361913D03*
X332077Y332714D03*
X339577D03*
X310622Y334421D03*
Y326921D03*
G54D75*
G54D88*
X131496Y227953D03*
Y257953D03*
G54D136*
X335236Y314764D03*
X332677D03*
X330118D03*
Y306496D03*
X332677D03*
X335236D03*
G54D137*
X212703Y354656D03*
X245683Y126171D03*
X276079Y127465D03*
G54D138*
X197303Y354256D03*
X261083Y126571D03*
G54D139*
X299075Y292520D03*
X304075D03*
X299075Y287795D03*
X304075D03*
X299075Y278346D03*
X304075D03*
Y283071D03*
X299075D03*
X306949Y270472D03*
X311949D03*
X319154Y281102D03*
X324154D03*
X227303Y123228D03*
X222303D03*
X232421Y118504D03*
X227421D03*
X287870Y216119D03*
X282870D03*
X259939Y165192D03*
X254939D03*
X271398Y166929D03*
X266398D03*
X208524Y334252D03*
X213524D03*
X167461Y312992D03*
X162461D03*
X157224Y282677D03*
X152224D03*
X255768Y143701D03*
X260768D03*
X236083Y154331D03*
X241083D03*
X257343Y190551D03*
X262343D03*
X271398Y171654D03*
X266398D03*
X206323Y314322D03*
X211323D03*
X208130Y326772D03*
X213130D03*
X319154Y285827D03*
X324154D03*
X262343Y204724D03*
X257343D03*
X262343Y200000D03*
X257343D03*
X266861Y209500D03*
X271861D03*
X362854Y225984D03*
X367854D03*
X220217Y241732D03*
X215217D03*
X356566Y280434D03*
X351566D03*
X356566Y267442D03*
X351566D03*
X356566Y271773D03*
X351566D03*
Y276104D03*
X356566D03*
X373366Y242520D03*
X368366D03*
X373366Y247244D03*
X368366D03*
X362854Y231102D03*
X367854D03*
X156831Y222047D03*
X151831D03*
X136486Y214963D03*
X131486D03*
X156769Y263875D03*
X151769D03*
X292264Y144882D03*
X287264D03*
X341201Y321260D03*
X346201D03*
Y316535D03*
X341201D03*
X346201Y311811D03*
X341201D03*
X346201Y325984D03*
X341201D03*
X333996Y197638D03*
X328996D03*
X346594Y183071D03*
X341594D03*
Y187795D03*
X346594D03*
X341594Y178346D03*
X346594D03*
X330059Y345276D03*
X325059D03*
X335571Y325984D03*
X330571D03*
X313130Y141732D03*
X308130D03*
X325335Y140945D03*
X320335D03*
X308130Y137008D03*
X313130D03*
X304075Y175984D03*
X299075D03*
X304075Y171260D03*
X299075D03*
X257343Y195276D03*
X262343D03*
X246594Y201969D03*
X241594D03*
X220728Y209843D03*
X225728D03*
X220728Y205512D03*
X225728D03*
X220217Y246063D03*
X215217D03*
X208406Y179134D03*
X203406D03*
G54D140*
X142458Y263875D03*
X146789D03*
X142520Y222047D03*
X146850D03*
X205906Y246063D03*
X210236D03*
X205906Y241732D03*
X210236D03*
G54D141*
X237598Y222244D03*
X239567D03*
X241535D03*
X243504D03*
X245472D03*
X247441D03*
X249409D03*
X251378D03*
X253346D03*
X255315D03*
X257283D03*
X259252D03*
X261220D03*
X263189D03*
X265157D03*
X267126D03*
Y265944D03*
X265157D03*
X263189D03*
X261220D03*
X259252D03*
X257283D03*
X255315D03*
X253346D03*
X251378D03*
X249409D03*
X247441D03*
X245472D03*
X243504D03*
X241535D03*
X239567D03*
X237598D03*
G54D142*
X274212Y229330D03*
Y231299D03*
Y233267D03*
Y235236D03*
Y237204D03*
Y239173D03*
Y241141D03*
Y243110D03*
Y245078D03*
Y247047D03*
Y249015D03*
Y250984D03*
Y252952D03*
Y254921D03*
Y256889D03*
Y258858D03*
X230512D03*
Y256889D03*
Y254921D03*
Y252952D03*
Y250984D03*
Y249015D03*
Y247047D03*
Y245078D03*
Y243110D03*
Y241141D03*
Y239173D03*
Y237204D03*
Y235236D03*
Y233267D03*
Y231299D03*
Y229330D03*
G54D143*
X298425Y265650D03*
Y263091D03*
Y260531D03*
Y257972D03*
Y255413D03*
Y252854D03*
Y250295D03*
Y247736D03*
X322835D03*
Y250295D03*
Y252854D03*
Y255413D03*
Y257972D03*
Y260531D03*
Y263091D03*
Y265650D03*
G54D144*
X301969Y198169D03*
Y193169D03*
X252362Y335571D03*
Y330571D03*
X271260D03*
Y335571D03*
X266535Y330571D03*
Y335571D03*
X257087D03*
Y330571D03*
X261811Y335571D03*
Y330571D03*
X252362Y324941D03*
Y319941D03*
X257087Y324941D03*
Y319941D03*
X266535D03*
Y324941D03*
X261811Y319941D03*
Y324941D03*
X271260D03*
Y319941D03*
X168898Y305650D03*
Y300650D03*
X236220Y144350D03*
Y149350D03*
X350000Y221004D03*
Y216004D03*
X347277Y298366D03*
Y293366D03*
X303937Y303287D03*
Y298287D03*
X354724Y221004D03*
Y216004D03*
X318479Y306503D03*
Y311503D03*
X323991Y306503D03*
Y311503D03*
X342116Y303359D03*
Y298359D03*
X301803Y155057D03*
Y150057D03*
X297191Y139831D03*
Y144831D03*
X226772Y195807D03*
Y190807D03*
X231496Y195807D03*
Y190807D03*
X331890Y154980D03*
Y159980D03*
X325197Y339114D03*
Y334114D03*
X321654Y228484D03*
Y223484D03*
X316535Y228484D03*
Y223484D03*
X304724Y333996D03*
Y328996D03*
X300000D03*
Y333996D03*
X299213Y303287D03*
Y298287D03*
X278740Y177303D03*
Y172303D03*
X287208Y255966D03*
Y250966D03*
X252362Y196201D03*
Y191201D03*
X240945Y144350D03*
Y149350D03*
X238583Y166004D03*
Y171004D03*
X222047Y195807D03*
Y190807D03*
X212205Y156831D03*
Y151831D03*
X200000Y208406D03*
Y203406D03*
X195669D03*
Y208406D03*
G54D145*
X295669Y199213D03*
X283858D03*
X232968Y175559D03*
X221157D03*
X331102Y183465D03*
X319291D03*
G54D146*
X309937Y213780D03*
X297937D03*
X226866Y131102D03*
X214866D03*
X333953Y205512D03*
X321953D03*
X291039Y152756D03*
X279039D03*
G54D147*
X273396Y181596D03*
X335270Y218110D03*
X318622Y330671D03*
G54D148*
X177165Y328740D03*
X196063D03*
X301583Y350500D03*
X282685D03*
G54D149*
X162503Y290216D03*
Y306357D03*
X152267D03*
Y290216D03*
G54D150*
X258661Y150624D03*
X365663Y210802D03*
X335827Y340714D03*
G54D151*
X176378Y310733D03*
Y308173D03*
Y305613D03*
Y303053D03*
Y300493D03*
Y297933D03*
Y295373D03*
Y292813D03*
Y290253D03*
Y287693D03*
X206299D03*
Y290253D03*
Y292813D03*
Y295373D03*
Y297933D03*
Y300493D03*
Y303053D03*
Y305613D03*
Y308173D03*
Y310733D03*
G54D152*
X310236Y202063D03*
Y190063D03*
X311024Y150299D03*
Y162299D03*
X246063Y166047D03*
Y178047D03*
G54D153*
X223720Y141535D03*
X226280D03*
X228839D03*
X231398D03*
Y160039D03*
X228839D03*
X226280D03*
X223720D03*
X318996Y148622D03*
X321555D03*
X324114D03*
X326673D03*
Y167126D03*
X324114D03*
X321555D03*
X318996D03*
X285531Y164764D03*
X288091D03*
X290650D03*
X293209D03*
Y183268D03*
X290650D03*
X288091D03*
X285531D03*
G54D154*
X232677Y202362D03*
Y212205D03*
G54D155*
X178254Y151477D03*
G54D156*
X172348Y214863D03*
G54D157*
X240178Y190940D03*
X246595D03*
Y195782D03*
X240178D03*
G54D158*
X298031Y229724D03*
Y225984D03*
Y222244D03*
X309055D03*
Y229724D03*
G54D159*
X333465Y290650D03*
G54D160*
Y293209D03*
Y295768D03*
Y298327D03*
X309843D03*
Y295768D03*
Y293209D03*
Y290650D03*
G54D161*
X211417Y200394D03*
Y211417D03*
G54D162*
X221260Y334646D03*
Y326772D03*
X239961D03*
Y334646D03*
X0Y0D02*
M02*
