*
*
G04 PADS 9.5 Build Number: 522968 generated Gerber (RS-274-X) file*
G04 PC Version=2.1*
*
%IN "alarm03.pcb"*%
*
%MOIN*%
*
%FSLAX35Y35*%
*
*
*
*
G04 PC Standard Apertures*
*
*
G04 Thermal Relief Aperture macro.*
%AMTER*
1,1,$1,0,0*
1,0,$1-$2,0,0*
21,0,$3,$4,0,0,45*
21,0,$3,$4,0,0,135*
%
*
*
G04 Annular Aperture macro.*
%AMANN*
1,1,$1,0,0*
1,0,$2,0,0*
%
*
*
G04 Odd Aperture macro.*
%AMODD*
1,1,$1,0,0*
1,0,$1-0.005,0,0*
%
*
*
G04 PC Custom Aperture Macros*
*
*
*
*
*
*
G04 PC Aperture Table*
*
%ADD015C,0.07*%
%ADD075C,0.001*%
%ADD088C,0.08087*%
%ADD138C,0.11*%
%ADD139R,0.035X0.03*%
%ADD143O,0.07693X0.022*%
%ADD144R,0.03X0.035*%
%ADD148R,0.09661X0.135*%
%ADD152R,0.06X0.08*%
%ADD166R,0.02378X0.06512*%
%ADD167O,0.02378X0.06512*%
%ADD168R,0.05724X0.03362*%
*
*
*
*
G04 PC Circuitry*
G04 Layer Name alarm03.pcb - circuitry*
%LPD*%
*
*
G04 PC Custom Flashes*
G04 Layer Name alarm03.pcb - flashes*
%LPD*%
*
*
G04 PC Circuitry*
G04 Layer Name alarm03.pcb - circuitry*
%LPD*%
*
G54D15*
G01X278729Y365896D03*
X270855D03*
X262981D03*
X255107D03*
X191732Y255906D03*
Y248031D03*
Y240157D03*
Y232283D03*
X196457Y272835D03*
X204331D03*
X212205D03*
X220079D03*
G54D75*
G54D88*
X131496Y227953D03*
Y257953D03*
G54D138*
X212703Y354656D03*
X197303Y354256D03*
X245683Y126171D03*
X261083Y126571D03*
X276079Y127465D03*
G54D139*
X343608Y307096D03*
X348608D03*
X358372Y311747D03*
X353372D03*
X238839Y257874D03*
X243839D03*
X260768Y139764D03*
X255768D03*
X228602Y299213D03*
X233602D03*
Y294488D03*
X228602D03*
X254075Y229921D03*
X249075D03*
X246319Y243307D03*
X251319D03*
X276560Y292674D03*
X281560D03*
X281539Y287757D03*
X276539D03*
G54D143*
X240945Y282382D03*
Y284941D03*
Y287500D03*
Y290059D03*
Y292618D03*
Y295177D03*
Y297736D03*
Y300295D03*
X265354D03*
Y297736D03*
Y295177D03*
Y292618D03*
Y290059D03*
Y287500D03*
Y284941D03*
Y282382D03*
G54D144*
X183858Y226516D03*
Y221516D03*
X199213Y226516D03*
Y221516D03*
X265983Y235195D03*
Y240195D03*
X261417Y230177D03*
Y235177D03*
X238583Y230177D03*
Y235177D03*
X265748Y257618D03*
Y252618D03*
G54D148*
X267323Y349606D03*
X248425D03*
G54D152*
X279421Y139746D03*
Y151746D03*
X269185Y139746D03*
Y151746D03*
G54D166*
X357057Y303971D03*
G54D167*
X359616D03*
X362175D03*
X364735D03*
Y280349D03*
X362175D03*
X359616D03*
X357057D03*
G54D168*
X234055Y362008D03*
Y358268D03*
Y354528D03*
X225000D03*
Y358268D03*
Y362008D03*
X0Y0D02*
M02*
