*
*
G04 PADS 9.5 Build Number: 522968 generated Gerber (RS-274-X) file*
G04 PC Version=2.1*
*
%IN "alarm03.pcb"*%
*
%MOIN*%
*
%FSLAX35Y35*%
*
*
*
*
G04 PC Standard Apertures*
*
*
G04 Thermal Relief Aperture macro.*
%AMTER*
1,1,$1,0,0*
1,0,$1-$2,0,0*
21,0,$3,$4,0,0,45*
21,0,$3,$4,0,0,135*
%
*
*
G04 Annular Aperture macro.*
%AMANN*
1,1,$1,0,0*
1,0,$2,0,0*
%
*
*
G04 Odd Aperture macro.*
%AMODD*
1,1,$1,0,0*
1,0,$1-0.005,0,0*
%
*
*
G04 PC Custom Aperture Macros*
*
*
*
*
*
*
G04 PC Aperture Table*
*
%ADD017C,0.024*%
%ADD035C,0.01*%
%ADD039C,0.012*%
%ADD040C,0.015*%
%ADD041C,0.025*%
%ADD042C,0.06*%
%ADD045C,0.03*%
%ADD046C,0.02*%
%ADD060C,0.07087*%
%ADD070C,0.008*%
%ADD075C,0.001*%
%ADD107C,0.1*%
%ADD108R,0.025X0.02*%
%ADD112O,0.06693X0.012*%
%ADD113R,0.02X0.025*%
%ADD117R,0.08661X0.125*%
%ADD121R,0.05X0.07*%
%ADD132C,0.016*%
%ADD133R,0.01378X0.05512*%
%ADD134O,0.01378X0.05512*%
%ADD135R,0.04724X0.02362*%
*
*
*
*
G04 PC Circuitry*
G04 Layer Name alarm03.pcb - circuitry*
%LPD*%
*
*
G04 PC Custom Flashes*
G04 Layer Name alarm03.pcb - flashes*
%LPD*%
*
*
G04 PC Circuitry*
G04 Layer Name alarm03.pcb - circuitry*
%LPD*%
*
G54D17*
G01X218504Y123228D03*
X168898Y154724D03*
X187795Y155906D03*
X190551Y160630D03*
X188583Y138583D03*
X183858Y135433D03*
X178346Y141732D03*
X190157Y131890D03*
X189370Y151969D03*
X212598Y143701D03*
X220079Y132677D03*
X220866Y141732D03*
X196850Y160630D03*
X200394Y126772D03*
X195669Y132283D03*
X199213Y144882D03*
X264567Y144094D03*
X255906Y135039D03*
X269291Y159055D03*
X252362Y139764D03*
X234646D03*
X240945Y140551D03*
X288976Y131102D03*
X305512Y129921D03*
X287008Y141732D03*
X303937D03*
X311024Y156693D03*
X285433Y159055D03*
X279528Y145669D03*
X279134Y159055D03*
X340551Y156299D03*
X329921Y148425D03*
X315748D03*
X142126Y186220D03*
X136614Y192520D03*
X140551Y198031D03*
X146457Y200787D03*
X134252Y200000D03*
X189370Y202362D03*
X189764Y190551D03*
X176772Y191339D03*
X178740Y203543D03*
X183071Y201575D03*
X192126Y182677D03*
X159449Y183858D03*
X168504Y173622D03*
X180315Y181102D03*
X183465Y196063D03*
X168504Y188583D03*
X161811Y197244D03*
X213780Y170472D03*
Y179134D03*
X200000Y199606D03*
X199213Y179134D03*
X198425Y167717D03*
X199606Y175197D03*
Y190157D03*
X201575Y194488D03*
X205512Y190945D03*
X260630Y172441D03*
X261024Y177953D03*
X267323Y192913D03*
X251181Y177953D03*
X238583Y174409D03*
X235433Y190551D03*
X246457Y186614D03*
X279134Y165748D03*
X274803Y187402D03*
X280315Y185433D03*
X277559Y189764D03*
X277953Y194488D03*
X301969Y189370D03*
X307874Y171260D03*
X296457Y164961D03*
X350394Y202362D03*
X337008Y168110D03*
X350000Y165354D03*
X350394Y183071D03*
X325197Y196457D03*
X312992Y195669D03*
X366535Y199606D03*
X358661Y171260D03*
X363386Y182283D03*
X368110Y193307D03*
X144882Y206693D03*
X137795Y205512D03*
X131496Y204331D03*
X128346Y209055D03*
X125984Y213386D03*
X136614Y210236D03*
X126378Y219685D03*
X178740Y226772D03*
X184252Y210236D03*
X191732Y217323D03*
X187402Y213780D03*
X161024Y211811D03*
X153937Y209843D03*
X224409Y238976D03*
X211417Y206299D03*
X224016Y227165D03*
X198819Y215354D03*
X200000Y242126D03*
X215748Y227559D03*
X202362Y219685D03*
Y228740D03*
X209843Y229134D03*
X216535Y205512D03*
X219685Y230709D03*
X261417Y212205D03*
X253937Y210236D03*
X238976Y242520D03*
X248819Y235827D03*
X266929Y229921D03*
X256693Y239370D03*
X258661Y214961D03*
X241732Y235039D03*
X250787Y240157D03*
X266142Y243701D03*
X280315Y238976D03*
X290157Y241732D03*
X282677Y243307D03*
X283465Y236220D03*
X283071Y232677D03*
X278346Y212598D03*
Y208661D03*
X277953Y204724D03*
X305118Y237008D03*
X283071Y212205D03*
X281102Y229134D03*
X326378Y242913D03*
X314173Y239370D03*
X335433Y233465D03*
X350787Y227559D03*
X321654Y219685D03*
X327953Y205512D03*
X359843Y223228D03*
X377953Y228346D03*
X356693Y231890D03*
X357087Y225984D03*
X380709Y234646D03*
X367717Y235039D03*
X361024Y237402D03*
X136614Y271260D03*
X129134Y270866D03*
X146063Y254331D03*
X161024Y282677D03*
X172441Y283858D03*
X162205Y268504D03*
X175984D03*
X168504D03*
X183465Y268110D03*
X152756Y259449D03*
X162205Y259843D03*
X168504D03*
X224409Y282677D03*
X208268Y283858D03*
X213780D03*
X220079D03*
X198819Y259055D03*
Y251969D03*
X204331Y255512D03*
X231496Y270866D03*
Y264961D03*
X223228Y264567D03*
X253543Y271654D03*
X271654Y274016D03*
X249213Y272047D03*
X266535Y279134D03*
X268504Y255118D03*
X237795Y271654D03*
X250787Y260236D03*
X243701Y250000D03*
X248425Y253150D03*
X247244Y257874D03*
X265748Y249213D03*
X282283Y281102D03*
Y274803D03*
X287795Y281890D03*
X279528Y265748D03*
X285433Y246063D03*
X287795Y277953D03*
X282677Y271260D03*
X307480Y250394D03*
X307874Y254331D03*
X307087Y262992D03*
X311024Y281496D03*
Y279134D03*
Y260630D03*
Y262992D03*
X305512Y278346D03*
X291732Y280709D03*
Y271260D03*
X301181D03*
X303937Y256693D03*
X287795Y259449D03*
X279921Y256693D03*
X328346Y250394D03*
X327559Y277559D03*
X328346Y257874D03*
X348031Y275984D03*
X348425Y283071D03*
Y269291D03*
X337008Y270079D03*
X344094Y261811D03*
X351575Y262598D03*
X381890Y259449D03*
Y251575D03*
X368898Y262598D03*
X368504Y250394D03*
X360630Y252362D03*
X368504Y277953D03*
X374409Y272835D03*
X132677Y284646D03*
X142126D03*
X139764Y295669D03*
X148819Y316535D03*
X146457Y306299D03*
X185433Y310630D03*
X167323Y290157D03*
X185039Y284252D03*
X168898Y309449D03*
X161417Y323228D03*
X167323Y317717D03*
X218504Y305512D03*
Y298031D03*
X211811Y289370D03*
X215748Y308661D03*
X211417Y292913D03*
X212992Y305512D03*
X229134Y311811D03*
X214961Y314173D03*
X255512Y287402D03*
X271260Y300394D03*
X257874Y294882D03*
X253150Y290551D03*
X245669Y297638D03*
X262205Y305512D03*
X265354Y311417D03*
X242520Y315748D03*
X240945Y309843D03*
X257480Y309449D03*
X233858Y288189D03*
X252362Y316535D03*
X272441Y287402D03*
X284646Y301575D03*
X284252Y322835D03*
X281496Y303543D03*
X292520Y287402D03*
X312205Y317717D03*
X306693Y285039D03*
X291339Y295276D03*
X293307Y317717D03*
X288583Y317323D03*
X280315Y315748D03*
X291339Y301181D03*
X296457Y308268D03*
X301181D03*
X291732Y322441D03*
X280315Y321260D03*
X297244Y317717D03*
X305118Y318110D03*
X290945Y308268D03*
X280709Y310236D03*
X281496Y296457D03*
X310630Y322835D03*
X340157Y307087D03*
X350000Y311811D03*
X319291Y292520D03*
X337008Y320866D03*
Y318504D03*
X351181Y322441D03*
X344094Y288583D03*
X313386Y301575D03*
Y306693D03*
X351575Y288583D03*
X350394Y315748D03*
X345276Y303543D03*
X329921Y318898D03*
X361417Y296850D03*
X373228Y285433D03*
X369685Y294488D03*
X183858Y324803D03*
Y332677D03*
X170079Y324803D03*
Y328740D03*
X183858D03*
X170079Y332677D03*
X168110Y340551D03*
X189370Y345669D03*
X178346Y345276D03*
X180709Y351181D03*
X222835Y344882D03*
X260630Y352362D03*
Y346850D03*
X248031Y337795D03*
Y330709D03*
X244882D03*
Y337795D03*
X260630Y349606D03*
X261811Y339370D03*
X284252Y329134D03*
X273622Y346850D03*
Y352756D03*
Y349606D03*
X290157Y334252D03*
X293307Y363386D03*
X291732Y350000D03*
X345276Y335827D03*
X349606Y331102D03*
X314567Y343307D03*
X344488Y329921D03*
X239370Y365354D03*
G54D35*
X172567Y244094D02*
G75*
G03X172567I-13295J0D01*
G01X137539Y227953D02*
G03X137539I-6043J0D01*
G01Y257953D02*
G03X137539I-6043J0D01*
G01X280745Y229090D02*
G03X280710Y229828I-354J353D01*
G01X279453Y231900D02*
G03X280710Y229828I3618J777D01*
G01X279453Y231900D02*
G03X278965Y232295I-488J-105D01*
G01X269076*
G03X268727Y232153I-0J-500*
G01X266983Y231445D02*
G03X268727Y232153I0J2500D01*
G01X266983Y231445D02*
X265417D01*
G03X264917Y230945I0J-500*
G01Y228927*
X264417Y227427D02*
G03X264917Y228927I-2000J1500D01*
G01X264417Y227427D02*
G03X264317Y227127I400J-300D01*
G01Y214670*
G03X264413Y214377I500J0*
G01X264684Y213942D02*
G03X264413Y214377I-3267J-1737D01*
G01X264684Y213942D02*
G03X265479Y213824I441J235D01*
G01X280745Y229090*
X279777Y245773D02*
Y261555D01*
G03X279307Y262055I-500J0*
G01X276532Y267920D02*
G03X279307Y262055I2996J-2172D01*
G01X276532Y267920D02*
G03X276628Y268214I-404J294D01*
G01Y278528*
G03X276128Y279028I-500J-0*
G01X270691*
G03X270197Y278600I0J-500*
G01X270118Y278207D02*
G03X270197Y278600I-3583J927D01*
G01X270118Y278207D02*
G03X270727Y277598I484J-125D01*
G01X269481Y271020D02*
G03X270727Y277598I2173J2996D01*
G01X269481Y271020D02*
G03X269188Y271116I-293J-404D01*
G01X257613*
G03X257129Y270739I0J-500*
G01X251349Y268674D02*
G03X257129Y270739I2194J2980D01*
G01X251349Y268674D02*
G03X250834Y268721I-296J-402D01*
G01X246217Y274219D02*
G03X250834Y268721I2996J-2172D01*
G01X246217Y274219D02*
G03X246313Y274513I-404J294D01*
G01Y277953*
X246354Y278443D02*
G03X246313Y277953I2859J-490D01*
G01X246354Y278443D02*
G03X245862Y279028I-492J85D01*
G01X225058*
G03X224981Y279022I0J-500*
G01X223838D02*
G03X224981I571J3655D01*
G01X223838D02*
G03X223761Y279028I-77J-494D01*
G01X221974*
G03X221816Y278053I-0J-500*
G01X216470Y268684D02*
G03X221816Y278053I3609J4151D01*
G01X216470Y268684D02*
G03X215814I-328J-377D01*
G01X208596D02*
G03X215814I3609J4151D01*
G01X208596D02*
G03X207940I-328J-377D01*
G01X200780Y268635D02*
G03X207940Y268684I3551J4200D01*
G01X200780Y268635D02*
G03X199957Y268253I-323J-382D01*
G01Y263386*
X198932Y260911D02*
G03X199957Y263386I-2475J2475D01*
G01X198932Y260911D02*
X196963Y258942D01*
X196832Y258818D02*
G03X196963Y258942I-2344J2599D01*
G01X196832Y258818D02*
G03X196714Y258235I335J-371D01*
G01X195883Y252297D02*
G03X196714Y258235I-4151J3609D01*
G01X195883Y252297D02*
G03Y251640I377J-328D01*
G01Y244423D02*
G03Y251640I-4151J3608D01*
G01Y244423D02*
G03Y243766I377J-329D01*
G01Y236549D02*
G03Y243766I-4151J3608D01*
G01Y236549D02*
G03Y235892I377J-329D01*
G01X197033Y230817D02*
G03X195883Y235892I-5301J1466D01*
G01X197033Y230817D02*
G03X197631Y230197I482J-133D01*
G01X198213Y230266D02*
G03X197631Y230197I-0J-2500D01*
G01X198213Y230266D02*
X200213D01*
X202713Y227766D02*
G03X200213Y230266I-2500J-0D01*
G01X202713Y227766D02*
Y225266D01*
X202485Y224224D02*
G03X202713Y225266I-2272J1042D01*
G01X202485Y224224D02*
G03Y223807I455J-208D01*
G01X202713Y222766D02*
G03X202485Y223807I-2500J-0D01*
G01X202713Y222766D02*
Y220266D01*
X200213Y217766D02*
G03X202713Y220266I-0J2500D01*
G01X200213Y217766D02*
X198213D01*
X196659Y218307D02*
G03X198213Y217766I1554J1959D01*
G01X196659Y218307D02*
G03X196348Y218416I-311J-391D01*
G01X186723*
G03X186412Y218307I0J-500*
G01X184858Y217766D02*
G03X186412Y218307I0J2500D01*
G01X184858Y217766D02*
X182858D01*
X182760Y217768D02*
G03X182858Y217766I98J2498D01*
G01X182760Y217768D02*
G03X182240Y217268I-20J-500D01*
G01Y211106*
G03X182387Y210752I500J-0*
G01X183193Y209946*
G03X183547Y209799I354J353*
G01X207417*
G03X207917Y210299I0J500*
G01Y214173*
X208942Y216648D02*
G03X207917Y214173I2475J-2475D01*
G01X208942Y216648D02*
X211698Y219404D01*
X214173Y220429D02*
G03X211698Y219404I0J-3500D01*
G01X214173Y220429D02*
X244662D01*
G03X245016Y220576I0J500*
G01X245428Y220988*
G03X245575Y221342I-353J354*
G01Y227722*
G03X245533Y227922I-500J0*
G01X245512Y227972D02*
G03X245533Y227922I2313J949D01*
G01X245512Y227972D02*
G03X244735Y228171I-462J-190D01*
G01X243081Y227532D02*
G03X244735Y228171I-168J2895D01*
G01X243081Y227532D02*
X241819Y227459D01*
G03X241470Y227288I29J-499*
G01X239583Y226427D02*
G03X241470Y227288I-0J2500D01*
G01X239583Y226427D02*
X237583D01*
X235839Y227135D02*
G03X237583Y226427I1744J1792D01*
G01X235839Y227135D02*
G03X235490Y227277I-349J-358D01*
G01X228436*
G03X228082Y227131I-0J-500*
G01X227810Y226858*
G03X227670Y226583I353J-353*
G01X223434Y230819D02*
G03X227670Y226583I582J-3654D01*
G01X223434Y230819D02*
G03X223709Y230960I-79J494D01*
G01X224977Y232228*
X227028Y233077D02*
G03X224977Y232228I-0J-2900D01*
G01X227028Y233077D02*
X234603D01*
G03X235100Y233636I0J500*
G01X235083Y233927D02*
G03X235100Y233636I2500J0D01*
G01X235083Y233927D02*
Y235576D01*
G03X234583Y236076I-500J0*
G01X226875*
G03X226582Y235981I0J-500*
G01Y241972D02*
G03Y235981I-2173J-2996D01*
G01Y241972D02*
G03X226875Y241876I293J404D01*
G01X239960*
G03X240085Y242861I0J500*
G01X238756Y243619D02*
G03X240085Y242861I2051J2050D01*
G01X238756Y243619D02*
X236788Y245587D01*
X235939Y247638D02*
G03X236788Y245587I2900J-0D01*
G01X235939Y247638D02*
Y254782D01*
G03X235797Y255130I-500J-0*
G01X235089Y256874D02*
G03X235797Y255130I2500J0D01*
G01X235089Y256874D02*
Y258874D01*
X235797Y260618D02*
G03X235089Y258874I1792J-1744D01*
G01X235797Y260618D02*
G03X235939Y260966I-358J348D01*
G01Y268177*
G03X235719Y268591I-500J0*
G01X241489Y271862D02*
G03X235719Y268591I-3694J-208D01*
G01X241489Y271862D02*
G03X241525Y271702I500J28D01*
G01X241739Y270610D02*
G03X241525Y271702I-2900J0D01*
G01X241739Y270610D02*
Y261854D01*
G03X242297Y261357I500J-0*
G01X242589Y261374D02*
G03X242297Y261357I-0J-2500D01*
G01X242589Y261374D02*
X245089D01*
X247589Y258874D02*
G03X245089Y261374I-2500J0D01*
G01X247589Y258874D02*
Y256874D01*
X245089Y254374D02*
G03X247589Y256874I-0J2500D01*
G01X245089Y254374D02*
X242589D01*
X242297Y254391D02*
G03X242589Y254374I292J2483D01*
G01X242297Y254391D02*
G03X241739Y253894I-58J-497D01*
G01Y249069*
G03X242239Y248569I500J0*
G01X256049*
G03X256549Y249069I-0J500*
G01Y255512*
X257398Y257562D02*
G03X256549Y255512I2051J-2050D01*
G01X257398Y257562D02*
X259504Y259669D01*
X261555Y260518D02*
G03X259504Y259669I0J-2900D01*
G01X261555Y260518D02*
X262656D01*
G03X263004Y260660I-0J500*
G01X264748Y261368D02*
G03X263004Y260660I0J-2500D01*
G01X264748Y261368D02*
X266748D01*
X269238Y259089D02*
G03X266748Y261368I-2490J-221D01*
G01X269238Y259089D02*
G03X269590Y258655I498J44D01*
G01Y251581D02*
G03Y258655I-1086J3537D01*
G01Y251581D02*
G03X269238Y251147I146J-478D01*
G01X266748Y248868D02*
G03X269238Y251147I0J2500D01*
G01X266748Y248868D02*
X264748D01*
X263165Y249433D02*
G03X264748Y248868I1583J1935D01*
G01X263165Y249433D02*
G03X262349Y249046I-316J-387D01*
G01Y248258*
X262349D02*
G03X262503Y247896I500J-0D01*
G01X262550Y247850D02*
G03X262503Y247896I-2050J-2050D01*
G01X262550Y247850D02*
X263468Y246933D01*
X264317Y244882D02*
G03X263468Y246933I-2900J-0D01*
G01X264317Y244882D02*
Y244440D01*
G03X264845Y243941I500J0*
G01X264983Y243945D02*
G03X264845Y243941I0J-2500D01*
G01X264983Y243945D02*
X266983D01*
X269483Y241445D02*
G03X266983Y243945I-2500J-0D01*
G01X269483Y241445D02*
Y238945D01*
X269466Y238653D02*
G03X269483Y238945I-2483J292D01*
G01X269466Y238653D02*
G03X269963Y238095I497J-58D01*
G01X276132*
G03X276630Y238640I0J500*
G01X278726Y242318D02*
G03X276630Y238640I1589J-3342D01*
G01X278726Y242318D02*
G03X279008Y242834I-214J452D01*
G01X279682Y245479D02*
G03X279008Y242834I2995J-2172D01*
G01X279682Y245479D02*
G03X279777Y245773I-405J294D01*
G01X210468Y278053D02*
G03X210310Y279028I-158J475D01*
G01X206226*
G03X206068Y278053I-0J-500*
G01X207940Y276985D02*
G03X206068Y278053I-3609J-4150D01*
G01X207940Y276985D02*
G03X208596I328J377D01*
G01X210468Y278053D02*
G03X208596Y276985I1737J-5218D01*
G01X202594Y278053D02*
G03X202436Y279028I-158J475D01*
G01X198352*
G03X198194Y278053I-0J-500*
G01X200066Y276985D02*
G03X198194Y278053I-3609J-4150D01*
G01X200066Y276985D02*
G03X200722I328J377D01*
G01X202594Y278053D02*
G03X200722Y276985I1737J-5218D01*
G01X187151Y251532D02*
G03X187532Y252354I-0J500D01*
G01X186410Y257291D02*
G03X187532Y252354I5322J-1385D01*
G01X186410Y257291D02*
G03X185926Y257917I-484J126D01*
G01X183547*
G03X183193Y257771I-0J-500*
G01X182387Y256964*
G03X182240Y256611I353J-353*
G01Y252032*
G03X182740Y251532I500J-0*
G01X187151*
X258555Y186433D02*
Y196206D01*
G03X258055Y196706I-500J0*
G01X255512*
X253461Y197556D02*
G03X255512Y196706I2051J2050D01*
G01X253461Y197556D02*
X251886Y199130D01*
X251037Y201181D02*
G03X251886Y199130I2900J0D01*
G01X251037Y201181D02*
Y207770D01*
G03X250942Y208064I-500J0*
G01X256865Y212499D02*
G03X250942Y208064I-2928J-2263D01*
G01X256865Y212499D02*
G03X257755Y212733I395J305D01*
G01X258422Y214377D02*
G03X257755Y212733I2995J-2172D01*
G01X258422Y214377D02*
G03X258517Y214670I-405J293D01*
G01Y227127*
G03X258417Y227427I-500J0*
G01X258297Y227603D02*
G03X258417Y227427I2120J1324D01*
G01X258297Y227603D02*
G03X257448Y227602I-424J-265D01*
G01X255325Y226421D02*
G03X257448Y227602I-0J2500D01*
G01X255325Y226421D02*
X253075D01*
G03X252575Y225921I-0J-500*
G01Y219685*
X251550Y217210D02*
G03X252575Y219685I-2475J2475D01*
G01X251550Y217210D02*
X248794Y214454D01*
X246319Y213429D02*
G03X248794Y214454I-0J3500D01*
G01X246319Y213429D02*
X215830D01*
G03X215477Y213283I0J-500*
G01X215064Y212870*
G03X214917Y212516I353J-354*
G01Y207580*
G03X214941Y207427I500J-0*
G01X210289Y202775D02*
G03X214941Y207427I1128J3524D01*
G01X210289Y202775D02*
G03X210137Y202799I-152J-476D01*
G01X181890*
X179415Y203824D02*
G03X181890Y202799I2475J2475D01*
G01X179415Y203824D02*
X176265Y206974D01*
X175240Y209449D02*
G03X176265Y206974I3500J-0D01*
G01X175240Y209449D02*
Y221260D01*
Y225491*
G03X175216Y225643I-500J0*
G01Y227900D02*
G03Y225643I3524J-1128D01*
G01Y227900D02*
G03X175240Y228052I-476J152D01*
G01Y248031*
Y258268*
X176265Y260743D02*
G03X175240Y258268I2475J-2475D01*
G01X176265Y260743D02*
X179415Y263892D01*
X181890Y264917D02*
G03X179415Y263892I-0J-3500D01*
G01X181890Y264917D02*
X192457D01*
G03X192957Y265417I-0J500*
G01Y268363*
X192957D02*
G03X192790Y268735I-500J-0D01*
G01X194720Y278053D02*
G03X192790Y268735I1737J-5218D01*
G01X194720Y278053D02*
G03X194562Y279028I-158J475D01*
G01X161672*
G03X161595Y279022I0J-500*
G01X160452D02*
G03X161595I572J3655D01*
G01X160452D02*
G03X160375Y279028I-77J-494D01*
G01X126115*
G03X125633Y278659I0J-500*
X201958Y122792I126729J-34565*
X202650Y123253I192J461*
G01Y185933*
X258055*
G03X258555Y186433I0J500*
G01X258517Y238577D02*
Y242269D01*
G03X258017Y242769I-500J0*
G01X255569*
G03X255069Y242276I-0J-500*
G01X252569Y239807D02*
G03X255069Y242276I-0J2500D01*
G01X252569Y239807D02*
X250069D01*
X249636Y239845D02*
G03X250069Y239807I433J2462D01*
G01X249636Y239845D02*
G03X249074Y239508I-87J-493D01*
G01X248370Y238363D02*
G03X249074Y239508I-2051J2050D01*
G01X248370Y238363D02*
X246933Y236926D01*
X244882Y236076D02*
G03X246933Y236926I-0J2900D01*
G01X244882Y236076D02*
X242583D01*
G03X242083Y235576I-0J-500*
G01Y234859*
G03X242884Y234460I500J-0*
G01X244632Y235046D02*
G03X242884Y234460I-0J-2900D01*
G01X244632Y235046D02*
X251123D01*
G03X251557Y235298I0J500*
G01X252024Y235909D02*
G03X251557Y235298I2051J-2051D01*
G01X252024Y235909D02*
X253343Y237228D01*
X255394Y238077D02*
G03X253343Y237228I-0J-2900D01*
G01X255394Y238077D02*
X258017D01*
G03X258517Y238577I0J500*
G01X209103Y120064D02*
G03X370875Y300750I43259J124030D01*
X369923Y300534I-452J-216*
G01X369923D02*
Y291233D01*
X369016Y289041D02*
G03X369923Y291233I-2193J2192D01*
G01X369016Y289041D02*
X367546Y287572D01*
X365354Y286664D02*
G03X367546Y287572I0J3100D01*
G01X365354Y286664D02*
X360657D01*
G03X360157Y286164I0J-500*
G01Y285955*
G03X360516Y285475I500J-0*
G01X360722Y285407D02*
G03X360516Y285475I-1106J-2991D01*
G01X360722Y285407D02*
G03X361069I174J469D01*
G01X363282D02*
G03X361069I-1107J-2991D01*
G01X363282D02*
G03X363628I173J469D01*
G01X367923Y282416D02*
G03X363628Y285407I-3188J-0D01*
G01X367923Y282416D02*
Y278282D01*
X363628Y275291D02*
G03X367923Y278282I1107J2991D01*
G01X363628Y275291D02*
G03X363282I-173J-469D01*
G01X361069D02*
G03X363282I1106J2991D01*
G01X361069D02*
G03X360722I-173J-469D01*
G01X358510D02*
G03X360722I1106J2991D01*
G01X358510D02*
G03X358163I-173J-469D01*
G01X353868Y278282D02*
G03X358163Y275291I3189J-0D01*
G01X353868Y278282D02*
Y282416D01*
X353945Y283112D02*
G03X353868Y282416I3112J-696D01*
G01X353945Y283112D02*
G03X353957Y283221I-488J109D01*
G01Y288189*
X354112Y289157D02*
G03X353957Y288189I2945J-968D01*
G01X354112Y289157D02*
G03X353637Y289813I-475J156D01*
G01X343364*
G03X342864Y289313I-0J-500*
G01Y274409*
X341956Y272217D02*
G03X342864Y274409I-2192J2192D01*
G01X341956Y272217D02*
X340381Y270643D01*
X338189Y269735D02*
G03X340381Y270643I-0J3100D01*
G01X338189Y269735D02*
X334702D01*
G03X334202Y269235I0J-500*
G01Y252740*
G03X335092Y252426I500J-0*
G01X332553Y240877D02*
G03X335092Y252426I12900J3217D01*
G01X332553Y240877D02*
G03X331714Y241109I-485J-121D01*
G01X331326Y240721*
X329134Y239813D02*
G03X331326Y240721I-0J3100D01*
G01X329134Y239813D02*
X328541D01*
G03X328284Y239742I0J-500*
G01X324962Y246332D02*
G03X328284Y239742I1416J-3419D01*
G01X324962Y246332D02*
G03X324771Y247294I-191J462D01*
G01X309644*
G03X309386Y247222I-0J-500*
G01X304406Y252453D02*
G03X309386Y247222I3074J-2059D01*
G01X304406Y252453D02*
G03X304453Y252921I-415J278D01*
G01X304703Y256237D02*
G03X304453Y252921I3171J-1906D01*
G01X304703Y256237D02*
G03X304774Y256494I-429J257D01*
G01Y256693*
X304851Y257378D02*
G03X304774Y256693I3023J-685D01*
G01X304851Y257378D02*
G03X304741Y257815I-488J110D01*
G01X303987Y259843D02*
G03X304741Y257815I3100J-0D01*
G01X303987Y259843D02*
Y260829D01*
G03X303915Y261086I-500J-0*
G01X307031Y266692D02*
G03X303915Y261086I56J-3700D01*
G01X307031Y266692D02*
G03X307524Y267192I-7J500D01*
G01Y277853*
G03X307500Y278006I-500J0*
G01X307473Y280174D02*
G03X307500Y278006I3551J-1040D01*
G01X307473Y280174D02*
G03Y280456I-480J141D01*
G01X312600Y284844D02*
G03X307473Y280456I-1576J-3348D01*
G01X312600Y284844D02*
G03X312812Y284796I212J452D01*
G01X333208*
G03X333708Y285296I-0J500*
G01Y316715*
G03X333660Y316928I-500J0*
G01X333457Y319544D02*
G03X333660Y316928I3551J-1040D01*
G01X333457Y319544D02*
G03Y319826I-480J141D01*
G01X340544Y321957D02*
G03X333457Y319826I-3536J-1091D01*
G01X340544Y321957D02*
G03X341021Y321604I477J147D01*
G01X356299*
X357427Y321392D02*
G03X356299Y321604I-1128J-2888D01*
G01X357427Y321392D02*
G03X358011Y322154I182J465D01*
X205938Y366976I-105649J-78060*
X206115Y366008I177J-468*
G01X225000*
X226479Y365724D02*
G03X225000Y366008I-1479J-3716D01*
G01X226479Y365724D02*
G03X226664Y365689I185J465D01*
G01X227362*
X229167Y364919D02*
G03X227362Y365689I-1805J-1730D01*
G01X229167Y364919D02*
G03X229888I361J346D01*
G01X231693Y365689D02*
G03X229888Y364919I-0J-2500D01*
G01X231693Y365689D02*
X236417D01*
X238917Y363189D02*
G03X236417Y365689I-2500J-0D01*
G01X238917Y363189D02*
Y360827D01*
X238851Y360253D02*
G03X238917Y360827I-2434J574D01*
G01X238851Y360253D02*
G03Y360023I486J-115D01*
G01X238917Y359449D02*
G03X238851Y360023I-2500J-0D01*
G01X238917Y359449D02*
Y357087D01*
X238851Y356512D02*
G03X238917Y357087I-2434J575D01*
G01X238851Y356512D02*
G03Y356283I486J-114D01*
G01X238917Y355709D02*
G03X238851Y356283I-2500J-0D01*
G01X238917Y355709D02*
Y354106D01*
G03X239417Y353606I500J0*
G01X241094*
G03X241594Y354106I0J500*
G01Y355856*
X244094Y358356D02*
G03X241594Y355856I0J-2500D01*
G01X244094Y358356D02*
X252756D01*
X255256Y355856D02*
G03X252756Y358356I-2500J0D01*
G01X255256Y355856D02*
Y343356D01*
X252756Y340856D02*
G03X255256Y343356I-0J2500D01*
G01X252756Y340856D02*
X244094D01*
X241594Y343356D02*
G03X244094Y340856I2500J0D01*
G01X241594Y343356D02*
Y345106D01*
G03X241094Y345606I-500J0*
G01X226772*
X223943Y346778D02*
G03X226772Y345606I2829J2828D01*
G01X223943Y346778D02*
X222172Y348550D01*
X221184Y350178D02*
G03X222172Y348550I3816J1200D01*
G01X221184Y350178D02*
G03X220707Y350528I-477J-150D01*
G01X219228*
G03X218821Y350317I0J-500*
G01X205537Y352444D02*
G03X218821Y350317I7166J2212D01*
G01X205537Y352444D02*
G03X204575Y352419I-477J-148D01*
G01X192217Y359768D02*
G03X204575Y352419I5086J-5512D01*
G01X192217Y359768D02*
G03X191647Y360579I-339J368D01*
X127158Y283828I60715J-116485*
X127634Y283177I476J-151*
G01X220330*
G03X220816Y283558I0J500*
G01X224883Y286347D02*
G03X220816Y283558I-474J-3670D01*
G01X224883Y286347D02*
G03X225446Y286843I63J496D01*
G01Y291696*
G03X225347Y291995I-500J0*
G01X224852Y293488D02*
G03X225347Y291995I2500J0D01*
G01X224852Y293488D02*
Y295488D01*
X225125Y296623D02*
G03X224852Y295488I2227J-1135D01*
G01X225125Y296623D02*
G03Y297077I-446J227D01*
G01X224852Y298213D02*
G03X225125Y297077I2500J-0D01*
G01X224852Y298213D02*
Y300213D01*
X227352Y302713D02*
G03X224852Y300213I0J-2500D01*
G01X227352Y302713D02*
X229852D01*
X230894Y302485D02*
G03X229852Y302713I-1042J-2272D01*
G01X230894Y302485D02*
G03X231311I208J455D01*
G01X231860Y302664D02*
G03X231311Y302485I492J-2451D01*
G01X231860Y302664D02*
G03X232032Y302733I-98J490D01*
G01X233602Y303195D02*
G03X232032Y302733I0J-2900D01*
G01X233602Y303195D02*
X237015D01*
G03X237180Y303223I0J500*
G01X238198Y303395D02*
G03X237180Y303223I0J-3100D01*
G01X238198Y303395D02*
X243691D01*
X244710Y303223D02*
G03X243691Y303395I-1019J-2928D01*
G01X244710Y303223D02*
G03X244875Y303195I165J472D01*
G01X261425*
G03X261589Y303223I-0J500*
G01X262608Y303395D02*
G03X261589Y303223I-0J-3100D01*
G01X262608Y303395D02*
X268101D01*
X268730Y303331D02*
G03X268101Y303395I-629J-3036D01*
G01X268730Y303331D02*
G03X269120Y303412I101J489D01*
G01X274431Y298488D02*
G03X269120Y303412I-3171J1906D01*
G01X274431Y298488D02*
G03X274360Y298230I429J-258D01*
G01Y296641*
G03X274935Y296146I500J-0*
G01X275310Y296174D02*
G03X274935Y296146I-0J-2500D01*
G01X275310Y296174D02*
X277810D01*
X278851Y295947D02*
G03X277810Y296174I-1041J-2273D01*
G01X278851Y295947D02*
G03X279268I209J455D01*
G01X280310Y296174D02*
G03X279268Y295947I-0J-2500D01*
G01X280310Y296174D02*
X281246D01*
G03X281746Y296674I-0J500*
G01Y299109*
G03X281650Y299403I-500J0*
G01X287641D02*
G03X281650I-2995J2172D01*
G01X287641D02*
G03X287546Y299109I405J-294D01*
G01Y295917*
G03X288067Y295417I500J-0*
G01X288189Y295420D02*
G03X288067Y295417I-0J-2900D01*
G01X288189Y295420D02*
X316826D01*
G03X317119Y295515I-0J500*
G01Y289524D02*
G03Y295515I2172J2996D01*
G01Y289524D02*
G03X316826Y289620I-293J-404D01*
G01X290014*
G03X289514Y289120I0J-500*
G01Y285456*
G03X289750Y285031I500J-0*
G01X291064Y280156D02*
G03X289750Y285031I-3269J1734D01*
G01X291064Y280156D02*
G03Y279687I441J-235D01*
G01X290757Y275735D02*
G03X291064Y279687I-2962J2218D01*
G01X290757Y275735D02*
G03X290657Y275436I400J-299D01*
G01Y261966*
G03X290757Y261666I500J-0*
G01Y257231D02*
G03Y261666I-2962J2218D01*
G01Y257231D02*
G03X290657Y256932I400J-299D01*
G01Y245812*
G03X291038Y245326I500J-0*
G01X292330Y244728D02*
G03X291038Y245326I-2173J-2996D01*
G01X292330Y244728D02*
G03X292623Y244632I293J404D01*
G01X292913*
X294964Y243783D02*
G03X292913Y244632I-2051J-2051D01*
G01X294964Y243783D02*
X296145Y242602D01*
X296995Y240551D02*
G03X296145Y242602I-2901J0D01*
G01X296995Y240551D02*
Y229323D01*
G03X297141Y228970I500J0*
G01X297905Y228206*
G03X298259Y228059I354J353*
G01X350916*
G03X351270Y228206I0J500*
G01X353499Y230435*
X355550Y231284D02*
G03X353499Y230435I-0J-2900D01*
G01X355550Y231284D02*
X375540D01*
G03X375827Y231375I-0J500*
G01X375735Y225384D02*
G03X375827Y231375I2218J2962D01*
G01X375735Y225384D02*
G03X375436Y225484I-299J-400D01*
G01X363658*
G03X363204Y224775I-0J-500*
G01X357670Y220233D02*
G03X363204Y224775I2173J2995D01*
G01X357670Y220233D02*
G03X357377Y220328I-293J-405D01*
G01X292913*
X292455Y220365D02*
G03X292913Y220328I458J2863D01*
G01X292455Y220365D02*
G03X291876Y219871I-79J-494D01*
G01Y205762*
G03X292376Y205262I500J0*
G01X347928*
G03X348221Y205357I-0J500*
G01X354050Y202930D02*
G03X348221Y205357I-3656J-568D01*
G01X354050Y202930D02*
G03X354544Y202506I494J76D01*
G01X364070*
G03X364363Y202602I-0J500*
G01Y196611D02*
G03Y202602I2172J2995D01*
G01Y196611D02*
G03X364070Y196706I-293J-405D01*
G01X263402*
G03X262902Y196206I-0J-500*
G01Y181783*
X209268*
G03X208768Y181283I-0J-500*
G01Y120536*
G03X209103Y120064I500J-0*
G01X275539Y145330D02*
G03Y146163I-276J416D01*
G01X274739Y147026D02*
G03X275539Y146163I2182J1220D01*
G01X274739Y147026D02*
G03X273866I-436J-245D01*
G01X273067Y146163D02*
G03X273866Y147026I-1382J2083D01*
G01X273067Y146163D02*
G03Y145330I276J-417D01*
G01X273866Y144467D02*
G03X273067Y145330I-2181J-1221D01*
G01X273866Y144467D02*
G03X274739I437J244D01*
G01X275539Y145330D02*
G03X274739Y144467I1382J-2084D01*
G01X361634Y296513D02*
Y296600D01*
G03X361134Y297100I-500J-0*
G01X349789*
X347738Y297949D02*
G03X349789Y297100I2051J2051D01*
G01X347738Y297949D02*
X346557Y299130D01*
X345707Y301181D02*
G03X346557Y299130I2901J0D01*
G01X345707Y301181D02*
Y303117D01*
G03X345149Y303613I-500J-0*
G01X344858Y303596D02*
G03X345149Y303613I-0J2500D01*
G01X344858Y303596D02*
X342358D01*
X341795Y303660D02*
G03X342358Y303596I563J2436D01*
G01X341795Y303660D02*
G03X341501Y303639I-113J-487D01*
G01X340730Y303431D02*
G03X341501Y303639I-573J3656D01*
G01X340730Y303431D02*
G03X340308Y302937I78J-494D01*
G01Y296474*
G03X340882Y295980I500J0*
G01X341339Y296013D02*
G03X340882Y295980I-0J-3100D01*
G01X341339Y296013D02*
X361134D01*
G03X361634Y296513I0J500*
G01X249611Y291631D02*
G03X249132Y292277I-479J146D01*
G01X247192*
G03X246706Y291894I-0J-500*
G01X246589Y291516D02*
G03X246706Y291894I-2898J1102D01*
G01X246589Y291516D02*
G03Y291161I467J-177D01*
G01X246659Y290955D02*
G03X246589Y291161I-2968J-896D01*
G01X246659Y290955D02*
G03X247138Y290600I479J145D01*
G01X248607*
G03X248961Y290746I0J500*
G01X249428Y291214*
G03X249559Y291446I-354J353*
G01X249611Y291631D02*
G03X249559Y291446I3539J-1080D01*
G01X235301Y288602D02*
G03Y288957I-468J178D01*
G01X235121Y290429D02*
G03X235301Y288957I3077J-370D01*
G01X235121Y290429D02*
G03X234624Y290988I-497J59D01*
G01X234502*
G03X234002Y290488I0J-500*
G01Y285782*
G03X234502Y285282I500J-0*
G01X234698*
G03X235184Y285665I0J500*
G01X235301Y286043D02*
G03X235184Y285665I2897J-1102D01*
G01X235301Y286043D02*
G03Y286398I-468J177D01*
G01Y288602D02*
G03Y286398I2897J-1102D01*
G01X285619Y202506D02*
G03X286113Y203085I0J500D01*
G01X286076Y203543D02*
G03X286113Y203085I2900J0D01*
G01X286076Y203543D02*
Y225107D01*
G03X285223Y225461I-500J0*
G01X263122Y203360*
G03X263476Y202506I354J-354*
G01X285619*
X172567Y244094D02*
G03X172567I-13295J0D01*
G01X137539Y227953D02*
G03X137539I-6043J0D01*
G01Y257953D02*
G03X137539I-6043J0D01*
G01X284421Y155246D02*
Y148246D01*
X283303Y146163D02*
G03X284421Y148246I-1382J2083D01*
G01X283303Y146163D02*
G03Y145330I276J-417D01*
G01X284421Y143246D02*
G03X283303Y145330I-2500J0D01*
G01X284421Y143246D02*
Y136246D01*
X281921Y133746D02*
G03X284421Y136246I-0J2500D01*
G01X281921Y133746D02*
X281608D01*
G03X281263Y132885I0J-500*
G01X269203Y124469D02*
G03X281263Y132885I6876J2996D01*
G01X269203Y124469D02*
G03X268266Y124413I-459J-200D01*
G01X253917Y124358D02*
G03X268266Y124413I7166J2213D01*
G01X253917Y124358D02*
G03X252954Y124333I-478J-148D01*
G01X252849Y128384D02*
G03X252954Y124333I-7166J-2213D01*
G01X252849Y128384D02*
G03X253811Y128409I478J147D01*
G01X264769Y133103D02*
G03X253811Y128409I-3686J-6532D01*
G01X264769Y133103D02*
G03X265505Y133635I246J435D01*
G01X265469Y133850D02*
G03X265505Y133635I3716J509D01*
G01X265469Y133850D02*
G03X265259Y134192I-495J-68D01*
G01X264260Y135636D02*
G03X265259Y134192I2425J610D01*
G01X264260Y135636D02*
G03X263775Y136014I-485J-122D01*
G01X260768*
X259483Y136241D02*
G03X260768Y136014I1285J3523D01*
G01X259483Y136241D02*
G03X259346Y136270I-171J-470D01*
G01X258476Y136491D02*
G03X259346Y136270I1042J2273D01*
G01X258476Y136491D02*
G03X258059I-208J-454D01*
G01X257018Y136264D02*
G03X258059Y136491I-0J2500D01*
G01X257018Y136264D02*
X254518D01*
X252018Y138764D02*
G03X254518Y136264I2500J-0D01*
G01X252018Y138764D02*
Y140764D01*
X254518Y143264D02*
G03X252018Y140764I-0J-2500D01*
G01X254518Y143264D02*
X257018D01*
X258059Y143036D02*
G03X257018Y143264I-1041J-2272D01*
G01X258059Y143036D02*
G03X258476I209J455D01*
G01X259346Y143258D02*
G03X258476Y143036I172J-2494D01*
G01X259346Y143258D02*
G03X259483Y143287I-34J499D01*
G01X260370Y143493D02*
G03X259483Y143287I398J-3729D01*
G01X260370Y143493D02*
G03X260817Y143990I-53J497D01*
G01Y144094*
X263788Y147763D02*
G03X260817Y144094I779J-3669D01*
G01X263788Y147763D02*
G03X264185Y148252I-103J489D01*
G01Y155246*
X266685Y157746D02*
G03X264185Y155246I-0J-2500D01*
G01X266685Y157746D02*
X271685D01*
X273866Y156467D02*
G03X271685Y157746I-2181J-1221D01*
G01X273866Y156467D02*
G03X274739I437J244D01*
G01X276921Y157746D02*
G03X274739Y156467I-0J-2500D01*
G01X276921Y157746D02*
X281921D01*
X284421Y155246D02*
G03X281921Y157746I-2500J0D01*
G01X287247Y326962D02*
G03X281257I-2995J2172D01*
G01X287247D02*
G03X287152Y326668I405J-294D01*
G01Y325300*
G03X287247Y325007I500J0*
G01X281257D02*
G03X287247I2995J-2172D01*
G01X281257D02*
G03X281352Y325300I-405J293D01*
G01Y326668*
G03X281257Y326962I-500J0*
G01X274154Y355856D02*
Y343356D01*
X271654Y340856D02*
G03X274154Y343356I-0J2500D01*
G01X271654Y340856D02*
X262992D01*
X260492Y343356D02*
G03X262992Y340856I2500J0D01*
G01X260492Y343356D02*
Y355856D01*
X262992Y358356D02*
G03X260492Y355856I0J-2500D01*
G01X262992Y358356D02*
X271654D01*
X274154Y355856D02*
G03X271654Y358356I-2500J0D01*
G01X221499Y303340D02*
G03X219704Y309012I-2995J2172D01*
G01X221499Y303340D02*
G03X221404Y303046I405J-294D01*
G01Y300497*
G03X221499Y300204I500J0*
G01X219065Y294374D02*
G03X221499Y300204I-561J3657D01*
G01X219065Y294374D02*
G03X218642Y293912I76J-494D01*
G01X217799Y292044D02*
G03X218642Y293912I-2051J2050D01*
G01X217799Y292044D02*
X216618Y290863D01*
X215778Y290278D02*
G03X216618Y290863I-1211J2635D01*
G01X215778Y290278D02*
G03X215489Y289770I208J-454D01*
G01X209639Y286375D02*
G03X215489Y289770I2172J2995D01*
G01X209639Y286375D02*
G03X209345Y286470I-294J-405D01*
G01X187008*
X184957Y287319D02*
G03X187008Y286470I2051J2051D01*
G01X184957Y287319D02*
X183382Y288894D01*
X182533Y290945D02*
G03X183382Y288894I2900J-0D01*
G01X182533Y290945D02*
Y308164D01*
G03X182438Y308458I-500J0*
G01X188428D02*
G03X182438I-2995J2172D01*
G01X188428D02*
G03X188333Y308164I405J-294D01*
G01Y292770*
G03X188833Y292270I500J0*
G01X207220*
G03X207719Y292787I-0J500*
G01X212237Y296521D02*
G03X207719Y292787I-820J-3608D01*
G01X212237Y296521D02*
G03X212848Y297009I111J488D01*
G01Y306196*
G03X212753Y306489I-500J-0*
G01X219376Y309387D02*
G03X212753Y306489I-3628J-726D01*
G01X219376Y309387D02*
G03X219704Y309012I491J98D01*
G01X275120Y361746D02*
G03Y370047I3609J4150D01*
G01Y361746D02*
G03X274464I-328J-378D01*
G01X267246D02*
G03X274464I3609J4150D01*
G01X267246D02*
G03X266590I-328J-378D01*
G01X259372D02*
G03X266590I3609J4150D01*
G01X259372D02*
G03X258716I-328J-378D01*
G01Y370047D02*
G03Y361746I-3609J-4151D01*
G01Y370047D02*
G03X259372I328J377D01*
G01X266590D02*
G03X259372I-3609J-4151D01*
G01X266590D02*
G03X267246I328J377D01*
G01X274464D02*
G03X267246I-3609J-4151D01*
G01X274464D02*
G03X275120I328J377D01*
G01X255027Y241854D02*
X258517D01*
X254671Y240954D02*
X258517D01*
X253652Y240054D02*
X258517D01*
X248931Y239154D02*
X258517D01*
X248261Y238254D02*
X258399D01*
X255445Y242754D02*
X258141D01*
X247361Y237354D02*
X253477D01*
X246313Y236454D02*
X252569D01*
X242083Y235554D02*
X251722D01*
X242127Y234654D02*
X243176D01*
X130143Y195954D02*
X258555D01*
X130502Y195054D02*
X258555D01*
X130868Y194154D02*
X258555D01*
X131242Y193254D02*
X258555D01*
X131623Y192354D02*
X258555D01*
X132013Y191454D02*
X258555D01*
X132411Y190554D02*
X258555D01*
X132816Y189654D02*
X258555D01*
X133230Y188754D02*
X258555D01*
X133653Y187854D02*
X258555D01*
X134083Y186954D02*
X258555D01*
X256128Y226554D02*
X258517D01*
X252575Y225654D02*
X258517D01*
X252575Y224754D02*
X258517D01*
X252575Y223854D02*
X258517D01*
X252575Y222954D02*
X258517D01*
X252575Y222054D02*
X258517D01*
X252575Y221154D02*
X258517D01*
X252575Y220254D02*
X258517D01*
X252559Y219354D02*
X258517D01*
X252351Y218454D02*
X258517D01*
X251851Y217554D02*
X258517D01*
X250993Y216654D02*
X258517D01*
X250093Y215754D02*
X258517D01*
X249193Y214854D02*
X258517D01*
X257349Y227454D02*
X258398D01*
X134522Y186054D02*
X258381D01*
X248162Y213954D02*
X258157D01*
X256335Y213054D02*
X257816D01*
X129793Y196854D02*
X254599D01*
X129450Y197754D02*
X253263D01*
X129114Y198654D02*
X252363D01*
X215248Y213054D02*
X251539D01*
X128786Y199554D02*
X251537D01*
X128465Y200454D02*
X251130D01*
X214917Y207654D02*
X251037D01*
X215089Y206754D02*
X251037D01*
X215090Y205854D02*
X251037D01*
X214864Y204954D02*
X251037D01*
X214358Y204054D02*
X251037D01*
X213366Y203154D02*
X251037D01*
X127846Y202254D02*
X251037D01*
X128152Y201354D02*
X251037D01*
X214917Y212154D02*
X250773D01*
X214917Y208554D02*
X250642D01*
X214917Y211254D02*
X250380D01*
X214917Y209454D02*
X250321D01*
X214917Y210354D02*
X250239D01*
X134970Y185154D02*
X202650D01*
X135426Y184254D02*
X202650D01*
X135891Y183354D02*
X202650D01*
X136365Y182454D02*
X202650D01*
X136847Y181554D02*
X202650D01*
X137339Y180654D02*
X202650D01*
X137840Y179754D02*
X202650D01*
X138351Y178854D02*
X202650D01*
X138870Y177954D02*
X202650D01*
X139400Y177054D02*
X202650D01*
X139939Y176154D02*
X202650D01*
X140488Y175254D02*
X202650D01*
X141046Y174354D02*
X202650D01*
X141615Y173454D02*
X202650D01*
X142195Y172554D02*
X202650D01*
X142784Y171654D02*
X202650D01*
X143385Y170754D02*
X202650D01*
X143996Y169854D02*
X202650D01*
X144618Y168954D02*
X202650D01*
X145251Y168054D02*
X202650D01*
X145896Y167154D02*
X202650D01*
X146552Y166254D02*
X202650D01*
X147220Y165354D02*
X202650D01*
X147900Y164454D02*
X202650D01*
X148592Y163554D02*
X202650D01*
X149297Y162654D02*
X202650D01*
X150015Y161754D02*
X202650D01*
X150745Y160854D02*
X202650D01*
X151489Y159954D02*
X202650D01*
X152247Y159054D02*
X202650D01*
X153018Y158154D02*
X202650D01*
X153804Y157254D02*
X202650D01*
X154605Y156354D02*
X202650D01*
X155420Y155454D02*
X202650D01*
X156251Y154554D02*
X202650D01*
X157097Y153654D02*
X202650D01*
X157960Y152754D02*
X202650D01*
X158839Y151854D02*
X202650D01*
X159735Y150954D02*
X202650D01*
X160649Y150054D02*
X202650D01*
X161581Y149154D02*
X202650D01*
X162532Y148254D02*
X202650D01*
X163501Y147354D02*
X202650D01*
X164491Y146454D02*
X202650D01*
X165502Y145554D02*
X202650D01*
X166534Y144654D02*
X202650D01*
X167588Y143754D02*
X202650D01*
X168664Y142854D02*
X202650D01*
X169765Y141954D02*
X202650D01*
X170891Y141054D02*
X202650D01*
X172042Y140154D02*
X202650D01*
X173220Y139254D02*
X202650D01*
X174427Y138354D02*
X202650D01*
X175663Y137454D02*
X202650D01*
X176930Y136554D02*
X202650D01*
X178230Y135654D02*
X202650D01*
X179564Y134754D02*
X202650D01*
X180934Y133854D02*
X202650D01*
X182343Y132954D02*
X202650D01*
X183792Y132054D02*
X202650D01*
X185285Y131154D02*
X202650D01*
X186824Y130254D02*
X202650D01*
X188412Y129354D02*
X202650D01*
X190055Y128454D02*
X202650D01*
X191755Y127554D02*
X202650D01*
X193518Y126654D02*
X202650D01*
X195349Y125754D02*
X202650D01*
X197256Y124854D02*
X202650D01*
X199247Y123954D02*
X202650D01*
X201331Y123054D02*
X202608D01*
X125670Y278754D02*
X195008D01*
X125416Y277854D02*
X194208D01*
X123189Y267954D02*
X192957D01*
X123026Y267054D02*
X192957D01*
X122869Y266154D02*
X192957D01*
X122719Y265254D02*
X192929D01*
X125180Y276954D02*
X192812D01*
X123358Y268854D02*
X192662D01*
X124951Y276054D02*
X191997D01*
X123534Y269754D02*
X191901D01*
X124729Y275154D02*
X191470D01*
X123717Y270654D02*
X191408D01*
X124513Y274254D02*
X191143D01*
X123906Y271554D02*
X191108D01*
X124304Y273354D02*
X190981D01*
X124102Y272454D02*
X190970D01*
X127547Y203154D02*
X180355D01*
X122576Y264354D02*
X179985D01*
X127255Y204054D02*
X179185D01*
X133998Y263454D02*
X178976D01*
X126971Y204954D02*
X178285D01*
X135414Y262554D02*
X178076D01*
X126693Y205854D02*
X177385D01*
X136274Y261654D02*
X177176D01*
X126423Y206754D02*
X176485D01*
X136851Y260754D02*
X176276D01*
X126160Y207654D02*
X175735D01*
X137233Y259854D02*
X175620D01*
X125903Y208554D02*
X175357D01*
X137456Y258954D02*
X175308D01*
X137539Y258054D02*
X175240D01*
X161765Y257154D02*
X175240D01*
X164649Y256254D02*
X175240D01*
X166342Y255354D02*
X175240D01*
X167605Y254454D02*
X175240D01*
X168614Y253554D02*
X175240D01*
X169445Y252654D02*
X175240D01*
X170139Y251754D02*
X175240D01*
X170721Y250854D02*
X175240D01*
X171206Y249954D02*
X175240D01*
X171607Y249054D02*
X175240D01*
X171932Y248154D02*
X175240D01*
X172186Y247254D02*
X175240D01*
X172374Y246354D02*
X175240D01*
X172497Y245454D02*
X175240D01*
X172559Y244554D02*
X175240D01*
X172560Y243654D02*
X175240D01*
X172499Y242754D02*
X175240D01*
X172377Y241854D02*
X175240D01*
X172191Y240954D02*
X175240D01*
X171938Y240054D02*
X175240D01*
X171615Y239154D02*
X175240D01*
X171215Y238254D02*
X175240D01*
X170732Y237354D02*
X175240D01*
X170152Y236454D02*
X175240D01*
X169461Y235554D02*
X175240D01*
X168633Y234654D02*
X175240D01*
X167628Y233754D02*
X175240D01*
X166372Y232854D02*
X175240D01*
X164691Y231954D02*
X175240D01*
X161861Y231054D02*
X175240D01*
X137124Y230154D02*
X175240D01*
X137398Y229254D02*
X175240D01*
X137526Y228354D02*
X175240D01*
X136623Y224754D02*
X175240D01*
X135937Y223854D02*
X175240D01*
X134892Y222954D02*
X175240D01*
X132809Y222054D02*
X175240D01*
X123023Y221154D02*
X175240D01*
X123186Y220254D02*
X175240D01*
X123355Y219354D02*
X175240D01*
X123531Y218454D02*
X175240D01*
X123713Y217554D02*
X175240D01*
X123902Y216654D02*
X175240D01*
X124098Y215754D02*
X175240D01*
X124300Y214854D02*
X175240D01*
X124509Y213954D02*
X175240D01*
X124724Y213054D02*
X175240D01*
X124946Y212154D02*
X175240D01*
X125175Y211254D02*
X175240D01*
X125411Y210354D02*
X175240D01*
X125654Y209454D02*
X175240D01*
X137085Y225654D02*
X175213D01*
X137519Y227454D02*
X175104D01*
X137375Y226554D02*
X175047D01*
X137486Y257154D02*
X156778D01*
X136683Y231054D02*
X156682D01*
X137296Y256254D02*
X153894D01*
X136025Y231954D02*
X153852D01*
X136952Y255354D02*
X152201D01*
X135032Y232854D02*
X152172D01*
X136423Y254454D02*
X150938D01*
X133190Y233754D02*
X150915D01*
X135640Y253554D02*
X149929D01*
X121344Y234654D02*
X149910D01*
X134402Y252654D02*
X149098D01*
X121282Y235554D02*
X149082D01*
X121227Y251754D02*
X148404D01*
X121226Y236454D02*
X148391D01*
X121178Y250854D02*
X147823D01*
X121177Y237354D02*
X147812D01*
X121135Y249954D02*
X147337D01*
X121134Y238254D02*
X147328D01*
X121098Y249054D02*
X146936D01*
X121097Y239154D02*
X146928D01*
X121067Y248154D02*
X146611D01*
X121066Y240054D02*
X146605D01*
X121042Y247254D02*
X146357D01*
X121042Y240954D02*
X146353D01*
X121023Y246354D02*
X146170D01*
X121023Y241854D02*
X146167D01*
X121011Y245454D02*
X146046D01*
X121011Y242754D02*
X146044D01*
X121005Y244554D02*
X145984D01*
X121005Y243654D02*
X145984D01*
X122866Y222054D02*
X130183D01*
X121412Y233754D02*
X129802D01*
X122438Y263454D02*
X128994D01*
X121283Y252654D02*
X128590D01*
X122716Y222954D02*
X128100D01*
X121486Y232854D02*
X127960D01*
X122307Y262554D02*
X127578D01*
X121345Y253554D02*
X127352D01*
X122573Y223854D02*
X127055D01*
X121566Y231954D02*
X126967D01*
X122183Y261654D02*
X126719D01*
X121413Y254454D02*
X126569D01*
X122436Y224754D02*
X126369D01*
X121653Y231054D02*
X126309D01*
X122065Y260754D02*
X126141D01*
X121487Y255354D02*
X126040D01*
X122305Y225654D02*
X125907D01*
X121746Y230154D02*
X125868D01*
X121953Y259854D02*
X125760D01*
X121568Y256254D02*
X125696D01*
X122180Y226554D02*
X125617D01*
X121845Y229254D02*
X125594D01*
X121847Y258954D02*
X125536D01*
X121655Y257154D02*
X125506D01*
X122062Y227454D02*
X125473D01*
X121950Y228354D02*
X125466D01*
X121748Y258054D02*
X125454D01*
X182324Y251754D02*
X187566D01*
X182240Y252654D02*
X187296D01*
X182240Y253554D02*
X186760D01*
X182240Y254454D02*
X186427D01*
X182576Y257154D02*
X186376D01*
X182240Y255354D02*
X186260D01*
X182240Y256254D02*
X186243D01*
X197906Y278754D02*
X202882D01*
X198706Y277854D02*
X202082D01*
X200105Y276954D02*
X200682D01*
X205780Y278754D02*
X210756D01*
X206580Y277854D02*
X209956D01*
X207979Y276954D02*
X208556D01*
X268389Y260754D02*
X279777D01*
X269046Y259854D02*
X279777D01*
X269270Y258954D02*
X279777D01*
X270756Y258054D02*
X279777D01*
X271594Y257154D02*
X279777D01*
X272025Y256254D02*
X279777D01*
X272196Y255354D02*
X279777D01*
X272144Y254454D02*
X279777D01*
X271857Y253554D02*
X279777D01*
X271264Y252654D02*
X279777D01*
X270044Y251754D02*
X279777D01*
X269195Y250854D02*
X279777D01*
X268810Y249954D02*
X279777D01*
X267694Y249054D02*
X279777D01*
X262360Y248154D02*
X279777D01*
X263147Y247254D02*
X279777D01*
X263916Y246354D02*
X279777D01*
X241780Y261654D02*
X279767D01*
X264260Y245454D02*
X279664D01*
X264317Y244554D02*
X279194D01*
X269113Y242754D02*
X279011D01*
X268154Y243654D02*
X278993D01*
X269450Y241854D02*
X277989D01*
X241739Y262554D02*
X277660D01*
X269483Y240954D02*
X277188D01*
X269483Y240054D02*
X276775D01*
X270157Y277854D02*
X276628D01*
X273903Y276954D02*
X276628D01*
X274742Y276054D02*
X276628D01*
X275174Y275154D02*
X276628D01*
X275346Y274254D02*
X276628D01*
X275294Y273354D02*
X276628D01*
X275008Y272454D02*
X276628D01*
X274416Y271554D02*
X276628D01*
X273199Y270654D02*
X276628D01*
X256718Y269754D02*
X276628D01*
X255962Y268854D02*
X276628D01*
X241739Y263454D02*
X276625D01*
X269483Y239154D02*
X276619D01*
X270246Y278754D02*
X276573D01*
X253589Y267954D02*
X276555D01*
X269597Y238254D02*
X276498D01*
X241739Y264354D02*
X276100D01*
X241739Y267054D02*
X276066D01*
X241739Y265254D02*
X275861D01*
X241739Y266154D02*
X275850D01*
X257106Y270654D02*
X270108D01*
X262349Y249054D02*
X263802D01*
X246737Y260754D02*
X263107D01*
X247389Y259854D02*
X259708D01*
X247587Y258954D02*
X258790D01*
X247589Y258054D02*
X257890D01*
X247589Y257154D02*
X257058D01*
X247510Y256254D02*
X256645D01*
X247073Y255354D02*
X256549D01*
X245715Y254454D02*
X256549D01*
X241739Y253554D02*
X256549D01*
X241739Y252654D02*
X256549D01*
X241739Y251754D02*
X256549D01*
X241739Y250854D02*
X256549D01*
X241739Y249954D02*
X256549D01*
X241739Y249054D02*
X256549D01*
X241739Y267954D02*
X253498D01*
X241739Y268854D02*
X247344D01*
X222328Y277854D02*
X246313D01*
X223723Y276954D02*
X246313D01*
X224538Y276054D02*
X246313D01*
X238995Y275154D02*
X246313D01*
X241739Y269754D02*
X246309D01*
X221528Y278754D02*
X246307D01*
X240428Y274254D02*
X246240D01*
X241738Y270654D02*
X245785D01*
X241081Y273354D02*
X245751D01*
X241769Y227454D02*
X245575D01*
X240368Y226554D02*
X245575D01*
X227393Y225654D02*
X245575D01*
X226822Y224754D02*
X245575D01*
X225666Y223854D02*
X245575D01*
X202706Y222954D02*
X245575D01*
X202713Y222054D02*
X245575D01*
X241581Y271554D02*
X245546D01*
X202713Y221154D02*
X245538D01*
X241408Y272454D02*
X245535D01*
X196581Y242754D02*
X240288D01*
X195978Y243654D02*
X238721D01*
X195993Y244554D02*
X237821D01*
X196591Y245454D02*
X236921D01*
X227665Y226554D02*
X236797D01*
X225066Y275154D02*
X236596D01*
X196970Y246354D02*
X236238D01*
X197177Y247254D02*
X235964D01*
X222614Y267954D02*
X235939D01*
X199957Y267054D02*
X235939D01*
X199957Y266154D02*
X235939D01*
X199957Y265254D02*
X235939D01*
X199957Y264354D02*
X235939D01*
X199957Y263454D02*
X235939D01*
X199856Y262554D02*
X235939D01*
X199498Y261654D02*
X235939D01*
X197037Y254454D02*
X235939D01*
X196704Y253554D02*
X235939D01*
X196168Y252654D02*
X235939D01*
X195808Y251754D02*
X235939D01*
X196453Y250854D02*
X235939D01*
X196885Y249954D02*
X235939D01*
X197136Y249054D02*
X235939D01*
X197231Y248154D02*
X235939D01*
X198774Y260754D02*
X235891D01*
X197205Y255354D02*
X235604D01*
X223874Y268854D02*
X235376D01*
X197874Y259854D02*
X235289D01*
X197221Y256254D02*
X235167D01*
X225393Y274254D02*
X235163D01*
X196974Y258954D02*
X235090D01*
X197032Y233754D02*
X235089D01*
X196795Y258054D02*
X235089D01*
X197089Y257154D02*
X235089D01*
X225815Y235554D02*
X235083D01*
X196695Y234654D02*
X235083D01*
X224635Y269754D02*
X234620D01*
X225554Y273354D02*
X234509D01*
X225128Y270654D02*
X234233D01*
X225566Y272454D02*
X234183D01*
X225428Y271554D02*
X234097D01*
X197203Y232854D02*
X225911D01*
X197222Y231954D02*
X224703D01*
X197093Y231054D02*
X223803D01*
X196154Y235554D02*
X223004D01*
X202467Y223854D02*
X222365D01*
X196964Y241854D02*
X222083D01*
X200952Y230154D02*
X221834D01*
X195818Y236454D02*
X221703D01*
X197174Y240954D02*
X221282D01*
X202660Y224754D02*
X221210D01*
X196464Y237354D02*
X221084D01*
X202222Y229254D02*
X220961D01*
X197231Y240054D02*
X220870D01*
X196892Y238254D02*
X220781D01*
X197140Y239154D02*
X220714D01*
X202713Y225654D02*
X220639D01*
X202642Y228354D02*
X220512D01*
X202713Y226554D02*
X220367D01*
X202713Y227454D02*
X220327D01*
X214740Y267954D02*
X217543D01*
X202713Y220254D02*
X213079D01*
X202540Y219354D02*
X211648D01*
X201935Y218454D02*
X210748D01*
X182330Y217554D02*
X209848D01*
X206866Y267954D02*
X209669D01*
X182240Y216654D02*
X208948D01*
X182240Y215754D02*
X208295D01*
X182240Y214854D02*
X207984D01*
X182240Y213954D02*
X207917D01*
X182240Y213054D02*
X207917D01*
X182240Y212154D02*
X207917D01*
X182240Y211254D02*
X207917D01*
X182785Y210354D02*
X207917D01*
X199957Y267954D02*
X201795D01*
X264917Y229254D02*
X280854D01*
X264917Y230154D02*
X280365D01*
X264851Y228354D02*
X280009D01*
X264929Y231054D02*
X279746D01*
X268496Y231954D02*
X279439D01*
X264437Y227454D02*
X279109D01*
X264317Y226554D02*
X278209D01*
X264317Y225654D02*
X277309D01*
X264317Y224754D02*
X276409D01*
X264317Y223854D02*
X275509D01*
X264317Y222954D02*
X274609D01*
X264317Y222054D02*
X273709D01*
X264317Y221154D02*
X272809D01*
X264317Y220254D02*
X271909D01*
X264317Y219354D02*
X271009D01*
X264317Y218454D02*
X270109D01*
X264317Y217554D02*
X269209D01*
X264317Y216654D02*
X268309D01*
X264317Y215754D02*
X267409D01*
X264317Y214854D02*
X266509D01*
X264678Y213954D02*
X265609D01*
X284122Y224360D02*
X286076D01*
X283222Y223460D02*
X286076D01*
X282322Y222560D02*
X286076D01*
X281422Y221660D02*
X286076D01*
X280522Y220760D02*
X286076D01*
X279622Y219860D02*
X286076D01*
X278722Y218960D02*
X286076D01*
X277822Y218060D02*
X286076D01*
X276922Y217160D02*
X286076D01*
X276022Y216260D02*
X286076D01*
X275122Y215360D02*
X286076D01*
X274222Y214460D02*
X286076D01*
X273322Y213560D02*
X286076D01*
X272422Y212660D02*
X286076D01*
X271522Y211760D02*
X286076D01*
X270622Y210860D02*
X286076D01*
X269722Y209960D02*
X286076D01*
X268822Y209060D02*
X286076D01*
X267922Y208160D02*
X286076D01*
X267022Y207260D02*
X286076D01*
X266122Y206360D02*
X286076D01*
X265222Y205460D02*
X286076D01*
X264322Y204560D02*
X286076D01*
X263422Y203660D02*
X286076D01*
X263040Y202760D02*
X286054D01*
X285022Y225260D02*
X286052D01*
X234002Y286460D02*
X235278D01*
X234002Y289160D02*
X235232D01*
X234002Y288260D02*
X235193D01*
X234054Y285560D02*
X235146D01*
X234002Y287360D02*
X235102D01*
X234002Y290060D02*
X235098D01*
X234337Y290960D02*
X234789D01*
X246697Y291860D02*
X249626D01*
X246658Y290960D02*
X249174D01*
X340321Y296360D02*
X361610D01*
X340308Y297260D02*
X348838D01*
X340308Y298160D02*
X347527D01*
X340308Y299060D02*
X346627D01*
X340308Y299960D02*
X345977D01*
X340308Y300860D02*
X345725D01*
X340308Y302660D02*
X345707D01*
X340308Y301760D02*
X345707D01*
X341277Y303560D02*
X345439D01*
X272954Y146060D02*
X275652D01*
X273293Y145160D02*
X275312D01*
X273828Y146960D02*
X274777D01*
X274087Y144260D02*
X274519D01*
X358748Y244160D02*
X383720D01*
X358722Y243260D02*
X383718D01*
X358713Y245060D02*
X383717D01*
X358634Y242360D02*
X383709D01*
X358617Y245960D02*
X383707D01*
X358484Y241460D02*
X383694D01*
X358457Y246860D02*
X383691D01*
X358270Y240560D02*
X383673D01*
X358233Y247760D02*
X383669D01*
X357987Y239660D02*
X383646D01*
X357940Y248660D02*
X383641D01*
X357631Y238760D02*
X383612D01*
X357573Y249560D02*
X383607D01*
X357196Y237860D02*
X383572D01*
X357125Y250460D02*
X383566D01*
X356672Y236960D02*
X383527D01*
X356587Y251360D02*
X383519D01*
X356046Y236060D02*
X383475D01*
X355945Y252260D02*
X383466D01*
X355299Y235160D02*
X383416D01*
X355178Y253160D02*
X383407D01*
X354400Y234260D02*
X383352D01*
X354253Y254060D02*
X383342D01*
X353297Y233360D02*
X383281D01*
X353115Y254960D02*
X383270D01*
X351888Y232460D02*
X383204D01*
X351644Y255860D02*
X383192D01*
X379787Y231560D02*
X383121D01*
X349496Y256760D02*
X383108D01*
X380840Y230660D02*
X383032D01*
X334202Y257660D02*
X383018D01*
X381372Y229760D02*
X382936D01*
X334202Y258560D02*
X382922D01*
X381617Y228860D02*
X382834D01*
X334202Y259460D02*
X382819D01*
X381633Y227960D02*
X382726D01*
X334202Y260360D02*
X382710D01*
X381422Y227060D02*
X382611D01*
X334202Y261260D02*
X382594D01*
X380938Y226160D02*
X382490D01*
X334202Y262160D02*
X382472D01*
X379993Y225260D02*
X382363D01*
X334202Y263060D02*
X382344D01*
X363365Y224360D02*
X382230D01*
X334202Y263960D02*
X382210D01*
X363535Y223460D02*
X382090D01*
X334202Y264860D02*
X382069D01*
X363482Y222560D02*
X381943D01*
X334202Y265760D02*
X381921D01*
X363194Y221660D02*
X381791D01*
X334202Y266660D02*
X381768D01*
X362599Y220760D02*
X381631D01*
X334202Y267560D02*
X381608D01*
X361374Y219860D02*
X381466D01*
X334202Y268460D02*
X381441D01*
X291876Y218960D02*
X381293D01*
X334218Y269360D02*
X381268D01*
X291876Y218060D02*
X381115D01*
X339916Y270260D02*
X381088D01*
X291876Y217160D02*
X380929D01*
X340899Y271160D02*
X380902D01*
X291876Y216260D02*
X380738D01*
X341799Y272060D02*
X380709D01*
X291876Y215360D02*
X380539D01*
X342504Y272960D02*
X380510D01*
X291876Y214460D02*
X380334D01*
X342815Y273860D02*
X380304D01*
X291876Y213560D02*
X380122D01*
X342864Y274760D02*
X380091D01*
X291876Y212660D02*
X379904D01*
X366550Y275660D02*
X379871D01*
X291876Y211760D02*
X379679D01*
X367419Y276560D02*
X379645D01*
X291876Y210860D02*
X379447D01*
X367816Y277460D02*
X379412D01*
X291876Y209960D02*
X379208D01*
X367923Y278360D02*
X379173D01*
X291876Y209060D02*
X378962D01*
X367923Y279260D02*
X378926D01*
X291876Y208160D02*
X378710D01*
X367923Y280160D02*
X378672D01*
X291876Y207260D02*
X378450D01*
X367923Y281060D02*
X378412D01*
X291876Y206360D02*
X378184D01*
X367923Y281960D02*
X378144D01*
X352417Y205460D02*
X377910D01*
X367892Y282860D02*
X377870D01*
X353370Y204560D02*
X377630D01*
X367626Y283760D02*
X377589D01*
X353859Y203660D02*
X377342D01*
X367000Y284660D02*
X377300D01*
X368470Y202760D02*
X377048D01*
X365266Y285560D02*
X377004D01*
X369470Y201860D02*
X376746D01*
X360255Y286460D02*
X376701D01*
X369979Y200960D02*
X376436D01*
X367312Y287360D02*
X376391D01*
X370208Y200060D02*
X376120D01*
X349886Y231560D02*
X376119D01*
X368235Y288260D02*
X376073D01*
X363241Y225260D02*
X375912D01*
X370208Y199160D02*
X375796D01*
X369129Y289160D02*
X375748D01*
X369982Y198260D02*
X375465D01*
X369693Y290060D02*
X375416D01*
X369476Y197360D02*
X375126D01*
X369911Y290960D02*
X375076D01*
X368483Y196460D02*
X374779D01*
X369923Y291860D02*
X374728D01*
X262902Y195560D02*
X374425D01*
X369923Y292760D02*
X374373D01*
X262902Y194660D02*
X374064D01*
X369923Y293660D02*
X374010D01*
X262902Y193760D02*
X373694D01*
X369923Y294560D02*
X373640D01*
X262902Y192860D02*
X373317D01*
X369923Y295460D02*
X373261D01*
X262902Y191960D02*
X372932D01*
X369923Y296360D02*
X372875D01*
X262902Y191060D02*
X372539D01*
X369923Y297260D02*
X372481D01*
X262902Y190160D02*
X372137D01*
X369923Y298160D02*
X372078D01*
X262902Y189260D02*
X371728D01*
X369923Y299060D02*
X371668D01*
X262902Y188360D02*
X371310D01*
X369923Y299960D02*
X371249D01*
X262902Y187460D02*
X370885D01*
X370045Y300860D02*
X370802D01*
X262902Y186560D02*
X370450D01*
X262902Y185660D02*
X370007D01*
X262902Y184760D02*
X369556D01*
X262902Y183860D02*
X369096D01*
X262902Y182960D02*
X368627D01*
X262902Y182060D02*
X368150D01*
X208768Y181160D02*
X367663D01*
X208768Y180260D02*
X367167D01*
X208768Y179360D02*
X366662D01*
X208768Y178460D02*
X366148D01*
X208768Y177560D02*
X365624D01*
X208768Y176660D02*
X365090D01*
X354109Y202760D02*
X364601D01*
X262971Y196460D02*
X364588D01*
X208768Y175760D02*
X364547D01*
X362707Y285560D02*
X364203D01*
X208768Y174860D02*
X363994D01*
X208768Y173960D02*
X363430D01*
X208768Y173060D02*
X362857D01*
X208768Y172160D02*
X362273D01*
X208768Y171260D02*
X361679D01*
X360350Y285560D02*
X361644D01*
X208768Y170360D02*
X361074D01*
X208768Y169460D02*
X360458D01*
X208768Y168560D02*
X359831D01*
X208768Y167660D02*
X359193D01*
X208768Y166760D02*
X358543D01*
X291876Y219860D02*
X358311D01*
X356819Y321560D02*
X358011D01*
X208768Y165860D02*
X357882D01*
X340347Y322460D02*
X357784D01*
X208768Y164960D02*
X357208D01*
X339741Y323360D02*
X357109D01*
X208768Y164060D02*
X356523D01*
X338481Y324260D02*
X356422D01*
X208768Y163160D02*
X355825D01*
X287172Y325160D02*
X355723D01*
X342864Y275660D02*
X355242D01*
X208768Y162260D02*
X355115D01*
X287152Y326060D02*
X355010D01*
X208768Y161360D02*
X354392D01*
X342864Y276560D02*
X354373D01*
X287246Y326960D02*
X354285D01*
X342864Y289160D02*
X354113D01*
X342864Y277460D02*
X353976D01*
X342864Y288260D02*
X353958D01*
X342864Y287360D02*
X353957D01*
X342864Y286460D02*
X353957D01*
X342864Y285560D02*
X353957D01*
X342864Y284660D02*
X353957D01*
X342864Y283760D02*
X353957D01*
X342864Y282860D02*
X353899D01*
X342864Y281960D02*
X353868D01*
X342864Y281060D02*
X353868D01*
X342864Y280160D02*
X353868D01*
X342864Y279260D02*
X353868D01*
X342864Y278360D02*
X353868D01*
X296995Y230660D02*
X353752D01*
X208768Y160460D02*
X353655D01*
X287726Y327860D02*
X353547D01*
X208768Y159560D02*
X352905D01*
X296995Y229760D02*
X352824D01*
X287933Y328760D02*
X352795D01*
X208768Y158660D02*
X352142D01*
X287914Y329660D02*
X352029D01*
X297251Y228860D02*
X351924D01*
X208768Y157760D02*
X351364D01*
X287666Y330560D02*
X351249D01*
X283830Y156860D02*
X350572D01*
X287129Y331460D02*
X350455D01*
X284317Y155960D02*
X349765D01*
X286063Y332360D02*
X349646D01*
X284421Y155060D02*
X348943D01*
X155902Y333260D02*
X348822D01*
X291978Y205460D02*
X348371D01*
X284421Y154160D02*
X348106D01*
X156742Y334160D02*
X347982D01*
X284421Y153260D02*
X347252D01*
X157598Y335060D02*
X347126D01*
X284421Y152360D02*
X346382D01*
X158470Y335960D02*
X346254D01*
X284421Y151460D02*
X345496D01*
X159359Y336860D02*
X345365D01*
X284421Y150560D02*
X344592D01*
X160266Y337760D02*
X344459D01*
X284421Y149660D02*
X343670D01*
X161190Y338660D02*
X343534D01*
X284421Y148760D02*
X342730D01*
X162133Y339560D02*
X342591D01*
X284391Y147860D02*
X341771D01*
X163095Y340460D02*
X341630D01*
X334202Y256760D02*
X341410D01*
X296995Y231560D02*
X341019D01*
X284065Y146960D02*
X340792D01*
X273159Y341360D02*
X340648D01*
X283190Y146060D02*
X339794D01*
X273900Y342260D02*
X339646D01*
X334202Y255860D02*
X339261D01*
X296995Y232460D02*
X339018D01*
X283529Y145160D02*
X338774D01*
X274146Y343160D02*
X338623D01*
X334202Y254960D02*
X337791D01*
X284206Y144260D02*
X337732D01*
X296995Y233360D02*
X337608D01*
X274154Y344060D02*
X337579D01*
X284418Y143360D02*
X336669D01*
X334202Y254060D02*
X336652D01*
X274154Y344960D02*
X336512D01*
X296995Y234260D02*
X336506D01*
X334202Y253160D02*
X335728D01*
X296995Y235160D02*
X335607D01*
X284421Y142460D02*
X335581D01*
X287666Y324260D02*
X335534D01*
X274154Y345860D02*
X335421D01*
X296995Y236060D02*
X334860D01*
X334561Y252260D02*
X334844D01*
X284421Y141560D02*
X334470D01*
X274154Y346760D02*
X334306D01*
X287914Y323360D02*
X334275D01*
X296995Y236960D02*
X334234D01*
X296995Y237860D02*
X333710D01*
X142537Y316160D02*
X333708D01*
X141952Y315260D02*
X333708D01*
X141377Y314360D02*
X333708D01*
X187816Y313460D02*
X333708D01*
X188590Y312560D02*
X333708D01*
X217916Y311660D02*
X333708D01*
X218795Y310760D02*
X333708D01*
X219249Y309860D02*
X333708D01*
X219845Y308960D02*
X333708D01*
X221187Y308060D02*
X333708D01*
X221817Y307160D02*
X333708D01*
X222128Y306260D02*
X333708D01*
X222201Y305360D02*
X333708D01*
X286962Y304460D02*
X333708D01*
X287768Y303560D02*
X333708D01*
X288183Y302660D02*
X333708D01*
X288341Y301760D02*
X333708D01*
X288276Y300860D02*
X333708D01*
X287975Y299960D02*
X333708D01*
X287546Y299060D02*
X333708D01*
X287546Y298160D02*
X333708D01*
X287546Y297260D02*
X333708D01*
X287546Y296360D02*
X333708D01*
X321537Y295460D02*
X333708D01*
X322378Y294560D02*
X333708D01*
X322811Y293660D02*
X333708D01*
X322984Y292760D02*
X333708D01*
X322932Y291860D02*
X333708D01*
X322647Y290960D02*
X333708D01*
X322056Y290060D02*
X333708D01*
X320842Y289160D02*
X333708D01*
X289514Y288260D02*
X333708D01*
X289514Y287360D02*
X333708D01*
X289514Y286460D02*
X333708D01*
X289514Y285560D02*
X333708D01*
X287933Y322460D02*
X333669D01*
X143133Y317060D02*
X333601D01*
X286310Y319760D02*
X333472D01*
X287726Y321560D02*
X333374D01*
X143740Y317960D02*
X333348D01*
X284421Y140660D02*
X333333D01*
X144357Y318860D02*
X333325D01*
X287246Y320660D02*
X333314D01*
X296995Y238760D02*
X333275D01*
X274154Y347660D02*
X333165D01*
X328140Y239660D02*
X332919D01*
X331152Y240560D02*
X332636D01*
X284421Y139760D02*
X332170D01*
X274154Y348560D02*
X331998D01*
X284421Y138860D02*
X330980D01*
X274154Y349460D02*
X330804D01*
X284421Y137960D02*
X329760D01*
X274154Y350360D02*
X329580D01*
X284421Y137060D02*
X328511D01*
X274154Y351260D02*
X328326D01*
X284419Y136160D02*
X327230D01*
X274154Y352160D02*
X327040D01*
X284218Y135260D02*
X325915D01*
X274154Y353060D02*
X325721D01*
X308578Y246860D02*
X325266D01*
X296995Y239660D02*
X324615D01*
X283562Y134360D02*
X324566D01*
X274154Y353960D02*
X324366D01*
X290657Y245960D02*
X324279D01*
X296994Y240560D02*
X323523D01*
X291775Y245060D02*
X323364D01*
X281156Y133460D02*
X323179D01*
X296848Y241460D02*
X322975D01*
X274154Y354860D02*
X322974D01*
X294500Y244160D02*
X322894D01*
X296361Y242360D02*
X322720D01*
X295487Y243260D02*
X322694D01*
X281582Y132560D02*
X321753D01*
X274154Y355760D02*
X321542D01*
X282295Y131660D02*
X320285D01*
X274021Y356660D02*
X320067D01*
X282816Y130760D02*
X318772D01*
X273483Y357560D02*
X318548D01*
X289516Y289160D02*
X317741D01*
X283186Y129860D02*
X317212D01*
X287842Y295460D02*
X317022D01*
X238917Y358460D02*
X316980D01*
X283428Y128960D02*
X315600D01*
X238917Y359360D02*
X315361D01*
X283555Y128060D02*
X313933D01*
X238852Y360260D02*
X313685D01*
X283573Y127160D02*
X312206D01*
X281525Y361160D02*
X311949D01*
X283481Y126260D02*
X310414D01*
X282670Y362060D02*
X310147D01*
X290248Y284660D02*
X309106D01*
X283277Y125360D02*
X308551D01*
X283380Y362960D02*
X308272D01*
X290988Y283760D02*
X308097D01*
X291366Y282860D02*
X307584D01*
X291462Y277460D02*
X307524D01*
X291223Y276560D02*
X307524D01*
X290711Y275660D02*
X307524D01*
X290657Y274760D02*
X307524D01*
X290657Y273860D02*
X307524D01*
X290657Y272960D02*
X307524D01*
X290657Y272060D02*
X307524D01*
X290657Y271160D02*
X307524D01*
X290657Y270260D02*
X307524D01*
X290657Y269360D02*
X307524D01*
X290657Y268460D02*
X307524D01*
X290657Y267560D02*
X307524D01*
X291066Y280160D02*
X307469D01*
X291473Y278360D02*
X307405D01*
X291495Y281960D02*
X307353D01*
X291401Y281060D02*
X307349D01*
X291257Y279260D02*
X307326D01*
X282951Y124460D02*
X306608D01*
X290657Y266660D02*
X306601D01*
X290657Y246860D02*
X306383D01*
X283838Y363860D02*
X306318D01*
X290657Y247760D02*
X304881D01*
X291034Y257660D02*
X304833D01*
X290657Y256760D02*
X304775D01*
X290657Y265760D02*
X304631D01*
X282482Y123560D02*
X304578D01*
X290657Y255860D02*
X304505D01*
X290657Y253160D02*
X304364D01*
X290657Y252260D02*
X304286D01*
X284110Y364760D02*
X304274D01*
X291387Y258560D02*
X304264D01*
X290657Y254960D02*
X304228D01*
X290657Y248660D02*
X304212D01*
X290657Y254060D02*
X304184D01*
X291495Y259460D02*
X304010D01*
X291381Y260360D02*
X303987D01*
X290657Y251360D02*
X303909D01*
X290657Y264860D02*
X303893D01*
X290657Y249560D02*
X303875D01*
X291022Y261260D02*
X303817D01*
X290657Y250460D02*
X303781D01*
X290657Y263960D02*
X303515D01*
X290657Y262160D02*
X303481D01*
X290657Y263060D02*
X303387D01*
X281838Y122660D02*
X302449D01*
X284224Y365660D02*
X302130D01*
X280948Y121760D02*
X300209D01*
X284189Y366560D02*
X299872D01*
X279633Y120860D02*
X297841D01*
X284002Y367460D02*
X297483D01*
X264625Y119960D02*
X295323D01*
X283646Y368360D02*
X294942D01*
X248068Y119060D02*
X292629D01*
X283080Y369260D02*
X292219D01*
X215006Y118160D02*
X289719D01*
X282203Y370160D02*
X289274D01*
X218186Y117260D02*
X286539D01*
X280622Y371060D02*
X286048D01*
X221720Y116360D02*
X283004D01*
X222273Y371960D02*
X282452D01*
X155078Y332360D02*
X282440D01*
X222051Y304460D02*
X282329D01*
X144986Y319760D02*
X282193D01*
X274711Y299060D02*
X281746D01*
X274360Y298160D02*
X281746D01*
X274360Y297260D02*
X281746D01*
X274446Y296360D02*
X281634D01*
X273174Y303560D02*
X281523D01*
X154269Y331460D02*
X281375D01*
X149714Y326060D02*
X281352D01*
X149002Y325160D02*
X281332D01*
X274934Y299960D02*
X281317D01*
X145626Y320660D02*
X281258D01*
X150439Y326960D02*
X281258D01*
X274184Y302660D02*
X281108D01*
X274930Y300860D02*
X281015D01*
X274698Y301760D02*
X280950D01*
X153475Y330560D02*
X280838D01*
X148302Y324260D02*
X280838D01*
X146277Y321560D02*
X280778D01*
X151178Y327860D02*
X280778D01*
X152695Y329660D02*
X280590D01*
X147615Y323360D02*
X280589D01*
X146940Y322460D02*
X280571D01*
X151930Y328760D02*
X280571D01*
X225750Y115460D02*
X278974D01*
X226393Y372860D02*
X278332D01*
X272748Y371060D02*
X276836D01*
X273651Y361160D02*
X275933D01*
X274329Y370160D02*
X275255D01*
X273594Y156860D02*
X275012D01*
X230549Y114560D02*
X274176D01*
X231343Y373760D02*
X273382D01*
X265945Y120860D02*
X272525D01*
X266837Y121760D02*
X271210D01*
X267482Y122660D02*
X270320D01*
X267952Y123560D02*
X269675D01*
X221647Y303560D02*
X269346D01*
X268282Y124460D02*
X269207D01*
X264874Y371060D02*
X268962D01*
X265777Y361160D02*
X268059D01*
X236810Y113660D02*
X267914D01*
X266455Y370160D02*
X267381D01*
X237954Y374660D02*
X266771D01*
X264047Y133460D02*
X265509D01*
X208768Y134360D02*
X265044D01*
X208768Y156860D02*
X264775D01*
X208768Y135260D02*
X264387D01*
X208768Y155960D02*
X264289D01*
X208768Y155060D02*
X264185D01*
X208768Y154160D02*
X264185D01*
X208768Y153260D02*
X264185D01*
X208768Y152360D02*
X264185D01*
X208768Y151460D02*
X264185D01*
X208768Y150560D02*
X264185D01*
X208768Y149660D02*
X264185D01*
X208768Y148760D02*
X264185D01*
X208768Y147860D02*
X263995D01*
X208768Y146960D02*
X262148D01*
X254261Y341360D02*
X261487D01*
X208768Y146060D02*
X261373D01*
X254585Y357560D02*
X261163D01*
X257000Y371060D02*
X261088D01*
X208768Y145160D02*
X260971D01*
X208768Y144260D02*
X260821D01*
X255003Y342260D02*
X260745D01*
X255123Y356660D02*
X260625D01*
X255248Y343160D02*
X260500D01*
X255256Y355760D02*
X260492D01*
X255256Y354860D02*
X260492D01*
X255256Y353960D02*
X260492D01*
X255256Y353060D02*
X260492D01*
X255256Y352160D02*
X260492D01*
X255256Y351260D02*
X260492D01*
X255256Y350360D02*
X260492D01*
X255256Y349460D02*
X260492D01*
X255256Y348560D02*
X260492D01*
X255256Y347660D02*
X260492D01*
X255256Y346760D02*
X260492D01*
X255256Y345860D02*
X260492D01*
X255256Y344960D02*
X260492D01*
X255256Y344060D02*
X260492D01*
X257903Y361160D02*
X260184D01*
X208768Y136160D02*
X259730D01*
X208768Y143360D02*
X259705D01*
X258581Y370160D02*
X259507D01*
X247448Y133460D02*
X258118D01*
X249887Y119960D02*
X257540D01*
X249611Y132560D02*
X256568D01*
X250979Y120860D02*
X256221D01*
X250793Y131660D02*
X255574D01*
X251749Y121760D02*
X255329D01*
X249858Y112760D02*
X254866D01*
X251615Y130760D02*
X254862D01*
X252310Y122660D02*
X254683D01*
X252213Y129860D02*
X254342D01*
X252714Y123560D02*
X254213D01*
X252645Y128960D02*
X253973D01*
X253006Y124460D02*
X253872D01*
X253159Y128060D02*
X253494D01*
X218677Y371060D02*
X253214D01*
X208768Y137060D02*
X252688D01*
X208768Y142460D02*
X252681D01*
X238917Y361160D02*
X252310D01*
X208768Y137960D02*
X252150D01*
X208768Y141560D02*
X252148D01*
X208768Y140660D02*
X252018D01*
X208768Y139760D02*
X252018D01*
X208768Y138860D02*
X252018D01*
X215451Y370160D02*
X251633D01*
X238917Y362060D02*
X251165D01*
X212505Y369260D02*
X250755D01*
X238917Y362960D02*
X250456D01*
X209782Y368360D02*
X250190D01*
X238826Y363860D02*
X249998D01*
X207241Y367460D02*
X249834D01*
X238362Y364760D02*
X249725D01*
X205617Y366560D02*
X249647D01*
X236796Y365660D02*
X249612D01*
X208768Y133460D02*
X243917D01*
X212096Y119060D02*
X243298D01*
X164076Y341360D02*
X242589D01*
X238917Y357560D02*
X242265D01*
X165078Y342260D02*
X241848D01*
X208768Y132560D02*
X241755D01*
X238881Y356660D02*
X241727D01*
X166101Y343160D02*
X241602D01*
X238917Y355760D02*
X241594D01*
X238917Y354860D02*
X241594D01*
X168213Y344960D02*
X241594D01*
X167146Y344060D02*
X241594D01*
X238939Y353960D02*
X241573D01*
X209401Y119960D02*
X241478D01*
X208768Y131660D02*
X240572D01*
X208768Y120860D02*
X240387D01*
X208768Y130760D02*
X239751D01*
X208768Y121760D02*
X239617D01*
X208768Y129860D02*
X239153D01*
X208768Y122660D02*
X239055D01*
X208768Y128960D02*
X238721D01*
X208768Y123560D02*
X238652D01*
X208768Y128060D02*
X238425D01*
X208768Y124460D02*
X238380D01*
X208768Y127160D02*
X238248D01*
X208768Y125360D02*
X238227D01*
X208768Y126260D02*
X238183D01*
X230362Y302660D02*
X231843D01*
X227741Y365660D02*
X231314D01*
X221404Y302660D02*
X226843D01*
X216715Y290960D02*
X225446D01*
X215546Y290060D02*
X225446D01*
X215505Y289160D02*
X225446D01*
X215341Y288260D02*
X225446D01*
X214917Y287360D02*
X225446D01*
X217615Y291860D02*
X225419D01*
X221404Y301760D02*
X225389D01*
X169304Y345860D02*
X225369D01*
X214096Y286460D02*
X225268D01*
X222123Y297260D02*
X225041D01*
X221805Y296360D02*
X225009D01*
X218323Y292760D02*
X224961D01*
X221404Y300860D02*
X224938D01*
X222202Y298160D02*
X224853D01*
X221662Y299960D02*
X224852D01*
X222058Y299060D02*
X224852D01*
X221164Y295460D02*
X224852D01*
X219784Y294560D02*
X224852D01*
X218615Y293660D02*
X224852D01*
X197541Y346760D02*
X223961D01*
X215406Y347660D02*
X223061D01*
X217072Y348560D02*
X222161D01*
X127720Y285560D02*
X222090D01*
X218112Y349460D02*
X221490D01*
X127425Y284660D02*
X221286D01*
X218855Y350360D02*
X221081D01*
X127141Y283760D02*
X220871D01*
X188987Y311660D02*
X213581D01*
X188333Y305360D02*
X212848D01*
X188333Y304460D02*
X212848D01*
X188333Y303560D02*
X212848D01*
X188333Y302660D02*
X212848D01*
X188333Y301760D02*
X212848D01*
X188333Y300860D02*
X212848D01*
X188333Y299960D02*
X212848D01*
X188333Y299060D02*
X212848D01*
X188333Y298160D02*
X212848D01*
X188333Y297260D02*
X212848D01*
X188333Y306260D02*
X212844D01*
X189131Y310760D02*
X212701D01*
X188333Y307160D02*
X212366D01*
X189052Y309860D02*
X212248D01*
X188333Y308060D02*
X212097D01*
X188735Y308960D02*
X212060D01*
X188333Y296360D02*
X210072D01*
X200873Y347660D02*
X210001D01*
X128023Y286460D02*
X209445D01*
X188333Y295460D02*
X208733D01*
X202182Y348560D02*
X208335D01*
X188333Y294560D02*
X208104D01*
X188333Y293660D02*
X207793D01*
X188333Y292760D02*
X207720D01*
X203069Y349460D02*
X207295D01*
X203712Y350360D02*
X206556D01*
X204179Y351260D02*
X206016D01*
X204505Y352160D02*
X205631D01*
X170419Y346760D02*
X197066D01*
X171559Y347660D02*
X193734D01*
X172726Y348560D02*
X192425D01*
X191039Y360260D02*
X192362D01*
X189364Y359360D02*
X191808D01*
X173921Y349460D02*
X191538D01*
X187744Y358460D02*
X191092D01*
X175144Y350360D02*
X190895D01*
X186177Y357560D02*
X190570D01*
X176398Y351260D02*
X190428D01*
X184657Y356660D02*
X190199D01*
X177684Y352160D02*
X190102D01*
X183183Y355760D02*
X189956D01*
X179004Y353060D02*
X189899D01*
X181751Y354860D02*
X189828D01*
X180358Y353960D02*
X189809D01*
X128334Y287360D02*
X184917D01*
X128651Y288260D02*
X184017D01*
X128976Y289160D02*
X183147D01*
X140812Y313460D02*
X183050D01*
X129309Y290060D02*
X182671D01*
X137630Y308060D02*
X182533D01*
X137133Y307160D02*
X182533D01*
X136645Y306260D02*
X182533D01*
X136166Y305360D02*
X182533D01*
X135696Y304460D02*
X182533D01*
X135235Y303560D02*
X182533D01*
X134782Y302660D02*
X182533D01*
X134338Y301760D02*
X182533D01*
X133903Y300860D02*
X182533D01*
X133476Y299960D02*
X182533D01*
X133057Y299060D02*
X182533D01*
X132646Y298160D02*
X182533D01*
X132244Y297260D02*
X182533D01*
X131850Y296360D02*
X182533D01*
X131463Y295460D02*
X182533D01*
X131085Y294560D02*
X182533D01*
X130714Y293660D02*
X182533D01*
X130351Y292760D02*
X182533D01*
X129996Y291860D02*
X182533D01*
X129649Y290960D02*
X182533D01*
X140258Y312560D02*
X182276D01*
X138137Y308960D02*
X182131D01*
X139713Y311660D02*
X181879D01*
X138653Y309860D02*
X181814D01*
X139178Y310760D02*
X181735D01*
X273452Y146478D02*
X270952Y148978D01*
X273452Y157014D02*
X270952Y154514D01*
X264917Y157014D02*
X267417Y154514D01*
X275153Y146478D02*
X277653Y148978D01*
X283689Y146478D02*
X281189Y148978D01*
X283689Y157014D02*
X281189Y154514D01*
X275153Y157014D02*
X277653Y154514D01*
X273421Y357624D02*
X270385Y354588D01*
X261224Y357624D02*
X264261Y354588D01*
X261224Y341589D02*
X264261Y344625D01*
X273421Y341589D02*
X270385Y344625D01*
X252750Y142532D02*
X254811Y140471D01*
X252750Y136996D02*
X254811Y139057D01*
X262980Y249600D02*
X265041Y251661D01*
X268516Y249600D02*
X266455Y251661D01*
X254337Y240539D02*
X252276Y242600D01*
X246856Y255106D02*
X244796Y257167D01*
X246856Y260642D02*
X244796Y258581D01*
G54D39*
X178740Y221260D02*
X178996Y221516D01*
X183858*
X199213*
X326378Y242913D02*
X329134D01*
X331102Y244882*
Y272835*
X328346Y257874D02*
X309055D01*
X307087Y259843*
Y262992*
X307480Y250394D02*
X328346D01*
X307874Y254331D02*
Y256693D01*
X309055Y257874*
X331102Y272835D02*
X338189D01*
X339764Y274409*
Y291339*
X341339Y292913*
X362992*
X364735Y294656*
X364735D02*
Y303971D01*
X331102Y272835D02*
X329528D01*
X327559Y274803*
Y277559*
X357057Y280349D02*
Y288189D01*
X358632Y289764*
X365354*
X366823Y291233*
X256004Y284941D02*
X255512Y285433D01*
Y287402*
X256004Y284941D02*
X265354D01*
X257874Y294882D02*
X258268D01*
X258563Y295177*
X265354*
X247638Y297736D02*
X245669Y297638D01*
X247736Y297736*
X265354*
Y295177D02*
X270079D01*
X271260Y296358*
Y300394*
X240945Y297736D02*
X247638D01*
X240945Y287500D02*
X250098D01*
X253150Y290551*
X240945Y284941D02*
X256004D01*
X366823Y291233D02*
Y307980D01*
X356299Y318504*
X337008*
X234055Y358108D02*
X238189D01*
X239370Y359289*
Y365354*
G54D40*
X251218Y362007D02*
X252986Y363775D01*
X258996Y362007D02*
X257228Y363775D01*
X258996Y369785D02*
X257228Y368018D01*
X251218Y369785D02*
X252986Y368018D01*
X208220Y276724D02*
X206452Y274956D01*
X200442Y276724D02*
X202209Y274956D01*
X200442Y268946D02*
X202209Y270713D01*
X208220Y268946D02*
X206452Y270713D01*
X195621Y252016D02*
X193854Y253784D01*
X187843Y252016D02*
X189611Y253784D01*
G54D41*
X264567Y139764D02*
Y144094D01*
X269185Y139746D02*
Y139764D01*
X264567*
X269185D02*
Y139746D01*
X279421*
X260768Y139764D02*
X264567D01*
X276079Y127465D02*
X269185Y134359D01*
Y139746*
G54D42*
X278729Y365896D03*
X270855D03*
X262981D03*
X255107D03*
X191732Y255906D03*
Y248031D03*
Y240157D03*
Y232283D03*
X196457Y272835D03*
X204331D03*
X212205D03*
X220079D03*
G54D45*
X225000Y354528D02*
X212703D01*
Y354656*
X197303Y354256D02*
X205055Y362008D01*
X225000*
X248425Y349606D02*
X226772D01*
X225000Y351378*
Y354528*
G54D46*
X178740Y221260D02*
Y226772D01*
Y248031*
X211417Y206299D02*
X181890D01*
X178740Y209449*
Y221260*
X211417Y206299D02*
Y214173D01*
X214173Y216929*
X246319*
X249075Y219685*
Y229921*
X191732Y248031D02*
X178740D01*
Y258268*
X181890Y261417*
X194488*
X196457Y263386*
Y272835*
X311024Y281496D02*
Y279134D01*
Y260630*
G54D60*
X131496Y227953D03*
Y257953D03*
G54D70*
X252362Y139764D02*
X255768D01*
X269185Y151746D02*
X269291Y151853D01*
Y159055*
X279528Y145669D02*
Y146704D01*
X279421Y146811*
Y151746*
X350394Y202362D02*
X290157D01*
X288976Y203543*
Y235039*
X287795Y236220*
X283465*
X366535Y199606D02*
X255512D01*
X253937Y201181*
Y210236*
X183858Y226516D02*
Y238583D01*
X185433Y240157*
X191732*
X202362Y220079D02*
Y228740D01*
X224409Y238976D02*
X244882D01*
X246319Y240413*
Y243307*
X224016Y227165D02*
X227028Y230177D01*
X238583*
X202362Y228740D02*
Y253937D01*
X200394Y255906*
X191732*
X199213Y226516D02*
Y226766D01*
X192919*
X191732Y227953*
Y232283*
X254075Y232146D02*
Y233858D01*
X255394Y235177*
X261417*
X266535Y239642D02*
X265983Y240195D01*
X261417Y212205D02*
Y230177D01*
X241732Y235039D02*
X241594Y235177D01*
X238583*
X250787Y240157D02*
Y243307D01*
X251319*
X266142Y243701D02*
X265983Y243936D01*
X238583Y230177D02*
X242913Y230427D01*
X244632Y232146*
X254075*
X261417Y235177D02*
X263692D01*
X263709Y235195*
X265983*
X261417Y235177D02*
Y244882D01*
X260500Y245800*
X259449*
X254075Y229921D02*
Y232146D01*
X265983Y240195D02*
Y243936D01*
X282677Y243307D02*
Y270866D01*
X282480Y271063*
X283071Y232677D02*
X280553Y235195D01*
X265983*
X352324Y225159D02*
X355550Y228384D01*
X377991*
X352324Y225159D02*
X296850D01*
X294094Y227915*
Y240551*
X292913Y241732*
X290157*
X359843Y223228D02*
X292913D01*
X291339Y224803*
Y237402*
X289764Y238976*
X280315*
X377953Y228346D02*
X377991Y228384D01*
X168504Y259843D02*
Y268504D01*
X162205Y259843D02*
Y268504D01*
X231102Y283427D02*
Y298425D01*
X231890Y299213*
X233602*
X224409Y282677D02*
X227165D01*
X228346Y283858*
Y294488*
X228602*
X259449Y245800D02*
Y245669D01*
X240807*
X238839Y247638*
Y257874*
X259449Y245800D02*
Y255512D01*
X261555Y257618*
X265748*
X253543Y271654D02*
Y273228D01*
X254331Y274016*
X271654*
X249213Y272047D02*
Y277953D01*
X250394Y279134*
X266535*
X268504Y255118D02*
X266535D01*
X265748Y255906*
Y257618*
Y249213D02*
Y252618D01*
X240945Y282382D02*
X232147D01*
X231102Y283427*
X240945Y282382D02*
X265354D01*
X243839Y257874D02*
X247244D01*
X238839D02*
Y270610D01*
X237795Y271654*
X291732Y270472D02*
Y280709D01*
X282480Y271063D02*
X282677Y271260D01*
X285395Y275553D02*
X287795Y277953D01*
X282283Y281102D02*
X286614Y285433D01*
Y290945*
X288189Y292520*
X319291*
X282283Y274803D02*
Y276378D01*
X287795Y281890*
X279528Y265748D02*
Y281769D01*
X284646Y286888*
Y301575*
X285433Y246063D02*
Y253040D01*
X285395Y253078*
Y275553*
X301181Y271260D02*
Y274016D01*
X305512Y278346*
X218504Y298031D02*
Y305512D01*
X211811Y289370D02*
X187008D01*
X185433Y290945*
Y310630*
X211417Y292913D02*
X214567D01*
X215748Y294094*
Y308661*
X228602Y294488D02*
Y299213D01*
X265354Y287500D02*
X259646D01*
X251969Y295177*
X240945*
X265354Y290059D02*
X270472D01*
X273088Y292674*
X276560*
X240945Y300295D02*
X265354D01*
X233602Y299213D02*
Y300295D01*
X240945*
X272441Y287402D02*
Y287500D01*
X265354*
X272441Y287402D02*
X276539D01*
Y287757*
X284252Y322835D02*
Y329134D01*
X340157Y307087D02*
X343608D01*
Y307096*
X361417Y300000D02*
X362232Y300814D01*
Y303971*
X361417Y300000D02*
X349789D01*
X348608Y301181*
Y307096*
X362232Y303971D02*
X362175D01*
X353372Y311747D02*
Y311811D01*
X350000*
X359616Y303971D02*
Y310503D01*
X358372Y311747*
X357057Y303971D02*
X354519D01*
X353372Y305118*
Y311747*
X234055Y358108D02*
Y358268D01*
X260630Y349606D02*
X267323D01*
G54D75*
G54D107*
X212703Y354656D03*
X197303Y354256D03*
X245683Y126171D03*
X261083Y126571D03*
X276079Y127465D03*
G54D108*
X343608Y307096D03*
X348608D03*
X358372Y311747D03*
X353372D03*
X238839Y257874D03*
X243839D03*
X260768Y139764D03*
X255768D03*
X228602Y299213D03*
X233602D03*
Y294488D03*
X228602D03*
X254075Y229921D03*
X249075D03*
X246319Y243307D03*
X251319D03*
X276560Y292674D03*
X281560D03*
X281539Y287757D03*
X276539D03*
G54D112*
X240945Y282382D03*
Y284941D03*
Y287500D03*
Y290059D03*
Y292618D03*
Y295177D03*
Y297736D03*
Y300295D03*
X265354D03*
Y297736D03*
Y295177D03*
Y292618D03*
Y290059D03*
Y287500D03*
Y284941D03*
Y282382D03*
G54D113*
X183858Y226516D03*
Y221516D03*
X199213Y226516D03*
Y221516D03*
X265983Y235195D03*
Y240195D03*
X261417Y230177D03*
Y235177D03*
X238583Y230177D03*
Y235177D03*
X265748Y257618D03*
Y252618D03*
G54D117*
X267323Y349606D03*
X248425D03*
G54D121*
X279421Y139746D03*
Y151746D03*
X269185Y139746D03*
Y151746D03*
G54D132*
X311024Y281496D02*
X335827D01*
X337008Y282677*
Y318504*
X233858Y290059D02*
X245965D01*
X246063Y290157*
Y292520*
X233858Y290059D02*
Y294232D01*
X233602Y294488*
X246063Y292520D02*
X245965Y292618D01*
X240945*
X233858Y288189D02*
Y290059D01*
X281496Y296457D02*
Y303543D01*
X281539Y287757D02*
Y292654D01*
X281560Y292674*
Y296393*
X281496Y296457*
X337008Y318504D02*
Y320866D01*
G54D133*
X357057Y303971D03*
G54D134*
X359616D03*
X362175D03*
X364735D03*
Y280349D03*
X362175D03*
X359616D03*
X357057D03*
G54D135*
X234055Y362008D03*
Y358268D03*
Y354528D03*
X225000D03*
Y358268D03*
Y362008D03*
G74*
X0Y0D02*
M02*
