*
*
G04 PADS 9.5 Build Number: 522968 generated Gerber (RS-274-X) file*
G04 PC Version=2.1*
*
%IN "alarm03.pcb"*%
*
%MOIN*%
*
%FSLAX35Y35*%
*
*
*
*
G04 PC Standard Apertures*
*
*
G04 Thermal Relief Aperture macro.*
%AMTER*
1,1,$1,0,0*
1,0,$1-$2,0,0*
21,0,$3,$4,0,0,45*
21,0,$3,$4,0,0,135*
%
*
*
G04 Annular Aperture macro.*
%AMANN*
1,1,$1,0,0*
1,0,$2,0,0*
%
*
*
G04 Odd Aperture macro.*
%AMODD*
1,1,$1,0,0*
1,0,$1-0.005,0,0*
%
*
*
G04 PC Custom Aperture Macros*
*
*
*
*
*
*
G04 PC Aperture Table*
*
%ADD035C,0.01*%
%ADD075C,0.001*%
*
*
*
*
G04 PC Circuitry*
G04 Layer Name alarm03.pcb - circuitry*
%LPD*%
*
*
G04 PC Custom Flashes*
G04 Layer Name alarm03.pcb - flashes*
%LPD*%
*
*
G04 PC Circuitry*
G04 Layer Name alarm03.pcb - circuitry*
%LPD*%
*
G54D35*
G01X274729Y361896D02*
X282729Y369896D01*
X274729D02*
X282729Y361896D01*
X266855D02*
X274855Y369896D01*
X266855D02*
X274855Y361896D01*
X258981D02*
X266981Y369896D01*
X258981D02*
X266981Y361896D01*
X251107D02*
X259107Y369896D01*
X251107D02*
X259107Y361896D01*
X208703Y354656D02*
X216703D01*
X212703Y350656D02*
Y358656D01*
X215613Y359938D02*
X214703Y356656D01*
X215613Y359938D02*
X216522Y356656D01*
X215044Y357750D02*
X216181D01*
X193303Y354256D02*
X201303D01*
X197303Y350256D02*
Y358256D01*
X199303Y359538D02*
Y356256D01*
Y359538D02*
X200326D01*
X200667Y359381*
X200781Y359225*
X200894Y358913*
Y358600*
X200781Y358288*
X200667Y358131*
X200326Y357975*
X199303D02*
X200326D01*
X200667Y357819*
X200781Y357663*
X200894Y357350*
Y356881*
X200781Y356569*
X200667Y356413*
X200326Y356256*
X199303*
X187732Y251906D02*
X195732Y259906D01*
X187732D02*
X195732Y251906D01*
X187732Y244031D02*
X195732Y252031D01*
X187732D02*
X195732Y244031D01*
X187732Y236157D02*
X195732Y244157D01*
X187732D02*
X195732Y236157D01*
X187732Y228283D02*
X195732Y236283D01*
X187732D02*
X195732Y228283D01*
X192457Y268835D02*
X200457Y276835D01*
X192457D02*
X200457Y268835D01*
X200331D02*
X208331Y276835D01*
X200331D02*
X208331Y268835D01*
X208205D02*
X216205Y276835D01*
X208205D02*
X216205Y268835D01*
X216079D02*
X224079Y276835D01*
X216079D02*
X224079Y268835D01*
X127496Y227953D02*
X135496D01*
X131496Y223953D02*
Y231953D01*
X135201Y232453D02*
X135087Y232765D01*
X134860Y233078*
X134632Y233234*
X134178*
X133951Y233078*
X133723Y232765*
X133610Y232453*
X133496Y231984*
Y231203*
X133610Y230734*
X133723Y230422*
X133951Y230109*
X134178Y229953*
X134632*
X134860Y230109*
X135087Y230422*
X135201Y230734*
X127496Y257953D02*
X135496D01*
X131496Y253953D02*
Y261953D01*
X135201Y262453D02*
X135087Y262765D01*
X134860Y263078*
X134632Y263234*
X134178*
X133951Y263078*
X133723Y262765*
X133610Y262453*
X133496Y261984*
Y261203*
X133610Y260734*
X133723Y260422*
X133951Y260109*
X134178Y259953*
X134632*
X134860Y260109*
X135087Y260422*
X135201Y260734*
X241683Y126171D02*
X249683D01*
X245683Y122171D02*
Y130171D01*
X248592Y131452D02*
X247683Y128171D01*
X248592Y131452D02*
X249501Y128171D01*
X248024Y129265D02*
X249160D01*
X257083Y126571D02*
X265083D01*
X261083Y122571D02*
Y130571D01*
X263083Y131852D02*
Y128571D01*
Y131852D02*
X264105D01*
X264446Y131696*
X264560Y131540*
X264674Y131227*
Y130915*
X264560Y130602*
X264446Y130446*
X264105Y130290*
X263083D02*
X264105D01*
X264446Y130133*
X264560Y129977*
X264674Y129665*
Y129196*
X264560Y128883*
X264446Y128727*
X264105Y128571*
X263083*
X272079Y127465D02*
X280079D01*
X276079Y123465D02*
Y131465D01*
X278079Y132746D02*
Y129465D01*
Y132746D02*
X279101D01*
X279442Y132590*
X279556Y132433*
X279670Y132121*
Y131808*
X279556Y131496*
X279442Y131340*
X279101Y131183*
X278079D02*
X279101D01*
X279442Y131027*
X279556Y130871*
X279670Y130558*
Y130090*
X279556Y129777*
X279442Y129621*
X279101Y129465*
X278079*
X214504Y123228D02*
X222504D01*
X218504Y119228D02*
Y127228D01*
X220504Y128510D02*
Y125228D01*
Y128510D02*
X221299D01*
X221640Y128353*
X221868Y128041*
X221981Y127728*
X222095Y127260*
Y126478*
X221981Y126010*
X221868Y125697*
X221640Y125385*
X221299Y125228*
X220504*
X164898Y154724D02*
X172898D01*
X168898Y150724D02*
Y158724D01*
X170898Y160006D02*
Y156724D01*
Y160006D02*
X171693D01*
X172034Y159849*
X172261Y159537*
X172375Y159224*
X172489Y158756*
Y157974*
X172375Y157506*
X172261Y157193*
X172034Y156881*
X171693Y156724*
X170898*
X183795Y155906D02*
X191795D01*
X187795Y151906D02*
Y159906D01*
X189795Y161187D02*
Y157906D01*
Y161187D02*
X190591D01*
X190932Y161031*
X191159Y160718*
X191273Y160406*
X191386Y159937*
Y159156*
X191273Y158687*
X191159Y158374*
X190932Y158062*
X190591Y157906*
X189795*
X186551Y160630D02*
X194551D01*
X190551Y156630D02*
Y164630D01*
X192551Y165911D02*
Y162630D01*
Y165911D02*
X193347D01*
X193688Y165755*
X193915Y165442*
X194028Y165130*
X194142Y164661*
Y163880*
X194028Y163411*
X193915Y163099*
X193688Y162786*
X193347Y162630*
X192551*
X184583Y138583D02*
X192583D01*
X188583Y134583D02*
Y142583D01*
X190583Y143864D02*
Y140583D01*
Y143864D02*
X191378D01*
X191719Y143708*
X191946Y143395*
X192060Y143083*
X192174Y142614*
Y141833*
X192060Y141364*
X191946Y141051*
X191719Y140739*
X191378Y140583*
X190583*
X179858Y135433D02*
X187858D01*
X183858Y131433D02*
Y139433D01*
X185858Y140714D02*
Y137433D01*
Y140714D02*
X186654D01*
X186995Y140558*
X187222Y140246*
X187336Y139933*
X187449Y139464*
Y138683*
X187336Y138214*
X187222Y137902*
X186995Y137589*
X186654Y137433*
X185858*
X174346Y141732D02*
X182346D01*
X178346Y137732D02*
Y145732D01*
X180346Y147014D02*
Y143732D01*
Y147014D02*
X181142D01*
X181483Y146857*
X181710Y146545*
X181824Y146232*
X181937Y145764*
Y144982*
X181824Y144514*
X181710Y144201*
X181483Y143889*
X181142Y143732*
X180346*
X186157Y131890D02*
X194157D01*
X190157Y127890D02*
Y135890D01*
X192157Y137171D02*
Y133890D01*
Y137171D02*
X192953D01*
X193294Y137015*
X193521Y136702*
X193635Y136390*
X193748Y135921*
Y135140*
X193635Y134671*
X193521Y134359*
X193294Y134046*
X192953Y133890*
X192157*
X185370Y151969D02*
X193370D01*
X189370Y147969D02*
Y155969D01*
X191370Y157250D02*
Y153969D01*
Y157250D02*
X192166D01*
X192506Y157094*
X192734Y156781*
X192847Y156469*
X192961Y156000*
Y155219*
X192847Y154750*
X192734Y154437*
X192506Y154125*
X192166Y153969*
X191370*
X208598Y143701D02*
X216598D01*
X212598Y139701D02*
Y147701D01*
X214598Y148982D02*
Y145701D01*
Y148982D02*
X215394D01*
X215735Y148826*
X215962Y148513*
X216076Y148201*
X216189Y147732*
Y146951*
X216076Y146482*
X215962Y146170*
X215735Y145857*
X215394Y145701*
X214598*
X216079Y132677D02*
X224079D01*
X220079Y128677D02*
Y136677D01*
X222079Y137958D02*
Y134677D01*
Y137958D02*
X222874D01*
X223215Y137802*
X223442Y137490*
X223556Y137177*
X223670Y136708*
Y135927*
X223556Y135458*
X223442Y135146*
X223215Y134833*
X222874Y134677*
X222079*
X216866Y141732D02*
X224866D01*
X220866Y137732D02*
Y145732D01*
X222866Y147014D02*
Y143732D01*
Y147014D02*
X223662D01*
X224003Y146857*
X224230Y146545*
X224343Y146232*
X224457Y145764*
Y144982*
X224343Y144514*
X224230Y144201*
X224003Y143889*
X223662Y143732*
X222866*
X192850Y160630D02*
X200850D01*
X196850Y156630D02*
Y164630D01*
X198850Y165911D02*
Y162630D01*
Y165911D02*
X199646D01*
X199987Y165755*
X200214Y165442*
X200328Y165130*
X200441Y164661*
Y163880*
X200328Y163411*
X200214Y163099*
X199987Y162786*
X199646Y162630*
X198850*
X196394Y126772D02*
X204394D01*
X200394Y122772D02*
Y130772D01*
X202394Y132053D02*
Y128772D01*
Y132053D02*
X203189D01*
X203530Y131897*
X203757Y131584*
X203871Y131272*
X203985Y130803*
Y130022*
X203871Y129553*
X203757Y129240*
X203530Y128928*
X203189Y128772*
X202394*
X191669Y132283D02*
X199669D01*
X195669Y128283D02*
Y136283D01*
X197669Y137565D02*
Y134283D01*
Y137565D02*
X198465D01*
X198806Y137408*
X199033Y137096*
X199147Y136783*
X199260Y136315*
Y135533*
X199147Y135065*
X199033Y134752*
X198806Y134440*
X198465Y134283*
X197669*
X195213Y144882D02*
X203213D01*
X199213Y140882D02*
Y148882D01*
X201213Y150163D02*
Y146882D01*
Y150163D02*
X202008D01*
X202349Y150007*
X202576Y149694*
X202690Y149382*
X202804Y148913*
Y148132*
X202690Y147663*
X202576Y147351*
X202349Y147038*
X202008Y146882*
X201213*
X260567Y144094D02*
X268567D01*
X264567Y140094D02*
Y148094D01*
X266567Y149376D02*
Y146094D01*
Y149376D02*
X267362D01*
X267703Y149219*
X267931Y148907*
X268044Y148594*
X268158Y148126*
Y147344*
X268044Y146876*
X267931Y146563*
X267703Y146251*
X267362Y146094*
X266567*
X251906Y135039D02*
X259906D01*
X255906Y131039D02*
Y139039D01*
X257906Y140321D02*
Y137039D01*
Y140321D02*
X258701D01*
X259042Y140164*
X259269Y139852*
X259383Y139539*
X259496Y139071*
Y138289*
X259383Y137821*
X259269Y137508*
X259042Y137196*
X258701Y137039*
X257906*
X265291Y159055D02*
X273291D01*
X269291Y155055D02*
Y163055D01*
X271291Y164336D02*
Y161055D01*
Y164336D02*
X272087D01*
X272428Y164180*
X272655Y163868*
X272769Y163555*
X272882Y163086*
Y162305*
X272769Y161836*
X272655Y161524*
X272428Y161211*
X272087Y161055*
X271291*
X248362Y139764D02*
X256362D01*
X252362Y135764D02*
Y143764D01*
X254362Y145045D02*
Y141764D01*
Y145045D02*
X255158D01*
X255499Y144889*
X255726Y144576*
X255839Y144264*
X255953Y143795*
Y143014*
X255839Y142545*
X255726Y142233*
X255499Y141920*
X255158Y141764*
X254362*
X230646Y139764D02*
X238646D01*
X234646Y135764D02*
Y143764D01*
X236646Y145045D02*
Y141764D01*
Y145045D02*
X237441D01*
X237782Y144889*
X238009Y144576*
X238123Y144264*
X238237Y143795*
Y143014*
X238123Y142545*
X238009Y142233*
X237782Y141920*
X237441Y141764*
X236646*
X236945Y140551D02*
X244945D01*
X240945Y136551D02*
Y144551D01*
X242945Y145832D02*
Y142551D01*
Y145832D02*
X243740D01*
X244081Y145676*
X244309Y145364*
X244422Y145051*
X244536Y144582*
Y143801*
X244422Y143332*
X244309Y143020*
X244081Y142707*
X243740Y142551*
X242945*
X284976Y131102D02*
X292976D01*
X288976Y127102D02*
Y135102D01*
X290976Y136384D02*
Y133102D01*
Y136384D02*
X291772D01*
X292113Y136227*
X292340Y135915*
X292454Y135602*
X292567Y135134*
Y134352*
X292454Y133884*
X292340Y133571*
X292113Y133259*
X291772Y133102*
X290976*
X301512Y129921D02*
X309512D01*
X305512Y125921D02*
Y133921D01*
X307512Y135203D02*
Y131921D01*
Y135203D02*
X308307D01*
X308648Y135046*
X308875Y134734*
X308989Y134421*
X309103Y133953*
Y133171*
X308989Y132703*
X308875Y132390*
X308648Y132078*
X308307Y131921*
X307512*
X283008Y141732D02*
X291008D01*
X287008Y137732D02*
Y145732D01*
X289008Y147014D02*
Y143732D01*
Y147014D02*
X289803D01*
X290144Y146857*
X290372Y146545*
X290485Y146232*
X290599Y145764*
Y144982*
X290485Y144514*
X290372Y144201*
X290144Y143889*
X289803Y143732*
X289008*
X299937Y141732D02*
X307937D01*
X303937Y137732D02*
Y145732D01*
X305937Y147014D02*
Y143732D01*
Y147014D02*
X306732D01*
X307073Y146857*
X307301Y146545*
X307414Y146232*
X307528Y145764*
Y144982*
X307414Y144514*
X307301Y144201*
X307073Y143889*
X306732Y143732*
X305937*
X307024Y156693D02*
X315024D01*
X311024Y152693D02*
Y160693D01*
X313024Y161974D02*
Y158693D01*
Y161974D02*
X313819D01*
X314160Y161818*
X314387Y161505*
X314501Y161193*
X314615Y160724*
Y159943*
X314501Y159474*
X314387Y159162*
X314160Y158849*
X313819Y158693*
X313024*
X281433Y159055D02*
X289433D01*
X285433Y155055D02*
Y163055D01*
X287433Y164336D02*
Y161055D01*
Y164336D02*
X288229D01*
X288569Y164180*
X288797Y163868*
X288910Y163555*
X289024Y163086*
Y162305*
X288910Y161836*
X288797Y161524*
X288569Y161211*
X288229Y161055*
X287433*
X275528Y145669D02*
X283528D01*
X279528Y141669D02*
Y149669D01*
X281528Y150951D02*
Y147669D01*
Y150951D02*
X282323D01*
X282664Y150794*
X282891Y150482*
X283005Y150169*
X283118Y149701*
Y148919*
X283005Y148451*
X282891Y148138*
X282664Y147826*
X282323Y147669*
X281528*
X275134Y159055D02*
X283134D01*
X279134Y155055D02*
Y163055D01*
X281134Y164336D02*
Y161055D01*
Y164336D02*
X281929D01*
X282270Y164180*
X282497Y163868*
X282611Y163555*
X282725Y163086*
Y162305*
X282611Y161836*
X282497Y161524*
X282270Y161211*
X281929Y161055*
X281134*
X336551Y156299D02*
X344551D01*
X340551Y152299D02*
Y160299D01*
X342551Y161580D02*
Y158299D01*
Y161580D02*
X343347D01*
X343688Y161424*
X343915Y161112*
X344028Y160799*
X344142Y160330*
Y159549*
X344028Y159080*
X343915Y158768*
X343688Y158455*
X343347Y158299*
X342551*
X325921Y148425D02*
X333921D01*
X329921Y144425D02*
Y152425D01*
X331921Y153706D02*
Y150425D01*
Y153706D02*
X332717D01*
X333058Y153550*
X333285Y153238*
X333399Y152925*
X333512Y152456*
Y151675*
X333399Y151206*
X333285Y150894*
X333058Y150581*
X332717Y150425*
X331921*
X311748Y148425D02*
X319748D01*
X315748Y144425D02*
Y152425D01*
X317748Y153706D02*
Y150425D01*
Y153706D02*
X318543D01*
X318884Y153550*
X319112Y153238*
X319225Y152925*
X319339Y152456*
Y151675*
X319225Y151206*
X319112Y150894*
X318884Y150581*
X318543Y150425*
X317748*
X138126Y186220D02*
X146126D01*
X142126Y182220D02*
Y190220D01*
X144126Y191502D02*
Y188220D01*
Y191502D02*
X144921D01*
X145262Y191345*
X145490Y191033*
X145603Y190720*
X145717Y190252*
Y189470*
X145603Y189002*
X145490Y188689*
X145262Y188377*
X144921Y188220*
X144126*
X132614Y192520D02*
X140614D01*
X136614Y188520D02*
Y196520D01*
X138614Y197801D02*
Y194520D01*
Y197801D02*
X139410D01*
X139751Y197645*
X139978Y197332*
X140091Y197020*
X140205Y196551*
Y195770*
X140091Y195301*
X139978Y194988*
X139751Y194676*
X139410Y194520*
X138614*
X136551Y198031D02*
X144551D01*
X140551Y194031D02*
Y202031D01*
X142551Y203313D02*
Y200031D01*
Y203313D02*
X143347D01*
X143688Y203156*
X143915Y202844*
X144028Y202531*
X144142Y202063*
Y201281*
X144028Y200813*
X143915Y200500*
X143688Y200188*
X143347Y200031*
X142551*
X142457Y200787D02*
X150457D01*
X146457Y196787D02*
Y204787D01*
X148457Y206069D02*
Y202787D01*
Y206069D02*
X149252D01*
X149593Y205912*
X149820Y205600*
X149934Y205287*
X150048Y204819*
Y204037*
X149934Y203569*
X149820Y203256*
X149593Y202944*
X149252Y202787*
X148457*
X130252Y200000D02*
X138252D01*
X134252Y196000D02*
Y204000D01*
X136252Y205281D02*
Y202000D01*
Y205281D02*
X137047D01*
X137388Y205125*
X137616Y204813*
X137616D02*
X137729Y204500D01*
X137843Y204031*
Y203250*
X137729Y202781*
X137616Y202469*
X137388Y202156*
X137047Y202000*
X136252*
X185370Y202362D02*
X193370D01*
X189370Y198362D02*
Y206362D01*
X191370Y207643D02*
Y204362D01*
Y207643D02*
X192166D01*
X192506Y207487*
X192734Y207175*
X192847Y206862*
X192961Y206393*
Y205612*
X192847Y205143*
X192734Y204831*
X192506Y204518*
X192166Y204362*
X191370*
X185764Y190551D02*
X193764D01*
X189764Y186551D02*
Y194551D01*
X191764Y195832D02*
Y192551D01*
Y195832D02*
X192559D01*
X192900Y195676*
X193127Y195364*
X193241Y195051*
X193355Y194582*
Y193801*
X193241Y193332*
X193127Y193020*
X192900Y192707*
X192559Y192551*
X191764*
X172772Y191339D02*
X180772D01*
X176772Y187339D02*
Y195339D01*
X178772Y196620D02*
Y193339D01*
Y196620D02*
X179567D01*
X179908Y196464*
X180135Y196151*
X180249Y195839*
X180363Y195370*
Y194589*
X180249Y194120*
X180135Y193807*
X179908Y193495*
X179567Y193339*
X178772*
X174740Y203543D02*
X182740D01*
X178740Y199543D02*
Y207543D01*
X180740Y208825D02*
Y205543D01*
Y208825D02*
X181536D01*
X181877Y208668*
X182104Y208356*
X182217Y208043*
X182331Y207575*
Y206793*
X182217Y206325*
X182104Y206012*
X181877Y205700*
X181536Y205543*
X180740*
X179071Y201575D02*
X187071D01*
X183071Y197575D02*
Y205575D01*
X185071Y206856D02*
Y203575D01*
Y206856D02*
X185866D01*
X186207Y206700*
X186435Y206387*
X186435D02*
X186548Y206075D01*
X186662Y205606*
Y204825*
X186548Y204356*
X186435Y204044*
X186435D02*
X186207Y203731D01*
X185866Y203575*
X185071*
X188126Y182677D02*
X196126D01*
X192126Y178677D02*
Y186677D01*
X194126Y187958D02*
Y184677D01*
Y187958D02*
X194921D01*
X195262Y187802*
X195490Y187490*
X195603Y187177*
X195717Y186708*
Y185927*
X195603Y185458*
X195490Y185146*
X195262Y184833*
X194921Y184677*
X194126*
X155449Y183858D02*
X163449D01*
X159449Y179858D02*
Y187858D01*
X161449Y189140D02*
Y185858D01*
Y189140D02*
X162244D01*
X162585Y188983*
X162812Y188671*
X162926Y188358*
X163040Y187890*
Y187108*
X162926Y186640*
X162812Y186327*
X162585Y186015*
X162244Y185858*
X161449*
X164504Y173622D02*
X172504D01*
X168504Y169622D02*
Y177622D01*
X170504Y178903D02*
Y175622D01*
Y178903D02*
X171299D01*
X171640Y178747*
X171868Y178435*
X171981Y178122*
X172095Y177653*
Y176872*
X171981Y176403*
X171868Y176091*
X171640Y175778*
X171299Y175622*
X170504*
X176315Y181102D02*
X184315D01*
X180315Y177102D02*
Y185102D01*
X182315Y186384D02*
Y183102D01*
Y186384D02*
X183110D01*
X183451Y186227*
X183679Y185915*
X183792Y185602*
X183906Y185134*
Y184352*
X183792Y183884*
X183679Y183571*
X183451Y183259*
X183110Y183102*
X182315*
X179465Y196063D02*
X187465D01*
X183465Y192063D02*
Y200063D01*
X185465Y201344D02*
Y198063D01*
Y201344D02*
X186260D01*
X186601Y201188*
X186828Y200875*
X186942Y200563*
X187055Y200094*
Y199313*
X186942Y198844*
X186828Y198532*
X186601Y198219*
X186260Y198063*
X185465*
X164504Y188583D02*
X172504D01*
X168504Y184583D02*
Y192583D01*
X170504Y193864D02*
Y190583D01*
Y193864D02*
X171299D01*
X171640Y193708*
X171868Y193395*
X171981Y193083*
X172095Y192614*
Y191833*
X171981Y191364*
X171868Y191051*
X171640Y190739*
X171299Y190583*
X170504*
X157811Y197244D02*
X165811D01*
X161811Y193244D02*
Y201244D01*
X163811Y202525D02*
Y199244D01*
Y202525D02*
X164606D01*
X164947Y202369*
X165175Y202057*
X165288Y201744*
X165402Y201275*
Y200494*
X165288Y200025*
X165175Y199713*
X164947Y199400*
X164606Y199244*
X163811*
X209780Y170472D02*
X217780D01*
X213780Y166472D02*
Y174472D01*
X215780Y175754D02*
Y172472D01*
Y175754D02*
X216575D01*
X216916Y175597*
X217143Y175285*
X217257Y174972*
X217370Y174504*
Y173722*
X217257Y173254*
X217143Y172941*
X216916Y172629*
X216575Y172472*
X215780*
X209780Y179134D02*
X217780D01*
X213780Y175134D02*
Y183134D01*
X215780Y184415D02*
Y181134D01*
Y184415D02*
X216575D01*
X216916Y184259*
X217143Y183946*
X217257Y183634*
X217370Y183165*
Y182384*
X217257Y181915*
X217143Y181603*
X216916Y181290*
X216575Y181134*
X215780*
X196000Y199606D02*
X204000D01*
X200000Y195606D02*
Y203606D01*
X202000Y204888D02*
Y201606D01*
Y204888D02*
X202795D01*
X203136Y204731*
X203364Y204419*
X203477Y204106*
X203591Y203638*
Y202856*
X203477Y202388*
X203364Y202075*
X203136Y201763*
X202795Y201606*
X202000*
X195213Y179134D02*
X203213D01*
X199213Y175134D02*
Y183134D01*
X201213Y184415D02*
Y181134D01*
Y184415D02*
X202008D01*
X202349Y184259*
X202576Y183946*
X202690Y183634*
X202804Y183165*
Y182384*
X202690Y181915*
X202576Y181603*
X202349Y181290*
X202008Y181134*
X201213*
X194425Y167717D02*
X202425D01*
X198425Y163717D02*
Y171717D01*
X200425Y172998D02*
Y169717D01*
Y172998D02*
X201221D01*
X201562Y172842*
X201789Y172529*
X201902Y172217*
X202016Y171748*
Y170967*
X201902Y170498*
X201789Y170185*
X201562Y169873*
X201221Y169717*
X200425*
X195606Y175197D02*
X203606D01*
X199606Y171197D02*
Y179197D01*
X201606Y180478D02*
Y177197D01*
Y180478D02*
X202402D01*
X202743Y180322*
X202970Y180009*
X203084Y179697*
X203197Y179228*
Y178447*
X203084Y177978*
X202970Y177666*
X202743Y177353*
X202402Y177197*
X201606*
X195606Y190157D02*
X203606D01*
X199606Y186157D02*
Y194157D01*
X201606Y195439D02*
Y192157D01*
Y195439D02*
X202402D01*
X202743Y195282*
X202970Y194970*
X203084Y194657*
X203197Y194189*
Y193407*
X203084Y192939*
X202970Y192626*
X202743Y192314*
X202402Y192157*
X201606*
X197575Y194488D02*
X205575D01*
X201575Y190488D02*
Y198488D01*
X203575Y199769D02*
Y196488D01*
Y199769D02*
X204370D01*
X204711Y199613*
X204938Y199301*
X205052Y198988*
X205166Y198519*
Y197738*
X205052Y197269*
X204938Y196957*
X204711Y196644*
X204370Y196488*
X203575*
X201512Y190945D02*
X209512D01*
X205512Y186945D02*
Y194945D01*
X207512Y196226D02*
Y192945D01*
Y196226D02*
X208307D01*
X208648Y196070*
X208875Y195757*
X208989Y195445*
X209103Y194976*
Y194195*
X208989Y193726*
X208875Y193414*
X208648Y193101*
X208307Y192945*
X207512*
X256630Y172441D02*
X264630D01*
X260630Y168441D02*
Y176441D01*
X262630Y177722D02*
Y174441D01*
Y177722D02*
X263425D01*
X263766Y177566*
X263994Y177253*
X264107Y176941*
X264221Y176472*
Y175691*
X264107Y175222*
X263994Y174910*
X263766Y174597*
X263425Y174441*
X262630*
X257024Y177953D02*
X265024D01*
X261024Y173953D02*
Y181953D01*
X263024Y183234D02*
Y179953D01*
Y183234D02*
X263819D01*
X264160Y183078*
X264387Y182765*
X264501Y182453*
X264615Y181984*
Y181203*
X264501Y180734*
X264387Y180422*
X264160Y180109*
X263819Y179953*
X263024*
X263323Y192913D02*
X271323D01*
X267323Y188913D02*
Y196913D01*
X269323Y198195D02*
Y194913D01*
Y198195D02*
X270118D01*
X270459Y198038*
X270686Y197726*
X270800Y197413*
X270914Y196945*
Y196163*
X270800Y195695*
X270686Y195382*
X270459Y195070*
X270118Y194913*
X269323*
X247181Y177953D02*
X255181D01*
X251181Y173953D02*
Y181953D01*
X253181Y183234D02*
Y179953D01*
Y183234D02*
X253977D01*
X254317Y183078*
X254545Y182765*
X254658Y182453*
X254772Y181984*
Y181203*
X254658Y180734*
X254545Y180422*
X254317Y180109*
X253977Y179953*
X253181*
X234583Y174409D02*
X242583D01*
X238583Y170409D02*
Y178409D01*
X240583Y179691D02*
Y176409D01*
Y179691D02*
X241378D01*
X241719Y179534*
X241946Y179222*
X242060Y178909*
X242174Y178441*
Y177659*
X242060Y177191*
X241946Y176878*
X241719Y176566*
X241378Y176409*
X240583*
X231433Y190551D02*
X239433D01*
X235433Y186551D02*
Y194551D01*
X237433Y195832D02*
Y192551D01*
Y195832D02*
X238229D01*
X238569Y195676*
X238797Y195364*
X238910Y195051*
X239024Y194582*
Y193801*
X238910Y193332*
X238797Y193020*
X238569Y192707*
X238229Y192551*
X237433*
X242457Y186614D02*
X250457D01*
X246457Y182614D02*
Y190614D01*
X248457Y191895D02*
Y188614D01*
Y191895D02*
X249252D01*
X249593Y191739*
X249820Y191427*
X249934Y191114*
X250048Y190645*
Y189864*
X249934Y189395*
X249820Y189083*
X249593Y188770*
X249252Y188614*
X248457*
X275134Y165748D02*
X283134D01*
X279134Y161748D02*
Y169748D01*
X281134Y171029D02*
Y167748D01*
Y171029D02*
X281929D01*
X282270Y170873*
X282497Y170561*
X282611Y170248*
X282725Y169779*
Y168998*
X282611Y168529*
X282497Y168217*
X282270Y167904*
X281929Y167748*
X281134*
X270803Y187402D02*
X278803D01*
X274803Y183402D02*
Y191402D01*
X276803Y192683D02*
Y189402D01*
Y192683D02*
X277599D01*
X277940Y192527*
X278167Y192214*
X278280Y191902*
X278394Y191433*
Y190652*
X278280Y190183*
X278167Y189870*
X277940Y189558*
X277599Y189402*
X276803*
X276315Y185433D02*
X284315D01*
X280315Y181433D02*
Y189433D01*
X282315Y190714D02*
Y187433D01*
Y190714D02*
X283110D01*
X283451Y190558*
X283679Y190246*
X283792Y189933*
X283906Y189464*
Y188683*
X283792Y188214*
X283679Y187902*
X283451Y187589*
X283110Y187433*
X282315*
X273559Y189764D02*
X281559D01*
X277559Y185764D02*
Y193764D01*
X279559Y195045D02*
Y191764D01*
Y195045D02*
X280355D01*
X280695Y194889*
X280923Y194576*
X281036Y194264*
X281150Y193795*
Y193014*
X281036Y192545*
X280923Y192233*
X280695Y191920*
X280355Y191764*
X279559*
X273953Y194488D02*
X281953D01*
X277953Y190488D02*
Y198488D01*
X279953Y199769D02*
Y196488D01*
Y199769D02*
X280748D01*
X281089Y199613*
X281316Y199301*
X281430Y198988*
X281544Y198519*
Y197738*
X281430Y197269*
X281316Y196957*
X281089Y196644*
X280748Y196488*
X279953*
X297969Y189370D02*
X305969D01*
X301969Y185370D02*
Y193370D01*
X303969Y194651D02*
Y191370D01*
Y194651D02*
X304764D01*
X305105Y194495*
X305332Y194183*
X305446Y193870*
X305559Y193401*
Y192620*
X305446Y192151*
X305332Y191839*
X305105Y191526*
X304764Y191370*
X303969*
X303874Y171260D02*
X311874D01*
X307874Y167260D02*
Y175260D01*
X309874Y176541D02*
Y173260D01*
Y176541D02*
X310669D01*
X311010Y176385*
X311238Y176072*
X311351Y175760*
X311465Y175291*
Y174510*
X311351Y174041*
X311238Y173729*
X311010Y173416*
X310669Y173260*
X309874*
X292457Y164961D02*
X300457D01*
X296457Y160961D02*
Y168961D01*
X298457Y170242D02*
Y166961D01*
Y170242D02*
X299252D01*
X299593Y170086*
X299820Y169773*
X299934Y169461*
X300048Y168992*
Y168211*
X299934Y167742*
X299820Y167429*
X299593Y167117*
X299252Y166961*
X298457*
X346394Y202362D02*
X354394D01*
X350394Y198362D02*
Y206362D01*
X352394Y207643D02*
Y204362D01*
Y207643D02*
X353189D01*
X353530Y207487*
X353757Y207175*
X353871Y206862*
X353985Y206393*
Y205612*
X353871Y205143*
X353757Y204831*
X353530Y204518*
X353189Y204362*
X352394*
X333008Y168110D02*
X341008D01*
X337008Y164110D02*
Y172110D01*
X339008Y173391D02*
Y170110D01*
Y173391D02*
X339803D01*
X340144Y173235*
X340372Y172923*
X340485Y172610*
X340599Y172141*
Y171360*
X340485Y170891*
X340372Y170579*
X340144Y170266*
X339803Y170110*
X339008*
X346000Y165354D02*
X354000D01*
X350000Y161354D02*
Y169354D01*
X352000Y170636D02*
Y167354D01*
Y170636D02*
X352795D01*
X353136Y170479*
X353364Y170167*
X353477Y169854*
X353591Y169386*
Y168604*
X353477Y168136*
X353364Y167823*
X353136Y167511*
X352795Y167354*
X352000*
X346394Y183071D02*
X354394D01*
X350394Y179071D02*
Y187071D01*
X352394Y188352D02*
Y185071D01*
Y188352D02*
X353189D01*
X353530Y188196*
X353757Y187883*
X353871Y187571*
X353985Y187102*
Y186321*
X353871Y185852*
X353757Y185540*
X353530Y185227*
X353189Y185071*
X352394*
X321197Y196457D02*
X329197D01*
X325197Y192457D02*
Y200457D01*
X327197Y201738D02*
Y198457D01*
Y201738D02*
X327992D01*
X328333Y201582*
X328560Y201269*
X328674Y200957*
X328788Y200488*
Y199707*
X328674Y199238*
X328560Y198925*
X328333Y198613*
X327992Y198457*
X327197*
X308992Y195669D02*
X316992D01*
X312992Y191669D02*
Y199669D01*
X314992Y200951D02*
Y197669D01*
Y200951D02*
X315788D01*
X316128Y200794*
X316356Y200482*
X316469Y200169*
X316583Y199701*
Y198919*
X316469Y198451*
X316356Y198138*
X316128Y197826*
X315788Y197669*
X314992*
X362535Y199606D02*
X370535D01*
X366535Y195606D02*
Y203606D01*
X368535Y204888D02*
Y201606D01*
Y204888D02*
X369331D01*
X369672Y204731*
X369899Y204419*
X370013Y204106*
X370126Y203638*
Y202856*
X370013Y202388*
X369899Y202075*
X369672Y201763*
X369331Y201606*
X368535*
X354661Y171260D02*
X362661D01*
X358661Y167260D02*
Y175260D01*
X360661Y176541D02*
Y173260D01*
Y176541D02*
X361457D01*
X361798Y176385*
X362025Y176072*
X362139Y175760*
X362252Y175291*
Y174510*
X362139Y174041*
X362025Y173729*
X361798Y173416*
X361457Y173260*
X360661*
X359386Y182283D02*
X367386D01*
X363386Y178283D02*
Y186283D01*
X365386Y187565D02*
Y184283D01*
Y187565D02*
X366181D01*
X366522Y187408*
X366749Y187096*
X366863Y186783*
X366977Y186315*
Y185533*
X366863Y185065*
X366749Y184752*
X366522Y184440*
X366181Y184283*
X365386*
X364110Y193307D02*
X372110D01*
X368110Y189307D02*
Y197307D01*
X370110Y198588D02*
Y195307D01*
Y198588D02*
X370906D01*
X371247Y198432*
X371474Y198120*
X371588Y197807*
X371701Y197338*
Y196557*
X371588Y196088*
X371474Y195776*
X371247Y195463*
X370906Y195307*
X370110*
X140882Y206693D02*
X148882D01*
X144882Y202693D02*
Y210693D01*
X146882Y211974D02*
Y208693D01*
Y211974D02*
X147677D01*
X148018Y211818*
X148246Y211505*
X148359Y211193*
X148473Y210724*
Y209943*
X148359Y209474*
X148246Y209162*
X148018Y208849*
X147677Y208693*
X146882*
X133795Y205512D02*
X141795D01*
X137795Y201512D02*
Y209512D01*
X139795Y210793D02*
Y207512D01*
Y210793D02*
X140591D01*
X140932Y210637*
X141159Y210324*
X141273Y210012*
X141386Y209543*
Y208762*
X141273Y208293*
X141159Y207981*
X140932Y207668*
X140591Y207512*
X139795*
X127496Y204331D02*
X135496D01*
X131496Y200331D02*
Y208331D01*
X133496Y209612D02*
Y206331D01*
Y209612D02*
X134292D01*
X134632Y209456*
X134860Y209143*
X134973Y208831*
X135087Y208362*
Y207581*
X134973Y207112*
X134860Y206799*
X134632Y206487*
X134292Y206331*
X133496*
X124346Y209055D02*
X132346D01*
X128346Y205055D02*
Y213055D01*
X130346Y214336D02*
Y211055D01*
Y214336D02*
X131142D01*
X131483Y214180*
X131710Y213868*
X131824Y213555*
X131937Y213086*
Y212305*
X131824Y211836*
X131710Y211524*
X131483Y211211*
X131142Y211055*
X130346*
X121984Y213386D02*
X129984D01*
X125984Y209386D02*
Y217386D01*
X127984Y218667D02*
Y215386D01*
Y218667D02*
X128780D01*
X129121Y218511*
X129348Y218198*
X129462Y217886*
X129575Y217417*
Y216636*
X129462Y216167*
X129348Y215855*
X129121Y215542*
X128780Y215386*
X127984*
X132614Y210236D02*
X140614D01*
X136614Y206236D02*
Y214236D01*
X138614Y215517D02*
Y212236D01*
Y215517D02*
X139410D01*
X139751Y215361*
X139978Y215049*
X140091Y214736*
X140205Y214267*
Y213486*
X140091Y213017*
X139978Y212705*
X139751Y212392*
X139410Y212236*
X138614*
X122378Y219685D02*
X130378D01*
X126378Y215685D02*
Y223685D01*
X128378Y224966D02*
Y221685D01*
Y224966D02*
X129173D01*
X129514Y224810*
X129742Y224498*
X129855Y224185*
X129969Y223716*
Y222935*
X129855Y222466*
X129742Y222154*
X129514Y221841*
X129173Y221685*
X128378*
X174740Y226772D02*
X182740D01*
X178740Y222772D02*
Y230772D01*
X180740Y232053D02*
Y228772D01*
Y232053D02*
X181536D01*
X181877Y231897*
X182104Y231584*
X182217Y231272*
X182331Y230803*
Y230022*
X182217Y229553*
X182104Y229240*
X181877Y228928*
X181536Y228772*
X180740*
X180252Y210236D02*
X188252D01*
X184252Y206236D02*
Y214236D01*
X186252Y215517D02*
Y212236D01*
Y215517D02*
X187047D01*
X187388Y215361*
X187616Y215049*
X187729Y214736*
X187843Y214267*
Y213486*
X187729Y213017*
X187616Y212705*
X187388Y212392*
X187047Y212236*
X186252*
X187732Y217323D02*
X195732D01*
X191732Y213323D02*
Y221323D01*
X193732Y222604D02*
Y219323D01*
Y222604D02*
X194528D01*
X194869Y222448*
X195096Y222135*
X195210Y221823*
X195323Y221354*
Y220573*
X195210Y220104*
X195096Y219792*
X194869Y219479*
X194528Y219323*
X193732*
X183402Y213780D02*
X191402D01*
X187402Y209780D02*
Y217780D01*
X189402Y219061D02*
Y215780D01*
Y219061D02*
X190197D01*
X190538Y218905*
X190765Y218592*
X190879Y218280*
X190992Y217811*
Y217030*
X190879Y216561*
X190765Y216248*
X190538Y215936*
X190197Y215780*
X189402*
X157024Y211811D02*
X165024D01*
X161024Y207811D02*
Y215811D01*
X163024Y217092D02*
Y213811D01*
Y217092D02*
X163819D01*
X164160Y216936*
X164387Y216624*
X164501Y216311*
X164615Y215842*
Y215061*
X164501Y214592*
X164387Y214280*
X164160Y213967*
X163819Y213811*
X163024*
X149937Y209843D02*
X157937D01*
X153937Y205843D02*
Y213843D01*
X155937Y215124D02*
Y211843D01*
Y215124D02*
X156732D01*
X157073Y214968*
X157301Y214655*
X157414Y214343*
X157528Y213874*
Y213093*
X157414Y212624*
X157301Y212311*
X157073Y211999*
X156732Y211843*
X155937*
X220409Y238976D02*
X228409D01*
X224409Y234976D02*
Y242976D01*
X226409Y244258D02*
Y240976D01*
Y244258D02*
X227205D01*
X227546Y244101*
X227773Y243789*
X227887Y243476*
X228000Y243008*
Y242226*
X227887Y241758*
X227773Y241445*
X227546Y241133*
X227205Y240976*
X226409*
X207417Y206299D02*
X215417D01*
X211417Y202299D02*
Y210299D01*
X213417Y211580D02*
Y208299D01*
Y211580D02*
X214213D01*
X214554Y211424*
X214781Y211112*
X214895Y210799*
X215008Y210330*
Y209549*
X214895Y209080*
X214781Y208768*
X214554Y208455*
X214213Y208299*
X213417*
X220016Y227165D02*
X228016D01*
X224016Y223165D02*
Y231165D01*
X226016Y232447D02*
Y229165D01*
Y232447D02*
X226811D01*
X227152Y232290*
X227379Y231978*
X227493Y231665*
X227607Y231197*
Y230415*
X227493Y229947*
X227379Y229634*
X227152Y229322*
X226811Y229165*
X226016*
X194819Y215354D02*
X202819D01*
X198819Y211354D02*
Y219354D01*
X200819Y220636D02*
Y217354D01*
Y220636D02*
X201614D01*
X201955Y220479*
X202183Y220167*
X202296Y219854*
X202410Y219386*
Y218604*
X202296Y218136*
X202183Y217823*
X201955Y217511*
X201614Y217354*
X200819*
X196000Y242126D02*
X204000D01*
X200000Y238126D02*
Y246126D01*
X202000Y247407D02*
Y244126D01*
Y247407D02*
X202795D01*
X203136Y247251*
X203364Y246938*
X203477Y246626*
X203591Y246157*
Y245376*
X203477Y244907*
X203364Y244595*
X203136Y244282*
X202795Y244126*
X202000*
X211748Y227559D02*
X219748D01*
X215748Y223559D02*
Y231559D01*
X217748Y232840D02*
Y229559D01*
Y232840D02*
X218543D01*
X218884Y232684*
X219112Y232372*
X219225Y232059*
X219339Y231590*
Y230809*
X219225Y230340*
X219112Y230028*
X218884Y229715*
X218543Y229559*
X217748*
X198362Y219685D02*
X206362D01*
X202362Y215685D02*
Y223685D01*
X204362Y224966D02*
Y221685D01*
Y224966D02*
X205158D01*
X205499Y224810*
X205726Y224498*
X205839Y224185*
X205953Y223716*
Y222935*
X205839Y222466*
X205726Y222154*
X205499Y221841*
X205158Y221685*
X204362*
X198362Y228740D02*
X206362D01*
X202362Y224740D02*
Y232740D01*
X204362Y234021D02*
Y230740D01*
Y234021D02*
X205158D01*
X205499Y233865*
X205726Y233553*
X205839Y233240*
X205953Y232771*
Y231990*
X205839Y231521*
X205726Y231209*
X205499Y230896*
X205158Y230740*
X204362*
X205843Y229134D02*
X213843D01*
X209843Y225134D02*
Y233134D01*
X211843Y234415D02*
Y231134D01*
Y234415D02*
X212638D01*
X212979Y234259*
X213206Y233946*
X213320Y233634*
X213433Y233165*
Y232384*
X213320Y231915*
X213206Y231603*
X212979Y231290*
X212638Y231134*
X211843*
X212535Y205512D02*
X220535D01*
X216535Y201512D02*
Y209512D01*
X218535Y210793D02*
Y207512D01*
Y210793D02*
X219331D01*
X219672Y210637*
X219899Y210324*
X220013Y210012*
X220126Y209543*
Y208762*
X220013Y208293*
X219899Y207981*
X219672Y207668*
X219331Y207512*
X218535*
X215685Y230709D02*
X223685D01*
X219685Y226709D02*
Y234709D01*
X221685Y235990D02*
Y232709D01*
Y235990D02*
X222480D01*
X222821Y235834*
X223049Y235521*
X223162Y235209*
X223276Y234740*
Y233959*
X223162Y233490*
X223049Y233177*
X222821Y232865*
X222480Y232709*
X221685*
X257417Y212205D02*
X265417D01*
X261417Y208205D02*
Y216205D01*
X263417Y217486D02*
Y214205D01*
Y217486D02*
X264213D01*
X264554Y217330*
X264781Y217017*
X264895Y216705*
X265008Y216236*
Y215455*
X264895Y214986*
X264781Y214673*
X264554Y214361*
X264213Y214205*
X263417*
X249937Y210236D02*
X257937D01*
X253937Y206236D02*
Y214236D01*
X255937Y215517D02*
Y212236D01*
Y215517D02*
X256732D01*
X257073Y215361*
X257301Y215049*
X257414Y214736*
X257528Y214267*
Y213486*
X257414Y213017*
X257301Y212705*
X257073Y212392*
X256732Y212236*
X255937*
X234976Y242520D02*
X242976D01*
X238976Y238520D02*
Y246520D01*
X240976Y247801D02*
Y244520D01*
Y247801D02*
X241772D01*
X242113Y247645*
X242340Y247332*
X242454Y247020*
X242567Y246551*
Y245770*
X242454Y245301*
X242340Y244988*
X242113Y244676*
X241772Y244520*
X240976*
X244819Y235827D02*
X252819D01*
X248819Y231827D02*
Y239827D01*
X250819Y241108D02*
Y237827D01*
Y241108D02*
X251614D01*
X251955Y240952*
X252183Y240639*
X252296Y240327*
X252410Y239858*
Y239077*
X252296Y238608*
X252183Y238296*
X251955Y237983*
X251614Y237827*
X250819*
X262929Y229921D02*
X270929D01*
X266929Y225921D02*
Y233921D01*
X268929Y235203D02*
Y231921D01*
Y235203D02*
X269725D01*
X270065Y235046*
X270065D02*
X270293Y234734D01*
X270406Y234421*
X270520Y233953*
Y233171*
X270406Y232703*
X270293Y232390*
X270065Y232078*
X270065D02*
X269725Y231921D01*
X268929*
X252693Y239370D02*
X260693D01*
X256693Y235370D02*
Y243370D01*
X258693Y244651D02*
Y241370D01*
Y244651D02*
X259488D01*
X259829Y244495*
X260057Y244183*
X260170Y243870*
X260284Y243401*
Y242620*
X260170Y242151*
X260057Y241839*
X259829Y241526*
X259488Y241370*
X258693*
X254661Y214961D02*
X262661D01*
X258661Y210961D02*
Y218961D01*
X260661Y220242D02*
Y216961D01*
Y220242D02*
X261457D01*
X261798Y220086*
X262025Y219773*
X262139Y219461*
X262252Y218992*
Y218211*
X262139Y217742*
X262025Y217429*
X261798Y217117*
X261457Y216961*
X260661*
X237732Y235039D02*
X245732D01*
X241732Y231039D02*
Y239039D01*
X243732Y240321D02*
Y237039D01*
Y240321D02*
X244528D01*
X244869Y240164*
X245096Y239852*
X245210Y239539*
X245323Y239071*
Y238289*
X245210Y237821*
X245096Y237508*
X244869Y237196*
X244528Y237039*
X243732*
X246787Y240157D02*
X254787D01*
X250787Y236157D02*
Y244157D01*
X252787Y245439D02*
Y242157D01*
Y245439D02*
X253583D01*
X253924Y245282*
X254151Y244970*
X254265Y244657*
X254378Y244189*
Y243407*
X254265Y242939*
X254151Y242626*
X253924Y242314*
X253583Y242157*
X252787*
X262142Y243701D02*
X270142D01*
X266142Y239701D02*
Y247701D01*
X268142Y248982D02*
Y245701D01*
Y248982D02*
X268937D01*
X269278Y248826*
X269505Y248513*
X269619Y248201*
X269733Y247732*
Y246951*
X269619Y246482*
X269505Y246170*
X269278Y245857*
X268937Y245701*
X268142*
X276315Y238976D02*
X284315D01*
X280315Y234976D02*
Y242976D01*
X282315Y244258D02*
Y240976D01*
Y244258D02*
X283110D01*
X283451Y244101*
X283679Y243789*
X283792Y243476*
X283906Y243008*
Y242226*
X283792Y241758*
X283679Y241445*
X283451Y241133*
X283110Y240976*
X282315*
X286157Y241732D02*
X294157D01*
X290157Y237732D02*
Y245732D01*
X292157Y247014D02*
Y243732D01*
Y247014D02*
X292953D01*
X293294Y246857*
X293521Y246545*
X293635Y246232*
X293748Y245764*
Y244982*
X293635Y244514*
X293521Y244201*
X293294Y243889*
X292953Y243732*
X292157*
X278677Y243307D02*
X286677D01*
X282677Y239307D02*
Y247307D01*
X284677Y248588D02*
Y245307D01*
Y248588D02*
X285473D01*
X285814Y248432*
X286041Y248120*
X286154Y247807*
X286268Y247338*
Y246557*
X286154Y246088*
X286041Y245776*
X285814Y245463*
X285473Y245307*
X284677*
X279465Y236220D02*
X287465D01*
X283465Y232220D02*
Y240220D01*
X285465Y241502D02*
Y238220D01*
Y241502D02*
X286260D01*
X286601Y241345*
X286828Y241033*
X286942Y240720*
X287055Y240252*
Y239470*
X286942Y239002*
X286828Y238689*
X286601Y238377*
X286260Y238220*
X285465*
X279071Y232677D02*
X287071D01*
X283071Y228677D02*
Y236677D01*
X285071Y237958D02*
Y234677D01*
Y237958D02*
X285866D01*
X286207Y237802*
X286435Y237490*
X286435D02*
X286548Y237177D01*
X286662Y236708*
Y235927*
X286548Y235458*
X286435Y235146*
X286435D02*
X286207Y234833D01*
X285866Y234677*
X285071*
X274346Y212598D02*
X282346D01*
X278346Y208598D02*
Y216598D01*
X280346Y217880D02*
Y214598D01*
Y217880D02*
X281142D01*
X281483Y217723*
X281710Y217411*
X281824Y217098*
X281937Y216630*
Y215848*
X281824Y215380*
X281710Y215067*
X281483Y214755*
X281142Y214598*
X280346*
X274346Y208661D02*
X282346D01*
X278346Y204661D02*
Y212661D01*
X280346Y213943D02*
Y210661D01*
Y213943D02*
X281142D01*
X281483Y213786*
X281710Y213474*
X281824Y213161*
X281937Y212693*
Y211911*
X281824Y211443*
X281710Y211130*
X281483Y210818*
X281142Y210661*
X280346*
X273953Y204724D02*
X281953D01*
X277953Y200724D02*
Y208724D01*
X279953Y210006D02*
Y206724D01*
Y210006D02*
X280748D01*
X281089Y209849*
X281316Y209537*
X281430Y209224*
X281544Y208756*
Y207974*
X281430Y207506*
X281316Y207193*
X281089Y206881*
X280748Y206724*
X279953*
X301118Y237008D02*
X309118D01*
X305118Y233008D02*
Y241008D01*
X307118Y242289D02*
Y239008D01*
Y242289D02*
X307914D01*
X308254Y242133*
X308482Y241820*
X308595Y241508*
X308709Y241039*
Y240258*
X308595Y239789*
X308482Y239477*
X308254Y239164*
X307914Y239008*
X307118*
X279071Y212205D02*
X287071D01*
X283071Y208205D02*
Y216205D01*
X285071Y217486D02*
Y214205D01*
Y217486D02*
X285866D01*
X286207Y217330*
X286435Y217017*
X286435D02*
X286548Y216705D01*
X286662Y216236*
Y215455*
X286548Y214986*
X286435Y214673*
X286435D02*
X286207Y214361D01*
X285866Y214205*
X285071*
X277102Y229134D02*
X285102D01*
X281102Y225134D02*
Y233134D01*
X283102Y234415D02*
Y231134D01*
Y234415D02*
X283898D01*
X284239Y234259*
X284466Y233946*
X284580Y233634*
X284693Y233165*
Y232384*
X284580Y231915*
X284466Y231603*
X284239Y231290*
X283898Y231134*
X283102*
X322378Y242913D02*
X330378D01*
X326378Y238913D02*
Y246913D01*
X328378Y248195D02*
Y244913D01*
Y248195D02*
X329173D01*
X329514Y248038*
X329742Y247726*
X329855Y247413*
X329969Y246945*
Y246163*
X329855Y245695*
X329742Y245382*
X329514Y245070*
X329173Y244913*
X328378*
X310173Y239370D02*
X318173D01*
X314173Y235370D02*
Y243370D01*
X316173Y244651D02*
Y241370D01*
Y244651D02*
X316969D01*
X317310Y244495*
X317537Y244183*
X317651Y243870*
X317651D02*
X317764Y243401D01*
Y242620*
X317651Y242151*
X317651D02*
X317537Y241839D01*
X317310Y241526*
X316969Y241370*
X316173*
X331433Y233465D02*
X339433D01*
X335433Y229465D02*
Y237465D01*
X337433Y238746D02*
Y235465D01*
Y238746D02*
X338229D01*
X338569Y238590*
X338797Y238277*
X338910Y237965*
X339024Y237496*
Y236715*
X338910Y236246*
X338797Y235933*
X338569Y235621*
X338229Y235465*
X337433*
X346787Y227559D02*
X354787D01*
X350787Y223559D02*
Y231559D01*
X352787Y232840D02*
Y229559D01*
Y232840D02*
X353583D01*
X353924Y232684*
X354151Y232372*
X354265Y232059*
X354378Y231590*
Y230809*
X354265Y230340*
X354151Y230028*
X353924Y229715*
X353583Y229559*
X352787*
X317654Y219685D02*
X325654D01*
X321654Y215685D02*
Y223685D01*
X323654Y224966D02*
Y221685D01*
Y224966D02*
X324449D01*
X324790Y224810*
X325017Y224498*
X325131Y224185*
X325244Y223716*
Y222935*
X325131Y222466*
X325017Y222154*
X324790Y221841*
X324449Y221685*
X323654*
X323953Y205512D02*
X331953D01*
X327953Y201512D02*
Y209512D01*
X329953Y210793D02*
Y207512D01*
Y210793D02*
X330748D01*
X331089Y210637*
X331316Y210324*
X331430Y210012*
X331544Y209543*
Y208762*
X331430Y208293*
X331316Y207981*
X331089Y207668*
X330748Y207512*
X329953*
X355843Y223228D02*
X363843D01*
X359843Y219228D02*
Y227228D01*
X361843Y228510D02*
Y225228D01*
Y228510D02*
X362638D01*
X362979Y228353*
X363206Y228041*
X363320Y227728*
X363433Y227260*
Y226478*
X363320Y226010*
X363206Y225697*
X362979Y225385*
X362638Y225228*
X361843*
X373953Y228346D02*
X381953D01*
X377953Y224346D02*
Y232346D01*
X379953Y233628D02*
Y230346D01*
Y233628D02*
X380748D01*
X381089Y233471*
X381316Y233159*
X381430Y232846*
X381544Y232378*
Y231596*
X381430Y231128*
X381316Y230815*
X381089Y230503*
X380748Y230346*
X379953*
X352693Y231890D02*
X360693D01*
X356693Y227890D02*
Y235890D01*
X358693Y237171D02*
Y233890D01*
Y237171D02*
X359488D01*
X359829Y237015*
X360057Y236702*
X360170Y236390*
X360284Y235921*
Y235140*
X360170Y234671*
X360057Y234359*
X359829Y234046*
X359488Y233890*
X358693*
X353087Y225984D02*
X361087D01*
X357087Y221984D02*
Y229984D01*
X359087Y231266D02*
Y227984D01*
Y231266D02*
X359882D01*
X359882D02*
X360223Y231109D01*
X360450Y230797*
X360564Y230484*
X360678Y230016*
X360678D02*
Y229234D01*
X360564Y228766*
X360564D02*
X360450Y228453D01*
X360223Y228141*
X360223D02*
X359882Y227984D01*
X359087*
X376709Y234646D02*
X384709D01*
X380709Y230646D02*
Y238646D01*
X382709Y239927D02*
Y236646D01*
Y239927D02*
X383504D01*
X383845Y239771*
X384072Y239458*
X384186Y239146*
X384300Y238677*
Y237896*
X384186Y237427*
X384072Y237114*
X383845Y236802*
X383504Y236646*
X382709*
X363717Y235039D02*
X371717D01*
X367717Y231039D02*
Y239039D01*
X369717Y240321D02*
Y237039D01*
Y240321D02*
X370512D01*
X370853Y240164*
X371080Y239852*
X371194Y239539*
X371307Y239071*
Y238289*
X371194Y237821*
X371080Y237508*
X370853Y237196*
X370512Y237039*
X369717*
X357024Y237402D02*
X365024D01*
X361024Y233402D02*
Y241402D01*
X363024Y242683D02*
Y239402D01*
Y242683D02*
X363819D01*
X364160Y242527*
X364387Y242214*
X364501Y241902*
X364615Y241433*
Y240652*
X364501Y240183*
X364387Y239870*
X364160Y239558*
X363819Y239402*
X363024*
X132614Y271260D02*
X140614D01*
X136614Y267260D02*
Y275260D01*
X138614Y276541D02*
Y273260D01*
Y276541D02*
X139410D01*
X139751Y276385*
X139978Y276072*
X140091Y275760*
X140205Y275291*
Y274510*
X140091Y274041*
X139978Y273729*
X139751Y273416*
X139410Y273260*
X138614*
X125134Y270866D02*
X133134D01*
X129134Y266866D02*
Y274866D01*
X131134Y276147D02*
Y272866D01*
Y276147D02*
X131929D01*
X132270Y275991*
X132497Y275679*
X132611Y275366*
X132725Y274897*
Y274116*
X132611Y273647*
X132497Y273335*
X132270Y273022*
X131929Y272866*
X131134*
X142063Y254331D02*
X150063D01*
X146063Y250331D02*
Y258331D01*
X148063Y259612D02*
Y256331D01*
Y259612D02*
X148858D01*
X149199Y259456*
X149427Y259143*
X149540Y258831*
X149654Y258362*
Y257581*
X149540Y257112*
X149427Y256799*
X149199Y256487*
X148858Y256331*
X148063*
X157024Y282677D02*
X165024D01*
X161024Y278677D02*
Y286677D01*
X163024Y287958D02*
Y284677D01*
Y287958D02*
X163819D01*
X164160Y287802*
X164387Y287490*
X164501Y287177*
X164615Y286708*
Y285927*
X164501Y285458*
X164387Y285146*
X164160Y284833*
X163819Y284677*
X163024*
X168441Y283858D02*
X176441D01*
X172441Y279858D02*
Y287858D01*
X174441Y289140D02*
Y285858D01*
Y289140D02*
X175236D01*
X175577Y288983*
X175805Y288671*
X175918Y288358*
X176032Y287890*
Y287108*
X175918Y286640*
X175805Y286327*
X175577Y286015*
X175236Y285858*
X174441*
X158205Y268504D02*
X166205D01*
X162205Y264504D02*
Y272504D01*
X164205Y273785D02*
Y270504D01*
Y273785D02*
X165000D01*
X165341Y273629*
X165568Y273316*
X165682Y273004*
X165796Y272535*
Y271754*
X165682Y271285*
X165568Y270973*
X165341Y270660*
X165000Y270504*
X164205*
X171984Y268504D02*
X179984D01*
X175984Y264504D02*
Y272504D01*
X177984Y273785D02*
Y270504D01*
Y273785D02*
X178780D01*
X179121Y273629*
X179348Y273316*
X179462Y273004*
X179575Y272535*
Y271754*
X179462Y271285*
X179348Y270973*
X179121Y270660*
X178780Y270504*
X177984*
X164504Y268504D02*
X172504D01*
X168504Y264504D02*
Y272504D01*
X170504Y273785D02*
Y270504D01*
Y273785D02*
X171299D01*
X171640Y273629*
X171868Y273316*
X171981Y273004*
X172095Y272535*
Y271754*
X171981Y271285*
X171868Y270973*
X171640Y270660*
X171299Y270504*
X170504*
X179465Y268110D02*
X187465D01*
X183465Y264110D02*
Y272110D01*
X185465Y273391D02*
Y270110D01*
Y273391D02*
X186260D01*
X186601Y273235*
X186828Y272923*
X186942Y272610*
X187055Y272141*
Y271360*
X186942Y270891*
X186828Y270579*
X186601Y270266*
X186260Y270110*
X185465*
X148756Y259449D02*
X156756D01*
X152756Y255449D02*
Y263449D01*
X154756Y264730D02*
Y261449D01*
Y264730D02*
X155551D01*
X155892Y264574*
X156120Y264261*
X156233Y263949*
X156347Y263480*
Y262699*
X156233Y262230*
X156120Y261918*
X155892Y261605*
X155551Y261449*
X154756*
X158205Y259843D02*
X166205D01*
X162205Y255843D02*
Y263843D01*
X164205Y265124D02*
Y261843D01*
Y265124D02*
X165000D01*
X165341Y264968*
X165568Y264655*
X165682Y264343*
X165796Y263874*
Y263093*
X165682Y262624*
X165568Y262311*
X165341Y261999*
X165000Y261843*
X164205*
X164504Y259843D02*
X172504D01*
X168504Y255843D02*
Y263843D01*
X170504Y265124D02*
Y261843D01*
Y265124D02*
X171299D01*
X171640Y264968*
X171868Y264655*
X171981Y264343*
X172095Y263874*
Y263093*
X171981Y262624*
X171868Y262311*
X171640Y261999*
X171299Y261843*
X170504*
X220409Y282677D02*
X228409D01*
X224409Y278677D02*
Y286677D01*
X226409Y287958D02*
Y284677D01*
Y287958D02*
X227205D01*
X227546Y287802*
X227773Y287490*
X227887Y287177*
X228000Y286708*
Y285927*
X227887Y285458*
X227773Y285146*
X227546Y284833*
X227205Y284677*
X226409*
X204268Y283858D02*
X212268D01*
X208268Y279858D02*
Y287858D01*
X210268Y289140D02*
Y285858D01*
Y289140D02*
X211063D01*
X211404Y288983*
X211631Y288671*
X211745Y288358*
X211859Y287890*
Y287108*
X211745Y286640*
X211631Y286327*
X211404Y286015*
X211063Y285858*
X210268*
X209780Y283858D02*
X217780D01*
X213780Y279858D02*
Y287858D01*
X215780Y289140D02*
Y285858D01*
Y289140D02*
X216575D01*
X216916Y288983*
X217143Y288671*
X217257Y288358*
X217370Y287890*
Y287108*
X217257Y286640*
X217143Y286327*
X216916Y286015*
X216575Y285858*
X215780*
X216079Y283858D02*
X224079D01*
X220079Y279858D02*
Y287858D01*
X222079Y289140D02*
Y285858D01*
Y289140D02*
X222874D01*
X223215Y288983*
X223442Y288671*
X223556Y288358*
X223670Y287890*
Y287108*
X223556Y286640*
X223442Y286327*
X223215Y286015*
X222874Y285858*
X222079*
X194819Y259055D02*
X202819D01*
X198819Y255055D02*
Y263055D01*
X200819Y264336D02*
Y261055D01*
Y264336D02*
X201614D01*
X201955Y264180*
X202183Y263868*
X202296Y263555*
X202410Y263086*
Y262305*
X202296Y261836*
X202183Y261524*
X201955Y261211*
X201614Y261055*
X200819*
X194819Y251969D02*
X202819D01*
X198819Y247969D02*
Y255969D01*
X200819Y257250D02*
Y253969D01*
Y257250D02*
X201614D01*
X201955Y257094*
X202183Y256781*
X202296Y256469*
X202410Y256000*
Y255219*
X202296Y254750*
X202183Y254437*
X201955Y254125*
X201614Y253969*
X200819*
X200331Y255512D02*
X208331D01*
X204331Y251512D02*
Y259512D01*
X206331Y260793D02*
Y257512D01*
Y260793D02*
X207126D01*
X207467Y260637*
X207694Y260324*
X207808Y260012*
X207922Y259543*
Y258762*
X207808Y258293*
X207694Y257981*
X207467Y257668*
X207126Y257512*
X206331*
X227496Y270866D02*
X235496D01*
X231496Y266866D02*
Y274866D01*
X233496Y276147D02*
Y272866D01*
Y276147D02*
X234292D01*
X234632Y275991*
X234860Y275679*
X234973Y275366*
X235087Y274897*
Y274116*
X234973Y273647*
X234860Y273335*
X234632Y273022*
X234292Y272866*
X233496*
X227496Y264961D02*
X235496D01*
X231496Y260961D02*
Y268961D01*
X233496Y270242D02*
Y266961D01*
Y270242D02*
X234292D01*
X234632Y270086*
X234860Y269773*
X234973Y269461*
X235087Y268992*
Y268211*
X234973Y267742*
X234860Y267429*
X234632Y267117*
X234292Y266961*
X233496*
X219228Y264567D02*
X227228D01*
X223228Y260567D02*
Y268567D01*
X225228Y269848D02*
Y266567D01*
Y269848D02*
X226024D01*
X226365Y269692*
X226592Y269379*
X226706Y269067*
X226819Y268598*
Y267817*
X226706Y267348*
X226592Y267036*
X226365Y266723*
X226024Y266567*
X225228*
X249543Y271654D02*
X257543D01*
X253543Y267654D02*
Y275654D01*
X255543Y276935D02*
Y273654D01*
Y276935D02*
X256339D01*
X256680Y276779*
X256907Y276466*
X257021Y276154*
X257134Y275685*
Y274904*
X257021Y274435*
X256907Y274122*
X256680Y273810*
X256339Y273654*
X255543*
X267654Y274016D02*
X275654D01*
X271654Y270016D02*
Y278016D01*
X273654Y279297D02*
Y276016D01*
Y279297D02*
X274449D01*
X274790Y279141*
X275017Y278828*
X275131Y278516*
X275244Y278047*
Y277266*
X275131Y276797*
X275017Y276484*
X275017D02*
X274790Y276172D01*
X274449Y276016*
X273654*
X245213Y272047D02*
X253213D01*
X249213Y268047D02*
Y276047D01*
X251213Y277328D02*
Y274047D01*
Y277328D02*
X252008D01*
X252349Y277172*
X252576Y276860*
X252690Y276547*
X252804Y276078*
Y275297*
X252690Y274828*
X252576Y274516*
X252349Y274203*
X252008Y274047*
X251213*
X262535Y279134D02*
X270535D01*
X266535Y275134D02*
Y283134D01*
X268535Y284415D02*
Y281134D01*
Y284415D02*
X269331D01*
X269672Y284259*
X269899Y283946*
X270013Y283634*
X270126Y283165*
Y282384*
X270013Y281915*
X269899Y281603*
X269672Y281290*
X269331Y281134*
X268535*
X264504Y255118D02*
X272504D01*
X268504Y251118D02*
Y259118D01*
X270504Y260399D02*
Y257118D01*
Y260399D02*
X271299D01*
X271640Y260243*
X271868Y259931*
X271981Y259618*
X272095Y259149*
Y258368*
X271981Y257899*
X271868Y257587*
X271640Y257274*
X271299Y257118*
X270504*
X233795Y271654D02*
X241795D01*
X237795Y267654D02*
Y275654D01*
X239795Y276935D02*
Y273654D01*
Y276935D02*
X240591D01*
X240932Y276779*
X241159Y276466*
X241273Y276154*
X241386Y275685*
Y274904*
X241273Y274435*
X241159Y274122*
X240932Y273810*
X240591Y273654*
X239795*
X246787Y260236D02*
X254787D01*
X250787Y256236D02*
Y264236D01*
X252787Y265517D02*
Y262236D01*
Y265517D02*
X253583D01*
X253924Y265361*
X254151Y265049*
X254265Y264736*
X254378Y264267*
Y263486*
X254265Y263017*
X254151Y262705*
X253924Y262392*
X253583Y262236*
X252787*
X239701Y250000D02*
X247701D01*
X243701Y246000D02*
Y254000D01*
X245701Y255281D02*
Y252000D01*
Y255281D02*
X246496D01*
X246837Y255125*
X247064Y254813*
X247064D02*
X247178Y254500D01*
X247292Y254031*
Y253250*
X247178Y252781*
X247064Y252469*
X246837Y252156*
X246496Y252000*
X245701*
X244425Y253150D02*
X252425D01*
X248425Y249150D02*
Y257150D01*
X250425Y258431D02*
Y255150D01*
Y258431D02*
X251221D01*
X251562Y258275*
X251789Y257962*
X251902Y257650*
X252016Y257181*
Y256400*
X251902Y255931*
X251789Y255618*
X251562Y255306*
X251221Y255150*
X250425*
X243244Y257874D02*
X251244D01*
X247244Y253874D02*
Y261874D01*
X249244Y263155D02*
Y259874D01*
Y263155D02*
X250040D01*
X250380Y262999*
X250608Y262687*
X250721Y262374*
X250835Y261905*
Y261124*
X250721Y260655*
X250608Y260343*
X250380Y260030*
X250040Y259874*
X249244*
X261748Y249213D02*
X269748D01*
X265748Y245213D02*
Y253213D01*
X267748Y254494D02*
Y251213D01*
Y254494D02*
X268543D01*
X268884Y254338*
X269112Y254025*
X269225Y253713*
X269339Y253244*
Y252463*
X269225Y251994*
X269112Y251681*
X268884Y251369*
X268543Y251213*
X267748*
X278283Y281102D02*
X286283D01*
X282283Y277102D02*
Y285102D01*
X284283Y286384D02*
Y283102D01*
Y286384D02*
X285079D01*
X285420Y286227*
X285647Y285915*
X285761Y285602*
X285874Y285134*
Y284352*
X285761Y283884*
X285647Y283571*
X285420Y283259*
X285079Y283102*
X284283*
X278283Y274803D02*
X286283D01*
X282283Y270803D02*
Y278803D01*
X284283Y280084D02*
Y276803D01*
Y280084D02*
X285079D01*
X285420Y279928*
X285647Y279616*
X285761Y279303*
X285874Y278834*
Y278053*
X285761Y277584*
X285647Y277272*
X285420Y276959*
X285079Y276803*
X284283*
X283795Y281890D02*
X291795D01*
X287795Y277890D02*
Y285890D01*
X289795Y287171D02*
Y283890D01*
Y287171D02*
X290591D01*
X290932Y287015*
X291159Y286702*
X291273Y286390*
X291386Y285921*
Y285140*
X291273Y284671*
X291159Y284359*
X290932Y284046*
X290591Y283890*
X289795*
X275528Y265748D02*
X283528D01*
X279528Y261748D02*
Y269748D01*
X281528Y271029D02*
Y267748D01*
Y271029D02*
X282323D01*
X282664Y270873*
X282891Y270561*
X283005Y270248*
X283118Y269779*
Y268998*
X283005Y268529*
X282891Y268217*
X282664Y267904*
X282323Y267748*
X281528*
X281433Y246063D02*
X289433D01*
X285433Y242063D02*
Y250063D01*
X287433Y251344D02*
Y248063D01*
Y251344D02*
X288229D01*
X288569Y251188*
X288797Y250875*
X288910Y250563*
X289024Y250094*
Y249313*
X288910Y248844*
X288797Y248532*
X288569Y248219*
X288229Y248063*
X287433*
X283795Y277953D02*
X291795D01*
X287795Y273953D02*
Y281953D01*
X289795Y283234D02*
Y279953D01*
Y283234D02*
X290591D01*
X290932Y283078*
X291159Y282765*
X291273Y282453*
X291386Y281984*
Y281203*
X291273Y280734*
X291159Y280422*
X290932Y280109*
X290591Y279953*
X289795*
X278677Y271260D02*
X286677D01*
X282677Y267260D02*
Y275260D01*
X284677Y276541D02*
Y273260D01*
Y276541D02*
X285473D01*
X285814Y276385*
X286041Y276072*
X286154Y275760*
X286268Y275291*
Y274510*
X286154Y274041*
X286041Y273729*
X285814Y273416*
X285473Y273260*
X284677*
X303480Y250394D02*
X311480D01*
X307480Y246394D02*
Y254394D01*
X309480Y255675D02*
Y252394D01*
Y255675D02*
X310276D01*
X310617Y255519*
X310844Y255206*
X310958Y254894*
X311071Y254425*
Y253644*
X310958Y253175*
X310844Y252862*
X310617Y252550*
X310276Y252394*
X309480*
X303874Y254331D02*
X311874D01*
X307874Y250331D02*
Y258331D01*
X309874Y259612D02*
Y256331D01*
Y259612D02*
X310669D01*
X311010Y259456*
X311238Y259143*
X311351Y258831*
X311465Y258362*
Y257581*
X311351Y257112*
X311238Y256799*
X311010Y256487*
X310669Y256331*
X309874*
X303087Y262992D02*
X311087D01*
X307087Y258992D02*
Y266992D01*
X309087Y268273D02*
Y264992D01*
Y268273D02*
X309882D01*
X310223Y268117*
X310450Y267805*
X310564Y267492*
X310678Y267023*
Y266242*
X310564Y265773*
X310450Y265461*
X310223Y265148*
X309882Y264992*
X309087*
X307024Y281496D02*
X315024D01*
X311024Y277496D02*
Y285496D01*
X313024Y286777D02*
Y283496D01*
Y286777D02*
X313819D01*
X314160Y286621*
X314387Y286309*
X314501Y285996*
X314615Y285527*
Y284746*
X314501Y284277*
X314387Y283965*
X314160Y283652*
X313819Y283496*
X313024*
X307024Y279134D02*
X315024D01*
X311024Y275134D02*
Y283134D01*
X313024Y284415D02*
Y281134D01*
Y284415D02*
X313819D01*
X314160Y284259*
X314387Y283946*
X314501Y283634*
X314615Y283165*
Y282384*
X314501Y281915*
X314387Y281603*
X314160Y281290*
X313819Y281134*
X313024*
X307024Y260630D02*
X315024D01*
X311024Y256630D02*
Y264630D01*
X313024Y265911D02*
Y262630D01*
Y265911D02*
X313819D01*
X314160Y265755*
X314387Y265442*
X314501Y265130*
X314615Y264661*
Y263880*
X314501Y263411*
X314387Y263099*
X314160Y262786*
X313819Y262630*
X313024*
X307024Y262992D02*
X315024D01*
X311024Y258992D02*
Y266992D01*
X313024Y268273D02*
Y264992D01*
Y268273D02*
X313819D01*
X314160Y268117*
X314387Y267805*
X314501Y267492*
X314615Y267023*
Y266242*
X314501Y265773*
X314387Y265461*
X314160Y265148*
X313819Y264992*
X313024*
X301512Y278346D02*
X309512D01*
X305512Y274346D02*
Y282346D01*
X307512Y283628D02*
Y280346D01*
Y283628D02*
X308307D01*
X308648Y283471*
X308875Y283159*
X308989Y282846*
X309103Y282378*
Y281596*
X308989Y281128*
X308875Y280815*
X308648Y280503*
X308307Y280346*
X307512*
X287732Y280709D02*
X295732D01*
X291732Y276709D02*
Y284709D01*
X293732Y285990D02*
Y282709D01*
Y285990D02*
X294528D01*
X294869Y285834*
X295096Y285521*
X295210Y285209*
X295323Y284740*
Y283959*
X295210Y283490*
X295096Y283177*
X294869Y282865*
X294528Y282709*
X293732*
X287732Y271260D02*
X295732D01*
X291732Y267260D02*
Y275260D01*
X293732Y276541D02*
Y273260D01*
Y276541D02*
X294528D01*
X294869Y276385*
X295096Y276072*
X295210Y275760*
X295323Y275291*
Y274510*
X295210Y274041*
X295096Y273729*
X294869Y273416*
X294528Y273260*
X293732*
X297181Y271260D02*
X305181D01*
X301181Y267260D02*
Y275260D01*
X303181Y276541D02*
Y273260D01*
Y276541D02*
X303977D01*
X304317Y276385*
X304545Y276072*
X304658Y275760*
X304772Y275291*
Y274510*
X304658Y274041*
X304545Y273729*
X304317Y273416*
X303977Y273260*
X303181*
X299937Y256693D02*
X307937D01*
X303937Y252693D02*
Y260693D01*
X305937Y261974D02*
Y258693D01*
Y261974D02*
X306732D01*
X307073Y261818*
X307301Y261505*
X307414Y261193*
X307528Y260724*
Y259943*
X307414Y259474*
X307301Y259162*
X307073Y258849*
X306732Y258693*
X305937*
X283795Y259449D02*
X291795D01*
X287795Y255449D02*
Y263449D01*
X289795Y264730D02*
Y261449D01*
Y264730D02*
X290591D01*
X290932Y264574*
X291159Y264261*
X291273Y263949*
X291386Y263480*
Y262699*
X291273Y262230*
X291159Y261918*
X290932Y261605*
X290591Y261449*
X289795*
X275921Y256693D02*
X283921D01*
X279921Y252693D02*
Y260693D01*
X281921Y261974D02*
Y258693D01*
Y261974D02*
X282717D01*
X283058Y261818*
X283285Y261505*
X283399Y261193*
X283512Y260724*
Y259943*
X283399Y259474*
X283285Y259162*
X283058Y258849*
X282717Y258693*
X281921*
X324346Y250394D02*
X332346D01*
X328346Y246394D02*
Y254394D01*
X330346Y255675D02*
Y252394D01*
Y255675D02*
X331142D01*
X331483Y255519*
X331710Y255206*
X331824Y254894*
X331937Y254425*
Y253644*
X331824Y253175*
X331710Y252862*
X331483Y252550*
X331142Y252394*
X330346*
X323559Y277559D02*
X331559D01*
X327559Y273559D02*
Y281559D01*
X329559Y282840D02*
Y279559D01*
Y282840D02*
X330355D01*
X330695Y282684*
X330923Y282372*
X331036Y282059*
X331150Y281590*
Y280809*
X331036Y280340*
X330923Y280028*
X330695Y279715*
X330355Y279559*
X329559*
X324346Y257874D02*
X332346D01*
X328346Y253874D02*
Y261874D01*
X330346Y263155D02*
Y259874D01*
Y263155D02*
X331142D01*
X331483Y262999*
X331710Y262687*
X331824Y262374*
X331937Y261905*
Y261124*
X331824Y260655*
X331710Y260343*
X331483Y260030*
X331142Y259874*
X330346*
X344031Y275984D02*
X352031D01*
X348031Y271984D02*
Y279984D01*
X350031Y281266D02*
Y277984D01*
Y281266D02*
X350827D01*
X350827D02*
X351168Y281109D01*
X351395Y280797*
X351509Y280484*
X351622Y280016*
X351622D02*
Y279234D01*
X351509Y278766*
X351509D02*
X351395Y278453D01*
X351168Y278141*
X351168D02*
X350827Y277984D01*
X350031*
X344425Y283071D02*
X352425D01*
X348425Y279071D02*
Y287071D01*
X350425Y288352D02*
Y285071D01*
Y288352D02*
X351221D01*
X351562Y288196*
X351789Y287883*
X351902Y287571*
X352016Y287102*
Y286321*
X351902Y285852*
X351789Y285540*
X351562Y285227*
X351221Y285071*
X350425*
X344425Y269291D02*
X352425D01*
X348425Y265291D02*
Y273291D01*
X350425Y274573D02*
Y271291D01*
Y274573D02*
X351221D01*
X351562Y274416*
X351789Y274104*
X351902Y273791*
X352016Y273323*
Y272541*
X351902Y272073*
X351789Y271760*
X351562Y271448*
X351221Y271291*
X350425*
X333008Y270079D02*
X341008D01*
X337008Y266079D02*
Y274079D01*
X339008Y275360D02*
Y272079D01*
Y275360D02*
X339803D01*
X340144Y275204*
X340372Y274891*
X340485Y274579*
X340599Y274110*
Y273329*
X340485Y272860*
X340372Y272547*
X340144Y272235*
X339803Y272079*
X339008*
X340094Y261811D02*
X348094D01*
X344094Y257811D02*
Y265811D01*
X346094Y267092D02*
Y263811D01*
Y267092D02*
X346890D01*
X347231Y266936*
X347458Y266624*
X347572Y266311*
X347685Y265842*
Y265061*
X347572Y264592*
X347458Y264280*
X347231Y263967*
X346890Y263811*
X346094*
X347575Y262598D02*
X355575D01*
X351575Y258598D02*
Y266598D01*
X353575Y267880D02*
Y264598D01*
Y267880D02*
X354370D01*
X354711Y267723*
X354938Y267411*
X355052Y267098*
X355166Y266630*
Y265848*
X355052Y265380*
X354938Y265067*
X354711Y264755*
X354370Y264598*
X353575*
X377890Y259449D02*
X385890D01*
X381890Y255449D02*
Y263449D01*
X383890Y264730D02*
Y261449D01*
Y264730D02*
X384685D01*
X385026Y264574*
X385253Y264261*
X385367Y263949*
X385481Y263480*
Y262699*
X385367Y262230*
X385253Y261918*
X385026Y261605*
X384685Y261449*
X383890*
X377890Y251575D02*
X385890D01*
X381890Y247575D02*
Y255575D01*
X383890Y256856D02*
Y253575D01*
Y256856D02*
X384685D01*
X385026Y256700*
X385253Y256387*
X385367Y256075*
X385481Y255606*
Y254825*
X385367Y254356*
X385253Y254044*
X385026Y253731*
X384685Y253575*
X383890*
X364898Y262598D02*
X372898D01*
X368898Y258598D02*
Y266598D01*
X370898Y267880D02*
Y264598D01*
Y267880D02*
X371693D01*
X372034Y267723*
X372261Y267411*
X372375Y267098*
X372489Y266630*
Y265848*
X372375Y265380*
X372261Y265067*
X372034Y264755*
X371693Y264598*
X370898*
X364504Y250394D02*
X372504D01*
X368504Y246394D02*
Y254394D01*
X370504Y255675D02*
Y252394D01*
Y255675D02*
X371299D01*
X371640Y255519*
X371868Y255206*
X371981Y254894*
X372095Y254425*
Y253644*
X371981Y253175*
X371868Y252862*
X371640Y252550*
X371299Y252394*
X370504*
X356630Y252362D02*
X364630D01*
X360630Y248362D02*
Y256362D01*
X362630Y257643D02*
Y254362D01*
Y257643D02*
X363425D01*
X363766Y257487*
X363994Y257175*
X364107Y256862*
X364221Y256393*
Y255612*
X364107Y255143*
X363994Y254831*
X363766Y254518*
X363425Y254362*
X362630*
X364504Y277953D02*
X372504D01*
X368504Y273953D02*
Y281953D01*
X370504Y283234D02*
Y279953D01*
Y283234D02*
X371299D01*
X371640Y283078*
X371868Y282765*
X371981Y282453*
X372095Y281984*
Y281203*
X371981Y280734*
X371868Y280422*
X371640Y280109*
X371299Y279953*
X370504*
X370409Y272835D02*
X378409D01*
X374409Y268835D02*
Y276835D01*
X376409Y278116D02*
Y274835D01*
Y278116D02*
X377205D01*
X377546Y277960*
X377773Y277647*
X377887Y277335*
X378000Y276866*
Y276085*
X377887Y275616*
X377773Y275303*
X377546Y274991*
X377205Y274835*
X376409*
X128677Y284646D02*
X136677D01*
X132677Y280646D02*
Y288646D01*
X134677Y289927D02*
Y286646D01*
Y289927D02*
X135473D01*
X135814Y289771*
X136041Y289458*
X136154Y289146*
X136268Y288677*
Y287896*
X136154Y287427*
X136041Y287114*
X135814Y286802*
X135473Y286646*
X134677*
X138126Y284646D02*
X146126D01*
X142126Y280646D02*
Y288646D01*
X144126Y289927D02*
Y286646D01*
Y289927D02*
X144921D01*
X145262Y289771*
X145490Y289458*
X145603Y289146*
X145717Y288677*
Y287896*
X145603Y287427*
X145490Y287114*
X145262Y286802*
X144921Y286646*
X144126*
X135764Y295669D02*
X143764D01*
X139764Y291669D02*
Y299669D01*
X141764Y300951D02*
Y297669D01*
Y300951D02*
X142559D01*
X142900Y300794*
X143127Y300482*
X143241Y300169*
X143355Y299701*
Y298919*
X143241Y298451*
X143127Y298138*
X142900Y297826*
X142559Y297669*
X141764*
X144819Y316535D02*
X152819D01*
X148819Y312535D02*
Y320535D01*
X150819Y321817D02*
Y318535D01*
Y321817D02*
X151614D01*
X151955Y321660*
X152183Y321348*
X152296Y321035*
X152410Y320567*
Y319785*
X152296Y319317*
X152183Y319004*
X151955Y318692*
X151614Y318535*
X150819*
X142457Y306299D02*
X150457D01*
X146457Y302299D02*
Y310299D01*
X148457Y311580D02*
Y308299D01*
Y311580D02*
X149252D01*
X149593Y311424*
X149820Y311112*
X149934Y310799*
X150048Y310330*
Y309549*
X149934Y309080*
X149820Y308768*
X149593Y308455*
X149252Y308299*
X148457*
X181433Y310630D02*
X189433D01*
X185433Y306630D02*
Y314630D01*
X187433Y315911D02*
Y312630D01*
Y315911D02*
X188229D01*
X188569Y315755*
X188797Y315442*
X188910Y315130*
X189024Y314661*
Y313880*
X188910Y313411*
X188797Y313099*
X188569Y312786*
X188229Y312630*
X187433*
X163323Y290157D02*
X171323D01*
X167323Y286157D02*
Y294157D01*
X169323Y295439D02*
Y292157D01*
Y295439D02*
X170118D01*
X170459Y295282*
X170686Y294970*
X170800Y294657*
X170914Y294189*
Y293407*
X170800Y292939*
X170686Y292626*
X170459Y292314*
X170118Y292157*
X169323*
X181039Y284252D02*
X189039D01*
X185039Y280252D02*
Y288252D01*
X187039Y289533D02*
Y286252D01*
Y289533D02*
X187835D01*
X188176Y289377*
X188403Y289064*
X188517Y288752*
X188630Y288283*
Y287502*
X188517Y287033*
X188403Y286721*
X188176Y286408*
X187835Y286252*
X187039*
X164898Y309449D02*
X172898D01*
X168898Y305449D02*
Y313449D01*
X170898Y314730D02*
Y311449D01*
Y314730D02*
X171693D01*
X172034Y314574*
X172261Y314261*
X172375Y313949*
X172489Y313480*
Y312699*
X172375Y312230*
X172261Y311918*
X172034Y311605*
X171693Y311449*
X170898*
X157417Y323228D02*
X165417D01*
X161417Y319228D02*
Y327228D01*
X163417Y328510D02*
Y325228D01*
Y328510D02*
X164213D01*
X164554Y328353*
X164781Y328041*
X164895Y327728*
X165008Y327260*
Y326478*
X164895Y326010*
X164781Y325697*
X164554Y325385*
X164213Y325228*
X163417*
X163323Y317717D02*
X171323D01*
X167323Y313717D02*
Y321717D01*
X169323Y322998D02*
Y319717D01*
Y322998D02*
X170118D01*
X170459Y322842*
X170686Y322529*
X170800Y322217*
X170914Y321748*
Y320967*
X170800Y320498*
X170686Y320185*
X170459Y319873*
X170118Y319717*
X169323*
X214504Y305512D02*
X222504D01*
X218504Y301512D02*
Y309512D01*
X220504Y310793D02*
Y307512D01*
Y310793D02*
X221299D01*
X221640Y310637*
X221868Y310324*
X221981Y310012*
X222095Y309543*
Y308762*
X221981Y308293*
X221868Y307981*
X221640Y307668*
X221299Y307512*
X220504*
X214504Y298031D02*
X222504D01*
X218504Y294031D02*
Y302031D01*
X220504Y303313D02*
Y300031D01*
Y303313D02*
X221299D01*
X221640Y303156*
X221868Y302844*
X221981Y302531*
X222095Y302063*
Y301281*
X221981Y300813*
X221868Y300500*
X221640Y300188*
X221299Y300031*
X220504*
X207811Y289370D02*
X215811D01*
X211811Y285370D02*
Y293370D01*
X213811Y294651D02*
Y291370D01*
Y294651D02*
X214606D01*
X214947Y294495*
X215175Y294183*
X215288Y293870*
X215402Y293401*
Y292620*
X215288Y292151*
X215175Y291839*
X214947Y291526*
X214606Y291370*
X213811*
X211748Y308661D02*
X219748D01*
X215748Y304661D02*
Y312661D01*
X217748Y313943D02*
Y310661D01*
Y313943D02*
X218543D01*
X218884Y313786*
X219112Y313474*
X219225Y313161*
X219339Y312693*
Y311911*
X219225Y311443*
X219112Y311130*
X218884Y310818*
X218543Y310661*
X217748*
X207417Y292913D02*
X215417D01*
X211417Y288913D02*
Y296913D01*
X213417Y298195D02*
Y294913D01*
Y298195D02*
X214213D01*
X214554Y298038*
X214781Y297726*
X214895Y297413*
X215008Y296945*
Y296163*
X214895Y295695*
X214781Y295382*
X214554Y295070*
X214213Y294913*
X213417*
X208992Y305512D02*
X216992D01*
X212992Y301512D02*
Y309512D01*
X214992Y310793D02*
Y307512D01*
Y310793D02*
X215788D01*
X216128Y310637*
X216356Y310324*
X216469Y310012*
X216583Y309543*
Y308762*
X216469Y308293*
X216356Y307981*
X216128Y307668*
X215788Y307512*
X214992*
X225134Y311811D02*
X233134D01*
X229134Y307811D02*
Y315811D01*
X231134Y317092D02*
Y313811D01*
Y317092D02*
X231929D01*
X232270Y316936*
X232497Y316624*
X232611Y316311*
X232725Y315842*
Y315061*
X232611Y314592*
X232497Y314280*
X232270Y313967*
X231929Y313811*
X231134*
X210961Y314173D02*
X218961D01*
X214961Y310173D02*
Y318173D01*
X216961Y319454D02*
Y316173D01*
Y319454D02*
X217756D01*
X218097Y319298*
X218324Y318986*
X218438Y318673*
X218552Y318204*
Y317423*
X218438Y316954*
X218324Y316642*
X218097Y316329*
X217756Y316173*
X216961*
X251512Y287402D02*
X259512D01*
X255512Y283402D02*
Y291402D01*
X257512Y292683D02*
Y289402D01*
Y292683D02*
X258307D01*
X258648Y292527*
X258875Y292214*
X258989Y291902*
X259103Y291433*
Y290652*
X258989Y290183*
X258875Y289870*
X258648Y289558*
X258307Y289402*
X257512*
X267260Y300394D02*
X275260D01*
X271260Y296394D02*
Y304394D01*
X273260Y305675D02*
Y302394D01*
Y305675D02*
X274055D01*
X274396Y305519*
X274623Y305206*
X274737Y304894*
X274851Y304425*
Y303644*
X274737Y303175*
X274623Y302862*
X274396Y302550*
X274055Y302394*
X273260*
X253874Y294882D02*
X261874D01*
X257874Y290882D02*
Y298882D01*
X259874Y300163D02*
Y296882D01*
Y300163D02*
X260669D01*
X261010Y300007*
X261238Y299694*
X261351Y299382*
X261465Y298913*
Y298132*
X261351Y297663*
X261238Y297351*
X261010Y297038*
X260669Y296882*
X259874*
X249150Y290551D02*
X257150D01*
X253150Y286551D02*
Y294551D01*
X255150Y295832D02*
Y292551D01*
Y295832D02*
X255945D01*
X256286Y295676*
X256513Y295364*
X256627Y295051*
X256741Y294582*
Y293801*
X256627Y293332*
X256513Y293020*
X256286Y292707*
X255945Y292551*
X255150*
X241669Y297638D02*
X249669D01*
X245669Y293638D02*
Y301638D01*
X247669Y302919D02*
Y299638D01*
Y302919D02*
X248465D01*
X248806Y302763*
X249033Y302450*
X249147Y302138*
X249260Y301669*
Y300888*
X249147Y300419*
X249033Y300107*
X248806Y299794*
X248465Y299638*
X247669*
X258205Y305512D02*
X266205D01*
X262205Y301512D02*
Y309512D01*
X264205Y310793D02*
Y307512D01*
Y310793D02*
X265000D01*
X265341Y310637*
X265568Y310324*
X265682Y310012*
X265796Y309543*
Y308762*
X265682Y308293*
X265568Y307981*
X265341Y307668*
X265000Y307512*
X264205*
X261354Y311417D02*
X269354D01*
X265354Y307417D02*
Y315417D01*
X267354Y316699D02*
Y313417D01*
Y316699D02*
X268150D01*
X268491Y316542*
X268718Y316230*
X268832Y315917*
X268945Y315449*
Y314667*
X268832Y314199*
X268718Y313886*
X268491Y313574*
X268150Y313417*
X267354*
X238520Y315748D02*
X246520D01*
X242520Y311748D02*
Y319748D01*
X244520Y321029D02*
Y317748D01*
Y321029D02*
X245315D01*
X245656Y320873*
X245883Y320561*
X245997Y320248*
X246111Y319779*
Y318998*
X245997Y318529*
X245883Y318217*
X245656Y317904*
X245315Y317748*
X244520*
X236945Y309843D02*
X244945D01*
X240945Y305843D02*
Y313843D01*
X242945Y315124D02*
Y311843D01*
Y315124D02*
X243740D01*
X244081Y314968*
X244309Y314655*
X244422Y314343*
X244536Y313874*
Y313093*
X244422Y312624*
X244309Y312311*
X244081Y311999*
X243740Y311843*
X242945*
X253480Y309449D02*
X261480D01*
X257480Y305449D02*
Y313449D01*
X259480Y314730D02*
Y311449D01*
Y314730D02*
X260276D01*
X260617Y314574*
X260844Y314261*
X260958Y313949*
X261071Y313480*
Y312699*
X260958Y312230*
X260844Y311918*
X260617Y311605*
X260276Y311449*
X259480*
X229858Y288189D02*
X237858D01*
X233858Y284189D02*
Y292189D01*
X235858Y293470D02*
Y290189D01*
Y293470D02*
X236654D01*
X236995Y293314*
X237222Y293001*
X237336Y292689*
X237449Y292220*
Y291439*
X237336Y290970*
X237222Y290658*
X236995Y290345*
X236654Y290189*
X235858*
X248362Y316535D02*
X256362D01*
X252362Y312535D02*
Y320535D01*
X254362Y321817D02*
Y318535D01*
Y321817D02*
X255158D01*
X255499Y321660*
X255726Y321348*
X255839Y321035*
X255953Y320567*
Y319785*
X255839Y319317*
X255726Y319004*
X255499Y318692*
X255158Y318535*
X254362*
X268441Y287402D02*
X276441D01*
X272441Y283402D02*
Y291402D01*
X274441Y292683D02*
Y289402D01*
Y292683D02*
X275236D01*
X275577Y292527*
X275805Y292214*
X275918Y291902*
X276032Y291433*
Y290652*
X275918Y290183*
X275805Y289870*
X275577Y289558*
X275236Y289402*
X274441*
X280646Y301575D02*
X288646D01*
X284646Y297575D02*
Y305575D01*
X286646Y306856D02*
Y303575D01*
Y306856D02*
X287441D01*
X287782Y306700*
X288009Y306387*
X288123Y306075*
X288237Y305606*
Y304825*
X288123Y304356*
X288009Y304044*
X287782Y303731*
X287441Y303575*
X286646*
X280252Y322835D02*
X288252D01*
X284252Y318835D02*
Y326835D01*
X286252Y328116D02*
Y324835D01*
Y328116D02*
X287047D01*
X287388Y327960*
X287616Y327647*
X287729Y327335*
X287843Y326866*
Y326085*
X287729Y325616*
X287616Y325303*
X287388Y324991*
X287047Y324835*
X286252*
X277496Y303543D02*
X285496D01*
X281496Y299543D02*
Y307543D01*
X283496Y308825D02*
Y305543D01*
Y308825D02*
X284292D01*
X284632Y308668*
X284860Y308356*
X284973Y308043*
X285087Y307575*
Y306793*
X284973Y306325*
X284860Y306012*
X284632Y305700*
X284292Y305543*
X283496*
X288520Y287402D02*
X296520D01*
X292520Y283402D02*
Y291402D01*
X294520Y292683D02*
Y289402D01*
Y292683D02*
X295315D01*
X295656Y292527*
X295883Y292214*
X295997Y291902*
X296111Y291433*
Y290652*
X295997Y290183*
X295883Y289870*
X295656Y289558*
X295315Y289402*
X294520*
X308205Y317717D02*
X316205D01*
X312205Y313717D02*
Y321717D01*
X314205Y322998D02*
Y319717D01*
Y322998D02*
X315000D01*
X315341Y322842*
X315568Y322529*
X315682Y322217*
X315796Y321748*
Y320967*
X315682Y320498*
X315568Y320185*
X315341Y319873*
X315000Y319717*
X314205*
X302693Y285039D02*
X310693D01*
X306693Y281039D02*
Y289039D01*
X308693Y290321D02*
Y287039D01*
Y290321D02*
X309488D01*
X309829Y290164*
X310057Y289852*
X310170Y289539*
X310284Y289071*
Y288289*
X310170Y287821*
X310057Y287508*
X309829Y287196*
X309488Y287039*
X308693*
X287339Y295276D02*
X295339D01*
X291339Y291276D02*
Y299276D01*
X293339Y300557D02*
Y297276D01*
Y300557D02*
X294134D01*
X294475Y300401*
X294702Y300088*
X294816Y299776*
X294929Y299307*
Y298526*
X294816Y298057*
X294702Y297744*
X294475Y297432*
X294134Y297276*
X293339*
X289307Y317717D02*
X297307D01*
X293307Y313717D02*
Y321717D01*
X295307Y322998D02*
Y319717D01*
Y322998D02*
X296103D01*
X296443Y322842*
X296671Y322529*
X296784Y322217*
X296898Y321748*
Y320967*
X296784Y320498*
X296671Y320185*
X296443Y319873*
X296103Y319717*
X295307*
X284583Y317323D02*
X292583D01*
X288583Y313323D02*
Y321323D01*
X290583Y322604D02*
Y319323D01*
Y322604D02*
X291378D01*
X291719Y322448*
X291946Y322135*
X292060Y321823*
X292174Y321354*
Y320573*
X292060Y320104*
X291946Y319792*
X291719Y319479*
X291378Y319323*
X290583*
X276315Y315748D02*
X284315D01*
X280315Y311748D02*
Y319748D01*
X282315Y321029D02*
Y317748D01*
Y321029D02*
X283110D01*
X283451Y320873*
X283679Y320561*
X283792Y320248*
X283906Y319779*
Y318998*
X283792Y318529*
X283679Y318217*
X283451Y317904*
X283110Y317748*
X282315*
X287339Y301181D02*
X295339D01*
X291339Y297181D02*
Y305181D01*
X293339Y306462D02*
Y303181D01*
Y306462D02*
X294134D01*
X294475Y306306*
X294702Y305994*
X294816Y305681*
X294929Y305212*
Y304431*
X294816Y303962*
X294702Y303650*
X294475Y303337*
X294134Y303181*
X293339*
X292457Y308268D02*
X300457D01*
X296457Y304268D02*
Y312268D01*
X298457Y313549D02*
Y310268D01*
Y313549D02*
X299252D01*
X299593Y313393*
X299820Y313080*
X299934Y312768*
X300048Y312299*
Y311518*
X299934Y311049*
X299820Y310736*
X299593Y310424*
X299252Y310268*
X298457*
X297181Y308268D02*
X305181D01*
X301181Y304268D02*
Y312268D01*
X303181Y313549D02*
Y310268D01*
Y313549D02*
X303977D01*
X304317Y313393*
X304545Y313080*
X304658Y312768*
X304772Y312299*
Y311518*
X304658Y311049*
X304545Y310736*
X304317Y310424*
X303977Y310268*
X303181*
X287732Y322441D02*
X295732D01*
X291732Y318441D02*
Y326441D01*
X293732Y327722D02*
Y324441D01*
Y327722D02*
X294528D01*
X294869Y327566*
X295096Y327253*
X295210Y326941*
X295323Y326472*
Y325691*
X295210Y325222*
X295096Y324910*
X294869Y324597*
X294528Y324441*
X293732*
X276315Y321260D02*
X284315D01*
X280315Y317260D02*
Y325260D01*
X282315Y326541D02*
Y323260D01*
Y326541D02*
X283110D01*
X283451Y326385*
X283679Y326072*
X283792Y325760*
X283906Y325291*
Y324510*
X283792Y324041*
X283679Y323729*
X283451Y323416*
X283110Y323260*
X282315*
X293244Y317717D02*
X301244D01*
X297244Y313717D02*
Y321717D01*
X299244Y322998D02*
Y319717D01*
Y322998D02*
X300040D01*
X300380Y322842*
X300608Y322529*
X300721Y322217*
X300835Y321748*
Y320967*
X300721Y320498*
X300608Y320185*
X300380Y319873*
X300040Y319717*
X299244*
X301118Y318110D02*
X309118D01*
X305118Y314110D02*
Y322110D01*
X307118Y323391D02*
Y320110D01*
Y323391D02*
X307914D01*
X308254Y323235*
X308482Y322923*
X308595Y322610*
X308709Y322141*
Y321360*
X308595Y320891*
X308482Y320579*
X308254Y320266*
X307914Y320110*
X307118*
X286945Y308268D02*
X294945D01*
X290945Y304268D02*
Y312268D01*
X292945Y313549D02*
Y310268D01*
Y313549D02*
X293740D01*
X294081Y313393*
X294309Y313080*
X294422Y312768*
X294536Y312299*
Y311518*
X294422Y311049*
X294309Y310736*
X294081Y310424*
X293740Y310268*
X292945*
X276709Y310236D02*
X284709D01*
X280709Y306236D02*
Y314236D01*
X282709Y315517D02*
Y312236D01*
Y315517D02*
X283504D01*
X283845Y315361*
X284072Y315049*
X284186Y314736*
X284300Y314267*
Y313486*
X284186Y313017*
X284072Y312705*
X283845Y312392*
X283504Y312236*
X282709*
X277496Y296457D02*
X285496D01*
X281496Y292457D02*
Y300457D01*
X283496Y301738D02*
Y298457D01*
Y301738D02*
X284292D01*
X284632Y301582*
X284860Y301269*
X284973Y300957*
X285087Y300488*
Y299707*
X284973Y299238*
X284860Y298925*
X284632Y298613*
X284292Y298457*
X283496*
X306630Y322835D02*
X314630D01*
X310630Y318835D02*
Y326835D01*
X312630Y328116D02*
Y324835D01*
Y328116D02*
X313425D01*
X313766Y327960*
X313994Y327647*
X314107Y327335*
X314221Y326866*
Y326085*
X314107Y325616*
X313994Y325303*
X313766Y324991*
X313425Y324835*
X312630*
X336157Y307087D02*
X344157D01*
X340157Y303087D02*
Y311087D01*
X342157Y312368D02*
Y309087D01*
Y312368D02*
X342953D01*
X343294Y312212*
X343521Y311899*
X343635Y311587*
X343748Y311118*
Y310337*
X343635Y309868*
X343521Y309555*
X343294Y309243*
X342953Y309087*
X342157*
X346000Y311811D02*
X354000D01*
X350000Y307811D02*
Y315811D01*
X352000Y317092D02*
Y313811D01*
Y317092D02*
X352795D01*
X353136Y316936*
X353364Y316624*
X353477Y316311*
X353591Y315842*
Y315061*
X353477Y314592*
X353364Y314280*
X353136Y313967*
X352795Y313811*
X352000*
X315291Y292520D02*
X323291D01*
X319291Y288520D02*
Y296520D01*
X321291Y297801D02*
Y294520D01*
Y297801D02*
X322087D01*
X322428Y297645*
X322655Y297332*
X322769Y297020*
X322882Y296551*
Y295770*
X322769Y295301*
X322655Y294988*
X322428Y294676*
X322087Y294520*
X321291*
X333008Y320866D02*
X341008D01*
X337008Y316866D02*
Y324866D01*
X339008Y326147D02*
Y322866D01*
Y326147D02*
X339803D01*
X340144Y325991*
X340372Y325679*
X340485Y325366*
X340599Y324897*
Y324116*
X340485Y323647*
X340372Y323335*
X340144Y323022*
X339803Y322866*
X339008*
X333008Y318504D02*
X341008D01*
X337008Y314504D02*
Y322504D01*
X339008Y323785D02*
Y320504D01*
Y323785D02*
X339803D01*
X340144Y323629*
X340372Y323316*
X340485Y323004*
X340599Y322535*
Y321754*
X340485Y321285*
X340372Y320973*
X340144Y320660*
X339803Y320504*
X339008*
X347181Y322441D02*
X355181D01*
X351181Y318441D02*
Y326441D01*
X353181Y327722D02*
Y324441D01*
Y327722D02*
X353977D01*
X354317Y327566*
X354545Y327253*
X354658Y326941*
X354772Y326472*
Y325691*
X354658Y325222*
X354545Y324910*
X354317Y324597*
X353977Y324441*
X353181*
X340094Y288583D02*
X348094D01*
X344094Y284583D02*
Y292583D01*
X346094Y293864D02*
Y290583D01*
Y293864D02*
X346890D01*
X347231Y293708*
X347458Y293395*
X347572Y293083*
X347685Y292614*
Y291833*
X347572Y291364*
X347458Y291051*
X347231Y290739*
X346890Y290583*
X346094*
X309386Y301575D02*
X317386D01*
X313386Y297575D02*
Y305575D01*
X315386Y306856D02*
Y303575D01*
Y306856D02*
X316181D01*
X316522Y306700*
X316749Y306387*
X316863Y306075*
X316977Y305606*
Y304825*
X316863Y304356*
X316749Y304044*
X316522Y303731*
X316181Y303575*
X315386*
X309386Y306693D02*
X317386D01*
X313386Y302693D02*
Y310693D01*
X315386Y311974D02*
Y308693D01*
Y311974D02*
X316181D01*
X316522Y311818*
X316749Y311505*
X316863Y311193*
X316977Y310724*
Y309943*
X316863Y309474*
X316749Y309162*
X316522Y308849*
X316181Y308693*
X315386*
X347575Y288583D02*
X355575D01*
X351575Y284583D02*
Y292583D01*
X353575Y293864D02*
Y290583D01*
Y293864D02*
X354370D01*
X354711Y293708*
X354938Y293395*
X355052Y293083*
X355166Y292614*
Y291833*
X355052Y291364*
X354938Y291051*
X354711Y290739*
X354370Y290583*
X353575*
X346394Y315748D02*
X354394D01*
X350394Y311748D02*
Y319748D01*
X352394Y321029D02*
Y317748D01*
Y321029D02*
X353189D01*
X353530Y320873*
X353757Y320561*
X353871Y320248*
X353985Y319779*
Y318998*
X353871Y318529*
X353757Y318217*
X353530Y317904*
X353189Y317748*
X352394*
X341276Y303543D02*
X349276D01*
X345276Y299543D02*
Y307543D01*
X347276Y308825D02*
Y305543D01*
Y308825D02*
X348071D01*
X348412Y308668*
X348639Y308356*
X348753Y308043*
X348866Y307575*
X348866D02*
Y306793D01*
X348866D02*
X348753Y306325D01*
X348639Y306012*
X348412Y305700*
X348071Y305543*
X347276*
X325921Y318898D02*
X333921D01*
X329921Y314898D02*
Y322898D01*
X331921Y324179D02*
Y320898D01*
Y324179D02*
X332717D01*
X333058Y324023*
X333285Y323710*
X333399Y323398*
X333512Y322929*
Y322148*
X333399Y321679*
X333285Y321366*
X333058Y321054*
X332717Y320898*
X331921*
X357417Y296850D02*
X365417D01*
X361417Y292850D02*
Y300850D01*
X363417Y302132D02*
Y298850D01*
Y302132D02*
X364213D01*
X364554Y301975*
X364781Y301663*
X364895Y301350*
X365008Y300882*
Y300100*
X364895Y299632*
X364781Y299319*
X364554Y299007*
X364213Y298850*
X363417*
X369228Y285433D02*
X377228D01*
X373228Y281433D02*
Y289433D01*
X375228Y290714D02*
Y287433D01*
Y290714D02*
X376024D01*
X376365Y290558*
X376592Y290246*
X376706Y289933*
X376819Y289464*
Y288683*
X376706Y288214*
X376592Y287902*
X376365Y287589*
X376024Y287433*
X375228*
X365685Y294488D02*
X373685D01*
X369685Y290488D02*
Y298488D01*
X371685Y299769D02*
Y296488D01*
Y299769D02*
X372480D01*
X372821Y299613*
X373049Y299301*
X373162Y298988*
X373276Y298519*
Y297738*
X373162Y297269*
X373049Y296957*
X372821Y296644*
X372480Y296488*
X371685*
X179858Y324803D02*
X187858D01*
X183858Y320803D02*
Y328803D01*
X185858Y330084D02*
Y326803D01*
Y330084D02*
X186654D01*
X186995Y329928*
X187222Y329616*
X187336Y329303*
X187449Y328834*
Y328053*
X187336Y327584*
X187222Y327272*
X186995Y326959*
X186654Y326803*
X185858*
X179858Y332677D02*
X187858D01*
X183858Y328677D02*
Y336677D01*
X185858Y337958D02*
Y334677D01*
Y337958D02*
X186654D01*
X186995Y337802*
X187222Y337490*
X187336Y337177*
X187449Y336708*
Y335927*
X187336Y335458*
X187222Y335146*
X186995Y334833*
X186654Y334677*
X185858*
X166079Y324803D02*
X174079D01*
X170079Y320803D02*
Y328803D01*
X172079Y330084D02*
Y326803D01*
Y330084D02*
X172874D01*
X173215Y329928*
X173442Y329616*
X173556Y329303*
X173670Y328834*
Y328053*
X173556Y327584*
X173442Y327272*
X173215Y326959*
X172874Y326803*
X172079*
X166079Y328740D02*
X174079D01*
X170079Y324740D02*
Y332740D01*
X172079Y334021D02*
Y330740D01*
Y334021D02*
X172874D01*
X173215Y333865*
X173442Y333553*
X173556Y333240*
X173670Y332771*
Y331990*
X173556Y331521*
X173442Y331209*
X173215Y330896*
X172874Y330740*
X172079*
X179858Y328740D02*
X187858D01*
X183858Y324740D02*
Y332740D01*
X185858Y334021D02*
Y330740D01*
Y334021D02*
X186654D01*
X186995Y333865*
X187222Y333553*
X187336Y333240*
X187449Y332771*
Y331990*
X187336Y331521*
X187222Y331209*
X186995Y330896*
X186654Y330740*
X185858*
X166079Y332677D02*
X174079D01*
X170079Y328677D02*
Y336677D01*
X172079Y337958D02*
Y334677D01*
Y337958D02*
X172874D01*
X173215Y337802*
X173442Y337490*
X173556Y337177*
X173670Y336708*
Y335927*
X173556Y335458*
X173442Y335146*
X173215Y334833*
X172874Y334677*
X172079*
X164110Y340551D02*
X172110D01*
X168110Y336551D02*
Y344551D01*
X170110Y345832D02*
Y342551D01*
Y345832D02*
X170906D01*
X171247Y345676*
X171474Y345364*
X171588Y345051*
X171701Y344582*
Y343801*
X171588Y343332*
X171474Y343020*
X171247Y342707*
X170906Y342551*
X170110*
X185370Y345669D02*
X193370D01*
X189370Y341669D02*
Y349669D01*
X191370Y350951D02*
Y347669D01*
Y350951D02*
X192166D01*
X192506Y350794*
X192734Y350482*
X192847Y350169*
X192961Y349701*
Y348919*
X192847Y348451*
X192734Y348138*
X192506Y347826*
X192166Y347669*
X191370*
X174346Y345276D02*
X182346D01*
X178346Y341276D02*
Y349276D01*
X180346Y350557D02*
Y347276D01*
Y350557D02*
X181142D01*
X181483Y350401*
X181710Y350088*
X181824Y349776*
X181937Y349307*
Y348526*
X181824Y348057*
X181710Y347744*
X181483Y347432*
X181142Y347276*
X180346*
X176709Y351181D02*
X184709D01*
X180709Y347181D02*
Y355181D01*
X182709Y356462D02*
Y353181D01*
Y356462D02*
X183504D01*
X183845Y356306*
X184072Y355994*
X184186Y355681*
X184300Y355212*
Y354431*
X184186Y353962*
X184072Y353650*
X183845Y353337*
X183504Y353181*
X182709*
X218835Y344882D02*
X226835D01*
X222835Y340882D02*
Y348882D01*
X224835Y350163D02*
Y346882D01*
Y350163D02*
X225630D01*
X225971Y350007*
X226198Y349694*
X226312Y349382*
X226426Y348913*
Y348132*
X226312Y347663*
X226198Y347351*
X225971Y347038*
X225630Y346882*
X224835*
X256630Y352362D02*
X264630D01*
X260630Y348362D02*
Y356362D01*
X262630Y357643D02*
Y354362D01*
Y357643D02*
X263425D01*
X263766Y357487*
X263994Y357175*
X264107Y356862*
X264221Y356393*
Y355612*
X264107Y355143*
X263994Y354831*
X263766Y354518*
X263425Y354362*
X262630*
X256630Y346850D02*
X264630D01*
X260630Y342850D02*
Y350850D01*
X262630Y352132D02*
Y348850D01*
Y352132D02*
X263425D01*
X263766Y351975*
X263994Y351663*
X264107Y351350*
X264221Y350882*
Y350100*
X264107Y349632*
X263994Y349319*
X263766Y349007*
X263425Y348850*
X262630*
X244031Y337795D02*
X252031D01*
X248031Y333795D02*
Y341795D01*
X250031Y343077D02*
Y339795D01*
Y343077D02*
X250827D01*
X251168Y342920*
X251395Y342608*
X251509Y342295*
X251622Y341827*
Y341045*
X251509Y340577*
X251395Y340264*
X251168Y339952*
X250827Y339795*
X250031*
X244031Y330709D02*
X252031D01*
X248031Y326709D02*
Y334709D01*
X250031Y335990D02*
Y332709D01*
Y335990D02*
X250827D01*
X251168Y335834*
X251395Y335521*
X251509Y335209*
X251622Y334740*
Y333959*
X251509Y333490*
X251395Y333177*
X251168Y332865*
X250827Y332709*
X250031*
X240882Y330709D02*
X248882D01*
X244882Y326709D02*
Y334709D01*
X246882Y335990D02*
Y332709D01*
Y335990D02*
X247677D01*
X248018Y335834*
X248246Y335521*
X248359Y335209*
X248473Y334740*
Y333959*
X248359Y333490*
X248246Y333177*
X248018Y332865*
X247677Y332709*
X246882*
X240882Y337795D02*
X248882D01*
X244882Y333795D02*
Y341795D01*
X246882Y343077D02*
Y339795D01*
Y343077D02*
X247677D01*
X248018Y342920*
X248246Y342608*
X248359Y342295*
X248473Y341827*
Y341045*
X248359Y340577*
X248246Y340264*
X248018Y339952*
X247677Y339795*
X246882*
X256630Y349606D02*
X264630D01*
X260630Y345606D02*
Y353606D01*
X262630Y354888D02*
Y351606D01*
Y354888D02*
X263425D01*
X263766Y354731*
X263994Y354419*
X264107Y354106*
X264221Y353638*
Y352856*
X264107Y352388*
X263994Y352075*
X263766Y351763*
X263425Y351606*
X262630*
X257811Y339370D02*
X265811D01*
X261811Y335370D02*
Y343370D01*
X263811Y344651D02*
Y341370D01*
Y344651D02*
X264606D01*
X264947Y344495*
X265175Y344183*
X265288Y343870*
X265402Y343401*
Y342620*
X265288Y342151*
X265175Y341839*
X264947Y341526*
X264606Y341370*
X263811*
X280252Y329134D02*
X288252D01*
X284252Y325134D02*
Y333134D01*
X286252Y334415D02*
Y331134D01*
Y334415D02*
X287047D01*
X287388Y334259*
X287616Y333946*
X287729Y333634*
X287843Y333165*
Y332384*
X287729Y331915*
X287616Y331603*
X287388Y331290*
X287047Y331134*
X286252*
X269622Y346850D02*
X277622D01*
X273622Y342850D02*
Y350850D01*
X275622Y352132D02*
Y348850D01*
Y352132D02*
X276418D01*
X276418D02*
X276758Y351975D01*
X276986Y351663*
X277099Y351350*
X277213Y350882*
Y350100*
X277099Y349632*
X276986Y349319*
X276758Y349007*
X276418Y348850*
X276418D02*
X275622D01*
X269622Y352756D02*
X277622D01*
X273622Y348756D02*
Y356756D01*
X275622Y358037D02*
Y354756D01*
Y358037D02*
X276418D01*
X276418D02*
X276758Y357881D01*
X276986Y357568*
X277099Y357256*
X277213Y356787*
Y356006*
X277099Y355537*
X276986Y355225*
X276758Y354912*
X276418Y354756*
X276418D02*
X275622D01*
X269622Y349606D02*
X277622D01*
X273622Y345606D02*
Y353606D01*
X275622Y354888D02*
Y351606D01*
Y354888D02*
X276418D01*
X276418D02*
X276758Y354731D01*
X276986Y354419*
X277099Y354106*
X277213Y353638*
Y352856*
X277099Y352388*
X276986Y352075*
X276758Y351763*
X276418Y351606*
X276418D02*
X275622D01*
X286157Y334252D02*
X294157D01*
X290157Y330252D02*
Y338252D01*
X292157Y339533D02*
Y336252D01*
Y339533D02*
X292953D01*
X293294Y339377*
X293521Y339064*
X293635Y338752*
X293748Y338283*
Y337502*
X293635Y337033*
X293521Y336721*
X293294Y336408*
X292953Y336252*
X292157*
X289307Y363386D02*
X297307D01*
X293307Y359386D02*
Y367386D01*
X295307Y368667D02*
Y365386D01*
Y368667D02*
X296103D01*
X296443Y368511*
X296671Y368198*
X296784Y367886*
X296898Y367417*
Y366636*
X296784Y366167*
X296671Y365855*
X296443Y365542*
X296103Y365386*
X295307*
X287732Y350000D02*
X295732D01*
X291732Y346000D02*
Y354000D01*
X293732Y355281D02*
Y352000D01*
Y355281D02*
X294528D01*
X294869Y355125*
X295096Y354813*
X295096D02*
X295210Y354500D01*
X295323Y354031*
Y353250*
X295210Y352781*
X295096Y352469*
X294869Y352156*
X294528Y352000*
X293732*
X341276Y335827D02*
X349276D01*
X345276Y331827D02*
Y339827D01*
X347276Y341108D02*
Y337827D01*
Y341108D02*
X348071D01*
X348412Y340952*
X348639Y340639*
X348753Y340327*
X348866Y339858*
X348866D02*
Y339077D01*
X348866D02*
X348753Y338608D01*
X348639Y338296*
X348412Y337983*
X348071Y337827*
X347276*
X345606Y331102D02*
X353606D01*
X349606Y327102D02*
Y335102D01*
X351606Y336384D02*
Y333102D01*
Y336384D02*
X352402D01*
X352743Y336227*
X352970Y335915*
X353084Y335602*
X353197Y335134*
Y334352*
X353084Y333884*
X352970Y333571*
X352743Y333259*
X352402Y333102*
X351606*
X310567Y343307D02*
X318567D01*
X314567Y339307D02*
Y347307D01*
X316567Y348588D02*
Y345307D01*
Y348588D02*
X317362D01*
X317703Y348432*
X317931Y348120*
X318044Y347807*
X318158Y347338*
Y346557*
X318044Y346088*
X317931Y345776*
X317703Y345463*
X317362Y345307*
X316567*
X340488Y329921D02*
X348488D01*
X344488Y325921D02*
Y333921D01*
X346488Y335203D02*
Y331921D01*
Y335203D02*
X347284D01*
X347625Y335046*
X347852Y334734*
X347965Y334421*
X348079Y333953*
Y333171*
X347965Y332703*
X347852Y332390*
X347625Y332078*
X347284Y331921*
X346488*
X235370Y365354D02*
X243370D01*
X239370Y361354D02*
Y369354D01*
X241370Y370636D02*
Y367354D01*
Y370636D02*
X242166D01*
X242506Y370479*
X242734Y370167*
X242847Y369854*
X242961Y369386*
Y368604*
X242847Y368136*
X242734Y367823*
X242506Y367511*
X242166Y367354*
X241370*
X386220Y244094D02*
G75*
G03X386220I-133858J0D01*
G01X351358D02*
G03X351358I-5905J0D01*
G01X165177D02*
G03X165177I-5905J0D01*
G01X493701Y1144000D02*
X751701D01*
X493701Y1120000D02*
X751701D01*
X493701Y1096000D02*
X751701D01*
X493701Y1072000D02*
X751701D01*
X493701Y1048000D02*
X751701D01*
X493701Y1024000D02*
X751701D01*
X493701Y1000000D02*
X751701D01*
X493701Y1144000D02*
Y1000000D01*
X577701Y1144000D02*
Y1000000D01*
X613701Y1144000D02*
Y1000000D01*
X649701Y1144000D02*
Y1000000D01*
X703701Y1144000D02*
Y1000000D01*
X751701Y1144000D02*
Y1000000D01*
X720383Y1133875D02*
Y1126000D01*
X718474Y1133875D02*
X722292D01*
X726383D02*
X725837Y1133500D01*
X725292Y1132750*
X725019Y1132000*
X724746Y1130875*
Y1129000*
X725019Y1127875*
X725292Y1127125*
X725837Y1126375*
X726383Y1126000*
X727474*
X728019Y1126375*
X728564Y1127125*
X728837Y1127875*
X729110Y1129000*
Y1130875*
X728837Y1132000*
X728564Y1132750*
X728019Y1133500*
X727474Y1133875*
X726383*
X731564D02*
Y1126000D01*
X734837*
X500246Y1109875D02*
X503246D01*
X501610Y1106875*
X502428*
X502974Y1106500*
X503246Y1106125*
X503519Y1105000*
Y1104250*
X503246Y1103125*
X502701Y1102375*
X501883Y1102000*
X501064*
X500246Y1102375*
X499974Y1102750*
X499701Y1103500*
X509519Y1109875D02*
X506792D01*
X506519Y1106500*
X506792Y1106875*
X507610Y1107250*
X508428*
X509246Y1106875*
X509792Y1106125*
X510064Y1105000*
X509792Y1104250*
X509519Y1103125*
X508974Y1102375*
X508155Y1102000*
X507337*
X506519Y1102375*
X506246Y1102750*
X505974Y1103500*
X590837Y1108375D02*
X591383Y1108750D01*
X592201Y1109875*
Y1102000*
X594928Y1108000D02*
Y1108375D01*
X595201Y1109125*
X595474Y1109500*
X596019Y1109875*
X597110*
X597655Y1109500*
X597928Y1109125*
X598201Y1108375*
Y1107625*
X597928Y1106875*
X597383Y1105750*
X594655Y1102000*
X598474*
X625701D02*
X637701Y1114000D01*
X625701D02*
X637701Y1102000D01*
X658337Y1109875D02*
X660519Y1106125D01*
Y1102000*
X662701Y1109875D02*
X660519Y1106125D01*
X665155Y1109875D02*
Y1102000D01*
Y1109875D02*
X668701D01*
X665155Y1106125D02*
X667337D01*
X665155Y1102000D02*
X668701D01*
X674974Y1108750D02*
X674428Y1109500D01*
X673610Y1109875*
X672519*
X671701Y1109500*
X671155Y1108750*
Y1108000*
X671428Y1107250*
X671701Y1106875*
X672246Y1106500*
X673883Y1105750*
X674428Y1105375*
X674701Y1105000*
X674974Y1104250*
Y1103125*
X674428Y1102375*
X673610Y1102000*
X672519*
X671701Y1102375*
X671155Y1103125*
X711519Y1108750D02*
Y1102000D01*
X709064Y1105375D02*
X713974D01*
X721337Y1111375D02*
X716428Y1099375D01*
X723792Y1105375D02*
X728701D01*
X732792Y1109875D02*
X731974Y1109500D01*
X731428Y1108375*
X731155Y1106500*
Y1105375*
X731428Y1103500*
X731974Y1102375*
X732792Y1102000*
X733337*
X734155Y1102375*
X734701Y1103500*
X734974Y1105375*
Y1106500*
X734701Y1108375*
X734155Y1109500*
X733337Y1109875*
X732792*
X737701Y1102750D02*
X737428Y1102375D01*
X737701Y1102000*
X737974Y1102375*
X737701Y1102750*
X742064Y1109875D02*
X741246Y1109500D01*
X740701Y1108375*
X740428Y1106500*
Y1105375*
X740701Y1103500*
X741246Y1102375*
X742064Y1102000*
X742610*
X743428Y1102375*
X743974Y1103500*
X744246Y1105375*
Y1106500*
X743974Y1108375*
X743428Y1109500*
X742610Y1109875*
X742064*
X502974Y1084750D02*
X502701Y1085500D01*
X501883Y1085875*
X501337*
X500519Y1085500*
X499974Y1084375*
X499701Y1082500*
Y1080625*
X499974Y1079125*
X500519Y1078375*
X501337Y1078000*
X501610*
X502428Y1078375*
X502974Y1079125*
X503246Y1080250*
Y1080625*
X502974Y1081750*
X502428Y1082500*
X501610Y1082875*
X501337*
X500519Y1082500*
X499974Y1081750*
X499701Y1080625*
X505974Y1084000D02*
Y1084375D01*
X506246Y1085125*
X506519Y1085500*
X507064Y1085875*
X508155*
X508701Y1085500*
X508974Y1085125*
X509246Y1084375*
Y1083625*
X508974Y1082875*
X508428Y1081750*
X505701Y1078000*
X509519*
X512246Y1078750D02*
X511974Y1078375D01*
X512246Y1078000*
X512519Y1078375*
X512246Y1078750*
X518519Y1083250D02*
X518246Y1082125D01*
X517701Y1081375*
X516883Y1081000*
X516610*
X515792Y1081375*
X515246Y1082125*
X514974Y1083250*
Y1083625*
X515246Y1084750*
X515792Y1085500*
X516610Y1085875*
X516883*
X517701Y1085500*
X518246Y1084750*
X518519Y1083250*
Y1081375*
X518246Y1079500*
X517701Y1078375*
X516883Y1078000*
X516337*
X515519Y1078375*
X515246Y1079125*
X524519Y1083250D02*
X524246Y1082125D01*
X523701Y1081375*
X522883Y1081000*
X522610*
X521792Y1081375*
X521246Y1082125*
X520974Y1083250*
Y1083625*
X521246Y1084750*
X521792Y1085500*
X522610Y1085875*
X522883*
X523701Y1085500*
X524246Y1084750*
X524519Y1083250*
Y1081375*
X524246Y1079500*
X523701Y1078375*
X522883Y1078000*
X522337*
X521519Y1078375*
X521246Y1079125*
X593019Y1084000D02*
Y1084375D01*
X593292Y1085125*
X593564Y1085500*
X594110Y1085875*
X595201*
X595746Y1085500*
X596019Y1085125*
X596292Y1084375*
Y1083625*
X596019Y1082875*
X595474Y1081750*
X592746Y1078000*
X596564*
X625701Y1084000D02*
X637701D01*
X631701Y1078000D02*
Y1090000D01*
X636446Y1093300D02*
X634701Y1087000D01*
X636446Y1093300D02*
X638192Y1087000D01*
X635355Y1089100D02*
X637537D01*
X658337Y1085875D02*
X660519Y1082125D01*
Y1078000*
X662701Y1085875D02*
X660519Y1082125D01*
X665155Y1085875D02*
Y1078000D01*
Y1085875D02*
X668701D01*
X665155Y1082125D02*
X667337D01*
X665155Y1078000D02*
X668701D01*
X674974Y1084750D02*
X674428Y1085500D01*
X673610Y1085875*
X672519*
X671701Y1085500*
X671155Y1084750*
Y1084000*
X671428Y1083250*
X671701Y1082875*
X672246Y1082500*
X673883Y1081750*
X674428Y1081375*
X674701Y1081000*
X674974Y1080250*
Y1079125*
X674428Y1078375*
X673610Y1078000*
X672519*
X671701Y1078375*
X671155Y1079125*
X711519Y1084750D02*
Y1078000D01*
X709064Y1081375D02*
X713974D01*
X721337Y1087375D02*
X716428Y1075375D01*
X723792Y1081375D02*
X728701D01*
X732792Y1085875D02*
X731974Y1085500D01*
X731428Y1084375*
X731155Y1082500*
Y1081375*
X731428Y1079500*
X731974Y1078375*
X732792Y1078000*
X733337*
X734155Y1078375*
X734701Y1079500*
X734974Y1081375*
Y1082500*
X734701Y1084375*
X734155Y1085500*
X733337Y1085875*
X732792*
X737701Y1078750D02*
X737428Y1078375D01*
X737701Y1078000*
X737974Y1078375*
X737701Y1078750*
X742064Y1085875D02*
X741246Y1085500D01*
X740701Y1084375*
X740428Y1082500*
Y1081375*
X740701Y1079500*
X741246Y1078375*
X742064Y1078000*
X742610*
X743428Y1078375*
X743974Y1079500*
X744246Y1081375*
Y1082500*
X743974Y1084375*
X743428Y1085500*
X742610Y1085875*
X742064*
X502974Y1060750D02*
X502701Y1061500D01*
X501883Y1061875*
X501337*
X500519Y1061500*
X499974Y1060375*
X499701Y1058500*
Y1056625*
X499974Y1055125*
X500519Y1054375*
X501337Y1054000*
X501610*
X502428Y1054375*
X502974Y1055125*
X503246Y1056250*
Y1056625*
X502974Y1057750*
X502428Y1058500*
X501610Y1058875*
X501337*
X500519Y1058500*
X499974Y1057750*
X499701Y1056625*
X505974Y1060000D02*
Y1060375D01*
X506246Y1061125*
X506519Y1061500*
X507064Y1061875*
X508155*
X508701Y1061500*
X508974Y1061125*
X509246Y1060375*
Y1059625*
X508974Y1058875*
X508428Y1057750*
X505701Y1054000*
X509519*
X512246Y1054750D02*
X511974Y1054375D01*
X512246Y1054000*
X512519Y1054375*
X512246Y1054750*
X518519Y1059250D02*
X518246Y1058125D01*
X517701Y1057375*
X516883Y1057000*
X516610*
X515792Y1057375*
X515246Y1058125*
X514974Y1059250*
Y1059625*
X515246Y1060750*
X515792Y1061500*
X516610Y1061875*
X516883*
X517701Y1061500*
X518246Y1060750*
X518519Y1059250*
Y1057375*
X518246Y1055500*
X517701Y1054375*
X516883Y1054000*
X516337*
X515519Y1054375*
X515246Y1055125*
X524519Y1059250D02*
X524246Y1058125D01*
X523701Y1057375*
X522883Y1057000*
X522610*
X521792Y1057375*
X521246Y1058125*
X520974Y1059250*
Y1059625*
X521246Y1060750*
X521792Y1061500*
X522610Y1061875*
X522883*
X523701Y1061500*
X524246Y1060750*
X524519Y1059250*
Y1057375*
X524246Y1055500*
X523701Y1054375*
X522883Y1054000*
X522337*
X521519Y1054375*
X521246Y1055125*
X593292Y1061875D02*
X596292D01*
X594655Y1058875*
X595474*
X596019Y1058500*
X596292Y1058125*
X596564Y1057000*
Y1056250*
X596292Y1055125*
X595746Y1054375*
X594928Y1054000*
X594110*
X593292Y1054375*
X593019Y1054750*
X592746Y1055500*
X625701Y1060000D02*
X637701D01*
X631701Y1054000D02*
Y1066000D01*
X634701Y1069300D02*
Y1063000D01*
Y1069300D02*
X636664D01*
X637319Y1069000*
X637537Y1068700*
X637755Y1068100*
Y1067500*
X637537Y1066900*
X637319Y1066600*
X636664Y1066300*
X634701D02*
X636664D01*
X637319Y1066000*
X637537Y1065700*
X637755Y1065100*
Y1064200*
X637537Y1063600*
X637319Y1063300*
X636664Y1063000*
X634701*
X658337Y1061875D02*
X660519Y1058125D01*
Y1054000*
X662701Y1061875D02*
X660519Y1058125D01*
X665155Y1061875D02*
Y1054000D01*
Y1061875D02*
X668701D01*
X665155Y1058125D02*
X667337D01*
X665155Y1054000D02*
X668701D01*
X674974Y1060750D02*
X674428Y1061500D01*
X673610Y1061875*
X672519*
X671701Y1061500*
X671155Y1060750*
Y1060000*
X671428Y1059250*
X671701Y1058875*
X672246Y1058500*
X673883Y1057750*
X674428Y1057375*
X674701Y1057000*
X674974Y1056250*
Y1055125*
X674428Y1054375*
X673610Y1054000*
X672519*
X671701Y1054375*
X671155Y1055125*
X711519Y1060750D02*
Y1054000D01*
X709064Y1057375D02*
X713974D01*
X721337Y1063375D02*
X716428Y1051375D01*
X723792Y1057375D02*
X728701D01*
X732792Y1061875D02*
X731974Y1061500D01*
X731428Y1060375*
X731155Y1058500*
Y1057375*
X731428Y1055500*
X731974Y1054375*
X732792Y1054000*
X733337*
X734155Y1054375*
X734701Y1055500*
X734974Y1057375*
Y1058500*
X734701Y1060375*
X734155Y1061500*
X733337Y1061875*
X732792*
X737701Y1054750D02*
X737428Y1054375D01*
X737701Y1054000*
X737974Y1054375*
X737701Y1054750*
X742064Y1061875D02*
X741246Y1061500D01*
X740701Y1060375*
X740428Y1058500*
Y1057375*
X740701Y1055500*
X741246Y1054375*
X742064Y1054000*
X742610*
X743428Y1054375*
X743974Y1055500*
X744246Y1057375*
Y1058500*
X743974Y1060375*
X743428Y1061500*
X742610Y1061875*
X742064*
X500246Y1037875D02*
X503246D01*
X501610Y1034875*
X502428*
X502974Y1034500*
X503246Y1034125*
X503519Y1033000*
Y1032250*
X503246Y1031125*
X502701Y1030375*
X501883Y1030000*
X501064*
X500246Y1030375*
X499974Y1030750*
X499701Y1031500*
X509792Y1037875D02*
X507064Y1030000D01*
X505974Y1037875D02*
X509792D01*
X512519Y1030750D02*
X512246Y1030375D01*
X512519Y1030000*
X512792Y1030375*
X512519Y1030750*
X516610Y1037875D02*
X515792Y1037500D01*
X515519Y1036750*
Y1036000*
X515792Y1035250*
X516337Y1034875*
X517428Y1034500*
X518246Y1034125*
X518792Y1033375*
X519064Y1032625*
Y1031500*
X518792Y1030750*
X518519Y1030375*
X517701Y1030000*
X516610*
X515792Y1030375*
X515519Y1030750*
X515246Y1031500*
Y1032625*
X515519Y1033375*
X516064Y1034125*
X516883Y1034500*
X517974Y1034875*
X518519Y1035250*
X518792Y1036000*
Y1036750*
X518519Y1037500*
X517701Y1037875*
X516610*
X593019Y1036000D02*
Y1036375D01*
X593292Y1037125*
X593564Y1037500*
X594110Y1037875*
X595201*
X595746Y1037500*
X596019Y1037125*
X596292Y1036375*
Y1035625*
X596019Y1034875*
X595474Y1033750*
X592746Y1030000*
X596564*
X625701Y1036000D02*
X637701D01*
X631701Y1030000D02*
Y1042000D01*
X637974Y1043800D02*
X637755Y1044400D01*
X637319Y1045000*
X636883Y1045300*
X636010*
X635574Y1045000*
X635137Y1044400*
X634919Y1043800*
X634701Y1042900*
Y1041400*
X634919Y1040500*
X635137Y1039900*
X635574Y1039300*
X636010Y1039000*
X636883*
X637319Y1039300*
X637755Y1039900*
X637974Y1040500*
X658337Y1037875D02*
X660519Y1034125D01*
Y1030000*
X662701Y1037875D02*
X660519Y1034125D01*
X665155Y1037875D02*
Y1030000D01*
Y1037875D02*
X668701D01*
X665155Y1034125D02*
X667337D01*
X665155Y1030000D02*
X668701D01*
X674974Y1036750D02*
X674428Y1037500D01*
X673610Y1037875*
X672519*
X671701Y1037500*
X671155Y1036750*
Y1036000*
X671428Y1035250*
X671701Y1034875*
X672246Y1034500*
X673883Y1033750*
X674428Y1033375*
X674701Y1033000*
X674974Y1032250*
Y1031125*
X674428Y1030375*
X673610Y1030000*
X672519*
X671701Y1030375*
X671155Y1031125*
X711519Y1036750D02*
Y1030000D01*
X709064Y1033375D02*
X713974D01*
X721337Y1039375D02*
X716428Y1027375D01*
X723792Y1033375D02*
X728701D01*
X732792Y1037875D02*
X731974Y1037500D01*
X731428Y1036375*
X731155Y1034500*
Y1033375*
X731428Y1031500*
X731974Y1030375*
X732792Y1030000*
X733337*
X734155Y1030375*
X734701Y1031500*
X734974Y1033375*
Y1034500*
X734701Y1036375*
X734155Y1037500*
X733337Y1037875*
X732792*
X737701Y1030750D02*
X737428Y1030375D01*
X737701Y1030000*
X737974Y1030375*
X737701Y1030750*
X742064Y1037875D02*
X741246Y1037500D01*
X740701Y1036375*
X740428Y1034500*
Y1033375*
X740701Y1031500*
X741246Y1030375*
X742064Y1030000*
X742610*
X743428Y1030375*
X743974Y1031500*
X744246Y1033375*
Y1034500*
X743974Y1036375*
X743428Y1037500*
X742610Y1037875*
X742064*
X499701Y1012375D02*
X500246Y1012750D01*
X501064Y1013875*
Y1006000*
X503792Y1012000D02*
Y1012375D01*
X504064Y1013125*
X504337Y1013500*
X504883Y1013875*
X505974*
X506519Y1013500*
X506792Y1013125*
X507064Y1012375*
Y1011625*
X506792Y1010875*
X506246Y1009750*
X503519Y1006000*
X507337*
X588246Y1013875D02*
X591246D01*
X589610Y1010875*
X590428*
X590974Y1010500*
X591246Y1010125*
X591519Y1009000*
Y1008250*
X591246Y1007125*
X590701Y1006375*
X589883Y1006000*
X589064*
X588246Y1006375*
X587974Y1006750*
X587701Y1007500*
X593974Y1012375D02*
X594519Y1012750D01*
X595337Y1013875*
Y1006000*
X598064Y1012000D02*
Y1012375D01*
X598337Y1013125*
X598610Y1013500*
X599155Y1013875*
X600246*
X600792Y1013500*
X601064Y1013125*
X601337Y1012375*
Y1011625*
X601064Y1010875*
X600519Y1009750*
X597792Y1006000*
X601610*
X625701Y1012000D02*
X637701D01*
X631701Y1006000D02*
Y1018000D01*
X634701Y1021300D02*
Y1015000D01*
Y1021300D02*
X636228D01*
X636883Y1021000*
X637319Y1020400*
X637537Y1019800*
X637755Y1018900*
Y1017400*
X637537Y1016500*
X637319Y1015900*
X636883Y1015300*
X636228Y1015000*
X634701*
X658337Y1013875D02*
X660519Y1010125D01*
Y1006000*
X662701Y1013875D02*
X660519Y1010125D01*
X665155Y1013875D02*
Y1006000D01*
Y1013875D02*
X668701D01*
X665155Y1010125D02*
X667337D01*
X665155Y1006000D02*
X668701D01*
X674974Y1012750D02*
X674428Y1013500D01*
X673610Y1013875*
X672519*
X671701Y1013500*
X671155Y1012750*
Y1012000*
X671428Y1011250*
X671701Y1010875*
X672246Y1010500*
X673883Y1009750*
X674428Y1009375*
X674701Y1009000*
X674974Y1008250*
Y1007125*
X674428Y1006375*
X673610Y1006000*
X672519*
X671701Y1006375*
X671155Y1007125*
X711519Y1012750D02*
Y1006000D01*
X709064Y1009375D02*
X713974D01*
X721337Y1015375D02*
X716428Y1003375D01*
X723792Y1009375D02*
X728701D01*
X732792Y1013875D02*
X731974Y1013500D01*
X731428Y1012375*
X731155Y1010500*
Y1009375*
X731428Y1007500*
X731974Y1006375*
X732792Y1006000*
X733337*
X734155Y1006375*
X734701Y1007500*
X734974Y1009375*
Y1010500*
X734701Y1012375*
X734155Y1013500*
X733337Y1013875*
X732792*
X737701Y1006750D02*
X737428Y1006375D01*
X737701Y1006000*
X737974Y1006375*
X737701Y1006750*
X742064Y1013875D02*
X741246Y1013500D01*
X740701Y1012375*
X740428Y1010500*
Y1009375*
X740701Y1007500*
X741246Y1006375*
X742064Y1006000*
X742610*
X743428Y1006375*
X743974Y1007500*
X744246Y1009375*
Y1010500*
X743974Y1012375*
X743428Y1013500*
X742610Y1013875*
X742064*
G54D75*
G74*
X0Y0D02*
M02*
