*
*
G04 PADS 9.5 Build Number: 522968 generated Gerber (RS-274-X) file*
G04 PC Version=2.1*
*
%IN "alarm03.pcb"*%
*
%MOIN*%
*
%FSLAX35Y35*%
*
*
*
*
G04 PC Standard Apertures*
*
*
G04 Thermal Relief Aperture macro.*
%AMTER*
1,1,$1,0,0*
1,0,$1-$2,0,0*
21,0,$3,$4,0,0,45*
21,0,$3,$4,0,0,135*
%
*
*
G04 Annular Aperture macro.*
%AMANN*
1,1,$1,0,0*
1,0,$2,0,0*
%
*
*
G04 Odd Aperture macro.*
%AMODD*
1,1,$1,0,0*
1,0,$1-0.005,0,0*
%
*
*
G04 PC Custom Aperture Macros*
*
*
*
*
*
*
G04 PC Aperture Table*
*
%ADD075C,0.001*%
%ADD108R,0.025X0.02*%
%ADD112O,0.06693X0.012*%
%ADD113R,0.02X0.025*%
%ADD117R,0.08661X0.125*%
%ADD121R,0.05X0.07*%
%ADD133R,0.01378X0.05512*%
%ADD134O,0.01378X0.05512*%
%ADD135R,0.04724X0.02362*%
*
*
*
*
G04 PC Circuitry*
G04 Layer Name alarm03.pcb - circuitry*
%LPD*%
*
*
G04 PC Custom Flashes*
G04 Layer Name alarm03.pcb - flashes*
%LPD*%
*
*
G04 PC Circuitry*
G04 Layer Name alarm03.pcb - circuitry*
%LPD*%
*
G54D75*
G54D108*
G01X343608Y307096D03*
X348608D03*
X358372Y311747D03*
X353372D03*
X238839Y257874D03*
X243839D03*
X260768Y139764D03*
X255768D03*
X228602Y299213D03*
X233602D03*
Y294488D03*
X228602D03*
X254075Y229921D03*
X249075D03*
X246319Y243307D03*
X251319D03*
X276560Y292674D03*
X281560D03*
X281539Y287757D03*
X276539D03*
G54D112*
X240945Y282382D03*
Y284941D03*
Y287500D03*
Y290059D03*
Y292618D03*
Y295177D03*
Y297736D03*
Y300295D03*
X265354D03*
Y297736D03*
Y295177D03*
Y292618D03*
Y290059D03*
Y287500D03*
Y284941D03*
Y282382D03*
G54D113*
X183858Y226516D03*
Y221516D03*
X199213Y226516D03*
Y221516D03*
X265983Y235195D03*
Y240195D03*
X261417Y230177D03*
Y235177D03*
X238583Y230177D03*
Y235177D03*
X265748Y257618D03*
Y252618D03*
G54D117*
X267323Y349606D03*
X248425D03*
G54D121*
X279421Y139746D03*
Y151746D03*
X269185Y139746D03*
Y151746D03*
G54D133*
X357057Y303971D03*
G54D134*
X359616D03*
X362175D03*
X364735D03*
Y280349D03*
X362175D03*
X359616D03*
X357057D03*
G54D135*
X234055Y362008D03*
Y358268D03*
Y354528D03*
X225000D03*
Y358268D03*
Y362008D03*
X0Y0D02*
M02*
