*
*
G04 PADS 9.5 Build Number: 522968 generated Gerber (RS-274-X) file*
G04 PC Version=2.1*
*
%IN "alarm03.pcb"*%
*
%MOIN*%
*
%FSLAX35Y35*%
*
*
*
*
G04 PC Standard Apertures*
*
*
G04 Thermal Relief Aperture macro.*
%AMTER*
1,1,$1,0,0*
1,0,$1-$2,0,0*
21,0,$3,$4,0,0,45*
21,0,$3,$4,0,0,135*
%
*
*
G04 Annular Aperture macro.*
%AMANN*
1,1,$1,0,0*
1,0,$2,0,0*
%
*
*
G04 Odd Aperture macro.*
%AMODD*
1,1,$1,0,0*
1,0,$1-0.005,0,0*
%
*
*
G04 PC Custom Aperture Macros*
*
*
*
*
*
*
G04 PC Aperture Table*
*
%ADD035C,0.01*%
%ADD037C,0.005*%
%ADD038C,0.006*%
%ADD075C,0.001*%
*
*
*
*
G04 PC Circuitry*
G04 Layer Name alarm03.pcb - circuitry*
%LPD*%
*
G54D75*
G01X287291Y361550D02*
X286229D01*
X286361Y361517*
X286371Y361513*
X286459Y361469*
X286481Y361447*
X286525Y361359*
X286531Y361337*
Y361161*
X286525Y361139*
X286438Y360965*
X285693Y359255*
X285600Y359258*
X284986Y360924*
X284899Y361143*
X284895Y361161*
Y361293*
X284898Y361309*
X284942Y361440*
X284967Y361469*
X285055Y361513*
X285061Y361516*
X285164Y361550*
X284425*
Y361546*
X284613Y361471*
X284636Y361452*
X284724Y361321*
X284729Y361312*
X284816Y361092*
X285769Y358668*
X285789*
X286829Y361137*
X286834Y361145*
X286920Y361274*
X286962Y361359*
X286971Y361372*
X287103Y361504*
X287129Y361517*
X287291Y361550*
X284023D02*
X282626D01*
X282416Y361508*
X282123Y361382*
X281957Y361216*
X281835Y361053*
X281795Y360811*
X281835Y360608*
X281916Y360445*
X282038Y360324*
X282252Y360196*
X282242Y360105*
X281986Y360020*
X281823Y359897*
X281659Y359693*
X281619Y359452*
X281660Y359248*
X281741Y359086*
X281906Y358920*
X282116Y358795*
X282366Y358711*
X284013*
X283881Y358744*
X283857Y358758*
X283770Y358845*
X283760Y358858*
X283717Y358946*
X283717D02*
X283711Y358968D01*
Y361293*
X283714Y361309*
X283758Y361440*
X283789Y361472*
X284023Y361550*
X283416Y361425D02*
Y360284D01*
X283379Y360236*
X283203Y360192*
X283191Y360190*
X282665*
X282653Y360192*
X282477Y360236*
X282462Y360243*
X282330Y360330*
X282316Y360344*
X282228Y360476*
X282220Y360497*
X282177Y360848*
X282176Y360854*
X282177Y360864*
X282221Y361084*
X282227Y361099*
X282359Y361319*
X282379Y361338*
X282642Y361469*
X282659Y361474*
X283009Y361518*
X283022*
X283373Y361474*
X283416Y361425*
Y360065D02*
Y358837D01*
X283371Y358787*
X282889Y358743*
X282878*
X282527Y358787*
X282511Y358792*
X282248Y358924*
X282231Y358937*
X282056Y359156*
X282056D02*
X282046Y359178D01*
X282002Y359397*
Y359419*
X282090Y359770*
X282103Y359793*
X282235Y359925*
X282240Y359929*
X282415Y360061*
X282437Y360070*
X282964Y360158*
X282972Y360159*
X283191*
X283203Y360157*
X283379Y360113*
X283416Y360065*
X281172Y361550D02*
X280264D01*
X280396Y361517*
X280419Y361504*
X280507Y361416*
X280516Y361403*
X280560Y361315*
X280566Y361293*
Y359758*
X280565Y359752*
X280521Y359358*
X280520Y359351*
X280433Y359000*
X280412Y358971*
X280149Y358795*
X280143Y358792*
X279968Y358704*
X279945Y358699*
X279770*
X279763Y358700*
X279456Y358743*
X279456D02*
X279444Y358747D01*
X279225Y358834*
X279214Y358841*
X279038Y358972*
X279028Y358982*
X278897Y359158*
X278889Y359172*
X278802Y359435*
X278799Y359451*
Y361293*
X278802Y361309*
X278845Y361440*
X278877Y361472*
X279111Y361550*
X278422*
X278554Y361517*
X278577Y361504*
X278665Y361416*
X278677Y361397*
X278721Y361265*
X278724Y361249*
Y359502*
X278807Y359208*
X278931Y359002*
X279139Y358835*
X279390Y358710*
X279770Y358668*
X280196Y358710*
X280487Y358835*
X280650Y358998*
X280776Y359251*
X280860Y359503*
Y361293*
X280869Y361321*
X280956Y361452*
X280976Y361469*
X281063Y361513*
X281070Y361516*
X281172Y361550*
X277877Y360900D02*
X277837Y361140D01*
X277631Y361387*
X277383Y361552*
X277095Y361593*
X276843Y361551*
X276584Y361465*
X276580Y361464*
X276405Y361420*
X276370Y361424*
X276283Y361468*
X276258Y361496*
X276225Y361594*
X276224*
Y360713*
X276256Y360906*
X276259Y360917*
X276346Y361136*
X276353Y361148*
X276484Y361323*
X276502Y361338*
X276853Y361513*
X276863Y361517*
X277039Y361561*
X277061*
X277280Y361517*
X277292Y361513*
X277468Y361425*
X277490Y361403*
X277578Y361228*
X277581Y361221*
X277624Y361090*
Y361058*
X277537Y360795*
X277525Y360775*
X277305Y360556*
X277289Y360545*
X277073Y360459*
X276858Y360329*
X276509Y360111*
X276340Y359985*
X276132Y359735*
X276049Y359404*
X276089Y359121*
X276295Y358874*
X276542Y358710*
X276922Y358668*
X277127*
X277204Y358706*
X277214Y358710*
X277560Y358796*
X277642Y358838*
X277687*
X277775Y358794*
X277800Y358765*
X277832Y358668*
X277834*
Y359576*
X277757Y359306*
X277713Y359132*
X277705Y359114*
X277573Y358938*
X277563Y358928*
X277388Y358797*
X277368Y358788*
X276929Y358700*
X276909*
X276690Y358744*
X276677Y358748*
X276502Y358836*
X276484Y358851*
X276353Y359026*
X276344Y359044*
X276300Y359219*
Y359241*
X276344Y359461*
X276357Y359486*
X276577Y359706*
X276584Y359712*
X276716Y359800*
X276719Y359801*
X277026Y359977*
X277028Y359978*
X277374Y360151*
X277586Y360320*
X277794Y360571*
X277877Y360900*
X274189Y372967D02*
X273139D01*
X272575Y372924*
X272193Y372839*
X271901Y372631*
X271689Y372334*
X271520Y371994*
X271477Y371567*
Y371271*
X271561Y371019*
X271690Y370761*
X271815Y370553*
X272066Y370385*
X272322Y370257*
X272664Y370172*
X273053Y370129*
X274179*
X274046Y370162*
X274023Y370175*
X273935Y370263*
X273935D02*
X273926Y370276D01*
X273882Y370363*
X273877Y370386*
Y372710*
X273880Y372726*
X273923Y372858*
X273955Y372889*
X274189Y372967*
X273582Y372798D02*
Y370254D01*
X273540Y370205*
X273277Y370161*
X273269Y370160*
X272831*
X272831D02*
X272812Y370164D01*
X272593Y370252*
X272581Y370258*
X272230Y370521*
X272217Y370535*
X271954Y370974*
X271948Y370992*
X271860Y371518*
X271859Y371526*
X271860Y371534*
X271948Y372104*
X271954Y372122*
X272217Y372561*
X272230Y372575*
X272581Y372838*
X272601Y372847*
X272821Y372891*
X272822*
X273085Y372935*
X273103*
X273542Y372847*
X273582Y372798*
X271021Y370129D02*
X270889Y370162D01*
X270865Y370175*
X270778Y370263*
X270768Y370276*
X270724Y370363*
X270719Y370386*
Y372666*
X270722Y372682*
X270766Y372814*
X270778Y372833*
X270865Y372921*
X270885Y372933*
X270987Y372967*
X270407*
X269367Y370672*
X269277Y370671*
X268150Y372967*
X267579*
X267711Y372934*
X267734Y372921*
X267822Y372833*
X267831Y372820*
X267875Y372733*
X267881Y372710*
X267881D02*
Y370386D01*
X267881D02*
X267878Y370370D01*
X267834Y370238*
X267814Y370213*
X267689Y370129*
X268477*
X268345Y370162*
X268321Y370175*
X268234Y370263*
X268224Y370276*
X268181Y370363*
X268175Y370386*
Y372535*
X268270Y372557*
X269431Y370149*
X270548Y372556*
X270644Y372535*
Y370386*
X270641Y370370*
X270597Y370238*
X270578Y370213*
X270452Y370129*
X271021*
X264740Y372967D02*
X263691D01*
X263126Y372924*
X262745Y372839*
X262453Y372631*
X262240Y372334*
X262071Y371994*
X262028Y371567*
Y371271*
X262112Y371019*
X262241Y370761*
X262366Y370553*
X262617Y370385*
X262873Y370257*
X263215Y370172*
X263604Y370129*
X264730*
X264598Y370162*
X264574Y370175*
X264487Y370263*
X264477Y370276*
X264433Y370363*
X264428Y370386*
Y372710*
X264431Y372726*
X264475Y372858*
X264506Y372889*
X264740Y372967*
X264133Y372798D02*
Y370254D01*
X264092Y370205*
X263828Y370161*
X263828D02*
X263820Y370160D01*
X263382*
X263363Y370164*
X263144Y370252*
X263132Y370258*
X262782Y370521*
X262769Y370535*
X262505Y370974*
X262499Y370992*
X262411Y371518*
Y371526*
Y371534*
X262499Y372104*
X262505Y372122*
X262769Y372561*
X262782Y372575*
X263132Y372838*
X263153Y372847*
X263372Y372891*
X263373*
X263637Y372935*
X263655*
X264093Y372847*
X264133Y372798*
X261572Y370129D02*
X261440Y370162D01*
X261417Y370175*
X261329Y370263*
X261319Y370276*
X261276Y370363*
X261270Y370386*
Y372710*
X261273Y372726*
X261317Y372858*
X261342Y372887*
X261429Y372930*
X261440Y372934*
X261572Y372967*
X260665*
X260665D02*
X260319Y372924D01*
X260062Y372881*
X259857Y372799*
X259696Y372638*
X259614Y372434*
X259573Y372183*
X259614Y371895*
X259776Y371651*
X260064Y371487*
X260446Y371445*
X260658*
X260917Y371488*
X260976Y371438*
Y370386*
X260973Y370370*
X260929Y370238*
X260917Y370219*
X260829Y370131*
X260827Y370129*
X261572*
X260976Y372842D02*
Y371570D01*
X260935Y371521*
X260716Y371477*
X260706Y371476*
X260575*
X260565Y371477*
X260346Y371521*
X260325Y371530*
X260150Y371662*
X260137Y371676*
X260005Y371895*
X259999Y371913*
X259955Y372176*
X259954Y372184*
Y372359*
X259960Y372382*
X260047Y372557*
X260054Y372567*
X260273Y372830*
X260298Y372846*
X260605Y372934*
X260626Y372935*
X260933Y372891*
X260976Y372842*
X258568Y370130D02*
X258470Y370163D01*
X258464Y370166*
X258376Y370209*
X258363Y370219*
X258231Y370350*
X258222Y370363*
X258090Y370627*
X258089Y370629*
X257061Y372985*
X256076Y370630*
X256075Y370627*
X255943Y370363*
X255940Y370358*
X255852Y370226*
X255826Y370207*
X255597Y370130*
Y370129*
X256476*
X256402Y370166*
X256377Y370195*
X256333Y370326*
X256331Y370342*
Y370473*
X256336Y370496*
X256423Y370670*
X256598Y371064*
X256644Y371094*
X257784*
X257829Y371066*
X258048Y370627*
X258052Y370617*
X258095Y370447*
X258136Y370364*
X258133Y370314*
X258045Y370183*
X258026Y370166*
X257952Y370129*
X258568*
Y370130*
X257740Y371125D02*
X256688D01*
X256641Y371194*
X257124Y372422*
X257216Y372424*
X257786Y371196*
X257740Y371125*
X255278Y371484D02*
X255235Y371865D01*
X255108Y372204*
X254852Y372546*
X254555Y372843*
X254220Y372968*
X253838Y373011*
X253584Y372968*
X253060Y372837*
X253012Y372850*
X252968Y372894*
X252956Y372914*
X252924Y373011*
X252917*
X252839Y372191*
X252958Y372467*
X252961Y372473*
X253092Y372692*
X253110Y372710*
X253417Y372885*
X253430Y372890*
X253781Y372978*
X253801Y372979*
X254064Y372935*
X254075Y372932*
X254294Y372844*
X254305Y372838*
X254481Y372706*
X254486Y372702*
X254662Y372526*
X254673Y372510*
X254848Y372071*
X254852Y372057*
X254895Y371619*
X254896Y371614*
X254895Y371609*
X254852Y371170*
X254849Y371158*
X254717Y370807*
X254714Y370800*
X254538Y370493*
X254526Y370478*
X254307Y370303*
X254298Y370297*
X254035Y370166*
X254021Y370161*
X253757Y370117*
X253742*
X253435Y370161*
X253422Y370164*
X253115Y370296*
X253085Y370342*
Y371351*
X253088Y371366*
X253132Y371498*
X253144Y371518*
X253231Y371605*
X253244Y371615*
X253318Y371652*
X252489*
X252621Y371618*
X252644Y371605*
X252732Y371518*
X252741Y371505*
X252785Y371417*
X252790Y371395*
Y370330*
X253236Y370128*
X253748Y370085*
X254135Y370128*
X254474Y370213*
X254728Y370382*
X254981Y370593*
X255192Y371016*
X255278Y371484*
X252378Y372967D02*
X251712D01*
X249885Y370705*
X249796Y370737*
Y372710*
X249798Y372726*
X249842Y372858*
X249874Y372889*
X250108Y372967*
X249418*
X249551Y372934*
X249574Y372921*
X249662Y372833*
X249671Y372820*
X249715Y372733*
X249720Y372710*
Y370085*
X249734*
X251649Y372435*
X251738Y372403*
Y370386*
X251735Y370370*
X251691Y370238*
X251672Y370213*
X251546Y370129*
X252115*
X251983Y370162*
X251959Y370175*
X251872Y370263*
X251862Y370276*
X251818Y370363*
X251813Y370386*
Y372623*
X251822Y372650*
X251909Y372782*
X251929Y372799*
X252016Y372843*
X252020Y372844*
X252239Y372932*
X252246Y372934*
X252378Y372967*
X248967D02*
X247918D01*
X247353Y372924*
X246972Y372839*
X246680Y372631*
X246468Y372334*
X246298Y371994*
X246255Y371567*
Y371271*
X246339Y371019*
X246468Y370761*
X246593Y370553*
X246844Y370385*
X247100Y370257*
X247442Y370172*
X247831Y370129*
X248957*
X248825Y370162*
X248802Y370175*
X248802D02*
X248714Y370263D01*
X248704Y370276*
X248661Y370363*
X248655Y370386*
Y372710*
X248658Y372726*
X248702Y372858*
X248733Y372889*
X248967Y372967*
X248361Y372798D02*
Y370254D01*
X248319Y370205*
X248056Y370161*
X248047Y370160*
X247609*
X247590Y370164*
X247371Y370252*
X247359Y370258*
X247009Y370521*
X246996Y370535*
X246733Y370974*
X246726Y370992*
X246638Y371518*
Y371526*
Y371534*
X246726Y372104*
X246733Y372122*
X246996Y372561*
X247009Y372575*
X247359Y372838*
X247380Y372847*
X247599Y372891*
X247601*
X247864Y372935*
X247882*
X248320Y372847*
X248361Y372798*
X227245Y267987D02*
X227205Y268226D01*
X226999Y268474*
X226751Y268639*
X226463Y268680*
X226211Y268638*
X225952Y268551*
X225948Y268550*
X225773Y268507*
X225738Y268510*
X225651Y268554*
X225626Y268583*
X225593Y268680*
X225592*
Y267800*
X225624Y267993*
X225627Y268003*
X225714Y268223*
X225721Y268234*
X225852Y268410*
X225870Y268424*
X226221Y268600*
X226231Y268604*
X226407Y268647*
X226429Y268648*
X226648Y268604*
X226660Y268600*
X226836Y268512*
X226858Y268490*
X226946Y268314*
X226949Y268308*
X226992Y268176*
Y268145*
X226992D02*
X226905Y267881D01*
X226893Y267862*
X226673Y267643*
X226673D02*
X226657Y267631D01*
X226441Y267545*
X226225Y267416*
X225877Y267198*
X225708Y267071*
X225500Y266821*
X225417Y266491*
X225457Y266208*
X225663Y265961*
X225910Y265796*
X226290Y265754*
X226495*
X226572Y265793*
X226582Y265797*
X226928Y265883*
X227010Y265924*
X227055*
X227143Y265880*
X227168Y265852*
X227200Y265754*
X227202*
Y266663*
X227125Y266393*
X227081Y266218*
X227073Y266200*
X226941Y266025*
X226931Y266015*
X226756Y265883*
X226736Y265874*
X226297Y265787*
X226277*
X226058Y265831*
X226045Y265835*
X225870Y265923*
X225852Y265937*
X225721Y266113*
X225712Y266131*
X225668Y266306*
Y266328*
X225712Y266547*
X225725Y266573*
X225945Y266792*
X225952Y266798*
X226084Y266886*
X226087Y266888*
X226394Y267063*
X226396Y267065*
X226742Y267238*
X226954Y267407*
X227162Y267657*
X227245Y267987*
X224905Y268637D02*
X224018D01*
X224150Y268604*
X224185Y268571*
X224229Y268439*
X224232Y268423*
Y268248*
X224228Y268229*
X224141Y268011*
X223527Y266345*
X223432Y266349*
X223037Y267752*
X223038Y267781*
X223126Y268045*
X223127Y268047*
X223302Y268486*
X223326Y268512*
X223407Y268552*
X223489Y268634*
X223491Y268637*
X222658*
X222790Y268604*
X222823Y268577*
X222911Y268402*
X222914Y268364*
X222256Y266390*
X222161Y266388*
X221548Y268011*
X221460Y268229*
X221456Y268248*
Y268511*
X221484Y268556*
X221572Y268600*
X221584Y268604*
X221747Y268637*
X221035*
X221168Y268604*
X221191Y268590*
X221322Y268459*
X221335Y268439*
X221466Y268045*
X222318Y265788*
X222951Y267476*
X223046Y267473*
X223561Y265754*
X223621*
X224486Y268134*
Y268135*
X224574Y268354*
X224576Y268358*
X224620Y268446*
X224623Y268451*
X224710Y268583*
X224742Y268604*
X224905Y268637*
X220716D02*
X219666D01*
X219102Y268593*
X218720Y268508*
X218428Y268300*
X218216Y268003*
X218046Y267664*
X218004Y267237*
Y266940*
X218088Y266688*
X218217Y266430*
X218342Y266222*
X218593Y266055*
X218848Y265927*
X219191Y265841*
X219579Y265798*
X220706*
X220573Y265831*
X220550Y265844*
X220462Y265932*
X220453Y265945*
X220409Y266033*
X220404Y266055*
Y268380*
X220406Y268395*
X220450Y268527*
X220482Y268559*
X220716Y268637*
X220109Y268467D02*
Y265923D01*
X220067Y265874*
X219804Y265830*
X219796*
X219357*
X219339Y265833*
X219119Y265921*
X219108Y265927*
X218757Y266190*
X218744Y266205*
X218481Y266643*
X218475Y266661*
X218387Y267187*
X218386Y267195*
X218387Y267203*
X218475Y267773*
X218481Y267791*
X218744Y268230*
X218757Y268244*
X219108Y268507*
X219128Y268516*
X219347Y268560*
X219349Y268561*
X219612Y268604*
X219630*
X220069Y268516*
X220109Y268467*
X217548Y265798D02*
X217415Y265831D01*
X217405Y265835*
X217317Y265879*
X217292Y265908*
X217248Y266039*
X217246Y266055*
Y268336*
X217248Y268352*
X217292Y268483*
X217295Y268490*
X217339Y268577*
X217374Y268604*
X217537Y268637*
X216649*
X216782Y268604*
X216792Y268600*
X216880Y268556*
X216905Y268527*
X216949Y268395*
X216951Y268380*
Y266099*
X216949Y266083*
X216905Y265952*
X216893Y265932*
X216805Y265844*
X216782Y265831*
X216649Y265798*
X217548*
X218977Y279798D02*
X218937Y280037D01*
X218731Y280285*
X218484Y280450*
X218195Y280491*
X217944Y280449*
X217684Y280362*
X217684D02*
X217681Y280361D01*
X217505Y280318*
X217471Y280321*
X217383Y280365*
X217358Y280394*
X217325Y280492*
X217324*
Y279611*
X217356Y279804*
X217359Y279814*
X217447Y280034*
X217453Y280045*
X217585Y280221*
X217602Y280235*
X217953Y280411*
X217963Y280415*
X218139Y280458*
X218161Y280459*
X218380Y280415*
X218393Y280411*
X218568Y280323*
X218590Y280301*
X218678Y280125*
X218681Y280119*
X218725Y279987*
Y279956*
X218637Y279692*
X218625Y279673*
X218406Y279454*
X218389Y279442*
X218173Y279356*
X217958Y279227*
X217609Y279009*
X217440Y278882*
X217232Y278632*
X217149Y278302*
X217190Y278019*
X217395Y277772*
X217642Y277607*
X218022Y277565*
X218227*
X218304Y277604*
X218314Y277608*
X218660Y277694*
X218743Y277735*
X218787*
X218875Y277691*
X218900Y277663*
X218933Y277565*
X218934*
Y278474*
X218857Y278204*
X218814Y278029*
X218805Y278012*
X218673Y277836*
X218663Y277826*
X218488Y277694*
X218468Y277685*
X218029Y277598*
X218010*
X217790Y277642*
X217778Y277646*
X217602Y277734*
X217585Y277748*
X217453Y277924*
X217445Y277942*
X217401Y278117*
X217400Y278139*
X217444Y278358*
X217458Y278384*
X217677Y278603*
X217685Y278609*
X217816Y278697*
X217819Y278699*
X218126Y278874*
X218129Y278876*
X218475Y279049*
X218686Y279218*
X218895Y279468*
X218977Y279798*
X216193Y267239D02*
X216150Y267536D01*
X216065Y267835*
X215939Y268087*
X215556Y268470*
X215306Y268595*
X215094Y268637*
X214796Y268680*
X214545Y268638*
X214291Y268553*
X214079Y268426*
X213867Y268256*
X213698Y268045*
X213572Y267794*
X213530Y267539*
X213487Y267239*
X213572Y266640*
X213698Y266389*
X213867Y266178*
X214080Y266008*
X214332Y265839*
X214840Y265755*
X215139Y265797*
X215392Y265840*
X215598Y265963*
X215811Y266176*
X215982Y266389*
X216107Y266641*
X216150Y266896*
X216193Y267239*
X215811D02*
X215810Y267233D01*
X215723Y266575*
X215718Y266559*
X215499Y266120*
X215486Y266104*
X215223Y265885*
X215203Y265875*
X214852Y265787*
X214828*
X214477Y265875*
X214460Y265883*
X214153Y266102*
X214142Y266113*
X214010Y266288*
X214003Y266302*
X213915Y266566*
X213913Y266573*
X213869Y266836*
Y266845*
Y267546*
X213871Y267560*
X213958Y267867*
X213960Y267872*
X214048Y268091*
X214051Y268098*
X214183Y268318*
X214194Y268330*
X214457Y268550*
X214477Y268560*
X214828Y268647*
X214852*
X215203Y268560*
X215223Y268550*
X215486Y268330*
X215499Y268314*
X215718Y267876*
X215723Y267860*
X215810Y267246*
X215811Y267239*
X216637Y280448D02*
X215750D01*
X215882Y280415*
X215918Y280382*
X215962Y280250*
X215964Y280234*
Y280059*
X215961Y280040*
X215873Y279822*
X215259Y278156*
X215164Y278160*
X214770Y279563*
Y279592*
X214858Y279856*
X214859Y279858*
X215034Y280297*
X215058Y280323*
X215139Y280363*
X215221Y280445*
X215223Y280448*
X214390*
X214523Y280415*
X214555Y280388*
X214643Y280213*
X214646Y280175*
X213988Y278201*
X213894Y278199*
X213280Y279822*
X213192Y280040*
X213189Y280059*
Y280322*
X213216Y280367*
X213304Y280411*
X213317Y280415*
X213479Y280448*
X212768*
X212900Y280415*
X212923Y280401*
X213055Y280270*
X213067Y280250*
X213198Y279857*
X214050Y277599*
X214683Y279287*
X214778Y279284*
X215293Y277565*
X215353*
X216218Y279945*
X216219Y279946*
X216306Y280165*
X216308Y280169*
X216352Y280257*
X216355Y280262*
X216443Y280394*
X216475Y280415*
X216637Y280448*
X212443Y278965D02*
X212400Y279391D01*
X212273Y279773*
X212063Y280067*
X211765Y280279*
X211426Y280449*
X211047Y280491*
X210794Y280449*
X210490Y280362*
X210360Y280319*
X210322Y280321*
X210234Y280365*
X210215Y280382*
X210142Y280492*
X210127*
X210048Y279583*
X210048*
X210211Y279948*
X210215Y279955*
X210390Y280218*
X210404Y280232*
X210667Y280408*
X210688Y280416*
X210995Y280459*
X211010*
X211273Y280415*
X211281Y280414*
X211544Y280326*
X211564Y280314*
X211783Y280094*
X211792Y280081*
X211924Y279818*
X211928Y279807*
X212016Y279412*
X212017Y279406*
X212060Y278968*
X212061Y278963*
X212060Y278956*
X212016Y278605*
X212015Y278598*
X211927Y278291*
X211924Y278282*
X211792Y278019*
X211783Y278006*
X211564Y277787*
X211542Y277774*
X211235Y277686*
X211228Y277685*
X210921Y277641*
X210906*
X210643Y277685*
X210632Y277688*
X210413Y277776*
X210406Y277779*
X210240Y277879*
X210413Y277734*
X210751Y277608*
X211090Y277566*
X211430Y277608*
X211724Y277692*
X211933Y277860*
X212145Y278071*
X212357Y278496*
X212443Y278965*
X208441Y257219D02*
X207391D01*
X206827Y257176*
X206445Y257091*
X206153Y256883*
X205941Y256586*
X205772Y256246*
X205729Y255819*
Y255523*
X205813Y255271*
X205942Y255013*
X206067Y254805*
X206318Y254637*
X206574Y254509*
X206916Y254424*
X207305Y254381*
X208431*
X208298Y254414*
X208275Y254427*
X208187Y254515*
X208178Y254528*
X208134Y254615*
X208129Y254638*
Y256962*
X208132Y256978*
X208175Y257110*
X208207Y257141*
X208441Y257219*
X207834Y257050D02*
Y254506D01*
X207792Y254457*
X207529Y254413*
X207521Y254412*
X207082*
X207064Y254416*
X206845Y254504*
X206833Y254510*
X206482Y254773*
X206469Y254787*
X206206Y255226*
X206200Y255244*
X206112Y255770*
X206111Y255778*
X206112Y255786*
X206200Y256356*
X206206Y256374*
X206469Y256813*
X206482Y256827*
X206833Y257090*
X206853Y257099*
X207073Y257143*
X207074*
X207337Y257187*
X207355*
X207794Y257099*
X207834Y257050*
X209622Y268637D02*
X208573D01*
X208008Y268593*
X207626Y268508*
X207335Y268300*
X207122Y268003*
X206953Y267664*
X206910Y267237*
Y266940*
X206994Y266688*
X207123Y266430*
X207248Y266222*
X207499Y266055*
X207755Y265927*
X208097Y265841*
X208486Y265798*
X209612*
X209480Y265831*
X209456Y265844*
X209369Y265932*
X209359Y265945*
X209315Y266033*
X209310Y266055*
Y268380*
X209313Y268395*
X209356Y268527*
X209388Y268559*
X209622Y268637*
X209015Y268467D02*
Y265923D01*
X208974Y265874*
X208710Y265830*
X208702*
X208264*
X208245Y265833*
X208026Y265921*
X208014Y265927*
X207663Y266190*
X207651Y266205*
X207387Y266643*
X207381Y266661*
X207293Y267187*
Y267195*
Y267203*
X207381Y267773*
X207387Y267791*
X207651Y268230*
X207663Y268244*
X208014Y268507*
X208034Y268516*
X208254Y268560*
X208255Y268561*
X208519Y268604*
X208537*
X208975Y268516*
X209015Y268467*
X209510Y280448D02*
X208591D01*
X208693Y280414*
X208705Y280408*
X208837Y280320*
X208856Y280294*
X208900Y280163*
X208903Y280147*
Y277866*
X208897Y277844*
X208854Y277756*
X208844Y277743*
X208757Y277655*
X208721Y277641*
X207932*
X207920Y277642*
X207744Y277686*
X207729Y277693*
X207597Y277781*
X207589Y277787*
X207502Y277875*
X207497Y277880*
X207365Y278055*
X207362Y278061*
X207487Y277609*
X209499*
X209367Y277642*
X209344Y277655*
X209256Y277743*
X209247Y277756*
X209203Y277844*
X209197Y277866*
Y280191*
X209200Y280206*
X209244Y280338*
X209276Y280370*
X209510Y280448*
X204017Y232948D02*
X203977Y233187D01*
X203771Y233434*
X203523Y233599*
X203235Y233641*
X202983Y233599*
X202724Y233512*
X202720Y233511*
X202545Y233467*
X202510Y233471*
X202422Y233515*
X202397Y233544*
X202365Y233641*
X202363*
Y232760*
X202395Y232954*
X202398Y232964*
X202486Y233183*
X202492Y233195*
X202624Y233370*
X202642Y233385*
X202993Y233560*
X203003Y233564*
X203178Y233608*
X203200Y233609*
X203419Y233565*
X203432Y233560*
X203607Y233473*
X203630Y233450*
X203718Y233275*
X203720Y233268*
X203764Y233137*
Y233105*
X203676Y232842*
X203664Y232822*
X203445Y232603*
X203428Y232592*
X203213Y232506*
X202997Y232377*
X202648Y232159*
X202479Y232032*
X202271Y231782*
X202189Y231452*
X202229Y231168*
X202435Y230922*
X202682Y230757*
X203062Y230715*
X203266*
X203343Y230753*
X203354Y230757*
X203699Y230844*
X203782Y230885*
X203827*
X203914Y230841*
X203940Y230812*
X203972Y230715*
X203974*
Y231624*
X203897Y231354*
X203853Y231179*
X203844Y231161*
X203713Y230986*
X203703Y230976*
X203527Y230844*
X203507Y230835*
X203069Y230747*
X203049*
X202830Y230791*
X202817Y230796*
X202642Y230883*
X202624Y230898*
X202492Y231073*
X202484Y231091*
X202440Y231267*
Y231289*
X202483Y231508*
X202497Y231533*
X202716Y231753*
X202724Y231759*
X202856Y231847*
X202859Y231849*
X203166Y232024*
X203168Y232025*
X203514Y232198*
X203725Y232367*
X203934Y232618*
X204017Y232948*
X203623Y240428D02*
X203583Y240667D01*
X203377Y240915*
X203129Y241080*
X202841Y241121*
X202589Y241079*
X202330Y240992*
X202326Y240991*
X202151Y240947*
X202116Y240951*
X202029Y240995*
X202004Y241024*
X201971Y241121*
X201969*
Y240240*
X202002Y240434*
X202005Y240444*
X202092Y240664*
X202099Y240675*
X202230Y240851*
X202248Y240865*
X202599Y241041*
X202609Y241045*
X202609D02*
X202785Y241088D01*
X202806Y241089*
X203026Y241045*
X203038Y241041*
X203214Y240953*
X203236Y240931*
X203324Y240755*
X203327Y240749*
X203370Y240617*
Y240585*
X203283Y240322*
X203271Y240303*
X203051Y240083*
X203035Y240072*
X202819Y239986*
X202603Y239857*
X202255Y239639*
X202086Y239512*
X201877Y239262*
X201795Y238932*
X201835Y238649*
X202041Y238402*
X202288Y238237*
X202668Y238195*
X202873*
X202950Y238234*
X202960Y238237*
X203306Y238324*
X203388Y238365*
X203433*
X203521Y238321*
X203546Y238293*
X203578Y238195*
X203580*
Y239104*
X203503Y238834*
X203459Y238659*
X203451Y238641*
X203319Y238466*
X203309Y238456*
X203134Y238324*
X203113Y238315*
X202675Y238228*
X202655*
X202436Y238272*
X202423Y238276*
X202248Y238364*
X202230Y238378*
X202099Y238554*
X202090Y238572*
X202046Y238747*
Y238769*
X202090Y238988*
X202103Y239014*
X202323Y239233*
X202330Y239239*
X202462Y239327*
X202465Y239329*
X202772Y239504*
X202774Y239506*
X203120Y239679*
X203332Y239848*
X203540Y240098*
X203623Y240428*
X205402Y249739D02*
X204339D01*
X204471Y249706*
X204482Y249702*
X204569Y249658*
X204592Y249636*
X204635Y249548*
X204641Y249526*
Y249350*
X204635Y249328*
X204548Y249154*
X203803Y247444*
X203711Y247447*
X203097Y249113*
X203009Y249332*
X203006Y249350*
Y249482*
X203008Y249498*
X203052Y249629*
X203077Y249658*
X203165Y249702*
X203171Y249705*
X203274Y249739*
X202535*
Y249735*
X202723Y249660*
X202746Y249641*
X202834Y249510*
X202839Y249501*
X202927Y249281*
X203879Y246857*
X203900*
X204939Y249326*
X204944Y249334*
X205030Y249463*
X205072Y249548*
X205082Y249561*
X205213Y249693*
X205239Y249706*
X205402Y249739*
X205278Y255736D02*
X205235Y256117D01*
X205108Y256456*
X204852Y256798*
X204555Y257095*
X204220Y257220*
X203838Y257263*
X203584Y257220*
X203060Y257089*
X203012Y257102*
X202968Y257146*
X202956Y257166*
X202924Y257263*
X202917*
X202839Y256443*
X202958Y256719*
X202961Y256725*
X203092Y256944*
X203110Y256962*
X203417Y257137*
X203430Y257142*
X203781Y257230*
X203801Y257231*
X204064Y257187*
X204075Y257184*
X204294Y257096*
X204305Y257090*
X204481Y256958*
X204486Y256954*
X204662Y256778*
X204673Y256762*
X204848Y256323*
X204852Y256309*
X204895Y255871*
X204896Y255866*
X204895Y255861*
X204852Y255422*
X204849Y255410*
X204717Y255059*
X204714Y255052*
X204538Y254744*
X204538D02*
X204526Y254730D01*
X204307Y254555*
X204298Y254549*
X204035Y254418*
X204021Y254413*
X203757Y254369*
X203742*
X203435Y254413*
X203422Y254416*
X203115Y254548*
X203085Y254594*
Y255603*
X203088Y255618*
X203132Y255750*
X203144Y255770*
X203231Y255857*
X203244Y255867*
X203318Y255904*
X202489*
X202621Y255870*
X202644Y255857*
X202732Y255770*
X202741Y255757*
X202785Y255669*
X202790Y255646*
X202790D02*
Y254582D01*
X203236Y254380*
X203748Y254337*
X204135Y254380*
X204474Y254465*
X204728Y254634*
X204981Y254845*
X205192Y255268*
X205278Y255736*
X206459Y267153D02*
X206416Y267535D01*
X206289Y267873*
X206033Y268215*
X205736Y268512*
X205401Y268638*
X205019Y268680*
X204765Y268638*
X204241Y268507*
X204193Y268520*
X204149Y268564*
X204137Y268583*
X204105Y268680*
X204099*
X204020Y267860*
X204139Y268136*
X204142Y268142*
X204273Y268361*
X204291Y268379*
X204598Y268555*
X204611Y268560*
X204962Y268647*
X204982Y268648*
X205245Y268604*
X205256Y268601*
X205475Y268514*
X205487Y268507*
X205662Y268376*
X205667Y268371*
X205843Y268196*
X205854Y268179*
X206029Y267740*
X206033Y267727*
X206076Y267288*
X206077Y267283*
X206076Y267278*
X206033Y266840*
X206030Y266827*
X205898Y266476*
X205895Y266469*
X205719Y266162*
X205707Y266148*
X205488Y265972*
X205479Y265966*
X205216Y265835*
X205202Y265830*
X204938Y265786*
X204923*
X204616Y265830*
X204604Y265834*
X204297Y265965*
X204266Y266011*
Y267020*
X204269Y267036*
X204313Y267167*
X204325Y267187*
X204412Y267275*
X204425Y267284*
X204499Y267321*
X203670*
X203802Y267288*
X203825Y267275*
X203913Y267187*
X203922Y267174*
X203966Y267086*
X203971Y267064*
Y266000*
X204417Y265797*
X204930Y265754*
X205316Y265797*
X205655Y265882*
X205909Y266051*
X206162Y266262*
X206374Y266685*
X206459Y267153*
X206912Y277609D02*
X206779Y277642D01*
X206769Y277646*
X206681Y277690*
X206656Y277719*
X206612Y277850*
X206610Y277866*
Y280147*
X206612Y280163*
X206656Y280294*
X206659Y280301*
X206703Y280388*
X206738Y280415*
X206900Y280448*
X206013*
X206146Y280415*
X206175Y280394*
X206263Y280262*
X206266Y280257*
X206310Y280169*
X206315Y280147*
Y279050*
X206310Y279028*
X206315Y279006*
Y277910*
X206312Y277894*
X206269Y277763*
X206257Y277743*
X206169Y277655*
X206146Y277642*
X206013Y277609*
X206912*
X206216Y279029D02*
X206144Y279101D01*
X205927Y279274*
X205923Y279278*
X205221Y279980*
X205215Y279987*
X205127Y280119*
X205121Y280131*
X205077Y280263*
X205075Y280278*
X205080Y280301*
X205124Y280388*
X205153Y280414*
X205255Y280448*
X204390*
X204523Y280415*
X204533Y280411*
X204708Y280323*
X204711Y280322*
X205018Y280146*
X205028Y280138*
X205949Y279217*
X205949D02*
Y279146D01*
X204808Y278049*
X204806Y278047*
X204543Y277828*
X204541Y277826*
X204365Y277694*
X204347Y277686*
X204040Y277609*
X205245*
X205113Y277642*
X205080Y277668*
X205036Y277756*
X205031Y277778*
Y277866*
X205045Y277901*
X205221Y278077*
X205222Y278078*
X206216Y279029*
X203559Y268637D02*
X202893D01*
X201066Y266375*
X200977Y266406*
Y268380*
X200979Y268395*
X201023Y268527*
X201055Y268559*
X201289Y268637*
X200600*
X200732Y268604*
X200755Y268590*
X200843Y268503*
X200852Y268490*
X200896Y268402*
X200901Y268380*
Y265754*
X200915*
X202830Y268104*
X202919Y268073*
Y266055*
X202916Y266039*
X202872Y265908*
X202853Y265882*
X202727Y265798*
X203296*
X203164Y265831*
X203140Y265844*
X203140D02*
X203053Y265932D01*
X203043Y265945*
X203000Y266033*
X202994Y266055*
Y268292*
X203003Y268320*
X203090Y268451*
X203110Y268468*
X203197Y268512*
X203201Y268514*
X203420Y268601*
X203427Y268604*
X203559Y268637*
X201654Y233597D02*
X200605D01*
X200040Y233554*
X199659Y233469*
X199367Y233261*
X199154Y232963*
X198985Y232624*
X198942Y232197*
Y231901*
X199026Y231649*
X199155Y231391*
X199280Y231183*
X199531Y231015*
X199787Y230887*
X200129Y230802*
X200518Y230759*
X201644*
X201512Y230792*
X201488Y230805*
X201401Y230893*
X201391Y230906*
X201347Y230993*
X201342Y231016*
Y233340*
X201345Y233356*
X201389Y233488*
X201420Y233519*
X201654Y233597*
X201047Y233428D02*
Y230884D01*
X201006Y230835*
X200742Y230791*
X200734Y230790*
X200296*
X200277Y230794*
X200058Y230882*
X200046Y230888*
X199695Y231151*
X199683Y231165*
X199419Y231604*
X199413Y231621*
X199325Y232148*
Y232156*
Y232164*
X199413Y232734*
X199419Y232752*
X199683Y233191*
X199695Y233205*
X200046Y233468*
X200067Y233477*
X200286Y233521*
X200287*
X200551Y233565*
X200569*
X201007Y233477*
X201047Y233428*
X201255Y239595D02*
X201212Y240021D01*
X201085Y240403*
X200875Y240697*
X200578Y240909*
X200238Y241079*
X199859Y241121*
X199606Y241079*
X199303Y240992*
X199172Y240949*
X199134Y240951*
X199046Y240995*
X199027Y241012*
X198954Y241121*
X198939*
X198860Y240213*
X198861*
X199023Y240578*
X199027Y240585*
X199202Y240848*
X199216Y240862*
X199479Y241038*
X199500Y241045*
X199807Y241089*
X199822*
X200086Y241045*
X200093Y241043*
X200356Y240956*
X200376Y240944*
X200595Y240724*
X200605Y240711*
X200736Y240448*
X200740Y240437*
X200828Y240042*
X200829Y240036*
X200873Y239597*
Y239592*
Y239586*
X200829Y239235*
X200827Y239228*
X200739Y238921*
X200736Y238912*
X200605Y238649*
X200595Y238636*
X200376Y238417*
X200354Y238404*
X200047Y238316*
X200041Y238315*
X199734Y238271*
X199718*
X199455Y238315*
X199445Y238318*
X199225Y238406*
X199218Y238409*
X199052Y238509*
X199226Y238364*
X199563Y238238*
X199902Y238196*
X200243Y238238*
X200536Y238322*
X200746Y238489*
X200957Y238701*
X201170Y239126*
X201255Y239595*
X202128Y248256D02*
X202085Y248682D01*
X201958Y249064*
X201748Y249358*
X201451Y249571*
X201111Y249740*
X200732Y249782*
X200479Y249740*
X200176Y249653*
X200045Y249610*
X200007Y249613*
X199919Y249657*
X199900Y249674*
X199827Y249783*
X199812*
X199733Y248874*
X199734*
X199896Y249239*
X199900Y249247*
X200075Y249510*
X200089Y249524*
X200352Y249699*
X200373Y249707*
X200680Y249751*
X200695*
X200959Y249707*
X200966Y249705*
X201229Y249617*
X201249Y249605*
X201468Y249386*
X201478Y249373*
X201609Y249110*
X201613Y249098*
X201701Y248703*
X201702Y248697*
X201746Y248259*
Y248254*
Y248248*
X201702Y247897*
X201700Y247889*
X201613Y247582*
X201609Y247574*
X201478Y247310*
X201468Y247297*
X201249Y247078*
X201227Y247065*
X200920Y246978*
X200914Y246976*
X200607Y246932*
X200591Y246933*
X200328Y246977*
X200318Y246979*
X200099Y247067*
X200091Y247071*
X199925Y247170*
X200099Y247026*
X200436Y246899*
X200775Y246857*
X201116Y246900*
X201409Y246983*
X201619Y247151*
X201830Y247362*
X202043Y247787*
X202128Y248256*
X202378Y257219D02*
X201712D01*
X199885Y254957*
X199796Y254989*
Y256962*
X199798Y256978*
X199842Y257110*
X199874Y257141*
X200108Y257219*
X199418*
X199551Y257186*
X199574Y257173*
X199662Y257085*
X199671Y257072*
X199715Y256985*
X199720Y256962*
Y254337*
X199734*
X201649Y256687*
X201738Y256655*
Y254638*
X201735Y254622*
X201691Y254490*
X201672Y254465*
X201546Y254381*
X202115*
X201983Y254414*
X201959Y254427*
X201872Y254515*
X201862Y254528*
X201818Y254615*
X201813Y254638*
Y256875*
X201822Y256902*
X201909Y257034*
X201929Y257051*
X202016Y257095*
X202020Y257096*
X202239Y257184*
X202246Y257186*
X202378Y257219*
X198623Y230760D02*
X198525Y230793D01*
X198519Y230796*
X198431Y230839*
X198418Y230849*
X198287Y230980*
X198277Y230993*
X198146Y231256*
X198145Y231259*
X197116Y233615*
X196131Y231260*
X196130Y231256*
X195998Y230993*
X195995Y230988*
X195907Y230856*
X195882Y230837*
X195653Y230760*
Y230759*
X196531*
X196457Y230796*
X196432Y230824*
X196389Y230956*
X196386Y230972*
Y231103*
X196391Y231126*
X196478Y231300*
X196653Y231694*
X196699Y231724*
X197839*
X197884Y231696*
X198104Y231257*
X198104D02*
X198107Y231247D01*
X198150Y231077*
X198191Y230994*
X198188Y230944*
X198100Y230813*
X198081Y230796*
X198007Y230759*
X198623*
Y230760*
X197796Y231755D02*
X196743D01*
X196696Y231823*
X197179Y233052*
X197271Y233054*
X197841Y231826*
X197796Y231755*
X198322Y241078D02*
X197403D01*
X197505Y241043*
X197517Y241038*
X197649Y240950*
X197669Y240924*
X197713Y240793*
X197715Y240777*
Y238496*
X197710Y238474*
X197666Y238386*
X197657Y238373*
X197569Y238285*
X197533Y238271*
X197533D02*
X196744D01*
X196732Y238272*
X196556Y238316*
X196541Y238323*
X196409Y238411*
X196402Y238417*
X196314Y238504*
X196314D02*
X196309Y238510D01*
X196178Y238685*
X196174Y238691*
X196300Y238239*
X198312*
X198179Y238272*
X198156Y238285*
X198068Y238373*
X198059Y238386*
X198015Y238474*
X198010Y238496*
Y240821*
X198012Y240836*
X198056Y240968*
X198088Y241000*
X198322Y241078*
X199189Y248256D02*
X199147Y248682D01*
X199019Y249064*
X198809Y249358*
X198512Y249571*
X198173Y249740*
X197794Y249782*
X197540Y249740*
X197237Y249653*
X197107Y249610*
X197068Y249613*
X196981Y249657*
X196961Y249674*
X196889Y249783*
X196873*
X196794Y248874*
X196795*
X196957Y249239*
X196961Y249247*
X197137Y249510*
X197151Y249524*
X197414Y249699*
X197435Y249707*
X197742Y249751*
X197757*
X198020Y249707*
X198028Y249705*
X198291Y249617*
X198310Y249605*
X198530Y249386*
X198539Y249373*
X198671Y249110*
X198675Y249098*
X198762Y248703*
X198763Y248697*
X198807Y248259*
Y248254*
Y248248*
X198763Y247897*
X198762Y247889*
X198674Y247582*
X198671Y247574*
X198539Y247310*
X198530Y247297*
X198310Y247078*
X198289Y247065*
X197982Y246978*
X197975Y246976*
X197668Y246932*
X197653Y246933*
X197390Y246977*
X197379Y246979*
X197160Y247067*
X197153Y247071*
X196987Y247170*
X197160Y247026*
X197498Y246899*
X197836Y246857*
X198177Y246900*
X198471Y246983*
X198680Y247151*
X198892Y247362*
X199104Y247787*
X199189Y248256*
X198967Y257219D02*
X197918D01*
X197353Y257176*
X196972Y257091*
X196680Y256883*
X196468Y256586*
X196298Y256246*
X196255Y255819*
Y255523*
X196339Y255271*
X196468Y255013*
X196593Y254805*
X196844Y254637*
X197100Y254509*
X197442Y254424*
X197831Y254381*
X198957*
X198825Y254414*
X198802Y254427*
X198802D02*
X198714Y254515D01*
X198704Y254528*
X198661Y254615*
X198655Y254638*
Y256962*
X198658Y256978*
X198702Y257110*
X198733Y257141*
X198967Y257219*
X198361Y257050D02*
Y254506D01*
X198319Y254457*
X198056Y254413*
X198047Y254412*
X197609*
X197590Y254416*
X197371Y254504*
X197359Y254510*
X197009Y254773*
X196996Y254787*
X196733Y255226*
X196726Y255244*
X196638Y255770*
Y255778*
Y255786*
X196726Y256356*
X196733Y256374*
X196996Y256813*
X197009Y256827*
X197359Y257090*
X197380Y257099*
X197599Y257143*
X197601*
X197864Y257187*
X197882*
X198320Y257099*
X198361Y257050*
X200148Y268637D02*
X199099D01*
X198534Y268593*
X198153Y268508*
X197861Y268300*
X197649Y268003*
X197479Y267664*
X197436Y267237*
Y266940*
X197520Y266688*
X197650Y266430*
X197774Y266222*
X198026Y266055*
X198281Y265927*
X198623Y265841*
X199012Y265798*
X200138*
X200006Y265831*
X199983Y265844*
X199895Y265932*
X199886Y265945*
X199842Y266033*
X199836Y266055*
Y268380*
X199839Y268395*
X199883Y268527*
X199914Y268559*
X200148Y268637*
X199542Y268467D02*
Y265923D01*
X199500Y265874*
X199237Y265830*
X199228*
X198790*
X198771Y265833*
X198552Y265921*
X198541Y265927*
X198190Y266190*
X198177Y266205*
X197914Y266643*
X197907Y266661*
X197820Y267187*
X197819Y267195*
Y267203*
X197907Y267773*
X197914Y267791*
X198177Y268230*
X198190Y268244*
X198541Y268507*
X198561Y268516*
X198780Y268560*
X198782Y268561*
X199045Y268604*
X199063*
X199501Y268516*
X199542Y268467*
X200283Y280054D02*
X199221D01*
X199353Y280021*
X199363Y280017*
X199451Y279973*
X199474Y279951*
X199517Y279863*
X199523Y279841*
Y279665*
X199517Y279643*
X199430Y279469*
X198685Y277759*
X198592Y277762*
X197979Y279428*
X197891Y279647*
X197888Y279665*
Y279797*
X197890Y279813*
X197934Y279944*
X197959Y279973*
X198047Y280017*
X198053Y280020*
X198156Y280054*
X197417*
Y280050*
X197605Y279975*
X197628Y279956*
X197716Y279825*
X197721Y279816*
X197809Y279596*
X198761Y277171*
X198782*
X199821Y279641*
X199826Y279649*
X199912Y279778*
X199954Y279863*
X199964Y279876*
X200095Y280008*
X200121Y280021*
X200283Y280054*
X197010Y278571D02*
X196967Y278997D01*
X196840Y279379*
X196630Y279673*
X196333Y279886*
X195993Y280055*
X195614Y280097*
X195361Y280055*
X195058Y279968*
X194927Y279925*
X194889Y279928*
X194801Y279972*
X194782Y279988*
X194709Y280098*
X194694*
X194615Y279189*
X194616*
X194778Y279554*
X194782Y279562*
X194957Y279825*
X194971Y279839*
X195234Y280014*
X195255Y280022*
X195562Y280066*
X195577*
X195841Y280022*
X195848Y280020*
X196111Y279932*
X196131Y279920*
X196350Y279701*
X196359Y279688*
X196491Y279425*
X196495Y279413*
X196583Y279018*
X196584Y279012*
X196628Y278574*
Y278569*
Y278563*
X196584Y278212*
X196582Y278204*
X196494Y277897*
X196491Y277889*
X196359Y277625*
X196350Y277612*
X196131Y277393*
X196109Y277380*
X195802Y277293*
X195796Y277291*
X195488Y277247*
X195473Y277248*
X195210Y277291*
X195200Y277294*
X194980Y277382*
X194973Y277386*
X194807Y277485*
X194981Y277341*
X195318Y277214*
X195657Y277172*
X195998Y277214*
X196291Y277298*
X196501Y277466*
X196712Y277677*
X196925Y278102*
X197010Y278571*
X194071D02*
X194029Y278997D01*
X193901Y279379*
X193691Y279673*
X193394Y279886*
X193055Y280055*
X192676Y280097*
X192422Y280055*
X192119Y279968*
X191988Y279925*
X191950Y279928*
X191863Y279972*
X191843Y279988*
X191770Y280098*
X191755*
X191676Y279189*
X191677*
X191839Y279554*
X191843Y279562*
X192019Y279825*
X192033Y279839*
X192296Y280014*
X192316Y280022*
X192623Y280066*
X192639*
X192902Y280022*
X192910Y280020*
X193173Y279932*
X193192Y279920*
X193412Y279701*
X193421Y279688*
X193552Y279425*
X193557Y279413*
X193644Y279018*
X193645Y279012*
X193689Y278574*
Y278569*
Y278563*
X193645Y278212*
X193644Y278204*
X193556Y277897*
X193552Y277889*
X193421Y277625*
X193412Y277612*
X193192Y277393*
X193171Y277380*
X192864Y277293*
X192857Y277291*
X192550Y277247*
X192535Y277248*
X192271Y277291*
X192261Y277294*
X192042Y277382*
X192035Y277386*
X191869Y277485*
X192042Y277341*
X192379Y277214*
X192718Y277172*
X193059Y277214*
X193353Y277298*
X193562Y277466*
X193774Y277677*
X193986Y278102*
X194071Y278571*
X190002Y181185D02*
X189598Y181538D01*
X189596Y181541*
X188912Y182225*
X188908Y182229*
X188697Y182492*
X188692Y182501*
X188429Y183027*
X188424Y183039*
X188319Y183513*
X188318Y183523*
X188319Y183532*
X188371Y183847*
X188378Y183865*
X188536Y184128*
X188553Y184145*
X188816Y184303*
X188832Y184309*
X189095Y184362*
X189115*
X189378Y184309*
X189390Y184305*
X189601Y184200*
X189609Y184195*
X189819Y184037*
X189835Y184016*
X189928Y183784*
X189936*
X189849Y184129*
X189598Y184381*
X189348Y184581*
X188947Y184631*
X188597Y184581*
X188297Y184381*
X188047Y184081*
X187998Y183735*
X188099Y183226*
X188356Y182815*
X188721Y182346*
X189033Y182034*
X189294Y181826*
X189303Y181817*
X189456Y181613*
X189456D02*
X189606Y181512D01*
X189579Y181421*
X188210*
X188188Y181426*
X187977Y181531*
X187964Y181541*
X187821Y181684*
X187811*
X188033Y181152*
X190002*
Y181185*
X190055Y187077D02*
X189931Y187118D01*
X189925Y187121*
X189819Y187174*
X189806Y187183*
X189648Y187341*
X189639Y187354*
X189481Y187670*
X189480Y187672*
X188237Y190521*
X187046Y187673*
X187044Y187670*
X186886Y187354*
X186883Y187349*
X186778Y187191*
X186752Y187171*
X186471Y187077*
Y187058*
X187739*
Y187063*
X187579*
X187556Y187068*
X187451Y187121*
X187426Y187150*
X187373Y187308*
X187371Y187324*
Y187482*
X187376Y187504*
X187481Y187713*
X187691Y188186*
X187736Y188216*
X189105*
X189150Y188188*
X189413Y187662*
X189417Y187652*
X189468Y187446*
X189518Y187346*
X189515Y187296*
X189410Y187138*
X189390Y187121*
X189285Y187068*
X189263Y187063*
X189102*
Y187058*
X190055*
Y187077*
X189052Y188274D02*
X187789D01*
X187743Y188342*
X188321Y189816*
X188413Y189818*
X189098Y188345*
X189052Y188274*
X187265Y182839D02*
X187213Y183358D01*
X187110Y183822*
X186906Y184231*
X186656Y184481*
X186405Y184581*
X186211Y184630*
X185866Y184531*
X185514Y184229*
X185259Y183667*
X185155Y182891*
X185207Y182321*
X185310Y181857*
X185512Y181504*
X185767Y181300*
X185968Y181149*
X186210Y181101*
X186457Y181150*
X186654Y181249*
X186804Y181399*
X187008Y181653*
X187213Y182218*
X187265Y182839*
X186892Y182787D02*
Y182783D01*
X186839Y182099*
X186838Y182093*
X186733Y181566*
X186723Y181545*
X186512Y181282*
X186492Y181266*
X186229Y181161*
X186210Y181158*
X186052*
X186017Y181172*
X185754Y181435*
X185743Y181452*
X185637Y181715*
X185634Y181729*
X185581Y182255*
Y182257*
X185529Y182994*
Y182997*
Y183002*
X185581Y183581*
X185582Y183582*
X185634Y184003*
X185637Y184016*
X185743Y184279*
X185754Y184296*
X185912Y184454*
X185928Y184465*
X186192Y184570*
X186226Y184571*
X186384Y184518*
X186396Y184512*
X186554Y184407*
X186569Y184391*
X186727Y184128*
X186732Y184114*
X186838Y183693*
X186839Y183684*
X186892Y182790*
Y182787*
X186160Y187063D02*
X186052D01*
X186017Y187078*
X185859Y187236*
X185850Y187249*
X185797Y187354*
X185792Y187376*
Y190218*
X185797Y190241*
X185850Y190346*
X185872Y190368*
X185977Y190421*
X186015Y190424*
X186132Y190385*
X186141Y190402*
X185517Y190642*
X185471*
Y187376*
X185465Y187354*
X185360Y187143*
X185338Y187121*
X185232Y187068*
X185210Y187063*
X185102*
Y187058*
X186160*
Y187063*
X184739Y181185D02*
X184335Y181538D01*
X184333Y181541*
X183648Y182225*
X183645Y182229*
X183434Y182492*
X183429Y182501*
X183165Y183027*
X183161Y183039*
X183056Y183513*
X183055Y183523*
X183056Y183532*
X183108Y183847*
X183115Y183865*
X183273Y184128*
X183273D02*
X183290Y184145D01*
X183553Y184303*
X183569Y184309*
X183832Y184362*
X183851*
X184115Y184309*
X184127Y184305*
X184338Y184200*
X184345Y184195*
X184556Y184037*
X184572Y184016*
X184665Y183784*
X184672*
X184586Y184129*
X184335Y184381*
X184085Y184581*
X183684Y184631*
X183334Y184581*
X183033Y184381*
X182784Y184081*
X182735Y183735*
X182836Y183226*
X183093Y182815*
X183458Y182346*
X183770Y182034*
X184031Y181826*
X184040Y181817*
X184192Y181613*
X184343Y181512*
X184315Y181421*
X182947*
X182925Y181426*
X182714Y181531*
X182701Y181541*
X182558Y181684*
X182548*
X182770Y181152*
X184739*
Y181185*
X184684Y187582D02*
X184586Y187829D01*
X184488Y188025*
X184240Y188174*
X183875Y188330*
X183349Y188540*
X183318Y188587*
Y188692*
X183319Y188702*
X183372Y188965*
X183373Y188971*
X183426Y189129*
X183446Y189155*
X183603Y189260*
X183619Y189267*
X183830Y189320*
X183860Y189317*
X184123Y189212*
X184140Y189201*
X184245Y189096*
X184260Y189061*
Y188856*
X184305Y188678*
X184421Y188640*
X184537Y188678*
X184580Y188850*
X184533Y189035*
X184391Y189177*
X184090Y189328*
X183738Y189378*
X183238Y189278*
X183044Y189036*
X182997Y188895*
X182997D02*
Y187376D01*
X182992Y187354*
X182939Y187249*
X182894Y187221*
X182736*
X182714Y187226*
X182674Y187246*
X182816Y187104*
X183097Y187010*
X183231Y187099*
X183318Y187186*
Y187376*
X183400Y187415*
X183714Y187153*
X183860Y187055*
X184155Y187006*
X184351Y187055*
X184541Y187150*
X184636Y187340*
X184684Y187582*
X184363Y187676D02*
X184258Y187360D01*
X184238Y187335*
X184080Y187229*
X184052Y187221*
X183947*
X183937Y187222*
X183674Y187275*
X183656Y187282*
X183340Y187493*
X183318Y187534*
Y188429*
X183388Y188475*
X183754Y188318*
X183910Y188266*
X183924Y188258*
X184135Y188101*
X184140Y188096*
X184245Y187991*
X184257Y187974*
X184362Y187711*
X184363Y187676*
X182002Y182839D02*
X181950Y183358D01*
X181847Y183822*
X181643Y184231*
X181393Y184481*
X181142Y184581*
X180948Y184630*
X180603Y184531*
X180251Y184229*
X179996Y183667*
X179892Y182891*
X179944Y182321*
X180047Y181857*
X180249Y181504*
X180504Y181300*
X180705Y181149*
X180947Y181101*
X181194Y181150*
X181391Y181249*
X181541Y181399*
X181745Y181653*
X181950Y182218*
X182002Y182839*
X181629Y182787D02*
X181628Y182783D01*
X181576Y182099*
X181575Y182093*
X181470Y181566*
X181460Y181545*
X181249Y181282*
X181229Y181266*
X180966Y181161*
X180947Y181158*
X180789*
X180754Y181172*
X180491Y181435*
X180479Y181452*
X180374Y181715*
X180371Y181729*
X180318Y182255*
Y182257*
X180266Y182994*
X180266D02*
X180265Y182997D01*
X180266Y183002*
X180318Y183581*
Y183582*
X180371Y184003*
X180374Y184016*
X180479Y184279*
X180491Y184296*
X180648Y184454*
X180665Y184465*
X180928Y184570*
X180963Y184571*
X181121Y184518*
X181133Y184512*
X181290Y184407*
X181306Y184391*
X181464Y184128*
X181469Y184114*
X181574Y183693*
X181576Y183684*
X181628Y182790*
X181629Y182787*
X182476Y189131D02*
X181832Y189379D01*
X181786*
Y188850*
X181707Y188809*
X181781Y188662*
X181786Y188639*
Y187376*
X181781Y187354*
X181729Y187249*
X181719Y187236*
X181614Y187130*
X181588Y187117*
X181365Y187072*
Y187058*
X182476*
Y187072*
X182253Y187117*
X182227Y187130*
X182122Y187236*
X182107Y187271*
Y188955*
X182113Y188978*
X182165Y189083*
X182188Y189105*
X182293Y189158*
X182328Y189162*
X182328D02*
X182476Y189125D01*
Y189131*
X181642Y188909D02*
X181536Y189086D01*
X181437Y189235*
X181293Y189331*
X181161Y189375*
X180984Y189286*
X180895Y189107*
X180936Y188941*
X181060Y188900*
X181084*
X181175Y188991*
X181188Y189000*
X181398Y189105*
X181456Y189096*
X181642Y188909*
X180739Y187063D02*
X180631D01*
X180596Y187078*
X180438Y187236*
X180429Y187249*
X180376Y187354*
X180371Y187376*
Y188955*
X180376Y188978*
X180429Y189083*
X180451Y189105*
X180556Y189158*
X180594Y189161*
X180711Y189122*
X180720Y189139*
X180096Y189379*
X180050*
Y188903*
X180010Y188854*
X180032Y188836*
X180050Y188797*
Y187324*
X180044Y187301*
X179992Y187196*
X179982Y187183*
X179930Y187130*
X179917Y187121*
X179811Y187068*
X179789Y187063*
X179681*
Y187058*
X180739*
Y187063*
X179205Y181316D02*
X179120Y181486D01*
X178951Y181571*
X178828Y181489*
X178741Y181316*
X178825Y181191*
X178951Y181107*
X179123Y181194*
X179205Y181316*
X179816Y189015D02*
X179653Y189179D01*
X179402Y189329*
X179161Y189377*
X179019Y189330*
X178823Y189232*
X178727Y189088*
X178623Y188880*
X178587Y188853*
X178609Y188837*
X178629Y188797*
Y187324*
X178623Y187301*
X178571Y187196*
X178561Y187183*
X178509Y187130*
X178483Y187117*
X178260Y187072*
Y187058*
X179318*
Y187063*
X179210*
X179188Y187068*
X179082Y187121*
X179069Y187130*
X178964Y187236*
X178950Y187271*
Y188797*
X178958Y188825*
X179063Y188983*
X179069Y188991*
X179175Y189096*
X179198Y189109*
X179409Y189162*
X179430*
X179694Y189110*
X179716Y189099*
X179816Y189015*
X178054Y182472D02*
X178003Y182933D01*
X177848Y183346*
X177643Y183757*
X177024Y184376*
X176670Y184528*
X176360Y184579*
X176358Y184580*
X176100Y184631*
X175997*
Y184618*
X176271Y184573*
X176281Y184570*
X176544Y184465*
X176552Y184461*
X176973Y184197*
X176986Y184186*
X177355Y183712*
X177363Y183697*
X177573Y183066*
X177501Y183006*
X177141Y183212*
X176789Y183262*
X176444Y183213*
X176196Y182965*
X175995Y182663*
X175945Y182260*
X175995Y181855*
X176198Y181501*
X176348Y181351*
X176552Y181198*
X176748Y181100*
X176995*
X177300Y181150*
X177599Y181300*
X177801Y181552*
X177952Y181804*
X178003Y182162*
Y182163*
X178054Y182472*
X177681Y182576D02*
Y182313D01*
X177680Y182303*
X177575Y181777*
X177572Y181768*
X177467Y181505*
X177461Y181493*
X177303Y181283*
X177290Y181271*
X177133Y181166*
X177105Y181158*
X176947*
X176935Y181159*
X176724Y181212*
X176706Y181220*
X176496Y181378*
X176479Y181400*
X176374Y181663*
X176371Y181673*
X176319Y181989*
X176318Y182003*
X176371Y182424*
X176373Y182432*
X176478Y182800*
X176491Y182822*
X176701Y183032*
X176721Y183045*
X177036Y183150*
X177064Y183151*
X177275Y183098*
X177285Y183094*
X177601Y182937*
X177628Y182900*
X177680Y182584*
X177681Y182576*
X178504Y188916D02*
X178333Y189130D01*
X178135Y189278*
X177789Y189377*
X177447Y189279*
X177356Y189189*
X177257Y188990*
X177207Y188791*
Y187376*
X177205Y187360*
X177152Y187203*
X177127Y187174*
X177022Y187121*
X177012Y187117*
X176839Y187074*
Y187058*
X177897*
Y187063*
X177894*
X177882Y187065*
X177672Y187117*
X177648Y187130*
X177543Y187236*
X177529Y187271*
Y188797*
X177531Y188813*
X177584Y188971*
X177603Y188997*
X177761Y189102*
X177773Y189108*
X177931Y189161*
X177955Y189162*
X178271Y189110*
X178298Y189096*
X178401Y188993*
X178504Y188916*
X176739Y186063D02*
X174102D01*
Y185953*
X176739*
Y186063*
X174002Y190484D02*
X172681D01*
Y190468*
X172854Y190425*
X172864Y190421*
X172969Y190368*
X172992Y190346*
X173044Y190241*
X173050Y190218*
Y190008*
X173044Y189986*
X172940Y189776*
X172045Y187725*
X171953Y187727*
X171216Y189727*
X171111Y189989*
X171107Y190008*
Y190166*
X171110Y190182*
X171163Y190339*
X171188Y190368*
X171293Y190421*
X171300Y190424*
X171457Y190476*
X171473Y190479*
X171476*
Y190484*
X170523*
Y190463*
X170755Y190370*
X170778Y190351*
X170883Y190194*
X170888Y190184*
X170993Y189921*
X172139Y187005*
X172177*
X173427Y189975*
X173432Y189983*
X173535Y190138*
X173586Y190241*
X173596Y190254*
X173754Y190412*
X173779Y190425*
X174002Y190470*
Y190484*
X169669Y190143D02*
X168883Y190537D01*
X168839*
Y187271*
X168824Y187236*
X168719Y187130*
X168706Y187121*
X168601Y187068*
X168579Y187063*
X168418*
Y187058*
X169581*
Y187063*
X169421*
X169398Y187068*
X169293Y187121*
X169280Y187130*
X169175Y187236*
X169160Y187271*
Y190008*
X169175Y190043*
X169280Y190148*
X169315Y190163*
X169421*
X169430Y190162*
X169656Y190117*
X169669Y190143*
X167258Y187222D02*
X167173Y187392D01*
X167003Y187476*
X166880Y187395*
X166794Y187222*
X166878Y187097*
X167003Y187013*
X167176Y187099*
X167258Y187222*
X166107Y188744D02*
X166055Y189263D01*
X165952Y189728*
X165748Y190136*
X165498Y190386*
X165247Y190487*
X165053Y190535*
X164708Y190436*
X164356Y190135*
X164101Y189573*
X163997Y188796*
X164049Y188226*
X164152Y187763*
X164354Y187409*
X164609Y187205*
X164810Y187055*
X165052Y187006*
X165299Y187056*
X165496Y187154*
X165646Y187304*
X165850Y187559*
X166056Y188124*
X166107Y188744*
X165734Y188692D02*
Y188688D01*
X165681Y188004*
X165680Y187998*
X165575Y187472*
X165565Y187450*
X165354Y187187*
X165334Y187172*
X165071Y187067*
X165052Y187063*
X164894*
X164859Y187078*
X164596Y187341*
X164585Y187358*
X164479Y187621*
X164476Y187634*
X164424Y188161*
X164423Y188162*
X164371Y188899*
Y188903*
Y188907*
X164423Y189486*
X164424Y189488*
X164476Y189909*
X164479Y189921*
X164585Y190184*
X164596Y190201*
X164754Y190359*
X164770Y190370*
X165034Y190475*
X165068Y190476*
X165226Y190424*
X165238Y190418*
X165396Y190313*
X165411Y190297*
X165569Y190034*
X165574Y190020*
X165680Y189599*
X165681Y189590*
X165734Y188695*
Y188692*
X164000Y188766D02*
Y188817D01*
X164100Y187997D02*
Y189567D01*
X164200Y187679D02*
Y189791D01*
X164300Y187504D02*
Y190011D01*
X164400Y187373D02*
Y188490D01*
Y189228D02*
Y190172D01*
X164500Y187293D02*
Y187570D01*
Y189972D02*
Y190258D01*
X164600Y187213D02*
Y187337D01*
Y190205D02*
Y190344D01*
X164700Y187137D02*
Y187237D01*
Y190305D02*
Y190430D01*
X164800Y187062D02*
Y187137D01*
Y190382D02*
Y190463D01*
X164900Y187037D02*
Y187063D01*
Y190422D02*
Y190491D01*
X165000Y187017D02*
Y187063D01*
Y190462D02*
Y190520D01*
X165100Y187016D02*
Y187078D01*
Y190466D02*
Y190523D01*
X165200Y187036D02*
Y187118D01*
Y190432D02*
Y190498D01*
X165300Y187056D02*
Y187158D01*
Y190376D02*
Y190465D01*
X165400Y187106D02*
Y187244D01*
Y190309D02*
Y190425D01*
X165500Y187158D02*
Y187369D01*
Y190148D02*
Y190384D01*
X165600Y187258D02*
Y187597D01*
Y189918D02*
Y190284D01*
X165700Y187371D02*
Y188251D01*
Y189268D02*
Y190184D01*
X165800Y187496D02*
Y190032D01*
X165900Y187696D02*
Y189832D01*
X166000Y187971D02*
Y189512D01*
X166100Y188657D02*
Y188817D01*
X166800Y187213D02*
Y187234D01*
X166900Y187082D02*
Y187408D01*
X167000Y187015D02*
Y187474D01*
X167100Y187061D02*
Y187428D01*
X167200Y187135D02*
Y187337D01*
X168500Y187058D02*
Y187063D01*
X168600Y187058D02*
Y187068D01*
X168700Y187058D02*
Y187118D01*
X168800Y187058D02*
Y187211D01*
X168900Y187058D02*
Y190528D01*
X169000Y187058D02*
Y190478D01*
X169100Y187058D02*
Y190428D01*
X169200Y187058D02*
Y187210D01*
Y190068D02*
Y190378D01*
X169300Y187058D02*
Y187118D01*
Y190161D02*
Y190328D01*
X169400Y187058D02*
Y187068D01*
Y190163D02*
Y190278D01*
X169500Y187058D02*
Y187063D01*
Y190148D02*
Y190228D01*
X169600Y190128D02*
Y190178D01*
X170600Y190432D02*
Y190484D01*
X170700Y190392D02*
Y190484D01*
X170800Y190318D02*
Y190484D01*
X170900Y190155D02*
Y190484D01*
X171000Y189904D02*
Y190484D01*
X171100Y189650D02*
Y190484D01*
X171200Y189395D02*
Y189767D01*
Y190375D02*
Y190484D01*
X171300Y189141D02*
Y189499D01*
Y190424D02*
Y190484D01*
X171400Y188886D02*
Y189228D01*
Y190457D02*
Y190484D01*
X171500Y188632D02*
Y188956D01*
X171600Y188377D02*
Y188685D01*
X171700Y188123D02*
Y188413D01*
X171800Y187868D02*
Y188142D01*
X171900Y187613D02*
Y187870D01*
X172000Y187359D02*
Y187695D01*
X172100Y187104D02*
Y187850D01*
X172200Y187060D02*
Y188079D01*
X172300Y187298D02*
Y188309D01*
X172400Y187535D02*
Y188538D01*
X172500Y187773D02*
Y188768D01*
X172600Y188010D02*
Y188997D01*
X172700Y188248D02*
Y189226D01*
Y190463D02*
Y190484D01*
X172800Y188485D02*
Y189456D01*
Y190438D02*
Y190484D01*
X172900Y188723D02*
Y189685D01*
Y190403D02*
Y190484D01*
X173000Y188960D02*
Y189897D01*
Y190329D02*
Y190484D01*
X173100Y189198D02*
Y190484D01*
X173200Y189435D02*
Y190484D01*
X173300Y189673D02*
Y190484D01*
X173400Y189910D02*
Y190484D01*
X173500Y190085D02*
Y190484D01*
X173600Y190258D02*
Y190484D01*
X173700Y190358D02*
Y190484D01*
X173800Y190429D02*
Y190484D01*
X173900Y190449D02*
Y190484D01*
X174000Y190469D02*
Y190484D01*
X174200Y185953D02*
Y186063D01*
X174300Y185953D02*
Y186063D01*
X174400Y185953D02*
Y186063D01*
X174500Y185953D02*
Y186063D01*
X174600Y185953D02*
Y186063D01*
X174700Y185953D02*
Y186063D01*
X174800Y185953D02*
Y186063D01*
X174900Y185953D02*
Y186063D01*
X175000Y185953D02*
Y186063D01*
X175100Y185953D02*
Y186063D01*
X175200Y185953D02*
Y186063D01*
X175300Y185953D02*
Y186063D01*
X175400Y185953D02*
Y186063D01*
X175500Y185953D02*
Y186063D01*
X175600Y185953D02*
Y186063D01*
X175700Y185953D02*
Y186063D01*
X175800Y185953D02*
Y186063D01*
X175900Y185953D02*
Y186063D01*
X176000Y181847D02*
Y182671D01*
Y184618D02*
Y184631D01*
Y185953D02*
Y186063D01*
X176100Y181672D02*
Y182821D01*
Y184601D02*
Y184631D01*
Y185953D02*
Y186063D01*
X176200Y181499D02*
Y182969D01*
Y184585D02*
Y184611D01*
Y185953D02*
Y186063D01*
X176300Y181399D02*
Y183069D01*
Y184562D02*
Y184591D01*
Y185953D02*
Y186063D01*
X176400Y181312D02*
Y181598D01*
Y182528D02*
Y183169D01*
Y184522D02*
Y184573D01*
Y185953D02*
Y186063D01*
X176500Y181237D02*
Y181375D01*
Y182831D02*
Y183221D01*
Y184482D02*
Y184556D01*
Y185953D02*
Y186063D01*
X176600Y181174D02*
Y181300D01*
Y182931D02*
Y183235D01*
Y184431D02*
Y184539D01*
Y185953D02*
Y186063D01*
X176700Y181124D02*
Y181225D01*
Y183031D02*
Y183250D01*
Y184368D02*
Y184515D01*
Y185953D02*
Y186063D01*
X176800Y181100D02*
Y181193D01*
Y183071D02*
Y183261D01*
Y184306D02*
Y184472D01*
X176900Y181100D02*
Y181168D01*
Y183104D02*
Y183247D01*
Y184243D02*
Y184429D01*
Y187058D02*
Y187089D01*
X177000Y181100D02*
Y181158D01*
Y183138D02*
Y183232D01*
Y184168D02*
Y184386D01*
Y187058D02*
Y187114D01*
X177100Y181117D02*
Y181158D01*
Y183142D02*
Y183218D01*
Y184040D02*
Y184300D01*
Y187058D02*
Y187160D01*
X177200Y181134D02*
Y181211D01*
Y183117D02*
Y183178D01*
Y183911D02*
Y184200D01*
Y187058D02*
Y187346D01*
X177300Y181151D02*
Y181280D01*
Y183087D02*
Y183121D01*
Y183783D02*
Y184100D01*
Y187058D02*
Y189076D01*
X177400Y181201D02*
Y181413D01*
Y183037D02*
Y183064D01*
Y183586D02*
Y184000D01*
Y187058D02*
Y189232D01*
X177500Y181251D02*
Y181587D01*
Y182987D02*
Y183007D01*
Y183286D02*
Y183900D01*
Y187058D02*
Y189294D01*
X177600Y181301D02*
Y181902D01*
Y182937D02*
Y183800D01*
Y187058D02*
Y187179D01*
Y188994D02*
Y189323D01*
X177700Y181426D02*
Y183642D01*
Y187058D02*
Y187110D01*
Y189061D02*
Y189351D01*
X177800Y181551D02*
Y183442D01*
Y187058D02*
Y187085D01*
Y189117D02*
Y189374D01*
X177900Y181718D02*
Y183208D01*
Y189150D02*
Y189345D01*
X178000Y182143D02*
Y182941D01*
Y189155D02*
Y189317D01*
X178100Y189138D02*
Y189288D01*
X178200Y189122D02*
Y189229D01*
X178300Y187058D02*
Y187080D01*
Y189094D02*
Y189154D01*
X178400Y187058D02*
Y187100D01*
Y188994D02*
Y189046D01*
X178500Y187058D02*
Y187124D01*
Y188919D02*
Y188921D01*
X178600Y187058D02*
Y187255D01*
Y188844D02*
Y188857D01*
X178700Y187058D02*
Y189034D01*
X178800Y181229D02*
Y181433D01*
Y187058D02*
Y189197D01*
X178900Y181141D02*
Y181537D01*
Y187058D02*
Y189271D01*
X179000Y181132D02*
Y181546D01*
Y187058D02*
Y187200D01*
Y188888D02*
Y189321D01*
X179100Y181182D02*
Y181496D01*
Y187058D02*
Y187112D01*
Y189021D02*
Y189357D01*
X179200Y181309D02*
Y181327D01*
Y187058D02*
Y187064D01*
Y189110D02*
Y189369D01*
X179300Y187058D02*
Y187063D01*
Y189135D02*
Y189349D01*
X179400Y189160D02*
Y189329D01*
X179500Y189148D02*
Y189270D01*
X179600Y189128D02*
Y189210D01*
X179700Y187058D02*
Y187063D01*
Y189108D02*
Y189131D01*
X179800Y187058D02*
Y187064D01*
Y189029D02*
Y189031D01*
X179900Y182803D02*
Y182951D01*
Y187058D02*
Y187113D01*
X180000Y182068D02*
Y183677D01*
Y187058D02*
Y187213D01*
X180100Y181764D02*
Y183897D01*
Y187058D02*
Y189377D01*
X180200Y181589D02*
Y184117D01*
Y187058D02*
Y189339D01*
X180300Y181463D02*
Y182511D01*
Y183380D02*
Y184271D01*
Y187058D02*
Y189300D01*
X180400Y181383D02*
Y181651D01*
Y184080D02*
Y184357D01*
Y187058D02*
Y187306D01*
Y189026D02*
Y189262D01*
X180500Y181303D02*
Y181426D01*
Y184305D02*
Y184443D01*
Y187058D02*
Y187174D01*
Y189130D02*
Y189223D01*
X180600Y181228D02*
Y181326D01*
Y184405D02*
Y184529D01*
Y187058D02*
Y187074D01*
Y189159D02*
Y189185D01*
X180700Y181153D02*
Y181226D01*
Y184478D02*
Y184559D01*
Y187058D02*
Y187063D01*
Y189125D02*
Y189146D01*
X180800Y181130D02*
Y181158D01*
Y184518D02*
Y184587D01*
X180900Y181110D02*
Y181158D01*
Y184558D02*
Y184616D01*
Y189086D02*
Y189118D01*
X181000Y181111D02*
Y181175D01*
Y184558D02*
Y184617D01*
Y188920D02*
Y189294D01*
X181100Y181131D02*
Y181215D01*
Y184525D02*
Y184592D01*
Y188916D02*
Y189344D01*
X181200Y181153D02*
Y181255D01*
Y184467D02*
Y184558D01*
Y189006D02*
Y189362D01*
X181300Y181203D02*
Y181345D01*
Y184399D02*
Y184518D01*
Y189056D02*
Y189326D01*
X181400Y181258D02*
Y181470D01*
Y184234D02*
Y184473D01*
Y187058D02*
Y187079D01*
Y189106D02*
Y189260D01*
X181500Y181358D02*
Y181718D01*
Y183991D02*
Y184373D01*
Y187058D02*
Y187099D01*
Y189052D02*
Y189141D01*
X181600Y181472D02*
Y182414D01*
Y183273D02*
Y184273D01*
Y187058D02*
Y187121D01*
Y188952D02*
Y188980D01*
X181700Y181597D02*
Y184116D01*
Y187058D02*
Y187217D01*
X181800Y181805D02*
Y183916D01*
Y187058D02*
Y189379D01*
X181900Y182080D02*
Y183583D01*
Y187058D02*
Y189353D01*
X182000Y182815D02*
Y182859D01*
Y187058D02*
Y189314D01*
X182100Y187058D02*
Y189276D01*
X182200Y187058D02*
Y187158D01*
Y189111D02*
Y189238D01*
X182300Y187058D02*
Y187107D01*
Y189161D02*
Y189199D01*
X182400Y187058D02*
Y187087D01*
Y189144D02*
Y189161D01*
X182600Y181560D02*
Y181642D01*
X182700Y181320D02*
Y181542D01*
Y187220D02*
Y187233D01*
X182800Y181152D02*
Y181488D01*
Y183408D02*
Y184101D01*
Y187120D02*
Y187221D01*
X182900Y181152D02*
Y181438D01*
Y183124D02*
Y184221D01*
Y187076D02*
Y187221D01*
X183000Y181152D02*
Y181421D01*
Y182964D02*
Y184341D01*
Y187043D02*
Y188904D01*
X183100Y181152D02*
Y181421D01*
Y182807D02*
Y183315D01*
Y183798D02*
Y184425D01*
Y187012D02*
Y189106D01*
X183200Y181152D02*
Y181421D01*
Y182678D02*
Y182958D01*
Y184007D02*
Y184492D01*
Y187079D02*
Y189231D01*
X183300Y181152D02*
Y181421D01*
Y182549D02*
Y182758D01*
Y184151D02*
Y184558D01*
Y187168D02*
Y189291D01*
X183400Y181152D02*
Y181421D01*
Y182421D02*
Y182558D01*
Y184211D02*
Y184590D01*
Y187415D02*
Y187453D01*
Y188470D02*
Y188520D01*
Y189051D02*
Y189311D01*
X183500Y181152D02*
Y181421D01*
Y182304D02*
Y182410D01*
Y184271D02*
Y184605D01*
Y187331D02*
Y187386D01*
Y188427D02*
Y188480D01*
Y189191D02*
Y189331D01*
X183600Y181152D02*
Y181421D01*
Y182204D02*
Y182285D01*
Y184316D02*
Y184619D01*
Y187248D02*
Y187319D01*
Y188384D02*
Y188440D01*
Y189258D02*
Y189351D01*
X183700Y181152D02*
Y181421D01*
Y182104D02*
Y182173D01*
Y184336D02*
Y184629D01*
Y187165D02*
Y187269D01*
Y188341D02*
Y188400D01*
Y189287D02*
Y189371D01*
X183800Y181152D02*
Y181421D01*
Y182010D02*
Y182073D01*
Y184356D02*
Y184616D01*
Y187096D02*
Y187249D01*
Y188303D02*
Y188360D01*
Y189312D02*
Y189369D01*
X183900Y181152D02*
Y181421D01*
Y181930D02*
Y181973D01*
Y184352D02*
Y184604D01*
Y187049D02*
Y187229D01*
Y188269D02*
Y188319D01*
Y189302D02*
Y189355D01*
X184000Y181152D02*
Y181421D01*
Y181850D02*
Y181873D01*
Y184332D02*
Y184591D01*
Y187032D02*
Y187221D01*
Y188202D02*
Y188277D01*
Y189262D02*
Y189341D01*
X184100Y181152D02*
Y181421D01*
Y181736D02*
Y181773D01*
Y184312D02*
Y184569D01*
Y187016D02*
Y187243D01*
Y188127D02*
Y188234D01*
Y189222D02*
Y189323D01*
X184200Y181152D02*
Y181421D01*
Y181608D02*
Y181673D01*
Y184269D02*
Y184489D01*
Y187017D02*
Y187309D01*
Y188036D02*
Y188191D01*
Y189141D02*
Y189273D01*
X184300Y181152D02*
Y181421D01*
Y181541D02*
Y181573D01*
Y184219D02*
Y184409D01*
Y187042D02*
Y187488D01*
Y187865D02*
Y188138D01*
Y188697D02*
Y189223D01*
X184400Y181152D02*
Y181482D01*
Y184154D02*
Y184315D01*
Y187080D02*
Y188078D01*
Y188646D02*
Y189168D01*
X184500Y181152D02*
Y181394D01*
Y184079D02*
Y184215D01*
Y187130D02*
Y188001D01*
Y188666D02*
Y189068D01*
X184600Y181152D02*
Y181307D01*
Y183946D02*
Y184074D01*
Y187268D02*
Y187793D01*
X184700Y181152D02*
Y181219D01*
X185200Y182397D02*
Y183227D01*
Y187058D02*
Y187063D01*
X185300Y181902D02*
Y183758D01*
Y187058D02*
Y187102D01*
X185400Y181700D02*
Y183978D01*
Y187058D02*
Y187223D01*
X185500Y181525D02*
Y184198D01*
Y187058D02*
Y190642D01*
X185600Y181433D02*
Y182069D01*
Y183730D02*
Y184303D01*
Y187058D02*
Y190610D01*
X185700Y181353D02*
Y181559D01*
Y184172D02*
Y184389D01*
Y187058D02*
Y190572D01*
X185800Y181275D02*
Y181389D01*
Y184342D02*
Y184474D01*
Y187058D02*
Y187348D01*
Y190247D02*
Y190533D01*
X185900Y181200D02*
Y181289D01*
Y184442D02*
Y184541D01*
Y187058D02*
Y187195D01*
Y190382D02*
Y190495D01*
X186000Y181143D02*
Y181189D01*
Y184493D02*
Y184569D01*
Y187058D02*
Y187095D01*
Y190426D02*
Y190456D01*
X186100Y181123D02*
Y181158D01*
Y184533D02*
Y184598D01*
Y187058D02*
Y187063D01*
Y190396D02*
Y190418D01*
X186200Y181103D02*
Y181158D01*
Y184572D02*
Y184626D01*
X186300Y181119D02*
Y181190D01*
Y184546D02*
Y184607D01*
X186400Y181139D02*
Y181230D01*
Y184510D02*
Y184582D01*
X186500Y181172D02*
Y181271D01*
Y184443D02*
Y184543D01*
Y187058D02*
Y187087D01*
X186600Y181222D02*
Y181391D01*
Y184339D02*
Y184503D01*
Y187058D02*
Y187120D01*
X186700Y181295D02*
Y181516D01*
Y184173D02*
Y184437D01*
Y187058D02*
Y187154D01*
X186800Y181395D02*
Y181902D01*
Y183844D02*
Y184337D01*
Y187058D02*
Y187224D01*
X186900Y181518D02*
Y184237D01*
Y187058D02*
Y187381D01*
X187000Y181643D02*
Y184042D01*
Y187058D02*
Y187581D01*
X187100Y181906D02*
Y183842D01*
Y187058D02*
Y187803D01*
X187200Y182181D02*
Y183417D01*
Y187058D02*
Y188042D01*
X187300Y187058D02*
Y188281D01*
X187400Y187058D02*
Y187227D01*
Y187552D02*
Y188520D01*
X187500Y187058D02*
Y187097D01*
Y187757D02*
Y188759D01*
X187600Y187058D02*
Y187063D01*
Y187982D02*
Y188998D01*
X187700Y187058D02*
Y187063D01*
Y188200D02*
Y189237D01*
X187800Y188216D02*
Y188274D01*
Y188488D02*
Y189477D01*
X187900Y181471D02*
Y181605D01*
Y188216D02*
Y188274D01*
Y188743D02*
Y189716D01*
X188000Y181231D02*
Y181520D01*
Y183724D02*
Y183752D01*
Y188216D02*
Y188274D01*
Y188997D02*
Y189955D01*
X188100Y181152D02*
Y181470D01*
Y183226D02*
Y184145D01*
Y188216D02*
Y188274D01*
Y189252D02*
Y190194D01*
X188200Y181152D02*
Y181422D01*
Y183066D02*
Y184265D01*
Y188216D02*
Y188274D01*
Y189506D02*
Y190433D01*
X188300Y181152D02*
Y181421D01*
Y182906D02*
Y184383D01*
Y188216D02*
Y188274D01*
Y189761D02*
Y190376D01*
X188400Y181152D02*
Y181421D01*
Y182759D02*
Y183149D01*
Y183902D02*
Y184450D01*
Y188216D02*
Y188274D01*
Y189836D02*
Y190147D01*
X188500Y181152D02*
Y181421D01*
Y182631D02*
Y182884D01*
Y184069D02*
Y184516D01*
Y188216D02*
Y188274D01*
Y189632D02*
Y189918D01*
X188600Y181152D02*
Y181421D01*
Y182502D02*
Y182684D01*
Y184174D02*
Y184581D01*
Y188216D02*
Y188274D01*
Y189416D02*
Y189689D01*
X188700Y181152D02*
Y181421D01*
Y182373D02*
Y182489D01*
Y184234D02*
Y184596D01*
Y188216D02*
Y188274D01*
Y189201D02*
Y189460D01*
X188800Y181152D02*
Y181421D01*
Y182267D02*
Y182364D01*
Y184294D02*
Y184610D01*
Y188216D02*
Y188274D01*
Y188986D02*
Y189231D01*
X188900Y181152D02*
Y181421D01*
Y182167D02*
Y182239D01*
Y184323D02*
Y184624D01*
Y188216D02*
Y188274D01*
Y188770D02*
Y189001D01*
X189000Y181152D02*
Y181421D01*
Y182067D02*
Y182137D01*
Y184343D02*
Y184624D01*
Y188216D02*
Y188274D01*
Y188555D02*
Y188772D01*
X189100Y181152D02*
Y181421D01*
Y181981D02*
Y182037D01*
Y184363D02*
Y184612D01*
Y188216D02*
Y188309D01*
Y188338D02*
Y188543D01*
X189200Y181152D02*
Y181421D01*
Y181901D02*
Y181937D01*
Y184345D02*
Y184599D01*
Y187058D02*
Y187063D01*
Y188087D02*
Y188314D01*
X189300Y181152D02*
Y181421D01*
Y181820D02*
Y181837D01*
Y184325D02*
Y184587D01*
Y187058D02*
Y187076D01*
Y187887D02*
Y188085D01*
X189400Y181152D02*
Y181421D01*
Y181687D02*
Y181737D01*
Y184300D02*
Y184539D01*
Y187058D02*
Y187127D01*
Y187687D02*
Y187856D01*
X189500Y181152D02*
Y181421D01*
Y181583D02*
Y181637D01*
Y184250D02*
Y184459D01*
Y187058D02*
Y187274D01*
Y187382D02*
Y187632D01*
X189600Y181152D02*
Y181426D01*
Y181517D02*
Y181537D01*
Y184200D02*
Y184379D01*
Y187058D02*
Y187432D01*
X189700Y181152D02*
Y181449D01*
Y184126D02*
Y184279D01*
Y187058D02*
Y187289D01*
X189800Y181152D02*
Y181362D01*
Y184051D02*
Y184179D01*
Y187058D02*
Y187189D01*
X189900Y181152D02*
Y181274D01*
Y183854D02*
Y183926D01*
Y187058D02*
Y187133D01*
X190000Y181152D02*
Y181187D01*
Y187058D02*
Y187095D01*
X191700Y279241D02*
Y279462D01*
X191800Y279466D02*
Y280053D01*
X191900Y277459D02*
Y277466D01*
Y279647D02*
Y279953D01*
X192000Y277376D02*
Y277406D01*
Y279797D02*
Y279929D01*
X192100Y277319D02*
Y277359D01*
Y279883D02*
Y279962D01*
X192200Y277282D02*
Y277319D01*
Y279950D02*
Y279992D01*
X192300Y277244D02*
Y277287D01*
Y280016D02*
Y280020D01*
X192400Y277212D02*
Y277270D01*
Y280034D02*
Y280049D01*
X192500Y277199D02*
Y277253D01*
Y280048D02*
Y280068D01*
X192600Y277187D02*
Y277255D01*
Y280062D02*
Y280085D01*
X192700Y277174D02*
Y277269D01*
Y280055D02*
Y280095D01*
X192800Y277182D02*
Y277283D01*
Y280039D02*
Y280084D01*
X192900Y277195D02*
Y277303D01*
Y280022D02*
Y280072D01*
X193000Y277207D02*
Y277332D01*
Y279990D02*
Y280061D01*
X193100Y277226D02*
Y277360D01*
Y279956D02*
Y280033D01*
X193200Y277255D02*
Y277401D01*
Y279912D02*
Y279983D01*
X193300Y277283D02*
Y277501D01*
Y279812D02*
Y279933D01*
X193400Y277336D02*
Y277601D01*
Y279712D02*
Y279881D01*
X193500Y277416D02*
Y277784D01*
Y279529D02*
Y279810D01*
X193600Y277504D02*
Y278052D01*
Y279217D02*
Y279739D01*
X193700Y277604D02*
Y279661D01*
X193800Y277730D02*
Y279521D01*
X193900Y277930D02*
Y279381D01*
X194000Y278179D02*
Y279083D01*
X194700Y279379D02*
Y280098D01*
X194800Y279589D02*
Y279972D01*
X194900Y277408D02*
Y277430D01*
Y279739D02*
Y279924D01*
X195000Y277333D02*
Y277374D01*
Y279858D02*
Y279949D01*
X195100Y277296D02*
Y277334D01*
Y279924D02*
Y279981D01*
X195200Y277258D02*
Y277294D01*
Y279991D02*
Y280009D01*
X195300Y277221D02*
Y277276D01*
Y280028D02*
Y280038D01*
X195400Y277204D02*
Y277260D01*
Y280043D02*
Y280062D01*
X195500Y277191D02*
Y277249D01*
Y280057D02*
Y280078D01*
X195600Y277179D02*
Y277263D01*
Y280062D02*
Y280095D01*
X195700Y230759D02*
Y230776D01*
Y277177D02*
Y277278D01*
Y280045D02*
Y280088D01*
X195800Y230759D02*
Y230809D01*
Y277190D02*
Y277292D01*
Y280028D02*
Y280077D01*
X195900Y230759D02*
Y230848D01*
Y277202D02*
Y277321D01*
Y280003D02*
Y280066D01*
X196000Y230759D02*
Y230997D01*
Y277215D02*
Y277349D01*
Y279969D02*
Y280052D01*
X196100Y230759D02*
Y231197D01*
Y277244D02*
Y277378D01*
Y279936D02*
Y280002D01*
X196200Y230759D02*
Y231424D01*
Y238597D02*
Y238656D01*
Y277272D02*
Y277462D01*
Y279851D02*
Y279952D01*
X196300Y230759D02*
Y231663D01*
Y238239D02*
Y238522D01*
Y255389D02*
Y256250D01*
Y277305D02*
Y277562D01*
Y279751D02*
Y279902D01*
X196400Y230759D02*
Y230922D01*
Y231143D02*
Y231902D01*
Y238239D02*
Y238418D01*
Y255150D02*
Y256450D01*
Y277385D02*
Y277707D01*
Y279607D02*
Y279838D01*
X196500Y230759D02*
Y230774D01*
Y231349D02*
Y232141D01*
Y238239D02*
Y238350D01*
Y254960D02*
Y256631D01*
Y277465D02*
Y277917D01*
Y279391D02*
Y279766D01*
X196600Y231574D02*
Y232381D01*
Y238239D02*
Y238305D01*
Y254800D02*
Y256771D01*
Y277565D02*
Y278342D01*
Y278850D02*
Y279695D01*
X196700Y231724D02*
Y231780D01*
Y231832D02*
Y232620D01*
Y238239D02*
Y238280D01*
Y254734D02*
Y255400D01*
Y256187D02*
Y256897D01*
Y277665D02*
Y279575D01*
X196800Y231724D02*
Y231755D01*
Y232087D02*
Y232859D01*
Y238239D02*
Y238271D01*
Y248885D02*
Y248938D01*
Y254667D02*
Y255114D01*
Y256486D02*
Y256968D01*
Y277853D02*
Y279435D01*
X196900Y231724D02*
Y231755D01*
Y232342D02*
Y233098D01*
Y238239D02*
Y238271D01*
Y249110D02*
Y249766D01*
Y254609D02*
Y254947D01*
Y256653D02*
Y257040D01*
Y278053D02*
Y279199D01*
X197000Y231724D02*
Y231755D01*
Y232596D02*
Y233337D01*
Y238239D02*
Y238271D01*
Y247159D02*
Y247162D01*
Y249304D02*
Y249647D01*
Y254559D02*
Y254781D01*
Y256819D02*
Y257097D01*
Y278516D02*
Y278670D01*
X197100Y231724D02*
Y231755D01*
Y232851D02*
Y233576D01*
Y238239D02*
Y238271D01*
Y247076D02*
Y247102D01*
Y249454D02*
Y249608D01*
Y254509D02*
Y254705D01*
Y256895D02*
Y257120D01*
X197200Y231724D02*
Y231755D01*
Y233076D02*
Y233423D01*
Y238239D02*
Y238271D01*
Y247011D02*
Y247051D01*
Y249556D02*
Y249641D01*
Y254484D02*
Y254630D01*
Y256970D02*
Y257142D01*
X197300Y231724D02*
Y231755D01*
Y232991D02*
Y233194D01*
Y238239D02*
Y238271D01*
Y246973D02*
Y247011D01*
Y249623D02*
Y249671D01*
Y254459D02*
Y254555D01*
Y257045D02*
Y257164D01*
X197400Y231724D02*
Y231755D01*
Y232776D02*
Y232965D01*
Y238239D02*
Y238271D01*
Y246936D02*
Y246975D01*
Y249690D02*
Y249700D01*
Y254434D02*
Y254492D01*
Y257103D02*
Y257179D01*
X197500Y231724D02*
Y231755D01*
Y232561D02*
Y232736D01*
Y238239D02*
Y238271D01*
Y241045D02*
Y241078D01*
Y246899D02*
Y246958D01*
Y249716D02*
Y249729D01*
Y254417D02*
Y254452D01*
Y257123D02*
Y257187D01*
Y266749D02*
Y267706D01*
Y280017D02*
Y280054D01*
X197600Y231724D02*
Y231755D01*
Y232345D02*
Y232507D01*
Y238239D02*
Y238316D01*
Y240983D02*
Y241078D01*
Y246886D02*
Y246941D01*
Y249731D02*
Y249750D01*
Y254406D02*
Y254413D01*
Y257143D02*
Y257195D01*
Y266529D02*
Y267906D01*
Y279977D02*
Y280054D01*
X197700Y231724D02*
Y231755D01*
Y232130D02*
Y232278D01*
Y238239D02*
Y238454D01*
Y240830D02*
Y241078D01*
Y246874D02*
Y246937D01*
Y249745D02*
Y249767D01*
Y254395D02*
Y254412D01*
Y257160D02*
Y257203D01*
Y266346D02*
Y268075D01*
Y279849D02*
Y280054D01*
X197800Y231724D02*
Y231755D01*
Y231914D02*
Y232048D01*
Y238239D02*
Y241078D01*
Y246861D02*
Y246951D01*
Y249743D02*
Y249782D01*
Y254384D02*
Y254412D01*
Y257176D02*
Y257210D01*
Y266205D02*
Y268215D01*
Y279618D02*
Y280054D01*
X197900Y231664D02*
Y231819D01*
Y238239D02*
Y241078D01*
Y246865D02*
Y246966D01*
Y249727D02*
Y249771D01*
Y254381D02*
Y254412D01*
Y257183D02*
Y257218D01*
Y266138D02*
Y266704D01*
Y267727D02*
Y268328D01*
Y279363D02*
Y279625D01*
Y279842D02*
Y280054D01*
X198000Y231464D02*
Y231590D01*
Y238239D02*
Y241078D01*
Y246877D02*
Y246983D01*
Y249710D02*
Y249759D01*
Y254381D02*
Y254412D01*
Y257163D02*
Y257219D01*
Y266072D02*
Y266499D01*
Y267935D02*
Y268399D01*
Y279109D02*
Y279370D01*
Y279994D02*
Y280054D01*
X198100Y230759D02*
Y230812D01*
Y231264D02*
Y231361D01*
Y238239D02*
Y238341D01*
Y241004D02*
Y241078D01*
Y246890D02*
Y247012D01*
Y249681D02*
Y249748D01*
Y254381D02*
Y254420D01*
Y257143D02*
Y257219D01*
Y266017D02*
Y266333D01*
Y268102D02*
Y268471D01*
Y278854D02*
Y279099D01*
Y280035D02*
Y280054D01*
X198200Y230759D02*
Y231148D01*
Y238239D02*
Y238267D01*
Y241037D02*
Y241078D01*
Y246906D02*
Y247040D01*
Y249647D02*
Y249727D01*
Y254381D02*
Y254437D01*
Y257123D02*
Y257219D01*
Y265967D02*
Y266183D01*
Y268252D02*
Y268519D01*
Y278600D02*
Y278827D01*
X198300Y230759D02*
Y230967D01*
Y238239D02*
Y238242D01*
Y241070D02*
Y241078D01*
Y246935D02*
Y247070D01*
Y249613D02*
Y249677D01*
Y254381D02*
Y254454D01*
Y257103D02*
Y257219D01*
Y265922D02*
Y266108D01*
Y268327D02*
Y268541D01*
Y278345D02*
Y278556D01*
X198400Y230759D02*
Y230867D01*
Y246963D02*
Y247168D01*
Y249515D02*
Y249627D01*
Y254381D02*
Y257219D01*
Y265897D02*
Y266033D01*
Y268402D02*
Y268563D01*
Y278091D02*
Y278284D01*
X198500Y230759D02*
Y230805D01*
Y247007D02*
Y247268D01*
Y249415D02*
Y249577D01*
Y254381D02*
Y257219D01*
Y265872D02*
Y265958D01*
Y268477D02*
Y268586D01*
Y277836D02*
Y278013D01*
X198600Y230759D02*
Y230768D01*
Y247087D02*
Y247433D01*
Y249251D02*
Y249508D01*
Y254381D02*
Y257219D01*
Y265847D02*
Y265902D01*
Y268524D02*
Y268598D01*
Y277582D02*
Y277748D01*
X198700Y247171D02*
Y247674D01*
Y248984D02*
Y249436D01*
Y254381D02*
Y254536D01*
Y257105D02*
Y257219D01*
Y265833D02*
Y265862D01*
Y268544D02*
Y268606D01*
Y277327D02*
Y277793D01*
X198800Y247271D02*
Y248191D01*
Y248331D02*
Y249365D01*
Y254381D02*
Y254428D01*
Y257164D02*
Y257219D01*
Y265822D02*
Y265830D01*
Y268564D02*
Y268614D01*
Y277215D02*
Y278023D01*
X198900Y240301D02*
Y240673D01*
Y247379D02*
Y249231D01*
Y254381D02*
Y254395D01*
Y257197D02*
Y257219D01*
Y265810D02*
Y265830D01*
Y268580D02*
Y268621D01*
Y277453D02*
Y278252D01*
X199000Y231727D02*
Y232655D01*
Y240526D02*
Y241053D01*
Y247579D02*
Y249091D01*
Y265799D02*
Y265830D01*
Y268597D02*
Y268629D01*
Y277690D02*
Y278482D01*
X199100Y231501D02*
Y232855D01*
Y238469D02*
Y238480D01*
Y240695D02*
Y240968D01*
Y247779D02*
Y248822D01*
Y265798D02*
Y265830D01*
Y268597D02*
Y268637D01*
Y277928D02*
Y278711D01*
X199200Y231316D02*
Y233027D01*
Y238386D02*
Y238420D01*
Y240845D02*
Y240958D01*
Y265798D02*
Y265830D01*
Y268577D02*
Y268637D01*
Y278165D02*
Y278941D01*
X199300Y231169D02*
Y233167D01*
Y238337D02*
Y238376D01*
Y240918D02*
Y240991D01*
Y265798D02*
Y265841D01*
Y268557D02*
Y268637D01*
Y278403D02*
Y279170D01*
Y280034D02*
Y280054D01*
X199400Y231103D02*
Y231699D01*
Y232650D02*
Y233284D01*
Y238299D02*
Y238336D01*
Y240985D02*
Y241020D01*
Y265798D02*
Y265858D01*
Y268537D02*
Y268637D01*
Y278640D02*
Y279399D01*
Y279999D02*
Y280054D01*
X199500Y231036D02*
Y231470D01*
Y232886D02*
Y233356D01*
Y238262D02*
Y238308D01*
Y241045D02*
Y241048D01*
Y257199D02*
Y257219D01*
Y265798D02*
Y265874D01*
Y268517D02*
Y268637D01*
Y278878D02*
Y279608D01*
Y279898D02*
Y280054D01*
X199600Y230981D02*
Y231303D01*
Y233053D02*
Y233427D01*
Y238233D02*
Y238291D01*
Y241060D02*
Y241077D01*
Y257147D02*
Y257219D01*
Y265798D02*
Y268637D01*
Y279115D02*
Y280054D01*
X199700Y230931D02*
Y231148D01*
Y233208D02*
Y233478D01*
Y238221D02*
Y238274D01*
Y241074D02*
Y241094D01*
Y257014D02*
Y257219D01*
Y265798D02*
Y268637D01*
Y279353D02*
Y280054D01*
X199800Y230884D02*
Y231073D01*
Y233283D02*
Y233501D01*
Y238208D02*
Y238281D01*
Y241088D02*
Y241111D01*
Y249023D02*
Y249644D01*
Y254418D02*
Y254968D01*
Y256984D02*
Y257219D01*
Y265798D02*
Y268637D01*
Y279590D02*
Y280054D01*
X199900Y230859D02*
Y230998D01*
Y233358D02*
Y233523D01*
Y238196D02*
Y238295D01*
Y241076D02*
Y241116D01*
Y249247D02*
Y249674D01*
Y254540D02*
Y254976D01*
Y257150D02*
Y257219D01*
Y265798D02*
Y265927D01*
Y268551D02*
Y268637D01*
Y279761D02*
Y280054D01*
X200000Y230834D02*
Y230923D01*
Y233433D02*
Y233545D01*
Y238208D02*
Y238309D01*
Y241060D02*
Y241105D01*
Y247108D02*
Y247125D01*
Y249397D02*
Y249616D01*
Y254663D02*
Y255100D01*
Y257183D02*
Y257219D01*
Y265798D02*
Y265833D01*
Y268587D02*
Y268637D01*
Y279913D02*
Y280054D01*
X200100Y230809D02*
Y230865D01*
Y233484D02*
Y233558D01*
Y238220D02*
Y238331D01*
Y241041D02*
Y241094D01*
Y247025D02*
Y247067D01*
Y249531D02*
Y249628D01*
Y254786D02*
Y255224D01*
Y257217D02*
Y257219D01*
Y265798D02*
Y265808D01*
Y268620D02*
Y268637D01*
Y280012D02*
Y280054D01*
X200200Y230794D02*
Y230825D01*
Y233504D02*
Y233566D01*
Y238233D02*
Y238360D01*
Y241008D02*
Y241083D01*
Y246988D02*
Y247027D01*
Y249597D02*
Y249660D01*
Y254909D02*
Y255348D01*
Y280037D02*
Y280054D01*
X200300Y230783D02*
Y230790D01*
Y233523D02*
Y233574D01*
Y238254D02*
Y238389D01*
Y240974D02*
Y241048D01*
Y246950D02*
Y246987D01*
Y249664D02*
Y249689D01*
Y255031D02*
Y255472D01*
X200400Y230772D02*
Y230790D01*
Y233540D02*
Y233582D01*
Y238283D02*
Y238441D01*
Y240920D02*
Y240998D01*
Y246913D02*
Y246965D01*
Y249711D02*
Y249718D01*
Y255154D02*
Y255595D01*
X200500Y230761D02*
Y230790D01*
Y233557D02*
Y233589D01*
Y238312D02*
Y238541D01*
Y240819D02*
Y240948D01*
Y246891D02*
Y246948D01*
Y249725D02*
Y249744D01*
Y255277D02*
Y255719D01*
X200600Y230759D02*
Y230790D01*
Y233558D02*
Y233597D01*
Y238373D02*
Y238642D01*
Y240719D02*
Y240893D01*
Y246879D02*
Y246932D01*
Y249739D02*
Y249760D01*
Y255399D02*
Y255843D01*
Y268637D02*
X200600D01*
X200700Y230759D02*
Y230790D01*
Y233538D02*
Y233597D01*
Y238453D02*
Y238840D01*
Y240520D02*
Y240822D01*
Y246866D02*
Y246946D01*
Y249750D02*
Y249777D01*
Y255522D02*
Y255967D01*
Y268612D02*
Y268637D01*
X200800Y230759D02*
Y230801D01*
Y233518D02*
Y233597D01*
Y238544D02*
Y239133D01*
Y240168D02*
Y240750D01*
Y246860D02*
Y246960D01*
Y249733D02*
Y249775D01*
Y255645D02*
Y256091D01*
Y268545D02*
Y268637D01*
X200900Y230759D02*
Y230817D01*
Y233498D02*
Y233597D01*
Y238644D02*
Y240662D01*
Y246873D02*
Y246974D01*
Y249717D02*
Y249764D01*
Y255768D02*
Y256214D01*
Y268391D02*
Y268637D01*
X201000Y230759D02*
Y230834D01*
Y233478D02*
Y233597D01*
Y238786D02*
Y240522D01*
Y246885D02*
Y247001D01*
Y249694D02*
Y249753D01*
Y255890D02*
Y256338D01*
Y265858D02*
Y266364D01*
Y268458D02*
Y268637D01*
X201100Y230759D02*
Y233597D01*
Y238986D02*
Y240358D01*
Y246898D02*
Y247029D01*
Y249660D02*
Y249742D01*
Y256013D02*
Y256462D01*
Y265981D02*
Y266417D01*
Y268574D02*
Y268637D01*
X201200Y230759D02*
Y233597D01*
Y239292D02*
Y240058D01*
Y246924D02*
Y247058D01*
Y249627D02*
Y249696D01*
Y256136D02*
Y256586D01*
Y266104D02*
Y266541D01*
Y268607D02*
Y268637D01*
X201300Y230759D02*
Y233597D01*
Y246952D02*
Y247129D01*
Y249554D02*
Y249646D01*
Y256259D02*
Y256710D01*
Y266226D02*
Y266665D01*
X201400Y230759D02*
Y230893D01*
Y233507D02*
Y233597D01*
Y246981D02*
Y247229D01*
Y249454D02*
Y249596D01*
Y256381D02*
Y256833D01*
Y266349D02*
Y266788D01*
X201500Y230759D02*
Y230796D01*
Y233546D02*
Y233597D01*
Y247056D02*
Y247355D01*
Y249328D02*
Y249535D01*
Y256504D02*
Y256957D01*
Y266472D02*
Y266912D01*
X201600Y230759D02*
Y230770D01*
Y233579D02*
Y233597D01*
Y247136D02*
Y247555D01*
Y249128D02*
Y249464D01*
Y254381D02*
Y254417D01*
Y256627D02*
Y257081D01*
Y266595D02*
Y267036D01*
X201700Y247232D02*
Y247888D01*
Y248708D02*
Y249393D01*
Y254381D02*
Y254516D01*
Y256704D02*
Y257205D01*
Y266717D02*
Y267160D01*
X201800Y238896D02*
Y238952D01*
Y247332D02*
Y249285D01*
Y254381D02*
Y257219D01*
Y266840D02*
Y267284D01*
X201900Y238571D02*
Y239289D01*
Y247502D02*
Y249145D01*
Y254381D02*
Y254486D01*
Y257020D02*
Y257219D01*
Y266963D02*
Y267408D01*
X202000Y238451D02*
Y239409D01*
Y240424D02*
Y241035D01*
Y247702D02*
Y248938D01*
Y254381D02*
Y254409D01*
Y257087D02*
Y257219D01*
Y267085D02*
Y267531D01*
X202100Y238363D02*
Y238552D01*
Y239010D02*
Y239523D01*
Y240677D02*
Y240959D01*
Y248102D02*
Y248536D01*
Y254381D02*
Y254384D01*
Y257128D02*
Y257219D01*
Y267208D02*
Y267655D01*
X202200Y231372D02*
Y231497D01*
Y238296D02*
Y238419D01*
Y239110D02*
Y239598D01*
Y240810D02*
Y240960D01*
Y257168D02*
Y257219D01*
Y267331D02*
Y267779D01*
X202300Y231083D02*
Y231817D01*
Y238236D02*
Y238338D01*
Y239210D02*
Y239667D01*
Y240891D02*
Y240985D01*
Y257200D02*
Y257219D01*
Y267454D02*
Y267903D01*
X202400Y230963D02*
Y231937D01*
Y232968D02*
Y233537D01*
Y238225D02*
Y238288D01*
Y239286D02*
Y239730D01*
Y240941D02*
Y241016D01*
Y267576D02*
Y268027D01*
X202500Y230878D02*
Y231063D01*
Y231536D02*
Y232047D01*
Y233205D02*
Y233476D01*
Y238214D02*
Y238259D01*
Y239349D02*
Y239792D01*
Y240991D02*
Y241049D01*
Y255901D02*
Y255904D01*
Y267699D02*
Y268150D01*
X202600Y230811D02*
Y230930D01*
Y231636D02*
Y232122D01*
Y233338D02*
Y233481D01*
Y238203D02*
Y238239D01*
Y239406D02*
Y239855D01*
Y241041D02*
Y241081D01*
Y249709D02*
Y249739D01*
Y255876D02*
Y255904D01*
Y267822D02*
Y268274D01*
X202700Y230755D02*
Y230854D01*
Y231736D02*
Y232191D01*
Y233414D02*
Y233506D01*
Y238195D02*
Y238233D01*
Y239463D02*
Y239915D01*
Y241067D02*
Y241097D01*
Y249669D02*
Y249739D01*
Y255801D02*
Y255904D01*
Y267945D02*
Y268398D01*
X202800Y230744D02*
Y230804D01*
Y231810D02*
Y232253D01*
Y233464D02*
Y233538D01*
Y238195D02*
Y238253D01*
Y239518D02*
Y239975D01*
Y241090D02*
Y241114D01*
Y249561D02*
Y249739D01*
Y254578D02*
Y255904D01*
Y265798D02*
Y265847D01*
Y268067D02*
Y268522D01*
X202900Y230733D02*
Y230777D01*
Y231872D02*
Y232316D01*
Y233514D02*
Y233571D01*
Y238209D02*
Y238273D01*
Y239568D02*
Y240019D01*
Y241070D02*
Y241112D01*
Y249348D02*
Y249739D01*
Y254532D02*
Y255904D01*
Y256585D02*
Y257080D01*
Y265798D02*
Y265990D01*
Y268112D02*
Y268637D01*
X203000Y230722D02*
Y230757D01*
Y231929D02*
Y232378D01*
Y233563D02*
Y233601D01*
Y238247D02*
Y238293D01*
Y239618D02*
Y240059D01*
Y241050D02*
Y241098D01*
Y249095D02*
Y249739D01*
Y254487D02*
Y255904D01*
Y256790D02*
Y257114D01*
Y265798D02*
Y266032D01*
Y268315D02*
Y268637D01*
X203100Y230715D02*
Y230754D01*
Y231987D02*
Y232438D01*
Y233588D02*
Y233618D01*
Y238272D02*
Y238313D01*
Y239668D02*
Y240132D01*
Y241010D02*
Y241084D01*
Y248840D02*
Y249104D01*
Y249670D02*
Y249739D01*
Y254441D02*
Y254558D01*
Y255655D02*
Y255904D01*
Y256954D02*
Y257099D01*
Y265798D02*
Y265885D01*
Y268462D02*
Y268637D01*
X203200Y230715D02*
Y230774D01*
Y232041D02*
Y232498D01*
Y233609D02*
Y233635D01*
Y238297D02*
Y238374D01*
Y239742D02*
Y240232D01*
Y240960D02*
Y241033D01*
Y248585D02*
Y248833D01*
Y249714D02*
Y249739D01*
Y254396D02*
Y254512D01*
Y255826D02*
Y255904D01*
Y257013D02*
Y257124D01*
Y265798D02*
Y265822D01*
Y268513D02*
Y268637D01*
X203300Y230732D02*
Y230794D01*
Y232091D02*
Y232541D01*
Y233589D02*
Y233631D01*
Y238322D02*
Y238449D01*
Y239822D02*
Y240374D01*
Y240803D02*
Y240966D01*
Y248331D02*
Y248561D01*
Y254374D02*
Y254469D01*
Y255894D02*
Y255904D01*
Y257070D02*
Y257149D01*
Y268553D02*
Y268637D01*
X203400Y230769D02*
Y230814D01*
Y232141D02*
Y232581D01*
Y233569D02*
Y233617D01*
Y238369D02*
Y238574D01*
Y239930D02*
Y240887D01*
Y248076D02*
Y248290D01*
Y254366D02*
Y254426D01*
Y257127D02*
Y257174D01*
Y268593D02*
Y268637D01*
X203500Y230794D02*
Y230834D01*
Y232191D02*
Y232658D01*
Y233526D02*
Y233603D01*
Y238332D02*
Y238823D01*
Y240050D02*
Y240767D01*
Y247822D02*
Y248019D01*
Y254358D02*
Y254404D01*
Y257160D02*
Y257199D01*
Y268622D02*
Y268637D01*
X203600Y230819D02*
Y230899D01*
Y232267D02*
Y232758D01*
Y233476D02*
Y233548D01*
Y240337D02*
Y240565D01*
Y247567D02*
Y247747D01*
Y254349D02*
Y254389D01*
Y257185D02*
Y257223D01*
X203700Y230844D02*
Y230974D01*
Y232347D02*
Y232913D01*
Y233310D02*
Y233481D01*
Y247313D02*
Y247476D01*
Y254341D02*
Y254375D01*
Y257210D02*
Y257240D01*
Y267313D02*
Y267321D01*
X203800Y230890D02*
Y231102D01*
Y232457D02*
Y233399D01*
Y247058D02*
Y247438D01*
Y254343D02*
Y254376D01*
Y257231D02*
Y257256D01*
Y267288D02*
Y267321D01*
X203900Y230848D02*
Y231366D01*
Y232577D02*
Y233279D01*
Y246857D02*
Y247666D01*
Y254354D02*
Y254393D01*
Y257214D02*
Y257256D01*
Y267200D02*
Y267321D01*
X204000Y232881D02*
Y233047D01*
Y247095D02*
Y247896D01*
Y254365D02*
Y254410D01*
Y257198D02*
Y257245D01*
Y265987D02*
Y267321D01*
X204100Y247332D02*
Y248125D01*
Y254376D02*
Y254450D01*
Y257174D02*
Y257234D01*
Y265941D02*
Y267321D01*
Y268046D02*
Y268680D01*
Y277609D02*
Y277624D01*
X204200Y247570D02*
Y248355D01*
Y254396D02*
Y254500D01*
Y257134D02*
Y257223D01*
Y265896D02*
Y267321D01*
Y268239D02*
Y268514D01*
Y277609D02*
Y277649D01*
X204300Y247807D02*
Y248584D01*
Y254421D02*
Y254550D01*
Y257094D02*
Y257190D01*
Y265850D02*
Y265964D01*
Y267129D02*
Y267321D01*
Y268384D02*
Y268521D01*
Y277609D02*
Y277674D01*
X204400Y248045D02*
Y248813D01*
Y249724D02*
Y249739D01*
Y254446D02*
Y254629D01*
Y257019D02*
Y257153D01*
Y265805D02*
Y265921D01*
Y267262D02*
Y267321D01*
Y268441D02*
Y268546D01*
Y277609D02*
Y277721D01*
Y280445D02*
Y280448D01*
X204500Y248282D02*
Y249043D01*
Y249693D02*
Y249739D01*
Y254482D02*
Y254709D01*
Y256940D02*
Y257115D01*
Y265790D02*
Y265878D01*
Y268498D02*
Y268571D01*
Y277609D02*
Y277796D01*
Y280420D02*
Y280448D01*
X204600Y248520D02*
Y249257D01*
Y249619D02*
Y249739D01*
Y254549D02*
Y254853D01*
Y256840D02*
Y257049D01*
Y265782D02*
Y265835D01*
Y268555D02*
Y268596D01*
Y277609D02*
Y277875D01*
Y280377D02*
Y280448D01*
X204700Y248757D02*
Y249739D01*
Y254615D02*
Y255028D01*
Y256693D02*
Y256949D01*
Y265774D02*
Y265818D01*
Y268582D02*
Y268621D01*
Y277609D02*
Y277959D01*
Y280327D02*
Y280448D01*
X204800Y248995D02*
Y249739D01*
Y254694D02*
Y255280D01*
Y256443D02*
Y256849D01*
Y265765D02*
Y265804D01*
Y268607D02*
Y268643D01*
Y277609D02*
Y278042D01*
Y280271D02*
Y280448D01*
X204900Y249232D02*
Y249739D01*
Y254777D02*
Y256733D01*
Y265757D02*
Y265790D01*
Y268632D02*
Y268660D01*
Y277609D02*
Y278137D01*
Y280214D02*
Y280448D01*
X205000Y249418D02*
Y249739D01*
Y254883D02*
Y256600D01*
Y265762D02*
Y265797D01*
Y268645D02*
Y268677D01*
Y277609D02*
Y278234D01*
Y280157D02*
Y280448D01*
X205100Y249579D02*
Y249739D01*
Y255083D02*
Y256467D01*
Y265773D02*
Y265813D01*
Y268629D02*
Y268671D01*
Y277609D02*
Y277647D01*
Y277956D02*
Y278330D01*
Y280067D02*
Y280194D01*
Y280341D02*
Y280448D01*
X205200Y249679D02*
Y249739D01*
Y255309D02*
Y256211D01*
Y265784D02*
Y265830D01*
Y268612D02*
Y268660D01*
Y277609D02*
Y277620D01*
Y278056D02*
Y278426D01*
Y279967D02*
Y280009D01*
Y280429D02*
Y280448D01*
X205300Y249719D02*
Y249739D01*
Y265796D02*
Y265877D01*
Y268584D02*
Y268649D01*
Y278153D02*
Y278522D01*
Y279867D02*
Y279901D01*
X205400Y249739D02*
X205400D01*
Y265818D02*
Y265927D01*
Y268544D02*
Y268638D01*
Y278248D02*
Y278618D01*
Y279767D02*
Y279801D01*
X205500Y265843D02*
Y265982D01*
Y268497D02*
Y268600D01*
Y278344D02*
Y278714D01*
Y279667D02*
Y279701D01*
X205600Y265868D02*
Y266062D01*
Y268422D02*
Y268563D01*
Y278440D02*
Y278810D01*
Y279567D02*
Y279601D01*
X205700Y265912D02*
Y266142D01*
Y268338D02*
Y268525D01*
Y278535D02*
Y278907D01*
Y279467D02*
Y279501D01*
X205800Y255310D02*
Y256303D01*
Y265979D02*
Y266303D01*
Y268238D02*
Y268448D01*
Y278631D02*
Y279003D01*
Y279367D02*
Y279401D01*
X205900Y255097D02*
Y256503D01*
Y266045D02*
Y266481D01*
Y268064D02*
Y268348D01*
Y278726D02*
Y279099D01*
Y279267D02*
Y279301D01*
X206000Y254916D02*
Y256668D01*
Y266127D02*
Y266748D01*
Y267814D02*
Y268248D01*
Y278822D02*
Y279216D01*
X206100Y254783D02*
Y256808D01*
Y266210D02*
Y268125D01*
Y277609D02*
Y277631D01*
Y278918D02*
Y279136D01*
Y280426D02*
Y280448D01*
X206200Y254716D02*
Y255243D01*
Y256357D02*
Y256916D01*
Y266338D02*
Y267992D01*
Y277609D02*
Y277686D01*
Y279013D02*
Y279045D01*
Y280356D02*
Y280448D01*
X206300Y254649D02*
Y255070D01*
Y256530D02*
Y256987D01*
Y266538D02*
Y267845D01*
Y277609D02*
Y277857D01*
Y280189D02*
Y280448D01*
X206400Y254596D02*
Y254903D01*
Y256697D02*
Y257059D01*
Y266831D02*
Y267578D01*
Y277609D02*
Y280448D01*
X206500Y254546D02*
Y254760D01*
Y256840D02*
Y257103D01*
Y277609D02*
Y280448D01*
X206600Y254503D02*
Y254685D01*
Y256915D02*
Y257125D01*
Y277609D02*
Y280448D01*
X206700Y254478D02*
Y254610D01*
Y256990D02*
Y257148D01*
Y277609D02*
Y277680D01*
Y280383D02*
Y280448D01*
X206800Y254453D02*
Y254535D01*
Y257065D02*
Y257170D01*
Y277609D02*
Y277637D01*
Y280428D02*
Y280448D01*
X206900Y254428D02*
Y254481D01*
Y257108D02*
Y257182D01*
Y277609D02*
Y277612D01*
Y280448D02*
X206900D01*
X207000Y254415D02*
Y254441D01*
Y257128D02*
Y257189D01*
Y266676D02*
Y267758D01*
X207100Y254403D02*
Y254412D01*
Y257147D02*
Y257197D01*
Y266476D02*
Y267958D01*
X207200Y254392D02*
Y254412D01*
Y257164D02*
Y257205D01*
Y266302D02*
Y268112D01*
X207300Y254381D02*
Y254412D01*
Y257181D02*
Y257212D01*
Y266187D02*
Y267146D01*
Y267248D02*
Y268252D01*
X207400Y254381D02*
Y254412D01*
Y257178D02*
Y257219D01*
Y266121D02*
Y266622D01*
Y267812D02*
Y268347D01*
Y277923D02*
Y278009D01*
X207500Y254381D02*
Y254412D01*
Y257158D02*
Y257219D01*
Y266054D02*
Y266456D01*
Y267979D02*
Y268418D01*
Y277609D02*
Y277876D01*
X207600Y254381D02*
Y254425D01*
Y257138D02*
Y257219D01*
Y266004D02*
Y266289D01*
Y268146D02*
Y268490D01*
Y277609D02*
Y277779D01*
X207700Y254381D02*
Y254441D01*
Y257118D02*
Y257219D01*
Y265954D02*
Y266163D01*
Y268272D02*
Y268525D01*
Y277609D02*
Y277712D01*
X207800Y254381D02*
Y254459D01*
Y257097D02*
Y257219D01*
Y265915D02*
Y266088D01*
Y268347D02*
Y268547D01*
Y277609D02*
Y277672D01*
X207900Y254381D02*
Y257219D01*
Y265890D02*
Y266013D01*
Y268422D02*
Y268569D01*
Y277609D02*
Y277647D01*
X208000Y254381D02*
Y257219D01*
Y265865D02*
Y265938D01*
Y268497D02*
Y268591D01*
Y277609D02*
Y277641D01*
X208100Y254381D02*
Y257219D01*
Y265841D02*
Y265891D01*
Y268529D02*
Y268600D01*
Y277609D02*
Y277641D01*
X208200Y254381D02*
Y254502D01*
Y257138D02*
Y257219D01*
Y265830D02*
Y265851D01*
Y268549D02*
Y268608D01*
Y277609D02*
Y277641D01*
X208300Y254381D02*
Y254413D01*
Y257172D02*
Y257219D01*
Y265819D02*
Y265830D01*
Y268568D02*
Y268616D01*
Y277609D02*
Y277641D01*
X208400Y254381D02*
Y254388D01*
Y257206D02*
Y257219D01*
Y265808D02*
Y265830D01*
Y268585D02*
Y268623D01*
Y277609D02*
Y277641D01*
X208500Y265798D02*
Y265830D01*
Y268601D02*
Y268631D01*
Y277609D02*
Y277641D01*
X208600Y265798D02*
Y265830D01*
Y268591D02*
Y268637D01*
Y277609D02*
Y277641D01*
Y280445D02*
Y280448D01*
X208700Y265798D02*
Y265830D01*
Y268571D02*
Y268637D01*
Y277609D02*
Y277641D01*
Y280411D02*
Y280448D01*
X208800Y265798D02*
Y265845D01*
Y268551D02*
Y268637D01*
Y277609D02*
Y277699D01*
Y280344D02*
Y280448D01*
X208900Y265798D02*
Y265862D01*
Y268531D02*
Y268637D01*
Y277609D02*
Y277850D01*
Y280163D02*
Y280448D01*
X209000Y265798D02*
Y265887D01*
Y268503D02*
Y268637D01*
Y277609D02*
Y280448D01*
X209100Y265798D02*
Y268637D01*
Y277609D02*
Y280448D01*
X209200Y265798D02*
Y268637D01*
Y277609D02*
Y277850D01*
Y280206D02*
Y280448D01*
X209300Y265798D02*
Y268637D01*
Y277609D02*
Y277699D01*
Y280378D02*
Y280448D01*
X209400Y265798D02*
Y265901D01*
Y268563D02*
Y268637D01*
Y277609D02*
Y277634D01*
Y280411D02*
Y280448D01*
X209500Y265798D02*
Y265826D01*
Y268596D02*
Y268637D01*
Y280444D02*
Y280448D01*
X209600Y265798D02*
Y265801D01*
Y268629D02*
Y268637D01*
X210100Y279699D02*
Y280185D01*
X210200Y279924D02*
Y280404D01*
X210300Y277829D02*
Y277843D01*
Y280083D02*
Y280332D01*
X210400Y277746D02*
Y277783D01*
Y280229D02*
Y280332D01*
X210500Y277702D02*
Y277741D01*
Y280296D02*
Y280365D01*
X210600Y277664D02*
Y277701D01*
Y280363D02*
Y280393D01*
X210700Y277627D02*
Y277676D01*
Y280417D02*
Y280422D01*
X210800Y277602D02*
Y277659D01*
Y280432D02*
Y280450D01*
X210900Y277589D02*
Y277642D01*
Y280446D02*
Y280467D01*
X211000Y277577D02*
Y277652D01*
Y280460D02*
Y280483D01*
X211100Y277567D02*
Y277667D01*
Y280444D02*
Y280485D01*
X211200Y277579D02*
Y277681D01*
Y280428D02*
Y280474D01*
X211300Y277592D02*
Y277705D01*
Y280407D02*
Y280463D01*
X211400Y277604D02*
Y277734D01*
Y280374D02*
Y280452D01*
X211500Y277628D02*
Y277762D01*
Y280340D02*
Y280412D01*
X211600Y277657D02*
Y277823D01*
Y280277D02*
Y280362D01*
X211700Y277685D02*
Y277923D01*
Y280177D02*
Y280312D01*
X211800Y277753D02*
Y278035D01*
Y280066D02*
Y280255D01*
X211900Y277833D02*
Y278235D01*
Y279866D02*
Y280183D01*
X212000Y277926D02*
Y278546D01*
Y279482D02*
Y280112D01*
X212100Y278026D02*
Y280015D01*
X212200Y278181D02*
Y279875D01*
X212300Y278381D02*
Y279691D01*
X212400Y278730D02*
Y279391D01*
X212800Y280440D02*
Y280448D01*
X212900Y280415D02*
Y280448D01*
X213000Y280325D02*
Y280448D01*
X213100Y280151D02*
Y280448D01*
X213200Y279851D02*
Y280021D01*
Y280354D02*
Y280448D01*
X213300Y279586D02*
Y279768D01*
Y280409D02*
Y280448D01*
X213400Y279321D02*
Y279504D01*
Y280432D02*
Y280448D01*
X213500Y267147D02*
Y267332D01*
Y279056D02*
Y279240D01*
X213600Y266585D02*
Y267850D01*
Y278791D02*
Y278975D01*
X213700Y266387D02*
Y268048D01*
Y278526D02*
Y278711D01*
X213800Y266262D02*
Y268173D01*
Y278261D02*
Y278447D01*
X213900Y266152D02*
Y266653D01*
Y267663D02*
Y268283D01*
Y277996D02*
Y278188D01*
X214000Y266072D02*
Y266311D01*
Y267972D02*
Y268363D01*
Y277731D02*
Y278237D01*
X214100Y265994D02*
Y266169D01*
Y268180D02*
Y268439D01*
Y277732D02*
Y278537D01*
X214200Y265928D02*
Y266068D01*
Y268336D02*
Y268499D01*
Y277999D02*
Y278837D01*
X214300Y265861D02*
Y265997D01*
Y268419D02*
Y268556D01*
Y278265D02*
Y279137D01*
X214400Y265828D02*
Y265926D01*
Y268502D02*
Y268590D01*
Y278532D02*
Y279437D01*
Y280445D02*
Y280448D01*
X214500Y265811D02*
Y265869D01*
Y268566D02*
Y268623D01*
Y278799D02*
Y279737D01*
Y280420D02*
Y280448D01*
X214600Y265795D02*
Y265844D01*
Y268591D02*
Y268647D01*
Y279065D02*
Y280037D01*
Y280299D02*
Y280448D01*
X214700Y265778D02*
Y265819D01*
Y268616D02*
Y268664D01*
Y279310D02*
Y280448D01*
X214800Y265761D02*
Y265794D01*
Y268641D02*
Y268679D01*
Y279210D02*
Y279455D01*
Y279682D02*
Y280448D01*
X214900Y265763D02*
Y265799D01*
Y268635D02*
Y268665D01*
Y278877D02*
Y279099D01*
Y279961D02*
Y280448D01*
X215000Y265778D02*
Y265824D01*
Y268610D02*
Y268651D01*
Y278543D02*
Y278744D01*
Y280211D02*
Y280448D01*
X215100Y265792D02*
Y265849D01*
Y268585D02*
Y268636D01*
Y278210D02*
Y278388D01*
Y280344D02*
Y280448D01*
X215200Y265808D02*
Y265874D01*
Y268560D02*
Y268616D01*
Y277877D02*
Y278125D01*
Y280424D02*
Y280448D01*
X215300Y265824D02*
Y265950D01*
Y268485D02*
Y268596D01*
Y277565D02*
Y278266D01*
X215400Y265844D02*
Y266033D01*
Y268402D02*
Y268548D01*
Y277695D02*
Y278538D01*
X215500Y265904D02*
Y266123D01*
Y268311D02*
Y268498D01*
Y277970D02*
Y278809D01*
X215600Y265965D02*
Y266323D01*
Y268111D02*
Y268426D01*
Y278245D02*
Y279081D01*
X215700Y266065D02*
Y266523D01*
Y267911D02*
Y268326D01*
Y278520D02*
Y279352D01*
X215800Y266165D02*
Y267155D01*
Y267318D02*
Y268226D01*
Y278795D02*
Y279623D01*
Y280435D02*
Y280448D01*
X215900Y266287D02*
Y268126D01*
Y279070D02*
Y279889D01*
Y280406D02*
Y280448D01*
X216000Y266426D02*
Y267965D01*
Y279345D02*
Y280448D01*
X216100Y266626D02*
Y267712D01*
Y279620D02*
Y280448D01*
X216200Y279895D02*
Y280448D01*
X216300Y280150D02*
Y280448D01*
X216400Y280330D02*
Y280448D01*
X216500Y280420D02*
Y280448D01*
X216600Y280440D02*
Y280448D01*
X216700Y265798D02*
Y265811D01*
Y268624D02*
Y268637D01*
X216800Y265798D02*
Y265840D01*
Y268596D02*
Y268637D01*
X216900Y265798D02*
Y265941D01*
Y268537D02*
Y268637D01*
X217000Y265798D02*
Y268637D01*
X217100Y265798D02*
Y268637D01*
X217200Y265798D02*
Y268637D01*
Y278006D02*
Y278505D01*
X217300Y265798D02*
Y265893D01*
Y268500D02*
Y268637D01*
Y277886D02*
Y278714D01*
X217400Y265798D02*
Y265837D01*
Y268609D02*
Y268637D01*
Y277769D02*
Y278121D01*
Y278138D02*
Y278834D01*
Y279917D02*
Y280357D01*
X217500Y265798D02*
Y265810D01*
Y268629D02*
Y268637D01*
Y277702D02*
Y277861D01*
Y278426D02*
Y278927D01*
Y280108D02*
Y280317D01*
X217600Y277636D02*
Y277735D01*
Y278526D02*
Y279002D01*
Y280234D02*
Y280341D01*
X217700Y277601D02*
Y277685D01*
Y278620D02*
Y279066D01*
Y280284D02*
Y280368D01*
X217800Y277590D02*
Y277640D01*
Y278686D02*
Y279128D01*
Y280334D02*
Y280401D01*
X217900Y277579D02*
Y277620D01*
Y278745D02*
Y279191D01*
Y280384D02*
Y280434D01*
X218000Y277568D02*
Y277600D01*
Y278802D02*
Y279252D01*
Y280424D02*
Y280458D01*
X218100Y266664D02*
Y267771D01*
Y277565D02*
Y277612D01*
Y278859D02*
Y279312D01*
Y280449D02*
Y280475D01*
X218200Y266464D02*
Y267971D01*
Y277565D02*
Y277632D01*
Y278911D02*
Y279367D01*
Y280451D02*
Y280490D01*
X218300Y266292D02*
Y268120D01*
Y277602D02*
Y277652D01*
Y278961D02*
Y279407D01*
Y280431D02*
Y280476D01*
X218400Y266183D02*
Y267109D01*
Y267289D02*
Y268260D01*
Y277629D02*
Y277672D01*
Y279011D02*
Y279449D01*
Y280407D02*
Y280462D01*
X218500Y266116D02*
Y266612D01*
Y267823D02*
Y268351D01*
Y277654D02*
Y277703D01*
Y279069D02*
Y279548D01*
Y280357D02*
Y280439D01*
X218600Y266051D02*
Y266445D01*
Y267989D02*
Y268423D01*
Y277679D02*
Y277778D01*
Y279149D02*
Y279648D01*
Y280282D02*
Y280372D01*
X218700Y266001D02*
Y266279D01*
Y268156D02*
Y268494D01*
Y277714D02*
Y277871D01*
Y279235D02*
Y279881D01*
Y280061D02*
Y280305D01*
X218800Y265951D02*
Y266158D01*
Y268276D02*
Y268526D01*
Y277729D02*
Y278005D01*
Y279355D02*
Y280202D01*
X218900Y265914D02*
Y266083D01*
Y268351D02*
Y268548D01*
Y277663D02*
Y278354D01*
Y279489D02*
Y280082D01*
X219000Y265889D02*
Y266008D01*
Y268426D02*
Y268571D01*
X219100Y265864D02*
Y265933D01*
Y268501D02*
Y268593D01*
X219200Y265840D02*
Y265889D01*
Y268531D02*
Y268601D01*
X219300Y265829D02*
Y265849D01*
Y268551D02*
Y268608D01*
X219400Y265818D02*
Y265830D01*
Y268569D02*
Y268616D01*
X219500Y265807D02*
Y265830D01*
Y268586D02*
Y268624D01*
X219600Y265798D02*
Y265830D01*
Y268602D02*
Y268632D01*
X219700Y265798D02*
Y265830D01*
Y268590D02*
Y268637D01*
X219800Y265798D02*
Y265830D01*
Y268570D02*
Y268637D01*
X219900Y265798D02*
Y265846D01*
Y268550D02*
Y268637D01*
X220000Y265798D02*
Y265863D01*
Y268530D02*
Y268637D01*
X220100Y265798D02*
Y265895D01*
Y268496D02*
Y268637D01*
X220200Y265798D02*
Y268637D01*
X220300Y265798D02*
Y268637D01*
X220400Y265798D02*
Y268637D01*
X220500Y265798D02*
Y265894D01*
Y268565D02*
Y268637D01*
X220600Y265798D02*
Y265824D01*
Y268598D02*
Y268637D01*
X220700Y265798D02*
Y265799D01*
Y268631D02*
Y268637D01*
X221100Y268620D02*
Y268637D01*
X221200Y268581D02*
Y268637D01*
X221300Y268481D02*
Y268637D01*
X221400Y268243D02*
Y268637D01*
X221500Y267955D02*
Y268129D01*
Y268564D02*
Y268637D01*
X221600Y267690D02*
Y267872D01*
Y268607D02*
Y268637D01*
X221700Y267425D02*
Y267608D01*
Y268627D02*
Y268637D01*
X221800Y267160D02*
Y267343D01*
X221900Y266895D02*
Y267079D01*
X222000Y266630D02*
Y266815D01*
X222100Y266365D02*
Y266551D01*
X222200Y266100D02*
Y266357D01*
X222300Y265835D02*
Y266523D01*
X222400Y266007D02*
Y266823D01*
X222500Y266274D02*
Y267123D01*
X222600Y266541D02*
Y267423D01*
X222700Y266807D02*
Y267723D01*
Y268626D02*
Y268637D01*
X222800Y267074D02*
Y268023D01*
Y268600D02*
Y268637D01*
X222900Y267341D02*
Y268323D01*
Y268424D02*
Y268637D01*
X223000Y267509D02*
Y268637D01*
X223100Y267291D02*
Y267529D01*
Y267968D02*
Y268637D01*
X223200Y266958D02*
Y267173D01*
Y268231D02*
Y268637D01*
X223300Y266625D02*
Y266818D01*
Y268481D02*
Y268637D01*
X223400Y266291D02*
Y266462D01*
Y268549D02*
Y268637D01*
X223500Y265958D02*
Y266316D01*
X223600Y265754D02*
Y266543D01*
X223700Y265973D02*
Y266814D01*
X223800Y266248D02*
Y267086D01*
X223900Y266523D02*
Y267357D01*
X224000Y266798D02*
Y267629D01*
X224100Y267073D02*
Y267900D01*
Y268616D02*
Y268637D01*
X224200Y267348D02*
Y268159D01*
Y268527D02*
Y268637D01*
X224300Y267623D02*
Y268637D01*
X224400Y267898D02*
Y268637D01*
X224500Y268169D02*
Y268637D01*
X224600Y268407D02*
Y268637D01*
X224700Y268567D02*
Y268637D01*
X224800Y268616D02*
Y268637D01*
X224900Y268636D02*
Y268637D01*
X225500Y266157D02*
Y266822D01*
X225600Y266037D02*
Y266942D01*
Y267850D02*
Y268660D01*
X225700Y265936D02*
Y266180D01*
Y266488D02*
Y267062D01*
Y268187D02*
Y268530D01*
X225800Y265870D02*
Y266007D01*
Y266647D02*
Y267140D01*
Y268340D02*
Y268513D01*
X225900Y265803D02*
Y265908D01*
Y266747D02*
Y267212D01*
Y268439D02*
Y268538D01*
X226000Y265786D02*
Y265858D01*
Y266830D02*
Y267275D01*
Y268489D02*
Y268567D01*
X226100Y265775D02*
Y265822D01*
Y266895D02*
Y267337D01*
Y268539D02*
Y268601D01*
X226200Y265764D02*
Y265802D01*
Y266953D02*
Y267400D01*
Y268589D02*
Y268634D01*
X226300Y265754D02*
Y265787D01*
Y267010D02*
Y267461D01*
Y268621D02*
Y268653D01*
X226400Y265754D02*
Y265807D01*
Y267067D02*
Y267521D01*
Y268646D02*
Y268669D01*
X226500Y265757D02*
Y265827D01*
Y267117D02*
Y267569D01*
Y268634D02*
Y268675D01*
X226600Y265801D02*
Y265847D01*
Y267167D02*
Y267609D01*
Y268614D02*
Y268660D01*
X226700Y265826D02*
Y265867D01*
Y267217D02*
Y267669D01*
Y268580D02*
Y268646D01*
X226800Y265851D02*
Y265917D01*
Y267284D02*
Y267769D01*
Y268530D02*
Y268606D01*
X226900Y265876D02*
Y265992D01*
Y267364D02*
Y267871D01*
Y268406D02*
Y268540D01*
X227000Y265919D02*
Y266104D01*
Y267462D02*
Y268472D01*
X227100Y265902D02*
Y266293D01*
Y267582D02*
Y268352D01*
X227200Y265755D02*
Y266656D01*
Y267807D02*
Y268232D01*
X246300Y371137D02*
Y371998D01*
X246400Y370898D02*
Y372198D01*
X246500Y370708D02*
Y372379D01*
X246600Y370548D02*
Y372519D01*
X246700Y370482D02*
Y371148D01*
Y371935D02*
Y372645D01*
X246800Y370415D02*
Y370862D01*
Y372234D02*
Y372717D01*
X246900Y370357D02*
Y370695D01*
Y372401D02*
Y372788D01*
X247000Y370307D02*
Y370529D01*
Y372567D02*
Y372845D01*
X247100Y370257D02*
Y370453D01*
Y372643D02*
Y372868D01*
X247200Y370232D02*
Y370378D01*
Y372718D02*
Y372890D01*
X247300Y370207D02*
Y370303D01*
Y372793D02*
Y372912D01*
X247400Y370182D02*
Y370240D01*
Y372851D02*
Y372928D01*
X247500Y370166D02*
Y370200D01*
Y372871D02*
Y372935D01*
X247600Y370154D02*
Y370161D01*
Y372891D02*
Y372943D01*
X247700Y370143D02*
Y370160D01*
Y372908D02*
Y372951D01*
X247800Y370132D02*
Y370160D01*
Y372924D02*
Y372958D01*
X247900Y370129D02*
Y370160D01*
Y372931D02*
Y372966D01*
X248000Y370129D02*
Y370160D01*
Y372911D02*
Y372967D01*
X248100Y370129D02*
Y370168D01*
Y372891D02*
Y372967D01*
X248200Y370129D02*
Y370185D01*
Y372871D02*
Y372967D01*
X248300Y370129D02*
Y370202D01*
Y372851D02*
Y372967D01*
X248400Y370129D02*
Y372967D01*
X248500Y370129D02*
Y372967D01*
X248600Y370129D02*
Y372967D01*
X248700Y370129D02*
Y370285D01*
Y372853D02*
Y372967D01*
X248800Y370129D02*
Y370176D01*
Y372912D02*
Y372967D01*
X248900Y370129D02*
Y370143D01*
Y372945D02*
Y372967D01*
X249500Y372947D02*
Y372967D01*
X249600Y372895D02*
Y372967D01*
X249700Y372763D02*
Y372967D01*
X249800Y370166D02*
Y370716D01*
Y372732D02*
Y372967D01*
X249900Y370288D02*
Y370724D01*
Y372898D02*
Y372967D01*
X250000Y370411D02*
Y370848D01*
Y372931D02*
Y372967D01*
X250100Y370534D02*
Y370972D01*
Y372965D02*
Y372967D01*
X250200Y370657D02*
Y371096D01*
X250300Y370779D02*
Y371220D01*
X250400Y370902D02*
Y371343D01*
X250500Y371025D02*
Y371467D01*
X250600Y371148D02*
Y371591D01*
X250700Y371270D02*
Y371715D01*
X250800Y371393D02*
Y371839D01*
X250900Y371516D02*
Y371962D01*
X251000Y371638D02*
Y372086D01*
X251100Y371761D02*
Y372210D01*
X251200Y371884D02*
Y372334D01*
X251300Y372007D02*
Y372458D01*
X251400Y372129D02*
Y372582D01*
X251500Y372252D02*
Y372705D01*
X251600Y370129D02*
Y370165D01*
Y372375D02*
Y372829D01*
X251700Y370129D02*
Y370264D01*
Y372452D02*
Y372953D01*
X251800Y370129D02*
Y372967D01*
X251900Y370129D02*
Y370234D01*
Y372768D02*
Y372967D01*
X252000Y370129D02*
Y370157D01*
Y372835D02*
Y372967D01*
X252100Y370129D02*
Y370132D01*
Y372876D02*
Y372967D01*
X252200Y372916D02*
Y372967D01*
X252300Y372948D02*
Y372967D01*
X252500Y371649D02*
Y371652D01*
X252600Y371624D02*
Y371652D01*
X252700Y371549D02*
Y371652D01*
X252800Y370326D02*
Y371652D01*
X252900Y370280D02*
Y371652D01*
Y372333D02*
Y372828D01*
X253000Y370235D02*
Y371652D01*
Y372538D02*
Y372862D01*
X253100Y370189D02*
Y370306D01*
Y371403D02*
Y371652D01*
Y372702D02*
Y372847D01*
X253200Y370144D02*
Y370260D01*
Y371574D02*
Y371652D01*
Y372761D02*
Y372872D01*
X253300Y370122D02*
Y370217D01*
Y371643D02*
Y371652D01*
Y372818D02*
Y372897D01*
X253400Y370114D02*
Y370174D01*
Y372875D02*
Y372922D01*
X253500Y370106D02*
Y370152D01*
Y372908D02*
Y372947D01*
X253600Y370097D02*
Y370137D01*
Y372933D02*
Y372971D01*
X253700Y370089D02*
Y370123D01*
Y372958D02*
Y372988D01*
X253800Y370091D02*
Y370124D01*
Y372979D02*
Y373004D01*
X253900Y370102D02*
Y370141D01*
Y372962D02*
Y373004D01*
X254000Y370113D02*
Y370158D01*
Y372946D02*
Y372993D01*
X254100Y370124D02*
Y370198D01*
Y372922D02*
Y372982D01*
X254200Y370144D02*
Y370248D01*
Y372882D02*
Y372971D01*
X254300Y370169D02*
Y370298D01*
Y372842D02*
Y372938D01*
X254400Y370194D02*
Y370378D01*
Y372767D02*
Y372901D01*
X254500Y370230D02*
Y370458D01*
Y372688D02*
Y372863D01*
X254600Y370297D02*
Y370601D01*
Y372588D02*
Y372798D01*
X254700Y370363D02*
Y370776D01*
Y372441D02*
Y372698D01*
X254800Y370442D02*
Y371028D01*
Y372191D02*
Y372598D01*
X254900Y370525D02*
Y372481D01*
X255000Y370631D02*
Y372348D01*
X255100Y370831D02*
Y372215D01*
X255200Y371057D02*
Y371959D01*
X255600Y370129D02*
Y370131D01*
X255700Y370129D02*
Y370165D01*
X255800Y370129D02*
Y370198D01*
X255900Y370129D02*
Y370298D01*
X256000Y370129D02*
Y370477D01*
X256100Y370129D02*
Y370687D01*
X256200Y370129D02*
Y370926D01*
X256300Y370129D02*
Y371165D01*
X256400Y370129D02*
Y370167D01*
Y370624D02*
Y371404D01*
X256500Y370843D02*
Y371644D01*
X256600Y371068D02*
Y371883D01*
X256700Y371094D02*
Y371125D01*
Y371343D02*
Y372122D01*
X256800Y371094D02*
Y371125D01*
Y371598D02*
Y372361D01*
X256900Y371094D02*
Y371125D01*
Y371852D02*
Y372600D01*
X257000Y371094D02*
Y371125D01*
Y372107D02*
Y372839D01*
X257100Y371094D02*
Y371125D01*
Y372361D02*
Y372896D01*
X257200Y371094D02*
Y371125D01*
Y372443D02*
Y372667D01*
X257300Y371094D02*
Y371125D01*
Y372242D02*
Y372438D01*
X257400Y371094D02*
Y371125D01*
Y372027D02*
Y372209D01*
X257500Y371094D02*
Y371125D01*
Y371812D02*
Y371979D01*
X257600Y371094D02*
Y371125D01*
Y371596D02*
Y371750D01*
X257700Y371094D02*
Y371125D01*
Y371381D02*
Y371521D01*
X257800Y371091D02*
Y371292D01*
X257900Y370924D02*
Y371063D01*
X258000Y370129D02*
Y370153D01*
Y370724D02*
Y370834D01*
X258100Y370129D02*
Y370265D01*
Y370436D02*
Y370607D01*
X258200Y370129D02*
Y370407D01*
X258300Y370129D02*
Y370282D01*
X258400Y370129D02*
Y370197D01*
X258500Y370129D02*
Y370153D01*
X259600Y371992D02*
Y372348D01*
X259700Y371766D02*
Y372642D01*
X259800Y371638D02*
Y372742D01*
X259900Y371581D02*
Y372816D01*
X260000Y371524D02*
Y371908D01*
Y372462D02*
Y372856D01*
X260100Y371483D02*
Y371738D01*
Y372622D02*
Y372888D01*
X260200Y371472D02*
Y371624D01*
Y372742D02*
Y372904D01*
X260300Y371461D02*
Y371549D01*
Y372847D02*
Y372921D01*
X260400Y371450D02*
Y371510D01*
Y372875D02*
Y372934D01*
X260500Y371445D02*
Y371490D01*
Y372904D02*
Y372947D01*
X260600Y371445D02*
Y371476D01*
Y372932D02*
Y372959D01*
X260700Y371451D02*
Y371476D01*
Y372925D02*
Y372967D01*
X260800Y371468D02*
Y371494D01*
Y372910D02*
Y372967D01*
X260900Y370129D02*
Y370202D01*
Y371485D02*
Y371514D01*
Y372896D02*
Y372967D01*
X261000Y370129D02*
Y372967D01*
X261100Y370129D02*
Y372967D01*
X261200Y370129D02*
Y372967D01*
X261300Y370129D02*
Y370315D01*
Y372808D02*
Y372967D01*
X261400Y370129D02*
Y370191D01*
Y372916D02*
Y372967D01*
X261500Y370129D02*
Y370147D01*
Y372949D02*
Y372967D01*
X262100Y371056D02*
Y372053D01*
X262200Y370843D02*
Y372253D01*
X262300Y370663D02*
Y372417D01*
X262400Y370530D02*
Y372557D01*
X262500Y370463D02*
Y370987D01*
Y372109D02*
Y372664D01*
X262600Y370397D02*
Y370817D01*
Y372280D02*
Y372736D01*
X262700Y370344D02*
Y370650D01*
Y372446D02*
Y372807D01*
X262800Y370294D02*
Y370507D01*
Y372589D02*
Y372851D01*
X262900Y370251D02*
Y370432D01*
Y372664D02*
Y372874D01*
X263000Y370226D02*
Y370357D01*
Y372739D02*
Y372896D01*
X263100Y370201D02*
Y370282D01*
Y372814D02*
Y372918D01*
X263200Y370176D02*
Y370229D01*
Y372857D02*
Y372930D01*
X263300Y370162D02*
Y370189D01*
Y372877D02*
Y372937D01*
X263400Y370151D02*
Y370160D01*
Y372896D02*
Y372945D01*
X263500Y370140D02*
Y370160D01*
Y372912D02*
Y372953D01*
X263600Y370129D02*
Y370160D01*
Y372929D02*
Y372960D01*
X263700Y370129D02*
Y370160D01*
Y372926D02*
Y372967D01*
X263800Y370129D02*
Y370160D01*
Y372906D02*
Y372967D01*
X263900Y370129D02*
Y370173D01*
Y372886D02*
Y372967D01*
X264000Y370129D02*
Y370190D01*
Y372866D02*
Y372967D01*
X264100Y370129D02*
Y370207D01*
Y372845D02*
Y372967D01*
X264200Y370129D02*
Y372967D01*
X264300Y370129D02*
Y372967D01*
X264400Y370129D02*
Y372967D01*
X264500Y370129D02*
Y370249D01*
Y372887D02*
Y372967D01*
X264600Y370129D02*
Y370161D01*
Y372921D02*
Y372967D01*
X264700Y370129D02*
Y370136D01*
Y372954D02*
Y372967D01*
X267600Y372962D02*
Y372967D01*
X267700Y370129D02*
Y370136D01*
Y372937D02*
Y372967D01*
X267800Y370129D02*
Y370203D01*
Y372855D02*
Y372967D01*
X267900Y370129D02*
Y372967D01*
X268000Y370129D02*
Y372967D01*
X268100Y370129D02*
Y372967D01*
X268200Y370129D02*
Y370324D01*
Y372578D02*
Y372866D01*
X268300Y370129D02*
Y370196D01*
Y372495D02*
Y372662D01*
X268400Y370129D02*
Y370148D01*
Y372288D02*
Y372458D01*
X268500Y372080D02*
Y372254D01*
X268600Y371873D02*
Y372050D01*
X268700Y371665D02*
Y371847D01*
X268800Y371458D02*
Y371643D01*
X268900Y371251D02*
Y371439D01*
X269000Y371043D02*
Y371235D01*
X269100Y370836D02*
Y371031D01*
X269200Y370628D02*
Y370827D01*
X269300Y370421D02*
Y370648D01*
X269400Y370213D02*
Y370744D01*
X269500Y370298D02*
Y370965D01*
X269600Y370513D02*
Y371186D01*
X269700Y370729D02*
Y371407D01*
X269800Y370944D02*
Y371628D01*
X269900Y371160D02*
Y371849D01*
X270000Y371375D02*
Y372069D01*
X270100Y371590D02*
Y372290D01*
X270200Y371806D02*
Y372511D01*
X270300Y372021D02*
Y372732D01*
X270400Y372237D02*
Y372953D01*
X270500Y370129D02*
Y370161D01*
Y372452D02*
Y372967D01*
X270600Y370129D02*
Y370247D01*
Y372584D02*
Y372967D01*
X270700Y370129D02*
Y372967D01*
X270800Y370129D02*
Y370240D01*
Y372856D02*
Y372967D01*
X270900Y370129D02*
Y370159D01*
Y372938D02*
Y372967D01*
X271000Y370129D02*
Y370134D01*
X271500Y371202D02*
Y371798D01*
X271600Y370941D02*
Y372155D01*
X271700Y370744D02*
Y372349D01*
X271800Y370578D02*
Y372489D01*
X271900Y370496D02*
Y371279D01*
Y371794D02*
Y372629D01*
X272000Y370429D02*
Y370898D01*
Y372198D02*
Y372701D01*
X272100Y370368D02*
Y370731D01*
Y372365D02*
Y372772D01*
X272200Y370318D02*
Y370565D01*
Y372532D02*
Y372841D01*
X272300Y370268D02*
Y370469D01*
Y372627D02*
Y372863D01*
X272400Y370238D02*
Y370394D01*
Y372702D02*
Y372885D01*
X272500Y370213D02*
Y370319D01*
Y372777D02*
Y372907D01*
X272600Y370188D02*
Y370249D01*
Y372847D02*
Y372926D01*
X272700Y370168D02*
Y370209D01*
Y372867D02*
Y372934D01*
X272800Y370157D02*
Y370169D01*
Y372887D02*
Y372941D01*
X272900Y370146D02*
Y370160D01*
Y372904D02*
Y372949D01*
X273000Y370135D02*
Y370160D01*
Y372921D02*
Y372957D01*
X273100Y370129D02*
Y370160D01*
Y372935D02*
Y372964D01*
X273200Y370129D02*
Y370160D01*
Y372915D02*
Y372967D01*
X273300Y370129D02*
Y370165D01*
Y372895D02*
Y372967D01*
X273400Y370129D02*
Y370181D01*
Y372875D02*
Y372967D01*
X273500Y370129D02*
Y370198D01*
Y372855D02*
Y372967D01*
X273600Y370129D02*
Y372967D01*
X273700Y370129D02*
Y372967D01*
X273800Y370129D02*
Y372967D01*
X273900Y370129D02*
Y370328D01*
Y372787D02*
Y372967D01*
X274000Y370129D02*
Y370198D01*
Y372904D02*
Y372967D01*
X274100Y370129D02*
Y370148D01*
Y372938D02*
Y372967D01*
X276100Y359108D02*
Y359609D01*
X276200Y358988D02*
Y359817D01*
X276300Y358871D02*
Y359221D01*
Y359242D02*
Y359937D01*
Y361020D02*
Y361459D01*
X276400Y358804D02*
Y358963D01*
Y359529D02*
Y360030D01*
Y361210D02*
Y361419D01*
X276500Y358738D02*
Y358837D01*
Y359629D02*
Y360105D01*
Y361337D02*
Y361444D01*
X276600Y358703D02*
Y358787D01*
Y359722D02*
Y360168D01*
Y361387D02*
Y361470D01*
X276700Y358692D02*
Y358742D01*
Y359789D02*
Y360231D01*
Y361437D02*
Y361504D01*
X276800Y358681D02*
Y358722D01*
Y359848D02*
Y360293D01*
Y361487D02*
Y361537D01*
X276900Y358670D02*
Y358702D01*
Y359905D02*
Y360355D01*
Y361526D02*
Y361561D01*
X277000Y358668D02*
Y358714D01*
Y359962D02*
Y360415D01*
Y361551D02*
Y361577D01*
X277100Y358668D02*
Y358734D01*
Y360014D02*
Y360469D01*
Y361553D02*
Y361593D01*
X277200Y358704D02*
Y358754D01*
Y360064D02*
Y360509D01*
Y361533D02*
Y361578D01*
X277300Y358731D02*
Y358774D01*
Y360114D02*
Y360551D01*
Y361509D02*
Y361564D01*
X277400Y358756D02*
Y358806D01*
Y360172D02*
Y360651D01*
Y361459D02*
Y361541D01*
X277500Y358781D02*
Y358881D01*
Y360252D02*
Y360751D01*
Y361383D02*
Y361474D01*
X277600Y358817D02*
Y358974D01*
Y360337D02*
Y360985D01*
Y361163D02*
Y361408D01*
X277700Y358831D02*
Y359108D01*
Y360457D02*
Y361304D01*
X277800Y358765D02*
Y359457D01*
Y360593D02*
Y361184D01*
X278500Y361530D02*
Y361550D01*
X278600Y361481D02*
Y361550D01*
X278700Y361328D02*
Y361550D01*
X278800Y359234D02*
Y359441D01*
Y361303D02*
Y361550D01*
X278900Y359054D02*
Y359153D01*
Y361480D02*
Y361550D01*
X279000Y358947D02*
Y359020D01*
Y361513D02*
Y361550D01*
X279100Y358867D02*
Y358926D01*
Y361546D02*
Y361550D01*
X279200Y358805D02*
Y358851D01*
X279300Y358755D02*
Y358804D01*
X279400Y358709D02*
Y358764D01*
X279500Y358698D02*
Y358737D01*
X279600Y358687D02*
Y358723D01*
X279700Y358676D02*
Y358709D01*
X279800Y358671D02*
Y358699D01*
X279900Y358681D02*
Y358699D01*
X280000Y358691D02*
Y358721D01*
X280100Y358701D02*
Y358771D01*
X280200Y358712D02*
Y358830D01*
X280300Y358755D02*
Y358896D01*
Y361541D02*
Y361550D01*
X280400Y358798D02*
Y358963D01*
Y361516D02*
Y361550D01*
X280500Y358848D02*
Y359270D01*
Y361423D02*
Y361550D01*
X280600Y358948D02*
Y361550D01*
X280700Y359098D02*
Y361550D01*
X280800Y359322D02*
Y361550D01*
X280900Y361368D02*
Y361550D01*
X281000Y361481D02*
Y361550D01*
X281100Y361526D02*
Y361550D01*
X281700Y359168D02*
Y359744D01*
X281800Y359027D02*
Y359869D01*
Y360784D02*
Y360844D01*
X281900Y358927D02*
Y359955D01*
Y360478D02*
Y361140D01*
X282000Y358864D02*
Y360025D01*
Y360362D02*
Y361259D01*
X282100Y358804D02*
Y359101D01*
Y359790D02*
Y360058D01*
Y360287D02*
Y361359D01*
X282200Y358767D02*
Y358976D01*
Y359890D02*
Y360091D01*
Y360227D02*
Y360660D01*
Y360979D02*
Y361415D01*
X282300Y358733D02*
Y358898D01*
Y359974D02*
Y360368D01*
Y361221D02*
Y361458D01*
X282400Y358711D02*
Y358848D01*
Y360049D02*
Y360284D01*
Y361348D02*
Y361501D01*
X282500Y358711D02*
Y358798D01*
Y360081D02*
Y360230D01*
Y361398D02*
Y361525D01*
X282600Y358711D02*
Y358778D01*
Y360098D02*
Y360205D01*
Y361448D02*
Y361545D01*
X282700Y358711D02*
Y358766D01*
Y360114D02*
Y360190D01*
Y361479D02*
Y361550D01*
X282800Y358711D02*
Y358753D01*
Y360131D02*
Y360190D01*
Y361492D02*
Y361550D01*
X282900Y358711D02*
Y358744D01*
Y360148D02*
Y360190D01*
Y361504D02*
Y361550D01*
X283000Y358711D02*
Y358753D01*
Y360159D02*
Y360190D01*
Y361517D02*
Y361550D01*
X283100Y358711D02*
Y358762D01*
Y360159D02*
Y360190D01*
Y361508D02*
Y361550D01*
X283200Y358711D02*
Y358772D01*
Y360158D02*
Y360191D01*
Y361496D02*
Y361550D01*
X283300Y358711D02*
Y358781D01*
Y360133D02*
Y360216D01*
Y361483D02*
Y361550D01*
X283400Y358711D02*
Y358800D01*
Y360102D02*
Y360247D01*
Y361462D02*
Y361550D01*
X283500Y358711D02*
Y361550D01*
X283600Y358711D02*
Y361550D01*
X283700Y358711D02*
Y361550D01*
X283800Y358711D02*
Y358815D01*
Y361476D02*
Y361550D01*
X283900Y358711D02*
Y358740D01*
Y361509D02*
Y361550D01*
X284000Y358711D02*
Y358715D01*
Y361542D02*
Y361550D01*
X284500Y361516D02*
Y361550D01*
X284600Y361476D02*
Y361550D01*
X284700Y361357D02*
Y361550D01*
X284800Y361133D02*
Y361550D01*
X284900Y360880D02*
Y361140D01*
Y361315D02*
Y361550D01*
X285000Y360625D02*
Y360887D01*
Y361486D02*
Y361550D01*
X285100Y360370D02*
Y360616D01*
Y361529D02*
Y361550D01*
X285200Y360116D02*
Y360345D01*
X285300Y359861D02*
Y360073D01*
X285400Y359607D02*
Y359802D01*
X285500Y359352D02*
Y359530D01*
X285600Y359098D02*
Y359259D01*
X285700Y358843D02*
Y359271D01*
X285800Y358693D02*
Y359501D01*
X285900Y358930D02*
Y359730D01*
X286000Y359168D02*
Y359960D01*
X286100Y359405D02*
Y360189D01*
X286200Y359643D02*
Y360419D01*
X286300Y359880D02*
Y360648D01*
Y361532D02*
Y361550D01*
X286400Y360118D02*
Y360877D01*
Y361499D02*
Y361550D01*
X286500Y360355D02*
Y361089D01*
Y361410D02*
Y361550D01*
X286600Y360593D02*
Y361550D01*
X286700Y360830D02*
Y361550D01*
X286800Y361068D02*
Y361550D01*
X286900Y361245D02*
Y361550D01*
X287000Y361401D02*
Y361550D01*
X287100Y361501D02*
Y361550D01*
X287200Y361532D02*
Y361550D01*
*
G04 PC Custom Flashes*
G04 Layer Name alarm03.pcb - flashes*
%LPD*%
*
*
G04 PC Circuitry*
G04 Layer Name alarm03.pcb - circuitry*
%LPD*%
*
G54D35*
X231299Y363780D02*
X229749D01*
Y363091*
X229306*
Y363780*
X227756*
Y352756*
X231299*
Y363780*
X251515Y341750D02*
X242480D01*
Y358250*
X251515*
X264815Y341750D02*
X273315D01*
Y358250*
X264815*
X262906Y358142D02*
X253906D01*
X259906Y361142D02*
Y355142D01*
X256906Y358142*
X259906Y361142*
X256906D02*
Y355142D01*
X241815Y341700D02*
X241015D01*
Y358300*
X241815*
Y341700*
X274921Y148246D02*
Y157246D01*
X283921*
Y148246*
X274921Y143246D02*
Y135746D01*
X276421Y134246*
X282421*
X283921Y135746*
Y143246*
X264685Y148246D02*
Y157246D01*
X273685*
Y148246*
X264685Y143246D02*
Y135746D01*
X266185Y134246*
X272185*
X273685Y135746*
Y143246*
X386220Y244094D02*
G75*
G03X386220I-133858J0D01*
G01X351358D02*
G03X351358I-5905J0D01*
G01X165177D02*
G03X165177I-5905J0D01*
G54D37*
G01X185002Y212574D02*
X181721D01*
X185002D02*
Y213597D01*
X184846Y213937*
X184690Y214051*
X184377Y214165*
X184065*
X183752Y214051*
X183596Y213937*
X183440Y213597*
Y212574*
Y213369D02*
X181721Y214165D01*
X184377Y215187D02*
X184534Y215415D01*
X185002Y215756*
X181721*
X185002Y218369D02*
X181721Y217233D01*
X185002Y216778D02*
Y218369D01*
X201144Y212574D02*
X197863D01*
X201144D02*
Y213597D01*
X200988Y213937*
X200832Y214051*
X200519Y214165*
X200207*
X199894Y214051*
X199738Y213937*
X199582Y213597*
Y212574*
Y213369D02*
X197863Y214165D01*
X200519Y215187D02*
X200675Y215415D01*
X201144Y215756*
X197863*
X201144Y217347D02*
X200988Y217006D01*
X200675Y216892*
X200363*
X200050Y217006*
X199894Y217233*
X199738Y217687*
X199582Y218028*
X199269Y218256*
X198957Y218369*
X198488*
X198175Y218256*
X198019Y218142*
X197863Y217801*
Y217347*
X198019Y217006*
X198175Y216892*
X198488Y216778*
X198957*
X199269Y216892*
X199582Y217119*
X199738Y217460*
X199894Y217915*
X200050Y218142*
X200363Y218256*
X200675*
X200988Y218142*
X201144Y217801*
Y217347*
X340307Y308568D02*
Y305287D01*
Y308568D02*
X339285D01*
X338944Y308412*
X338830Y308255*
X338716Y307943*
Y307630*
X338830Y307318*
X338944Y307162*
X339285Y307005*
X340307*
X339512D02*
X338716Y305287D01*
X336557Y308568D02*
X337694Y306380D01*
X335989*
X336557Y308568D02*
Y305287D01*
X334739Y308568D02*
X333489D01*
X334171Y307318*
X333830*
X333603Y307162*
X333489Y307005*
X333376Y306537*
Y306224*
X333489Y305755*
X333716Y305443*
X334057Y305287*
X334398*
X334739Y305443*
X334853Y305599*
X334966Y305912*
X350881Y297211D02*
X353225D01*
X353693Y297098*
X354006Y296871*
X354162Y296530*
Y296302*
X354006Y295961*
X353693Y295734*
X353225Y295621*
X350881*
Y293007D02*
X354162Y294143D01*
X350881Y294598D02*
Y293007D01*
X350207Y313292D02*
Y310011D01*
Y313292D02*
X349184D01*
X348843Y313136*
X348729Y312980*
X348616Y312667*
Y312355*
X348729Y312042*
X348843Y311886*
X349184Y311730*
X350207*
X349411D02*
X348616Y310011D01*
X346457Y313292D02*
X347593Y311105D01*
X345889*
X346457Y313292D02*
Y310011D01*
X343389Y313292D02*
X344525D01*
X344639Y311886*
X344525Y312042*
X344184Y312199*
X343843*
X343502Y312042*
X343275Y311730*
X343161Y311261*
X343275Y310949*
X343389Y310480*
X343616Y310167*
X343957Y310011*
X344298*
X344639Y310167*
X344752Y310324*
X344866Y310636*
X266842Y244987D02*
X267154Y244874D01*
X267467Y244647*
X267623Y244419*
Y243965*
X267467Y243737*
X267154Y243510*
X266842Y243397*
X266373Y243283*
X265592*
X265123Y243397*
X264811Y243510*
X264498Y243737*
X264342Y243965*
Y244419*
X264498Y244647*
X264811Y244874*
X265123Y244987*
X267623Y247601D02*
X264342Y246465D01*
X267623Y246010D02*
Y247601D01*
X249558Y258968D02*
X249671Y259280D01*
X249898Y259593*
X250126Y259749*
X250580*
X250808Y259593*
X251035Y259280*
X251148Y258968*
X251262Y258499*
Y257718*
X251148Y257249*
X251035Y256937*
X250808Y256624*
X250580Y256468*
X250126*
X249898Y256624*
X249671Y256937*
X249558Y257249*
X247398Y259749D02*
X248535Y257562D01*
X246830*
X247398Y259749D02*
Y256468D01*
X226747Y368467D02*
Y366123D01*
X226747D02*
X226634Y365655D01*
X226407Y365342*
X226066Y365186*
X225838*
X225497Y365342*
X225497D02*
X225270Y365655D01*
X225157Y366123*
Y368467*
X222657D02*
X223793D01*
X223907Y367061*
X223793Y367217*
X223452Y367373*
X223111*
X222770Y367217*
X222543Y366905*
X222429Y366436*
X222543Y366123*
X222657Y365655*
X222884Y365342*
X223225Y365186*
X223566*
X223907Y365342*
X224020Y365498*
X224134Y365811*
X250958Y140858D02*
X251071Y141170D01*
X251299Y141483*
X251526Y141639*
X251981*
X252208Y141483*
X252435Y141170*
X252549Y140858*
X252662Y140389*
Y139608*
X252549Y139139*
X252435Y138826*
X252208Y138514*
X251981Y138358*
X251526*
X251299Y138514*
X251071Y138826*
X250958Y139139*
X249935Y141014D02*
X249708Y141170D01*
X249367Y141639*
Y138358*
X225441Y300750D02*
Y297469D01*
Y300750D02*
X224418D01*
X224077Y300594*
X223963Y300438*
X223850Y300125*
Y299813*
X223963Y299500*
X224077Y299344*
X224418Y299188*
X225441*
X224645D02*
X223850Y297469D01*
X221691Y300750D02*
X222827Y298563D01*
X221122*
X221691Y300750D02*
Y297469D01*
X218509Y300750D02*
X219645Y297469D01*
X220100Y300750D02*
X218509D01*
X225441Y296420D02*
Y293139D01*
Y296420D02*
X224418D01*
X224077Y296264*
X223963Y296107*
X223850Y295795*
Y295482*
X223963Y295170*
X224077Y295014*
X224418Y294857*
X225441*
X224645D02*
X223850Y293139D01*
X221691Y296420D02*
X222827Y294232D01*
X221122*
X221691Y296420D02*
Y293139D01*
X219532Y296420D02*
X219872Y296264D01*
X219986Y295951*
Y295639*
X219872Y295326*
X219645Y295170*
X219191Y295014*
X218850Y294857*
X218622Y294545*
X218509Y294232*
Y293764*
X218622Y293451*
X218736Y293295*
X219077Y293139*
X219532*
X219872Y293295*
X219986Y293451*
X220100Y293764*
Y294232*
X219986Y294545*
X219759Y294857*
X219418Y295014*
X218963Y295170*
X218736Y295326*
X218622Y295639*
Y295951*
X218736Y296264*
X219077Y296420*
X219532*
X251148Y249513D02*
Y246232D01*
Y249513D02*
X250126D01*
X249785Y249357*
X249671Y249200*
X249558Y248888*
Y248575*
X249671Y248263*
X249785Y248107*
X250126Y247950*
X251148*
X250353D02*
X249558Y246232D01*
X248308Y249513D02*
X247058D01*
X247739Y248263*
X247398*
X247171Y248107*
X247058Y247950*
X246944Y247482*
Y247169*
X247058Y246700*
X247285Y246388*
X247626Y246232*
X247967*
X248308Y246388*
X248421Y246544*
X248535Y246857*
X290141Y293431D02*
X290254Y293744D01*
X290481Y294056*
X290709Y294212*
X291163*
X291391Y294056*
X291391D02*
X291618Y293744D01*
X291731Y293431*
X291845Y292962*
Y292181*
X291731Y291712*
X291618Y291400*
X291391Y291087*
X291391D02*
X291163Y290931D01*
X290709*
X290481Y291087*
X290254Y291400*
X290141Y291712*
X287981Y294212D02*
X289118Y292025D01*
X287413*
X287981Y294212D02*
Y290931D01*
X286163Y294212D02*
X284913D01*
X285595Y292962*
X285254*
X285027Y292806*
X284913Y292650*
X284800Y292181*
Y291869*
X284913Y291400*
X285141Y291087*
X285141D02*
X285481Y290931D01*
X285822*
X286163Y291087*
X286277Y291244*
X286391Y291556*
X291673Y289238D02*
Y285957D01*
Y289238D02*
X290651D01*
X290310Y289082*
X290196Y288925*
X290083Y288613*
Y288300*
X290196Y287988*
X290310Y287832*
X290651Y287675*
X291673*
X290878D02*
X290083Y285957D01*
X287696Y288769D02*
X287810Y289082D01*
X288151Y289238*
X288378*
X288719Y289082*
X288946Y288613*
X289060Y287832*
Y287050*
X288946Y286425*
X288719Y286113*
X288378Y285957*
X288264*
X287923Y286113*
X287696Y286425*
X287583Y286894*
Y287050*
X287696Y287519*
X287923Y287832*
X288264Y287988*
X288378*
X288719Y287832*
X288946Y287519*
X289060Y287050*
X284969Y289238D02*
X286105Y285957D01*
X286560Y289238D02*
X284969D01*
X239283Y239813D02*
X239595Y239699D01*
X239908Y239472*
X240064Y239244*
Y238790*
X239908Y238563*
X239595Y238335*
X239283Y238222*
X238814Y238108*
X238033*
X237564Y238222*
X237251Y238335*
X236939Y238563*
X236783Y238790*
Y239244*
X236939Y239472*
X237251Y239699*
X237564Y239813*
X240064Y242313D02*
Y241176D01*
X238658Y241063*
X238814Y241176*
X238970Y241517*
Y241858*
X238814Y242199*
X238501Y242426*
X238033Y242540*
X237720Y242426*
X237251Y242313*
X236939Y242085*
X236783Y241744*
Y241403*
X236939Y241063*
X237095Y240949*
X237408Y240835*
X262117Y254887D02*
X262430Y254773D01*
X262742Y254546*
X262899Y254319*
Y253864*
X262742Y253637*
X262430Y253410*
X262117Y253296*
X261649Y253182*
X260867*
X260399Y253296*
X260086Y253410*
X259774Y253637*
X259617Y253864*
Y254319*
X259774Y254546*
X260086Y254773*
X260399Y254887*
X262430Y257273D02*
X262742Y257160D01*
X262899Y256819*
Y256591*
X262742Y256250*
X262274Y256023*
X261492Y255910*
X260711*
X260086Y256023*
X259774Y256250*
X259617Y256591*
Y256705*
X259774Y257046*
X260086Y257273*
X260555Y257387*
X260711*
X261180Y257273*
X261492Y257046*
X261649Y256705*
Y256591*
X261492Y256250*
X261180Y256023*
X260711Y255910*
G54D38*
X181843Y225266D02*
Y228831D01*
X185874*
Y225266*
X181843Y222766D02*
Y219200D01*
X185874*
Y222766*
X197197Y225266D02*
Y228831D01*
X201228*
Y225266*
X197197Y222766D02*
Y219200D01*
X201228*
Y222766*
X344858Y305081D02*
X341292D01*
Y309112*
X344858*
X347358Y305081D02*
X350923D01*
Y309112*
X347358*
X366509Y297771D02*
Y286143D01*
X366357Y297818D02*
X355157D01*
X366357Y286143D02*
X355157D01*
Y297818D02*
Y293702D01*
Y286221D02*
Y290356D01*
X355244Y290390D02*
G03Y293619I0J1615D01*
G01X358302Y295474D02*
G03X358302I-612J0D01*
G01X357122Y313763D02*
X360688D01*
Y309731*
X357122*
X354622Y313763D02*
X351056D01*
Y309731*
X354622*
X267999Y236445D02*
Y232879D01*
X263968*
Y236445*
X267999Y238945D02*
Y242510D01*
X263968*
Y238945*
X240089Y255858D02*
X236523D01*
Y259890*
X240089*
X242589Y255858D02*
X246154D01*
Y259890*
X242589*
X259518Y141780D02*
X263083D01*
Y137748*
X259518*
X257018Y141780D02*
X253452D01*
Y137748*
X257018*
X229852Y297197D02*
X226287D01*
Y301228*
X229852*
X232352Y297197D02*
X235918D01*
Y301228*
X232352*
Y296504D02*
X235918D01*
Y292472*
X232352*
X229852Y296504D02*
X226287D01*
Y292472*
X229852*
X261024Y281299D02*
X255118D01*
Y284252*
X251181*
Y281299*
X245276*
Y301378*
X261024*
Y281299*
X252825Y231890D02*
X256496D01*
Y227953*
X252825*
X250325Y231890D02*
X246654D01*
Y227953*
X250325*
X247569Y241291D02*
X244003D01*
Y245323*
X247569*
X250069Y241291D02*
X253635D01*
Y245323*
X250069*
X263386Y231427D02*
Y227756D01*
X259449*
Y231427*
X263386Y233927D02*
Y237598D01*
X259449*
Y233927*
X277810Y290659D02*
X274244D01*
Y294690*
X277810*
X280310Y290659D02*
X283875D01*
Y294690*
X280310*
X280289Y289772D02*
X283855D01*
Y285741*
X280289*
X277789Y289772D02*
X274223D01*
Y285741*
X277789*
X240598Y231427D02*
Y227861D01*
X236567*
Y231427*
X240598Y233927D02*
Y237493D01*
X236567*
Y233927*
X263732Y256368D02*
Y259934D01*
X267764*
Y256368*
X263732Y253868D02*
Y250302D01*
X267764*
Y253868*
X239346Y345632D02*
Y342351D01*
Y345632D02*
X238550D01*
X238210Y345476*
X237982Y345164*
X237869Y344851*
X237755Y344382*
Y343601*
X237869Y343132*
X237982Y342820*
X238210Y342507*
X238550Y342351*
X239346*
X235255Y345632D02*
X236391D01*
X236505Y344226*
X236391Y344382*
X236050Y344539*
X235710*
X235369Y344382*
X235141Y344070*
X235028Y343601*
X235141Y343289*
X235255Y342820*
X235482Y342507*
X235823Y342351*
X236164*
X236505Y342507*
X236619Y342664*
X236732Y342976*
X254764Y306581D02*
Y302643D01*
X252855Y306581D02*
X254764Y303956D01*
X254082Y304893D02*
X252855Y302643D01*
X251491Y305643D02*
Y305831D01*
X251355Y306206*
X251219Y306393*
X250946Y306581*
X250400*
X250128Y306393*
X249991Y306206*
X249855Y305831*
Y305456*
X249991Y305081*
X250264Y304518*
X251628Y302643*
X249719*
X254704Y236521D02*
Y233239D01*
Y236521D02*
X253227D01*
X254704Y234958D02*
X253795D01*
X252204Y236521D02*
Y233239D01*
Y236521D02*
X251181D01*
X250840Y236364*
X250727Y236208*
X250613Y235896*
Y235583*
X250727Y235271*
X250840Y235114*
X251181Y234958*
X252204D02*
X251181D01*
X250840Y234802*
X250727Y234646*
X250613Y234333*
Y233864*
X250727Y233552*
X250840Y233396*
X251181Y233239*
X252204*
X248227Y236052D02*
X248340Y236364D01*
X248681Y236521*
X248908*
X249249Y236364*
X249477Y235896*
X249590Y235114*
Y234333*
X249477Y233708*
X249249Y233396*
X248908Y233239*
X248795*
X248454Y233396*
X248227Y233708*
X248113Y234177*
Y234333*
X248227Y234802*
X248454Y235114*
X248795Y235271*
X248908*
X249249Y235114*
X249477Y234802*
X249590Y234333*
X262899Y238490D02*
X259617D01*
X262899D02*
Y239967D01*
X261336Y238490D02*
Y239399D01*
X262899Y240990D02*
X259617D01*
X262899D02*
Y242012D01*
X262742Y242353*
X262586Y242467*
X262274Y242581*
X261961*
X261649Y242467*
X261492Y242353*
X261336Y242012*
Y240990D02*
Y242012D01*
X261180Y242353*
X261024Y242467*
X260711Y242581*
X260242*
X259930Y242467*
X259774Y242353*
X259617Y242012*
Y240990*
X262899Y245081D02*
Y243944D01*
X261492Y243831*
X261649Y243944*
X261805Y244285*
Y244626*
X261649Y244967*
X261336Y245194*
X260867Y245308*
X260555Y245194*
X260086Y245081*
X259774Y244853*
X259617Y244512*
Y244171*
X259774Y243831*
X259930Y243717*
X260242Y243603*
X280361Y161059D02*
X280736Y160922D01*
X281111Y160650*
X281298Y160377*
Y159831*
X281111Y159559*
X280736Y159286*
X280361Y159150*
X279798Y159013*
X278861*
X278298Y159150*
X277923Y159286*
X277548Y159559*
X277361Y159831*
Y160377*
X277548Y160650*
X277923Y160922*
X278298Y161059*
X281298Y163650D02*
X278673Y162286D01*
Y164331*
X281298Y163650D02*
X277361D01*
X281298Y166377D02*
X281111Y165968D01*
X280548Y165695*
X279611Y165559*
X279048*
X278111Y165695*
X277548Y165968*
X277361Y166377*
Y166650*
X277548Y167059*
X278111Y167331*
X279048Y167468*
X279611*
X280548Y167331*
X281111Y167059*
X281298Y166650*
Y166377*
X270043Y160998D02*
X270418Y160862D01*
X270793Y160589*
X270980Y160316*
Y159771*
X270793Y159498*
X270418Y159225*
X270043Y159089*
X269480Y158952*
X268543*
X267980Y159089*
X267605Y159225*
X267230Y159498*
X267043Y159771*
Y160316*
X267230Y160589*
X267605Y160862*
X267980Y160998*
X270043Y162362D02*
X270230D01*
X270605Y162498*
X270793Y162634*
X270980Y162907*
Y163452*
X270793Y163725*
X270605Y163862*
X270230Y163998*
X269855*
X269480Y163862*
X268918Y163589*
X267043Y162225*
Y164134*
G54D75*
G74*
X0Y0D02*
M02*
