*
*
G04 PADS 9.5 Build Number: 522968 generated Gerber (RS-274-X) file*
G04 PC Version=2.1*
*
%IN "alarm_USB&OLED.pcb"*%
*
%MOIN*%
*
%FSLAX35Y35*%
*
*
*
*
G04 PC Standard Apertures*
*
*
G04 Thermal Relief Aperture macro.*
%AMTER*
1,1,$1,0,0*
1,0,$1-$2,0,0*
21,0,$3,$4,0,0,45*
21,0,$3,$4,0,0,135*
%
*
*
G04 Annular Aperture macro.*
%AMANN*
1,1,$1,0,0*
1,0,$2,0,0*
%
*
*
G04 Odd Aperture macro.*
%AMODD*
1,1,$1,0,0*
1,0,$1-0.005,0,0*
%
*
*
G04 PC Custom Aperture Macros*
*
*
*
*
*
*
G04 PC Aperture Table*
*
%ADD017C,0.024*%
%ADD035C,0.01*%
%ADD040C,0.015*%
%ADD042C,0.06*%
%ADD060C,0.07087*%
%ADD070C,0.008*%
%ADD075C,0.001*%
%ADD105R,0.02953X0.01575*%
%ADD106R,0.04331X0.01181*%
%ADD107R,0.022X0.026*%
%ADD108R,0.022X0.028*%
%ADD109R,0.07087X0.07087*%
%ADD110O,0.1378X0.07087*%
%ADD111C,0.016*%
*
*
*
*
G04 PC Circuitry*
G04 Layer Name alarm_USB&OLED.pcb - circuitry*
%LPD*%
*
*
G04 PC Custom Flashes*
G04 Layer Name alarm_USB&OLED.pcb - flashes*
%LPD*%
*
*
G04 PC Circuitry*
G04 Layer Name alarm_USB&OLED.pcb - circuitry*
%LPD*%
*
G54D17*
G01X235433Y131890D03*
X172441Y192913D03*
X213780Y191339D03*
X209449Y173228D03*
X235433Y203937D03*
G54D35*
X274272Y104743D02*
Y207068D01*
G75*
G03X274125Y207422I-500J0D01*
G01X272383Y209165*
G03X272029Y209311I-354J-354*
G01X103394*
G03X102894Y208811I-0J-500*
G01Y148336*
G03X102959Y148088I500J0*
G01X103201Y147500D02*
G03X102959Y148088I-2414J-650D01*
G01X103202Y147500D02*
G03X161425Y102500I58716J15805D01*
X161429I4J500*
G01X169962*
G03X170285Y103382I0J500*
G01X187195D02*
G03X170285I-8455J10004D01*
G01X187195D02*
G03X187518Y102500I323J-382D01*
G01X272029*
G03X272383Y102646I0J500*
G01X274125Y104389*
G03X274272Y104743I-353J354*
G01X223894Y175463D02*
G03X223487Y176253I-407J290D01*
G01X201986*
G03X201486Y175753I0J-500*
G01Y175707*
G03X201986Y175207I500J-0*
G01X206091*
X207392Y173907D02*
G03X206091Y175207I-1301J-0D01*
G01X207392Y173907D02*
Y172726D01*
X206646Y171550D02*
G03X207392Y172726I-555J1176D01*
G01X206646Y171550D02*
G03X206860Y170598I214J-452D01*
G01X222553*
G03X222907Y170744I0J500*
G01X223182Y171020*
G03X223303Y171530I-353J353*
G01X223894Y175463D02*
G03X223303Y171530I3586J-2550D01*
G01X238701Y134999D02*
G03Y144686I-0J4844D01*
G01Y134999D02*
X232008D01*
Y144686D02*
G03Y134999I-0J-4843D01*
G01Y144686D02*
X238701D01*
Y193267D02*
G03Y202954I-0J4843D01*
G01Y193267D02*
X232008D01*
X230972Y193379D02*
G03X232008Y193267I1036J4731D01*
G01X230972Y193379D02*
G03X230512Y192537I-107J-488D01*
G01X235165Y187883*
X235780Y186398D02*
G03X235165Y187883I-2100J0D01*
G01X235780Y186398D02*
Y161397D01*
X235165Y159912D02*
G03X235780Y161397I-1485J1485D01*
G01X235165Y159912D02*
X231902Y156649D01*
G03X231768Y156183I354J-354*
G01X228467Y159485D02*
G03X231768Y156183I-987J-4288D01*
G01X228467Y159485D02*
G03X228932Y159619I112J487D01*
G01X229335Y160021*
G03X228828Y160851I-354J354*
G01X223340Y166528D02*
G03X228828Y160851I4140J-1489D01*
G01X223340Y166528D02*
G03X222869Y167198I-471J170D01*
G01X200471*
X199269Y167696D02*
G03X200471Y167198I1202J1202D01*
G01X199269Y167696D02*
X197653Y169311D01*
G03X197300Y169457I-353J-354*
G01X195855*
X195273Y169595D02*
G03X195855Y169457I582J1162D01*
G01X195273Y169595D02*
G03X195049Y169648I-224J-447D01*
G01X189484*
X188976Y169725D02*
G03X189484Y169648I508J1623D01*
G01X188976Y169725D02*
G03X188827Y169748I-149J-477D01*
G01X188007*
X186707Y171048D02*
G03X188007Y169748I1300J-0D01*
G01X186707Y171048D02*
Y172623D01*
X186838Y173191D02*
G03X186707Y172623I1169J-568D01*
G01X186838Y173191D02*
G03Y173629I-449J219D01*
G01X186707Y174197D02*
G03X186838Y173629I1300J0D01*
G01X186707Y174197D02*
Y175772D01*
X188007Y177072D02*
G03X186707Y175772I0J-1300D01*
G01X188007Y177072D02*
X190960D01*
X191361Y177009D02*
G03X190960Y177072I-401J-1237D01*
G01X191361Y177009D02*
G03X191515Y176985I154J476D01*
G01X195049*
G03X195273Y177038I0J500*
G01X195855Y177175D02*
G03X195273Y177038I0J-1300D01*
G01X195855Y177175D02*
X196324D01*
G03X196709Y177357I-0J500*
G01X196819Y177477D02*
G03X196709Y177357I1202J-1202D01*
G01X196819Y177477D02*
X198496Y179155D01*
X199698Y179653D02*
G03X198496Y179155I0J-1700D01*
G01X199698Y179653D02*
X211665D01*
G03X211947Y180566I-0J500*
G01X211380Y181639D02*
G03X211947Y180566I1300J0D01*
G01X211380Y181639D02*
Y184439D01*
X211467Y184909D02*
G03X211380Y184439I1213J-470D01*
G01X211467Y184909D02*
G03Y185270I-466J180D01*
G01X211380Y185739D02*
G03X211467Y185270I1300J0D01*
G01X211380Y185739D02*
Y188339D01*
X212680Y189639D02*
G03X211380Y188339I-0J-1300D01*
G01X212680Y189639D02*
X214880D01*
X216180Y188339D02*
G03X214880Y189639I-1300J0D01*
G01X216180Y188339D02*
Y185739D01*
X216128Y185378D02*
G03X216180Y185739I-1248J361D01*
G01X216128Y185378D02*
G03X216609Y184739I481J-139D01*
G01X223256*
G03X223687Y184986I0J500*
G01X228828Y186944D02*
G03X223687Y184986I-1348J-4188D01*
G01X228828Y186944D02*
G03X229335Y187774I153J476D01*
G01X219749Y197360*
G03X219395Y197506I-354J-354*
G01X200216*
G03X199793Y197272I0J-500*
G01X192528Y196987D02*
G03X199793Y197272I3535J2619D01*
G01X192528Y196987D02*
G03X191724I-402J-298D01*
G01X190165Y195675D02*
G03X191724Y196987I-1976J3931D01*
G01X190165Y195675D02*
G03X189889Y195228I224J-447D01*
G01Y189847*
X189391Y188645D02*
G03X189889Y189847I-1202J1202D01*
G01X189391Y188645D02*
X184047Y183301D01*
G03X183900Y182947I353J-354*
G01Y177420*
G03X184199Y176963I500J0*
G01X184977Y175772D02*
G03X184199Y176963I-1300J0D01*
G01X184977Y175772D02*
Y174197D01*
X184846Y173629D02*
G03X184977Y174197I-1169J568D01*
G01X184846Y173629D02*
G03Y173191I449J-219D01*
G01X184977Y172623D02*
G03X184846Y173191I-1300J-0D01*
G01X184977Y172623D02*
Y171048D01*
X183677Y169748D02*
G03X184977Y171048I-0J1300D01*
G01X183677Y169748D02*
X180724D01*
X179756Y170180D02*
G03X180724Y169748I968J868D01*
G01X179756Y170180D02*
G03X179597Y170298I-372J-334D01*
G01X179122Y170633D02*
G03X179597Y170298I1202J1202D01*
G01X179122Y170633D02*
X177932Y171823D01*
X177434Y173025D02*
G03X177932Y171823I1700J0D01*
G01X177434Y173025D02*
Y196060D01*
G03X177279Y196422I-500J-0*
G01X176724Y197063D02*
G03X177279Y196422I3591J2543D01*
G01X176724Y197063D02*
G03X175913Y197069I-408J-289D01*
G01Y202143D02*
G03Y197069I-3472J-2537D01*
G01Y202143D02*
G03X176724Y202150I403J296D01*
G01X183850Y202226D02*
G03X176724Y202150I-3535J-2620D01*
G01X183850Y202226D02*
G03X184654I402J298D01*
G01X191724D02*
G03X184654I-3535J-2620D01*
G01X191724D02*
G03X192528I402J298D01*
G01X199793Y201941D02*
G03X192528Y202226I-3730J-2335D01*
G01X199793Y201941D02*
G03X200216Y201706I423J265D01*
G01X220472*
X221957Y201091D02*
G03X220472Y201706I-1485J-1485D01*
G01X221957Y201091D02*
X226435Y196614D01*
G03X227277Y197074I353J354*
G01X232008Y202954D02*
G03X227277Y197074I-0J-4844D01*
G01X232008Y202954D02*
X238701D01*
X113125Y183342D02*
G03X109709I-1708J4532D01*
G01X113125D02*
G03Y182406I177J-468D01*
G01Y173342D02*
G03Y182406I-1708J4532D01*
G01Y173342D02*
G03Y172406I177J-468D01*
G01X113793Y163653D02*
G03X113125Y172406I-2376J4221D01*
G01X113793Y163653D02*
G03X114038Y162717I245J-436D01*
G01X114961*
X116261Y161417D02*
G03X114961Y162717I-1300J0D01*
G01X116261Y161417D02*
Y154331D01*
X114961Y153031D02*
G03X116261Y154331I-0J1300D01*
G01X114961Y153031D02*
X107874D01*
X106574Y154331D02*
G03X107874Y153031I1300J-0D01*
G01X106574Y154331D02*
Y161417D01*
X107874Y162717D02*
G03X106574Y161417I0J-1300D01*
G01X107874Y162717D02*
X108797D01*
G03X109042Y163653I-0J500*
G01X109709Y172406D02*
G03X109042Y163653I1708J-4532D01*
G01X109709Y172406D02*
G03Y173342I-176J468D01*
G01Y182406D02*
G03Y173342I1708J-4532D01*
G01Y182406D02*
G03Y183342I-176J468D01*
G01X201489Y175649D02*
X223976D01*
X207082Y174749D02*
X223482D01*
X206362Y171149D02*
X223276D01*
X207392Y173849D02*
X223181D01*
X207202Y172049D02*
X223166D01*
X207392Y172949D02*
X223080D01*
X102894Y206249D02*
X274272D01*
X102894Y205349D02*
X274272D01*
X102894Y204449D02*
X274272D01*
X198016Y203549D02*
X274272D01*
X240391Y202649D02*
X274272D01*
X241897Y201749D02*
X274272D01*
X242695Y200849D02*
X274272D01*
X243181Y199949D02*
X274272D01*
X243452Y199049D02*
X274272D01*
X243544Y198149D02*
X274272D01*
X243467Y197249D02*
X274272D01*
X243213Y196349D02*
X274272D01*
X242748Y195449D02*
X274272D01*
X241983Y194549D02*
X274272D01*
X240587Y193649D02*
X274272D01*
X230386Y192749D02*
X274272D01*
X231200Y191849D02*
X274272D01*
X232100Y190949D02*
X274272D01*
X233000Y190049D02*
X274272D01*
X233900Y189149D02*
X274272D01*
X234800Y188249D02*
X274272D01*
X235553Y187349D02*
X274272D01*
X235780Y186449D02*
X274272D01*
X235780Y185549D02*
X274272D01*
X235780Y184649D02*
X274272D01*
X235780Y183749D02*
X274272D01*
X235780Y182849D02*
X274272D01*
X235780Y181949D02*
X274272D01*
X235780Y181049D02*
X274272D01*
X235780Y180149D02*
X274272D01*
X235780Y179249D02*
X274272D01*
X235780Y178349D02*
X274272D01*
X235780Y177449D02*
X274272D01*
X235780Y176549D02*
X274272D01*
X235780Y175649D02*
X274272D01*
X235780Y174749D02*
X274272D01*
X235780Y173849D02*
X274272D01*
X235780Y172949D02*
X274272D01*
X235780Y172049D02*
X274272D01*
X235780Y171149D02*
X274272D01*
X235780Y170249D02*
X274272D01*
X235780Y169349D02*
X274272D01*
X235780Y168449D02*
X274272D01*
X235780Y167549D02*
X274272D01*
X235780Y166649D02*
X274272D01*
X235780Y165749D02*
X274272D01*
X235780Y164849D02*
X274272D01*
X235780Y163949D02*
X274272D01*
X235780Y163049D02*
X274272D01*
X235780Y162149D02*
X274272D01*
X235775Y161249D02*
X274272D01*
X235500Y160349D02*
X274272D01*
X234702Y159449D02*
X274272D01*
X233802Y158549D02*
X274272D01*
X232902Y157649D02*
X274272D01*
X232002Y156749D02*
X274272D01*
X231832Y155849D02*
X274272D01*
X231873Y154949D02*
X274272D01*
X231728Y154049D02*
X274272D01*
X231375Y153149D02*
X274272D01*
X230747Y152249D02*
X274272D01*
X229615Y151349D02*
X274272D01*
X102894Y150449D02*
X274272D01*
X102894Y149549D02*
X274272D01*
X102894Y148649D02*
X274272D01*
X103120Y147749D02*
X274272D01*
X103381Y146849D02*
X274272D01*
X103641Y145949D02*
X274272D01*
X103917Y145049D02*
X274272D01*
X240917Y144149D02*
X274272D01*
X242144Y143249D02*
X274272D01*
X242845Y142349D02*
X274272D01*
X243270Y141449D02*
X274272D01*
X243492Y140549D02*
X274272D01*
X243540Y139649D02*
X274272D01*
X243419Y138749D02*
X274272D01*
X243115Y137849D02*
X274272D01*
X242585Y136949D02*
X274272D01*
X241712Y136049D02*
X274272D01*
X239896Y135149D02*
X274272D01*
X108503Y134249D02*
X274272D01*
X109002Y133349D02*
X274272D01*
X109522Y132449D02*
X274272D01*
X110062Y131549D02*
X274272D01*
X110624Y130649D02*
X274272D01*
X111209Y129749D02*
X274272D01*
X111816Y128849D02*
X274272D01*
X112447Y127949D02*
X274272D01*
X113103Y127049D02*
X274272D01*
X181684Y126149D02*
X274272D01*
X184293Y125249D02*
X274272D01*
X185908Y124349D02*
X274272D01*
X187125Y123449D02*
X274272D01*
X188100Y122549D02*
X274272D01*
X188903Y121649D02*
X274272D01*
X189573Y120749D02*
X274272D01*
X190133Y119849D02*
X274272D01*
X190598Y118949D02*
X274272D01*
X190980Y118049D02*
X274272D01*
X191286Y117149D02*
X274272D01*
X191522Y116249D02*
X274272D01*
X191691Y115349D02*
X274272D01*
X191795Y114449D02*
X274272D01*
X191838Y113549D02*
X274272D01*
X191818Y112649D02*
X274272D01*
X191736Y111749D02*
X274272D01*
X191591Y110849D02*
X274272D01*
X191380Y109949D02*
X274272D01*
X191100Y109049D02*
X274272D01*
X190746Y108149D02*
X274272D01*
X190312Y107249D02*
X274272D01*
X189788Y106349D02*
X274272D01*
X189160Y105449D02*
X274272D01*
X102894Y207149D02*
X274265D01*
X188409Y104549D02*
X274233D01*
X102894Y208049D02*
X273498D01*
X187502Y103649D02*
X273385D01*
X102913Y208949D02*
X272598D01*
X187086Y102749D02*
X272485D01*
X108023Y135149D02*
X230812D01*
X199241Y202649D02*
X230318D01*
X104208Y144149D02*
X229792D01*
X116261Y160349D02*
X229481D01*
X216180Y187349D02*
X229476D01*
X107562Y136049D02*
X228997D01*
X216180Y188249D02*
X228860D01*
X200014Y201749D02*
X228812D01*
X104514Y143249D02*
X228565D01*
X107120Y136949D02*
X228124D01*
X222200Y200849D02*
X228013D01*
X215897Y189149D02*
X227960D01*
X104837Y142349D02*
X227864D01*
X106696Y137849D02*
X227594D01*
X223100Y199949D02*
X227527D01*
X105175Y141449D02*
X227439D01*
X106290Y138749D02*
X227290D01*
X224000Y199049D02*
X227256D01*
X225800Y197249D02*
X227242D01*
X105530Y140549D02*
X227216D01*
X105902Y139649D02*
X227168D01*
X224900Y198149D02*
X227165D01*
X189889Y190049D02*
X227060D01*
X116261Y159449D02*
X226350D01*
X189889Y190949D02*
X226160D01*
X102894Y151349D02*
X225346D01*
X189889Y191849D02*
X225260D01*
X116261Y161249D02*
X225246D01*
X216180Y186449D02*
X225089D01*
X116261Y158549D02*
X224630D01*
X189889Y192749D02*
X224360D01*
X102894Y152249D02*
X224214D01*
X116035Y162149D02*
X224163D01*
X216166Y185549D02*
X224081D01*
X116261Y157649D02*
X223827D01*
X115503Y153149D02*
X223586D01*
X113567Y163049D02*
X223556D01*
X189889Y193649D02*
X223460D01*
X116103Y166649D02*
X223367D01*
X116261Y156749D02*
X223363D01*
X116230Y154049D02*
X223233D01*
X114255Y163949D02*
X223218D01*
X115770Y165749D02*
X223138D01*
X116261Y155849D02*
X223129D01*
X116261Y154949D02*
X223087D01*
X115200Y164849D02*
X223084D01*
X189889Y194549D02*
X222560D01*
X197504Y195449D02*
X221660D01*
X199021Y196349D02*
X220760D01*
X199778Y197249D02*
X219860D01*
X183900Y180149D02*
X212165D01*
X189739Y189149D02*
X211662D01*
X183900Y181049D02*
X211521D01*
X185395Y184649D02*
X211397D01*
X186295Y185549D02*
X211394D01*
X188995Y188249D02*
X211380D01*
X188095Y187349D02*
X211380D01*
X187195Y186449D02*
X211380D01*
X184495Y183749D02*
X211380D01*
X183900Y182849D02*
X211380D01*
X183900Y181949D02*
X211380D01*
X116250Y167549D02*
X199436D01*
X183900Y179249D02*
X198598D01*
X116226Y168449D02*
X198515D01*
X183900Y178349D02*
X197690D01*
X116031Y169349D02*
X197610D01*
X183900Y177449D02*
X196791D01*
X189941Y195449D02*
X194622D01*
X190142Y203549D02*
X194110D01*
X191147Y196349D02*
X193105D01*
X191367Y202649D02*
X192885D01*
X184702Y170249D02*
X186982D01*
X184719Y176549D02*
X186965D01*
X184929Y173849D02*
X186755D01*
X184935Y172949D02*
X186749D01*
X184977Y175649D02*
X186707D01*
X184977Y174749D02*
X186707D01*
X184977Y172049D02*
X186707D01*
X184977Y171149D02*
X186707D01*
X182268Y203549D02*
X186236D01*
X183493Y202649D02*
X185011D01*
X115638Y170249D02*
X179680D01*
X114985Y171149D02*
X178606D01*
X174157Y203549D02*
X178362D01*
X113872Y172049D02*
X177742D01*
X112807Y172949D02*
X177436D01*
X173540Y195449D02*
X177434D01*
X102894Y194549D02*
X177434D01*
X102894Y193649D02*
X177434D01*
X102894Y192749D02*
X177434D01*
X114184Y191849D02*
X177434D01*
X115159Y190949D02*
X177434D01*
X115745Y190049D02*
X177434D01*
X116090Y189149D02*
X177434D01*
X116246Y188249D02*
X177434D01*
X116232Y187349D02*
X177434D01*
X116046Y186449D02*
X177434D01*
X115666Y185549D02*
X177434D01*
X115031Y184649D02*
X177434D01*
X113956Y183749D02*
X177434D01*
X112802Y182849D02*
X177434D01*
X114035Y181949D02*
X177434D01*
X115075Y181049D02*
X177434D01*
X115693Y180149D02*
X177434D01*
X116061Y179249D02*
X177434D01*
X116237Y178349D02*
X177434D01*
X116242Y177449D02*
X177434D01*
X116076Y176549D02*
X177434D01*
X115719Y175649D02*
X177434D01*
X115118Y174749D02*
X177434D01*
X114111Y173849D02*
X177434D01*
X175248Y196349D02*
X177342D01*
X175479Y202649D02*
X177137D01*
X176160Y197249D02*
X176473D01*
X113784Y126149D02*
X175796D01*
X114492Y125249D02*
X173187D01*
X115229Y124349D02*
X171572D01*
X102894Y195449D02*
X171342D01*
X102894Y203549D02*
X170725D01*
X156399Y102749D02*
X170395D01*
X115995Y123449D02*
X170356D01*
X150143Y103649D02*
X169979D01*
X102894Y196349D02*
X169634D01*
X102894Y202649D02*
X169403D01*
X116792Y122549D02*
X169380D01*
X146259Y104549D02*
X169072D01*
X102894Y197249D02*
X168845D01*
X102894Y201749D02*
X168713D01*
X117621Y121649D02*
X168577D01*
X102894Y198149D02*
X168395D01*
X102894Y200849D02*
X168324D01*
X143205Y105449D02*
X168320D01*
X102894Y199049D02*
X168177D01*
X102894Y199949D02*
X168155D01*
X118485Y120749D02*
X167907D01*
X140623Y106349D02*
X167692D01*
X119385Y119849D02*
X167347D01*
X138355Y107249D02*
X167168D01*
X120325Y118949D02*
X166882D01*
X136319Y108149D02*
X166734D01*
X121306Y118049D02*
X166500D01*
X134463Y109049D02*
X166380D01*
X122332Y117149D02*
X166194D01*
X132753Y109949D02*
X166101D01*
X123406Y116249D02*
X165958D01*
X131164Y110849D02*
X165890D01*
X124532Y115349D02*
X165790D01*
X129678Y111749D02*
X165744D01*
X125716Y114449D02*
X165685D01*
X128281Y112649D02*
X165662D01*
X126964Y113549D02*
X165643D01*
X102894Y182849D02*
X110032D01*
X102894Y172949D02*
X110027D01*
X102894Y163049D02*
X109268D01*
X102894Y172049D02*
X108962D01*
X102894Y183749D02*
X108879D01*
X102894Y181949D02*
X108800D01*
X102894Y173849D02*
X108723D01*
X102894Y191849D02*
X108650D01*
X102894Y163949D02*
X108580D01*
X102894Y171149D02*
X107849D01*
X102894Y184649D02*
X107804D01*
X102894Y181049D02*
X107760D01*
X102894Y174749D02*
X107717D01*
X102894Y190949D02*
X107675D01*
X102894Y164849D02*
X107635D01*
X102894Y153149D02*
X107332D01*
X102894Y170249D02*
X107196D01*
X102894Y185549D02*
X107168D01*
X102894Y180149D02*
X107142D01*
X102894Y175649D02*
X107115D01*
X102894Y190049D02*
X107090D01*
X102894Y165749D02*
X107065D01*
X102894Y169349D02*
X106804D01*
X102894Y162149D02*
X106800D01*
X102894Y186449D02*
X106788D01*
X102894Y179249D02*
X106773D01*
X102894Y176549D02*
X106759D01*
X102894Y189149D02*
X106745D01*
X102894Y166649D02*
X106731D01*
X102894Y168449D02*
X106608D01*
X102894Y154049D02*
X106605D01*
X102894Y187349D02*
X106603D01*
X102894Y178349D02*
X106597D01*
X102894Y177449D02*
X106593D01*
X102894Y188249D02*
X106589D01*
X102894Y167549D02*
X106585D01*
X102894Y161249D02*
X106574D01*
X102894Y160349D02*
X106574D01*
X102894Y159449D02*
X106574D01*
X102894Y158549D02*
X106574D01*
X102894Y157649D02*
X106574D01*
X102894Y156749D02*
X106574D01*
X102894Y155849D02*
X106574D01*
X102894Y154949D02*
X106574D01*
X207011Y174826D02*
X205919Y173734D01*
X207011Y171806D02*
X205919Y172899D01*
X211760Y189259D02*
X213002Y188017D01*
X215799Y189259D02*
X214557Y188017D01*
G54D40*
X242126Y201535D02*
X241206Y200616D01*
X242126Y194686D02*
X241206Y195605D01*
X228583Y201535D02*
X229502Y200616D01*
X242126Y143267D02*
X241206Y142348D01*
X242126Y136418D02*
X241206Y137337D01*
X228583Y136418D02*
X229502Y137337D01*
X228583Y143267D02*
X229502Y142348D01*
G54D42*
X196063Y199606D03*
X188189D03*
X180315D03*
X172441D03*
X227480Y155197D03*
Y165039D03*
Y172913D03*
Y182756D03*
G54D60*
X111417Y167874D03*
Y177874D03*
Y187874D03*
G54D70*
X179134Y173025D02*
X180324Y171835D01*
X182200*
X179134Y173025D02*
Y198425D01*
X180315Y199606*
X172441Y192913D02*
Y199606D01*
X203926Y173316D02*
Y173228D01*
X209449*
X198021Y171348D02*
X200471Y168898D01*
X223465*
X227480Y172913*
X198021Y175285D02*
Y176275D01*
X199698Y177953*
X228381*
X231680Y174653*
X189484Y174985D02*
Y175285D01*
X198021*
X189484Y171835D02*
Y171348D01*
X198021*
X182200Y174985D02*
Y183858D01*
X188189Y189847*
Y199606*
X235354Y198110D02*
Y203858D01*
X235433Y203937*
X227480Y165039D02*
X231680Y169239D01*
Y174653*
X213780Y183039D02*
X227480D01*
Y182756*
X213780Y187039D02*
Y191339D01*
G54D75*
G54D105*
X182200Y174985D03*
Y171835D03*
X189484D03*
Y174985D03*
G54D106*
X198021Y175285D03*
Y171348D03*
X203926Y173316D03*
G54D107*
X213780Y187039D03*
G54D108*
Y183039D03*
G54D109*
X111417Y157874D03*
G54D110*
X235354Y139843D03*
Y198110D03*
G54D111*
X227480Y155197D02*
X233680Y161397D01*
X196063Y199606D02*
X220472D01*
X233680Y186398*
Y161397*
G74*
X0Y0D02*
M02*
