*
*
G04 PADS 9.5 Build Number: 522968 generated Gerber (RS-274-X) file*
G04 PC Version=2.1*
*
%IN "alarm_USB&OLED.pcb"*%
*
%MOIN*%
*
%FSLAX35Y35*%
*
*
*
*
G04 PC Standard Apertures*
*
*
G04 Thermal Relief Aperture macro.*
%AMTER*
1,1,$1,0,0*
1,0,$1-$2,0,0*
21,0,$3,$4,0,0,45*
21,0,$3,$4,0,0,135*
%
*
*
G04 Annular Aperture macro.*
%AMANN*
1,1,$1,0,0*
1,0,$2,0,0*
%
*
*
G04 Odd Aperture macro.*
%AMODD*
1,1,$1,0,0*
1,0,$1-0.005,0,0*
%
*
*
G04 PC Custom Aperture Macros*
*
*
*
*
*
*
G04 PC Aperture Table*
*
%ADD035C,0.01*%
%ADD075C,0.001*%
*
*
*
*
G04 PC Circuitry*
G04 Layer Name alarm_USB&OLED.pcb - circuitry*
%LPD*%
*
*
G04 PC Custom Flashes*
G04 Layer Name alarm_USB&OLED.pcb - flashes*
%LPD*%
*
*
G04 PC Circuitry*
G04 Layer Name alarm_USB&OLED.pcb - circuitry*
%LPD*%
*
G54D35*
G01X228795Y139843D02*
X236795D01*
X232795Y135843D02*
Y143843D01*
X234795Y145124D02*
Y141843D01*
Y145124D02*
X235818D01*
X236159Y144968*
X236273Y144811*
X236386Y144499*
Y144186*
X236273Y143874*
X236159Y143718*
X235818Y143561*
X234795D02*
X235818D01*
X236159Y143405*
X236273Y143249*
X236386Y142936*
Y142468*
X236273Y142155*
X236159Y141999*
X235818Y141843*
X234795*
X233913Y139843D02*
X241913D01*
X237913Y135843D02*
Y143843D01*
X239913Y145124D02*
Y141843D01*
Y145124D02*
X240936D01*
X241277Y144968*
X241391Y144811*
X241504Y144499*
Y144186*
X241391Y143874*
X241277Y143718*
X240936Y143561*
X239913D02*
X240936D01*
X241277Y143405*
X241391Y143249*
X241504Y142936*
Y142468*
X241391Y142155*
X241277Y141999*
X240936Y141843*
X239913*
X232795Y141811D02*
G75*
G03Y137874I0J-1968D01*
G01X237913*
G03Y141811I0J1969*
G01X232795*
X228795Y198110D02*
X236795D01*
X232795Y194110D02*
Y202110D01*
X234795Y203391D02*
Y200110D01*
Y203391D02*
X235818D01*
X236159Y203235*
X236273Y203079*
X236386Y202766*
Y202454*
X236273Y202141*
X236159Y201985*
X235818Y201829*
X234795D02*
X235818D01*
X236159Y201673*
X236273Y201516*
X236386Y201204*
Y200735*
X236273Y200423*
X236159Y200266*
X235818Y200110*
X234795*
X233913Y198110D02*
X241913D01*
X237913Y194110D02*
Y202110D01*
X239913Y203391D02*
Y200110D01*
Y203391D02*
X240936D01*
X241277Y203235*
X241391Y203079*
X241504Y202766*
Y202454*
X241391Y202141*
X241277Y201985*
X240936Y201829*
X239913D02*
X240936D01*
X241277Y201673*
X241391Y201516*
X241504Y201204*
Y200735*
X241391Y200423*
X241277Y200266*
X240936Y200110*
X239913*
X232795Y200079D02*
G03Y196142I0J-1969D01*
G01X237913*
G03Y200079I0J1968*
G01X232795*
X107417Y157874D02*
X115417D01*
X111417Y153874D02*
Y161874D01*
X114326Y163155D02*
X113417Y159874D01*
X114326Y163155D02*
X115236Y159874D01*
X113758Y160968D02*
X114895D01*
X107417Y167874D02*
X115417D01*
X111417Y163874D02*
Y171874D01*
X114326Y173155D02*
X113417Y169874D01*
X114326Y173155D02*
X115236Y169874D01*
X113758Y170968D02*
X114895D01*
X107417Y177874D02*
X115417D01*
X111417Y173874D02*
Y181874D01*
X114326Y183155D02*
X113417Y179874D01*
X114326Y183155D02*
X115236Y179874D01*
X113758Y180968D02*
X114895D01*
X107417Y187874D02*
X115417D01*
X111417Y183874D02*
Y191874D01*
X114326Y193155D02*
X113417Y189874D01*
X114326Y193155D02*
X115236Y189874D01*
X113758Y190968D02*
X114895D01*
X192063Y195606D02*
X200063Y203606D01*
X192063D02*
X200063Y195606D01*
X184189D02*
X192189Y203606D01*
X184189D02*
X192189Y195606D01*
X176315D02*
X184315Y203606D01*
X176315D02*
X184315Y195606D01*
X168441D02*
X176441Y203606D01*
X168441D02*
X176441Y195606D01*
X223480Y151197D02*
X231480Y159197D01*
X223480D02*
X231480Y151197D01*
X223480Y161039D02*
X231480Y169039D01*
X223480D02*
X231480Y161039D01*
X223480Y168913D02*
X231480Y176913D01*
X223480D02*
X231480Y168913D01*
X223480Y178756D02*
X231480Y186756D01*
X223480D02*
X231480Y178756D01*
X231433Y131890D02*
X239433D01*
X235433Y127890D02*
Y135890D01*
X239138Y136390D02*
X239024Y136702D01*
X238797Y137015*
X238569Y137171*
X238115*
X237888Y137015*
X237660Y136702*
X237547Y136390*
X237433Y135921*
Y135140*
X237547Y134671*
X237660Y134359*
X237888Y134046*
X238115Y133890*
X238569*
X238797Y134046*
X239024Y134359*
X239138Y134671*
X168441Y192913D02*
X176441D01*
X172441Y188913D02*
Y196913D01*
X176145Y197413D02*
X176032Y197726D01*
X175805Y198038*
X175577Y198195*
X175123*
X174895Y198038*
X174668Y197726*
X174555Y197413*
X174441Y196945*
Y196163*
X174555Y195695*
X174668Y195382*
X174895Y195070*
X175123Y194913*
X175577*
X175805Y195070*
X176032Y195382*
X176145Y195695*
X209780Y191339D02*
X217780D01*
X213780Y187339D02*
Y195339D01*
X217484Y195839D02*
X217370Y196151D01*
X217143Y196464*
X216916Y196620*
X216461*
X216234Y196464*
X216007Y196151*
X215893Y195839*
X215780Y195370*
Y194589*
X215893Y194120*
X216007Y193807*
X216234Y193495*
X216461Y193339*
X216916*
X217143Y193495*
X217370Y193807*
X217484Y194120*
X205449Y173228D02*
X213449D01*
X209449Y169228D02*
Y177228D01*
X213153Y177728D02*
X213040Y178041D01*
X212812Y178353*
X212585Y178510*
X212131*
X211903Y178353*
X211676Y178041*
X211562Y177728*
X211449Y177260*
Y176478*
X211562Y176010*
X211676Y175697*
X211903Y175385*
X212131Y175228*
X212585*
X212812Y175385*
X213040Y175697*
X213153Y176010*
X231433Y203937D02*
X239433D01*
X235433Y199937D02*
Y207937D01*
X239138Y208437D02*
X239024Y208750D01*
X238797Y209062*
X238569Y209218*
X238115*
X237888Y209062*
X237660Y208750*
X237547Y208437*
X237433Y207968*
Y207187*
X237547Y206718*
X237660Y206406*
X237888Y206093*
X238115Y205937*
X238569*
X238797Y206093*
X239024Y206406*
X239138Y206718*
X100797Y146813D02*
G03X161476Y100000I61121J16492D01*
G01X161417D02*
X273272D01*
X276772Y103500*
Y208311*
X273272Y211811*
X100000*
X100394*
Y146850*
X100787*
X184646Y113386D02*
G03X184646I-5906J0D01*
G01X493701Y1120000D02*
X751701D01*
X493701Y1096000D02*
X751701D01*
X493701Y1072000D02*
X751701D01*
X493701Y1048000D02*
X751701D01*
X493701Y1024000D02*
X751701D01*
X493701Y1000000D02*
X751701D01*
X493701Y1120000D02*
Y1000000D01*
X577701Y1120000D02*
Y1000000D01*
X613701Y1120000D02*
Y1000000D01*
X649701Y1120000D02*
Y1000000D01*
X703701Y1120000D02*
Y1000000D01*
X751701Y1120000D02*
Y1000000D01*
X720383Y1109875D02*
Y1102000D01*
X718474Y1109875D02*
X722292D01*
X726383D02*
X725837Y1109500D01*
X725292Y1108750*
X725019Y1108000*
X724746Y1106875*
Y1105000*
X725019Y1103875*
X725292Y1103125*
X725837Y1102375*
X726383Y1102000*
X727474*
X728019Y1102375*
X728564Y1103125*
X728837Y1103875*
X729110Y1105000*
Y1106875*
X728837Y1108000*
X728564Y1108750*
X728019Y1109500*
X727474Y1109875*
X726383*
X731564D02*
Y1102000D01*
X734837*
X500246Y1085875D02*
X503246D01*
X501610Y1082875*
X502428*
X502974Y1082500*
X503246Y1082125*
X503519Y1081000*
Y1080250*
X503246Y1079125*
X502701Y1078375*
X501883Y1078000*
X501064*
X500246Y1078375*
X499974Y1078750*
X499701Y1079500*
X509519Y1085875D02*
X506792D01*
X506519Y1082500*
X506792Y1082875*
X507610Y1083250*
X508428*
X509246Y1082875*
X509792Y1082125*
X510064Y1081000*
X509792Y1080250*
X509519Y1079125*
X508974Y1078375*
X508155Y1078000*
X507337*
X506519Y1078375*
X506246Y1078750*
X505974Y1079500*
X594110Y1085875D02*
X593292Y1085500D01*
X593019Y1084750*
Y1084000*
X593292Y1083250*
X593837Y1082875*
X594928Y1082500*
X595746Y1082125*
X596292Y1081375*
X596564Y1080625*
Y1079500*
X596292Y1078750*
X596019Y1078375*
X595201Y1078000*
X594110*
X593292Y1078375*
X593019Y1078750*
X592746Y1079500*
Y1080625*
X593019Y1081375*
X593564Y1082125*
X594383Y1082500*
X595474Y1082875*
X596019Y1083250*
X596292Y1084000*
Y1084750*
X596019Y1085500*
X595201Y1085875*
X594110*
X625701Y1078000D02*
X637701Y1090000D01*
X625701D02*
X637701Y1078000D01*
X658337Y1085875D02*
X660519Y1082125D01*
Y1078000*
X662701Y1085875D02*
X660519Y1082125D01*
X665155Y1085875D02*
Y1078000D01*
Y1085875D02*
X668701D01*
X665155Y1082125D02*
X667337D01*
X665155Y1078000D02*
X668701D01*
X674974Y1084750D02*
X674428Y1085500D01*
X673610Y1085875*
X672519*
X671701Y1085500*
X671155Y1084750*
Y1084000*
X671428Y1083250*
X671701Y1082875*
X672246Y1082500*
X673883Y1081750*
X674428Y1081375*
X674701Y1081000*
X674974Y1080250*
Y1079125*
X674428Y1078375*
X673610Y1078000*
X672519*
X671701Y1078375*
X671155Y1079125*
X711519Y1084750D02*
Y1078000D01*
X709064Y1081375D02*
X713974D01*
X721337Y1087375D02*
X716428Y1075375D01*
X723792Y1081375D02*
X728701D01*
X732792Y1085875D02*
X731974Y1085500D01*
X731428Y1084375*
X731155Y1082500*
Y1081375*
X731428Y1079500*
X731974Y1078375*
X732792Y1078000*
X733337*
X734155Y1078375*
X734701Y1079500*
X734974Y1081375*
Y1082500*
X734701Y1084375*
X734155Y1085500*
X733337Y1085875*
X732792*
X737701Y1078750D02*
X737428Y1078375D01*
X737701Y1078000*
X737974Y1078375*
X737701Y1078750*
X742064Y1085875D02*
X741246Y1085500D01*
X740701Y1084375*
X740428Y1082500*
Y1081375*
X740701Y1079500*
X741246Y1078375*
X742064Y1078000*
X742610*
X743428Y1078375*
X743974Y1079500*
X744246Y1081375*
Y1082500*
X743974Y1084375*
X743428Y1085500*
X742610Y1085875*
X742064*
X502428Y1061875D02*
X499701Y1056625D01*
X503792*
X502428Y1061875D02*
Y1054000D01*
X506792Y1061875D02*
X509792D01*
X508155Y1058875*
X508974*
X509519Y1058500*
X509792Y1058125*
X510064Y1057000*
Y1056250*
X509792Y1055125*
X509246Y1054375*
X508428Y1054000*
X507610*
X506792Y1054375*
X506519Y1054750*
X506246Y1055500*
X512792Y1054750D02*
X512519Y1054375D01*
X512792Y1054000*
X513064Y1054375*
X512792Y1054750*
X516064Y1061875D02*
X519064D01*
X517428Y1058875*
X518246*
X518792Y1058500*
X519064Y1058125*
X519337Y1057000*
Y1056250*
X519064Y1055125*
X518519Y1054375*
X517701Y1054000*
X516883*
X516064Y1054375*
X515792Y1054750*
X515519Y1055500*
X521792Y1060375D02*
X522337Y1060750D01*
X523155Y1061875*
Y1054000*
X595337Y1061875D02*
X592610Y1056625D01*
X596701*
X595337Y1061875D02*
Y1054000D01*
X625701Y1060000D02*
X637701D01*
X631701Y1054000D02*
Y1066000D01*
X636446Y1069300D02*
X634701Y1063000D01*
X636446Y1069300D02*
X638192Y1063000D01*
X635355Y1065100D02*
X637537D01*
X658337Y1061875D02*
X660519Y1058125D01*
Y1054000*
X662701Y1061875D02*
X660519Y1058125D01*
X665155Y1061875D02*
Y1054000D01*
Y1061875D02*
X668701D01*
X665155Y1058125D02*
X667337D01*
X665155Y1054000D02*
X668701D01*
X674974Y1060750D02*
X674428Y1061500D01*
X673610Y1061875*
X672519*
X671701Y1061500*
X671155Y1060750*
Y1060000*
X671428Y1059250*
X671701Y1058875*
X672246Y1058500*
X673883Y1057750*
X674428Y1057375*
X674701Y1057000*
X674974Y1056250*
Y1055125*
X674428Y1054375*
X673610Y1054000*
X672519*
X671701Y1054375*
X671155Y1055125*
X711519Y1060750D02*
Y1054000D01*
X709064Y1057375D02*
X713974D01*
X721337Y1063375D02*
X716428Y1051375D01*
X723792Y1057375D02*
X728701D01*
X732792Y1061875D02*
X731974Y1061500D01*
X731428Y1060375*
X731155Y1058500*
Y1057375*
X731428Y1055500*
X731974Y1054375*
X732792Y1054000*
X733337*
X734155Y1054375*
X734701Y1055500*
X734974Y1057375*
Y1058500*
X734701Y1060375*
X734155Y1061500*
X733337Y1061875*
X732792*
X737701Y1054750D02*
X737428Y1054375D01*
X737701Y1054000*
X737974Y1054375*
X737701Y1054750*
X742064Y1061875D02*
X741246Y1061500D01*
X740701Y1060375*
X740428Y1058500*
Y1057375*
X740701Y1055500*
X741246Y1054375*
X742064Y1054000*
X742610*
X743428Y1054375*
X743974Y1055500*
X744246Y1057375*
Y1058500*
X743974Y1060375*
X743428Y1061500*
X742610Y1061875*
X742064*
X500246Y1037875D02*
X503246D01*
X501610Y1034875*
X502428*
X502974Y1034500*
X503246Y1034125*
X503519Y1033000*
Y1032250*
X503246Y1031125*
X502701Y1030375*
X501883Y1030000*
X501064*
X500246Y1030375*
X499974Y1030750*
X499701Y1031500*
X509519Y1035250D02*
X509246Y1034125D01*
X508701Y1033375*
X507883Y1033000*
X507610*
X506792Y1033375*
X506246Y1034125*
X505974Y1035250*
Y1035625*
X506246Y1036750*
X506792Y1037500*
X507610Y1037875*
X507883*
X508701Y1037500*
X509246Y1036750*
X509519Y1035250*
Y1033375*
X509246Y1031500*
X508701Y1030375*
X507883Y1030000*
X507337*
X506519Y1030375*
X506246Y1031125*
X512246Y1030750D02*
X511974Y1030375D01*
X512246Y1030000*
X512519Y1030375*
X512246Y1030750*
X515519Y1037875D02*
X518519D01*
X516883Y1034875*
X517701*
X518246Y1034500*
X518519Y1034125*
X518792Y1033000*
Y1032250*
X518519Y1031125*
X517974Y1030375*
X517155Y1030000*
X516337*
X515519Y1030375*
X515246Y1030750*
X514974Y1031500*
X525064Y1037875D02*
X522337Y1030000D01*
X521246Y1037875D02*
X525064D01*
X533792Y1035250D02*
X536792Y1030000D01*
Y1035250D02*
X533792Y1030000D01*
X549064Y1035250D02*
X548792Y1034125D01*
X548246Y1033375*
X547428Y1033000*
X547155*
X546337Y1033375*
X545792Y1034125*
X545519Y1035250*
Y1035625*
X545792Y1036750*
X546337Y1037500*
X547155Y1037875*
X547428*
X548246Y1037500*
X548792Y1036750*
X549064Y1035250*
Y1033375*
X548792Y1031500*
X548246Y1030375*
X547428Y1030000*
X546883*
X546064Y1030375*
X545792Y1031125*
X553155Y1037875D02*
X552337Y1037500D01*
X551792Y1036375*
X551519Y1034500*
Y1033375*
X551792Y1031500*
X552337Y1030375*
X553155Y1030000*
X553701*
X554519Y1030375*
X555064Y1031500*
X555337Y1033375*
Y1034500*
X555064Y1036375*
X554519Y1037500*
X553701Y1037875*
X553155*
X558064Y1030750D02*
X557792Y1030375D01*
X558064Y1030000*
X558337Y1030375*
X558064Y1030750*
X564337Y1037875D02*
X561610D01*
X561337Y1034500*
X561610Y1034875*
X562428Y1035250*
X563246*
X564064Y1034875*
X564610Y1034125*
X564883Y1033000*
X564610Y1032250*
X564337Y1031125*
X563792Y1030375*
X562974Y1030000*
X562155*
X561337Y1030375*
X561064Y1030750*
X560792Y1031500*
X570883Y1037875D02*
X568155D01*
X567883Y1034500*
X568155Y1034875*
X568974Y1035250*
X569792*
X570610Y1034875*
X571155Y1034125*
X571428Y1033000*
X571155Y1032250*
X570883Y1031125*
X570337Y1030375*
X569519Y1030000*
X568701*
X567883Y1030375*
X567610Y1030750*
X567337Y1031500*
X593019Y1036000D02*
Y1036375D01*
X593292Y1037125*
X593564Y1037500*
X594110Y1037875*
X595201*
X595746Y1037500*
X596019Y1037125*
X596292Y1036375*
Y1035625*
X596019Y1034875*
X595474Y1033750*
X592746Y1030000*
X596564*
X625701Y1036000D02*
X637701D01*
X631701Y1030000D02*
Y1042000D01*
X634701Y1045300D02*
Y1039000D01*
Y1045300D02*
X636664D01*
X637319Y1045000*
X637537Y1044700*
X637755Y1044100*
Y1043500*
X637537Y1042900*
X637319Y1042600*
X636664Y1042300*
X634701D02*
X636664D01*
X637319Y1042000*
X637537Y1041700*
X637755Y1041100*
Y1040200*
X637537Y1039600*
X637319Y1039300*
X636664Y1039000*
X634701*
X658337Y1037875D02*
X660519Y1034125D01*
Y1030000*
X662701Y1037875D02*
X660519Y1034125D01*
X665155Y1037875D02*
Y1030000D01*
Y1037875D02*
X668701D01*
X665155Y1034125D02*
X667337D01*
X665155Y1030000D02*
X668701D01*
X674974Y1036750D02*
X674428Y1037500D01*
X673610Y1037875*
X672519*
X671701Y1037500*
X671155Y1036750*
Y1036000*
X671428Y1035250*
X671701Y1034875*
X672246Y1034500*
X673883Y1033750*
X674428Y1033375*
X674701Y1033000*
X674974Y1032250*
Y1031125*
X674428Y1030375*
X673610Y1030000*
X672519*
X671701Y1030375*
X671155Y1031125*
X711519Y1036750D02*
Y1030000D01*
X709064Y1033375D02*
X713974D01*
X721337Y1039375D02*
X716428Y1027375D01*
X723792Y1033375D02*
X728701D01*
X732792Y1037875D02*
X731974Y1037500D01*
X731428Y1036375*
X731155Y1034500*
Y1033375*
X731428Y1031500*
X731974Y1030375*
X732792Y1030000*
X733337*
X734155Y1030375*
X734701Y1031500*
X734974Y1033375*
Y1034500*
X734701Y1036375*
X734155Y1037500*
X733337Y1037875*
X732792*
X737701Y1030750D02*
X737428Y1030375D01*
X737701Y1030000*
X737974Y1030375*
X737701Y1030750*
X742064Y1037875D02*
X741246Y1037500D01*
X740701Y1036375*
X740428Y1034500*
Y1033375*
X740701Y1031500*
X741246Y1030375*
X742064Y1030000*
X742610*
X743428Y1030375*
X743974Y1031500*
X744246Y1033375*
Y1034500*
X743974Y1036375*
X743428Y1037500*
X742610Y1037875*
X742064*
X499701Y1012375D02*
X500246Y1012750D01*
X501064Y1013875*
Y1006000*
X503792Y1012000D02*
Y1012375D01*
X504064Y1013125*
X504337Y1013500*
X504883Y1013875*
X505974*
X506519Y1013500*
X506792Y1013125*
X507064Y1012375*
Y1011625*
X506792Y1010875*
X506246Y1009750*
X503519Y1006000*
X507337*
X596155Y1013875D02*
X593428D01*
X593155Y1010500*
X593428Y1010875*
X594246Y1011250*
X595064*
X595883Y1010875*
X596428Y1010125*
X596701Y1009000*
X596428Y1008250*
X596155Y1007125*
X595610Y1006375*
X594792Y1006000*
X593974*
X593155Y1006375*
X592883Y1006750*
X592610Y1007500*
X625701Y1012000D02*
X637701D01*
X631701Y1006000D02*
Y1018000D01*
X637974Y1019800D02*
X637755Y1020400D01*
X637319Y1021000*
X636883Y1021300*
X636010*
X635574Y1021000*
X635137Y1020400*
X634919Y1019800*
X634701Y1018900*
Y1017400*
X634919Y1016500*
X635137Y1015900*
X635574Y1015300*
X636010Y1015000*
X636883*
X637319Y1015300*
X637755Y1015900*
X637974Y1016500*
X658337Y1013875D02*
X660519Y1010125D01*
Y1006000*
X662701Y1013875D02*
X660519Y1010125D01*
X665155Y1013875D02*
Y1006000D01*
Y1013875D02*
X668701D01*
X665155Y1010125D02*
X667337D01*
X665155Y1006000D02*
X668701D01*
X674974Y1012750D02*
X674428Y1013500D01*
X673610Y1013875*
X672519*
X671701Y1013500*
X671155Y1012750*
Y1012000*
X671428Y1011250*
X671701Y1010875*
X672246Y1010500*
X673883Y1009750*
X674428Y1009375*
X674701Y1009000*
X674974Y1008250*
Y1007125*
X674428Y1006375*
X673610Y1006000*
X672519*
X671701Y1006375*
X671155Y1007125*
X711519Y1012750D02*
Y1006000D01*
X709064Y1009375D02*
X713974D01*
X721337Y1015375D02*
X716428Y1003375D01*
X723792Y1009375D02*
X728701D01*
X732792Y1013875D02*
X731974Y1013500D01*
X731428Y1012375*
X731155Y1010500*
Y1009375*
X731428Y1007500*
X731974Y1006375*
X732792Y1006000*
X733337*
X734155Y1006375*
X734701Y1007500*
X734974Y1009375*
Y1010500*
X734701Y1012375*
X734155Y1013500*
X733337Y1013875*
X732792*
X737701Y1006750D02*
X737428Y1006375D01*
X737701Y1006000*
X737974Y1006375*
X737701Y1006750*
X742064Y1013875D02*
X741246Y1013500D01*
X740701Y1012375*
X740428Y1010500*
Y1009375*
X740701Y1007500*
X741246Y1006375*
X742064Y1006000*
X742610*
X743428Y1006375*
X743974Y1007500*
X744246Y1009375*
Y1010500*
X743974Y1012375*
X743428Y1013500*
X742610Y1013875*
X742064*
G54D75*
G74*
X0Y0D02*
M02*
